<svg width="27" height="17" viewBox="0 0 27 17" fill="none" xmlns="http://www.w3.org/2000/svg">
<path d="M1.25439 7.57437C0.652573 7.57437 0.1647 8.06224 0.1647 8.66406C0.1647 9.26588 0.652573 9.75376 1.25439 9.75376L1.25439 7.57437ZM26.4578 9.4346C26.8833 9.00904 26.8833 8.31909 26.4578 7.89353L19.523 0.958759C19.0975 0.533207 18.4075 0.533207 17.982 0.958758C17.5564 1.38431 17.5564 2.07427 17.982 2.49982L24.1462 8.66406L17.982 14.8283C17.5564 15.2539 17.5564 15.9438 17.982 16.3694C18.4075 16.7949 19.0975 16.7949 19.523 16.3694L26.4578 9.4346ZM1.25439 9.75376L25.6873 9.75376L25.6873 7.57437L1.25439 7.57437L1.25439 9.75376Z" fill="white"/>
</svg>
