<svg width="23" height="14" viewBox="0 0 23 14" fill="none" xmlns="http://www.w3.org/2000/svg">
<path d="M1.63733 5.76247C1.14371 5.76247 0.743546 6.16263 0.743545 6.65625C0.743545 7.14987 1.14371 7.55003 1.63733 7.55003L1.63733 5.76247ZM22.3095 7.28825C22.6586 6.93921 22.6586 6.3733 22.3095 6.02425L16.6215 0.336247C16.2725 -0.0127976 15.7066 -0.0127976 15.3575 0.336247C15.0085 0.685291 15.0085 1.2512 15.3575 1.60025L20.4135 6.65625L15.3575 11.7123C15.0085 12.0613 15.0085 12.6272 15.3575 12.9763C15.7066 13.3253 16.2725 13.3253 16.6215 12.9763L22.3095 7.28825ZM1.63733 7.55003L21.6775 7.55004L21.6775 5.76247L1.63733 5.76247L1.63733 7.55003Z" fill="white"/>
</svg>
