<svg width="21" height="13" viewBox="0 0 21 13" fill="none" xmlns="http://www.w3.org/2000/svg">
<path d="M0.962891 5.81413C0.502653 5.81413 0.129557 6.18722 0.129557 6.64746C0.129557 7.1077 0.502653 7.48079 0.962891 7.48079L0.962891 5.81413ZM20.2369 7.23672C20.5624 6.91128 20.5624 6.38364 20.2369 6.05821L14.9336 0.754906C14.6082 0.42947 14.0806 0.42947 13.7551 0.754906C13.4297 1.08034 13.4297 1.60798 13.7551 1.93342L18.4692 6.64746L13.7551 11.3615C13.4297 11.6869 13.4297 12.2146 13.7551 12.54C14.0806 12.8655 14.6082 12.8655 14.9336 12.54L20.2369 7.23672ZM0.962891 7.48079L19.6477 7.4808L19.6477 5.81413L0.962891 5.81413L0.962891 7.48079Z" fill="white"/>
</svg>
