<svg width="27" height="17" viewBox="0 0 27 17" fill="none" xmlns="http://www.w3.org/2000/svg">
<path d="M1.25439 7.18179C0.652573 7.18179 0.1647 7.66966 0.1647 8.27148C0.1647 8.87331 0.652573 9.36118 1.25439 9.36118L1.25439 7.18179ZM26.4578 9.04202C26.8833 8.61646 26.8833 7.92651 26.4578 7.50096L19.523 0.56618C19.0975 0.140628 18.4075 0.140628 17.982 0.56618C17.5564 0.991733 17.5564 1.68169 17.982 2.10724L24.1462 8.27149L17.982 14.4357C17.5564 14.8613 17.5564 15.5512 17.982 15.9768C18.4075 16.4023 19.0975 16.4023 19.523 15.9768L26.4578 9.04202ZM1.25439 9.36118L25.6873 9.36118L25.6873 7.18179L1.25439 7.18179L1.25439 9.36118Z" fill="white"/>
</svg>
