<svg width="27" height="17" viewBox="0 0 27 17" fill="none" xmlns="http://www.w3.org/2000/svg">
<path d="M1.91309 7.49567C1.33792 7.49567 0.871647 7.96194 0.871647 8.53711C0.871647 9.11228 1.33792 9.57855 1.91309 9.57855L1.91309 7.49567ZM26.0004 9.27352C26.4071 8.86681 26.4071 8.20741 26.0004 7.8007L19.3727 1.17303C18.966 0.766318 18.3066 0.766318 17.8999 1.17303C17.4932 1.57973 17.4932 2.23914 17.8999 2.64584L23.7912 8.53711L17.8999 14.4284C17.4932 14.8351 17.4932 15.4945 17.8999 15.9012C18.3066 16.3079 18.966 16.3079 19.3727 15.9012L26.0004 9.27352ZM1.91309 9.57855L25.264 9.57855L25.264 7.49567L1.91309 7.49567L1.91309 9.57855Z" fill="white"/>
</svg>
