<svg width="27" height="17" viewBox="0 0 27 17" fill="none" xmlns="http://www.w3.org/2000/svg">
<path d="M1.91309 7.32477C1.33792 7.32477 0.871647 7.79104 0.871647 8.36621C0.871647 8.94138 1.33792 9.40765 1.91309 9.40765L1.91309 7.32477ZM26.0004 9.10262C26.4071 8.69591 26.4071 8.03651 26.0004 7.6298L19.3727 1.00213C18.966 0.59542 18.3066 0.59542 17.8999 1.00213C17.4932 1.40883 17.4932 2.06824 17.8999 2.47494L23.7912 8.36621L17.8999 14.2575C17.4932 14.6642 17.4932 15.3236 17.8999 15.7303C18.3066 16.137 18.966 16.137 19.3727 15.7303L26.0004 9.10262ZM1.91309 9.40765L25.264 9.40765L25.264 7.32477L1.91309 7.32477L1.91309 9.40765Z" fill="white"/>
</svg>
