<svg width="21" height="13" viewBox="0 0 21 13" fill="none" xmlns="http://www.w3.org/2000/svg">
<path d="M0.962952 5.98503C0.502715 5.98503 0.129619 6.35812 0.129618 6.81836C0.129618 7.2786 0.502714 7.65169 0.962952 7.65169L0.962952 5.98503ZM20.237 7.40762C20.5624 7.08218 20.5624 6.55454 20.237 6.22911L14.9337 0.925805C14.6083 0.600368 14.0806 0.600368 13.7552 0.925805C13.4298 1.25124 13.4298 1.77888 13.7552 2.10432L18.4692 6.81836L13.7552 11.5324C13.4298 11.8578 13.4298 12.3855 13.7552 12.7109C14.0806 13.0364 14.6083 13.0364 14.9337 12.7109L20.237 7.40762ZM0.962952 7.65169L19.6477 7.65169L19.6477 5.98503L0.962952 5.98503L0.962952 7.65169Z" fill="white"/>
</svg>
