<svg width="38" height="23" viewBox="0 0 38 23" fill="none" xmlns="http://www.w3.org/2000/svg">
<path d="M2.33301 9.96436C1.50458 9.96436 0.833008 10.6359 0.833008 11.4644C0.833008 12.2928 1.50458 12.9644 2.33301 12.9644L2.33301 9.96436ZM37.0263 12.525C37.6121 11.9392 37.6121 10.9895 37.0263 10.4037L27.4804 0.857756C26.8946 0.271969 25.9448 0.271969 25.359 0.857756C24.7732 1.44354 24.7732 2.39329 25.359 2.97908L33.8443 11.4644L25.359 19.9496C24.7732 20.5354 24.7732 21.4852 25.359 22.071C25.9448 22.6567 26.8946 22.6567 27.4804 22.071L37.0263 12.525ZM2.33301 12.9644L35.9656 12.9644L35.9656 9.96436L2.33301 9.96436L2.33301 12.9644Z" fill="white"/>
</svg>
