<svg width="38" height="23" viewBox="0 0 38 23" fill="none" xmlns="http://www.w3.org/2000/svg">
<path d="M2 9.64746C1.17157 9.64746 0.5 10.319 0.5 11.1475C0.5 11.9759 1.17157 12.6475 2 12.6475L2 9.64746ZM36.6933 12.2081C37.2791 11.6223 37.2791 10.6726 36.6933 10.0868L27.1473 0.540861C26.5616 -0.0449254 25.6118 -0.0449255 25.026 0.540861C24.4402 1.12665 24.4402 2.0764 25.026 2.66218L33.5113 11.1475L25.026 19.6327C24.4402 20.2185 24.4402 21.1683 25.026 21.7541C25.6118 22.3399 26.5616 22.3399 27.1473 21.7541L36.6933 12.2081ZM2 12.6475L35.6326 12.6475L35.6326 9.64746L2 9.64746L2 12.6475Z" fill="white"/>
</svg>
