<svg width="38" height="24" viewBox="0 0 38 24" fill="none" xmlns="http://www.w3.org/2000/svg">
<path d="M2 10.5C1.17157 10.5 0.5 11.1716 0.5 12C0.5 12.8284 1.17157 13.5 2 13.5L2 10.5ZM36.6933 13.0607C37.2791 12.4749 37.2791 11.5251 36.6933 10.9393L27.1473 1.3934C26.5616 0.807614 25.6118 0.807614 25.026 1.3934C24.4402 1.97919 24.4402 2.92893 25.026 3.51472L33.5113 12L25.026 20.4853C24.4402 21.0711 24.4402 22.0208 25.026 22.6066C25.6118 23.1924 26.5616 23.1924 27.1473 22.6066L36.6933 13.0607ZM2 13.5L35.6326 13.5L35.6326 10.5L2 10.5L2 13.5Z" fill="white"/>
</svg>
