<svg width="23" height="15" viewBox="0 0 23 15" fill="none" xmlns="http://www.w3.org/2000/svg">
<path d="M1.63745 6.59157C1.14383 6.59157 0.743668 6.99173 0.743668 7.48535C0.743667 7.97897 1.14383 8.37914 1.63745 8.37914L1.63745 6.59157ZM22.3096 8.11735C22.6587 7.76831 22.6587 7.2024 22.3096 6.85335L16.6216 1.16535C16.2726 0.816304 15.7067 0.816304 15.3576 1.16535C15.0086 1.51439 15.0086 2.0803 15.3576 2.42935L20.4136 7.48535L15.3576 12.5414C15.0086 12.8904 15.0086 13.4563 15.3576 13.8054C15.7067 14.1544 16.2726 14.1544 16.6216 13.8054L22.3096 8.11735ZM1.63745 8.37914L21.6776 8.37914L21.6776 6.59157L1.63745 6.59157L1.63745 8.37914Z" fill="white"/>
</svg>
