<svg width="38" height="23" viewBox="0 0 38 23" fill="none" xmlns="http://www.w3.org/2000/svg">
<path d="M2.33301 9.9541C1.50458 9.9541 0.833008 10.6257 0.833008 11.4541C0.833008 12.2825 1.50458 12.9541 2.33301 12.9541L2.33301 9.9541ZM37.0263 12.5148C37.6121 11.929 37.6121 10.9792 37.0263 10.3934L27.4804 0.847502C26.8946 0.261715 25.9448 0.261715 25.359 0.847502C24.7732 1.43329 24.7732 2.38304 25.359 2.96882L33.8443 11.4541L25.359 19.9394C24.7732 20.5252 24.7732 21.4749 25.359 22.0607C25.9448 22.6465 26.8946 22.6465 27.4804 22.0607L37.0263 12.5148ZM2.33301 12.9541L35.9656 12.9541L35.9656 9.9541L2.33301 9.9541L2.33301 12.9541Z" fill="white"/>
</svg>
