<svg width="367" height="464" viewBox="0 0 367 464" fill="none" xmlns="http://www.w3.org/2000/svg">
<g filter="url(#filter0_f_1513_7262)">
<path d="M104.313 332.394C57.668 222.986 110.412 316.984 148.753 193.779C146.555 172.128 137.654 124.08 138.753 100.758C139.852 77.4353 162.075 85.2502 224.227 108.573C286.379 131.895 198.945 144.325 238.386 193.779C277.826 243.232 281.984 312.979 279.786 315.665C277.588 318.351 150.957 441.801 104.313 332.394Z" fill="url(#paint0_linear_1513_7262)" fill-opacity="0.6"/>
<path d="M104.313 332.394C57.668 222.986 110.412 316.984 148.753 193.779C146.555 172.128 137.654 124.08 138.753 100.758C139.852 77.4353 162.075 85.2502 224.227 108.573C286.379 131.895 198.945 144.325 238.386 193.779C277.826 243.232 281.984 312.979 279.786 315.665C277.588 318.351 150.957 441.801 104.313 332.394Z" stroke="black" stroke-width="0.244213"/>
</g>
<defs>
<filter id="filter0_f_1513_7262" x="0.168457" y="0.850342" width="365.93" height="462.541" filterUnits="userSpaceOnUse" color-interpolation-filters="sRGB">
<feFlood flood-opacity="0" result="BackgroundImageFix"/>
<feBlend mode="normal" in="SourceGraphic" in2="BackgroundImageFix" result="shape"/>
<feGaussianBlur stdDeviation="42.8594" result="effect1_foregroundBlur_1513_7262"/>
</filter>
<linearGradient id="paint0_linear_1513_7262" x1="193.018" y1="86.6912" x2="193.018" y2="377.55" gradientUnits="userSpaceOnUse">
<stop stop-color="#358F43"/>
<stop offset="1" stop-color="#F0C024"/>
</linearGradient>
</defs>
</svg>
