<svg width="439" height="413" viewBox="0 0 439 413" fill="none" xmlns="http://www.w3.org/2000/svg">
<g filter="url(#filter0_f_1513_7314)">
<path d="M259.964 324.373C144.066 297.666 251.099 310.371 174.081 206.844C155.286 195.874 111.207 174.782 93.0015 160.163C74.7964 145.544 94.1968 132.181 149.64 95.6724C205.083 59.1634 163.656 137.157 226.85 134.391C290.044 131.625 348.87 169.326 349.748 172.684C350.625 176.042 375.863 351.08 259.964 324.373Z" fill="url(#paint0_linear_1513_7314)" fill-opacity="0.6"/>
<path d="M259.964 324.373C144.066 297.666 251.099 310.371 174.081 206.844C155.286 195.874 111.207 174.782 93.0015 160.163C74.7964 145.544 94.1968 132.181 149.64 95.6724C205.083 59.1634 163.656 137.157 226.85 134.391C290.044 131.625 348.87 169.326 349.748 172.684C350.625 176.042 375.863 351.08 259.964 324.373Z" stroke="black" stroke-width="0.244213"/>
</g>
<defs>
<filter id="filter0_f_1513_7314" x="0.528442" y="0.0827637" width="437.969" height="412.902" filterUnits="userSpaceOnUse" color-interpolation-filters="sRGB">
<feFlood flood-opacity="0" result="BackgroundImageFix"/>
<feBlend mode="normal" in="SourceGraphic" in2="BackgroundImageFix" result="shape"/>
<feGaussianBlur stdDeviation="42.8594" result="effect1_foregroundBlur_1513_7314"/>
</filter>
<linearGradient id="paint0_linear_1513_7314" x1="113.578" y1="108.018" x2="348.689" y2="279.255" gradientUnits="userSpaceOnUse">
<stop stop-color="#358F43"/>
<stop offset="1" stop-color="#F0C024"/>
</linearGradient>
</defs>
</svg>
