<svg width="837" height="1057" viewBox="0 0 837 1057" fill="none" xmlns="http://www.w3.org/2000/svg">
<g filter="url(#filter0_f_1513_7235)">
<path d="M238.068 757.554C131.515 507.628 252.001 722.353 339.586 440.907C334.566 391.45 314.231 281.691 316.742 228.414C319.252 175.138 370.018 192.989 511.996 246.266C653.974 299.543 454.243 327.939 544.339 440.907C634.435 553.876 643.932 713.203 638.912 719.34C633.891 725.477 344.621 1007.48 238.068 757.554Z" fill="url(#paint0_linear_1513_7235)" fill-opacity="0.6"/>
<path d="M238.068 757.554C131.515 507.628 252.001 722.353 339.586 440.907C334.566 391.45 314.231 281.691 316.742 228.414C319.252 175.138 370.018 192.989 511.996 246.266C653.974 299.543 454.243 327.939 544.339 440.907C634.435 553.876 643.932 713.203 638.912 719.34C633.891 725.477 344.621 1007.48 238.068 757.554Z" stroke="black" stroke-width="0.55787"/>
</g>
<defs>
<filter id="filter0_f_1513_7235" x="0.165039" y="0.189697" width="835.915" height="1056.61" filterUnits="userSpaceOnUse" color-interpolation-filters="sRGB">
<feFlood flood-opacity="0" result="BackgroundImageFix"/>
<feBlend mode="normal" in="SourceGraphic" in2="BackgroundImageFix" result="shape"/>
<feGaussianBlur stdDeviation="97.9062" result="effect1_foregroundBlur_1513_7235"/>
</filter>
<linearGradient id="paint0_linear_1513_7235" x1="440.702" y1="196.281" x2="440.702" y2="860.708" gradientUnits="userSpaceOnUse">
<stop stop-color="#358F43"/>
<stop offset="1" stop-color="#F0C024"/>
</linearGradient>
</defs>
</svg>
