<svg width="783" height="995" viewBox="0 0 783 995" fill="none" xmlns="http://www.w3.org/2000/svg">
<g filter="url(#filter0_f_1690_5097)">
<path d="M218.291 718.101C115.634 477.268 231.715 684.18 316.098 412.975C311.261 365.317 291.67 259.551 294.088 208.213C296.507 156.874 345.417 174.077 482.203 225.415C618.99 276.753 426.562 304.116 513.363 412.975C600.165 521.833 609.316 675.363 604.478 681.277C599.641 687.19 320.949 958.933 218.291 718.101Z" fill="url(#paint0_linear_1690_5097)" fill-opacity="0.6"/>
<path d="M218.291 718.101C115.634 477.268 231.715 684.18 316.098 412.975C311.261 365.317 291.67 259.551 294.088 208.213C296.507 156.874 345.417 174.077 482.203 225.415C618.99 276.753 426.562 304.116 513.363 412.975C600.165 521.833 609.316 675.363 604.478 681.277C599.641 687.19 320.949 958.933 218.291 718.101Z" stroke="black" stroke-width="0.504136"/>
</g>
<defs>
<filter id="filter0_f_1690_5097" x="0.805023" y="0.0448914" width="781.915" height="994.661" filterUnits="userSpaceOnUse" color-interpolation-filters="sRGB">
<feFlood flood-opacity="0" result="BackgroundImageFix"/>
<feBlend mode="normal" in="SourceGraphic" in2="BackgroundImageFix" result="shape"/>
<feGaussianBlur stdDeviation="88.4759" result="effect1_foregroundBlur_1690_5097"/>
</filter>
<linearGradient id="paint0_linear_1690_5097" x1="413.516" y1="177.249" x2="413.516" y2="817.502" gradientUnits="userSpaceOnUse">
<stop stop-color="#358F43"/>
<stop offset="1" stop-color="#F0C024"/>
</linearGradient>
</defs>
</svg>
