<svg width="1499" height="1895" viewBox="0 0 1499 1895" fill="none" xmlns="http://www.w3.org/2000/svg">
<g filter="url(#filter0_f_1563_50873)">
<path d="M426.448 1358.1C235.448 910.099 451.423 1295 608.423 790.5C599.423 701.846 562.973 505.099 567.473 409.599C571.973 314.099 662.973 346.099 917.473 441.599C1171.97 537.099 813.948 588 975.448 790.5C1136.95 993 1153.97 1278.6 1144.97 1289.6C1135.97 1300.6 617.448 1806.1 426.448 1358.1Z" fill="url(#paint0_linear_1563_50873)" fill-opacity="0.6"/>
<path d="M426.448 1358.1C235.448 910.099 451.423 1295 608.423 790.5C599.423 701.846 562.973 505.099 567.473 409.599C571.973 314.099 662.973 346.099 917.473 441.599C1171.97 537.099 813.948 588 975.448 790.5C1136.95 993 1153.97 1278.6 1144.97 1289.6C1135.97 1300.6 617.448 1806.1 426.448 1358.1Z" stroke="black"/>
</g>
<defs>
<filter id="filter0_f_1563_50873" x="0" y="0.5" width="1498.4" height="1894.01" filterUnits="userSpaceOnUse" color-interpolation-filters="sRGB">
<feFlood flood-opacity="0" result="BackgroundImageFix"/>
<feBlend mode="normal" in="SourceGraphic" in2="BackgroundImageFix" result="shape"/>
<feGaussianBlur stdDeviation="175.5" result="effect1_foregroundBlur_1563_50873"/>
</filter>
<linearGradient id="paint0_linear_1563_50873" x1="789.677" y1="352" x2="789.677" y2="1543.01" gradientUnits="userSpaceOnUse">
<stop stop-color="#358F43"/>
<stop offset="1" stop-color="#F0C024"/>
</linearGradient>
</defs>
</svg>
