<svg width="375" height="473" viewBox="0 0 375 473" fill="none" xmlns="http://www.w3.org/2000/svg">
<g filter="url(#filter0_f_1563_51069)">
<path d="M106.712 339.079C59.0263 227.23 112.947 323.325 152.144 197.371C149.897 175.237 140.797 126.117 141.92 102.274C143.044 78.4317 165.763 86.4209 229.302 110.264C292.841 134.106 203.456 146.814 243.776 197.371C284.097 247.927 288.347 319.231 286.1 321.977C283.853 324.723 154.397 450.927 106.712 339.079Z" fill="url(#paint0_linear_1563_51069)" fill-opacity="0.6"/>
<path d="M106.712 339.079C59.0263 227.23 112.947 323.325 152.144 197.371C149.897 175.237 140.797 126.117 141.92 102.274C143.044 78.4317 165.763 86.4209 229.302 110.264C292.841 134.106 203.456 146.814 243.776 197.371C284.097 247.927 288.347 319.231 286.1 321.977C283.853 324.723 154.397 450.927 106.712 339.079Z" stroke="black" stroke-width="0.249662"/>
</g>
<defs>
<filter id="filter0_f_1563_51069" x="0.243637" y="0.137924" width="374.095" height="472.861" filterUnits="userSpaceOnUse" color-interpolation-filters="sRGB">
<feFlood flood-opacity="0" result="BackgroundImageFix"/>
<feBlend mode="normal" in="SourceGraphic" in2="BackgroundImageFix" result="shape"/>
<feGaussianBlur stdDeviation="43.8157" result="effect1_foregroundBlur_1563_51069"/>
</filter>
<linearGradient id="paint0_linear_1563_51069" x1="197.396" y1="87.894" x2="197.396" y2="385.243" gradientUnits="userSpaceOnUse">
<stop stop-color="#358F43"/>
<stop offset="1" stop-color="#F0C024"/>
</linearGradient>
</defs>
</svg>
