<svg width="765" height="1244" viewBox="0 0 765 1244" fill="none" xmlns="http://www.w3.org/2000/svg">
<g filter="url(#filter0_f_1563_51086)">
<path d="M313.112 846.824C272.05 601.949 318.482 812.334 352.234 536.576C350.299 488.119 342.463 380.577 343.431 328.377C344.398 276.177 363.962 293.669 418.675 345.869C473.389 398.068 396.419 425.891 431.139 536.576C465.859 647.262 469.519 803.37 467.584 809.382C465.649 815.395 354.174 1091.7 313.112 846.824Z" fill="url(#paint0_linear_1563_51086)" fill-opacity="0.6"/>
<path d="M313.112 846.824C272.05 601.949 318.482 812.334 352.234 536.576C350.299 488.119 342.463 380.577 343.431 328.377C344.398 276.177 363.962 293.669 418.675 345.869C473.389 398.068 396.419 425.891 431.139 536.576C465.859 647.262 469.519 803.37 467.584 809.382C465.649 815.395 354.174 1091.7 313.112 846.824Z" stroke="black" stroke-width="0.842268"/>
</g>
<defs>
<filter id="filter0_f_1563_51086" x="0.942047" y="0.836578" width="763.114" height="1243.11" filterUnits="userSpaceOnUse" color-interpolation-filters="sRGB">
<feFlood flood-opacity="0" result="BackgroundImageFix"/>
<feBlend mode="normal" in="SourceGraphic" in2="BackgroundImageFix" result="shape"/>
<feGaussianBlur stdDeviation="147.818" result="effect1_foregroundBlur_1563_51086"/>
</filter>
<linearGradient id="paint0_linear_1563_51086" x1="391.201" y1="296.894" x2="391.201" y2="947.894" gradientUnits="userSpaceOnUse">
<stop stop-color="#358F43"/>
<stop offset="1" stop-color="#F0C024"/>
</linearGradient>
</defs>
</svg>
