<svg width="304" height="383" viewBox="0 0 304 383" fill="none" xmlns="http://www.w3.org/2000/svg">
<g filter="url(#filter0_f_1513_7312)">
<path d="M86.9774 274.619C48.428 184.2 92.018 261.884 123.705 160.061C121.889 142.168 114.532 102.459 115.44 83.1841C116.349 63.9094 134.715 70.3679 186.08 89.6426C237.446 108.917 165.186 119.191 197.782 160.061C230.377 200.931 233.813 258.574 231.997 260.794C230.18 263.014 125.527 365.038 86.9774 274.619Z" fill="url(#paint0_linear_1513_7312)" fill-opacity="0.6"/>
<path d="M86.9774 274.619C48.428 184.2 92.018 261.884 123.705 160.061C121.889 142.168 114.532 102.459 115.44 83.1841C116.349 63.9094 134.715 70.3679 186.08 89.6426C237.446 108.917 165.186 119.191 197.782 160.061C230.377 200.931 233.813 258.574 231.997 260.794C230.18 263.014 125.527 365.038 86.9774 274.619Z" stroke="black" stroke-width="0.201829"/>
</g>
<defs>
<filter id="filter0_f_1513_7312" x="0.9076" y="0.615974" width="302.422" height="382.266" filterUnits="userSpaceOnUse" color-interpolation-filters="sRGB">
<feFlood flood-opacity="0" result="BackgroundImageFix"/>
<feBlend mode="normal" in="SourceGraphic" in2="BackgroundImageFix" result="shape"/>
<feGaussianBlur stdDeviation="35.421" result="effect1_foregroundBlur_1513_7312"/>
</filter>
<linearGradient id="paint0_linear_1513_7312" x1="160.287" y1="71.5588" x2="160.287" y2="311.939" gradientUnits="userSpaceOnUse">
<stop stop-color="#358F43"/>
<stop offset="1" stop-color="#F0C024"/>
</linearGradient>
</defs>
</svg>
