<svg width="1220" height="1477" viewBox="0 0 1220 1477" fill="none" xmlns="http://www.w3.org/2000/svg">
<g filter="url(#filter0_f_1563_51036)">
<path d="M400.621 1004.51C276.714 713.748 416.823 963.56 518.673 636.124C512.834 578.585 489.188 450.891 492.108 388.908C495.027 326.926 554.061 347.695 719.162 409.677C884.263 471.66 652.003 504.696 756.772 636.124C861.541 767.553 872.586 952.916 866.747 960.055C860.909 967.195 524.528 1295.28 400.621 1004.51Z" fill="url(#paint0_linear_1563_51036)" fill-opacity="0.6"/>
<path d="M400.621 1004.51C276.714 713.748 416.823 963.56 518.673 636.124C512.834 578.585 489.188 450.891 492.108 388.908C495.027 326.926 554.061 347.695 719.162 409.677C884.263 471.66 652.003 504.696 756.772 636.124C861.541 767.553 872.586 952.916 866.747 960.055C860.909 967.195 524.528 1295.28 400.621 1004.51Z" stroke="black"/>
</g>
<defs>
<filter id="filter0_f_1563_51036" x="0.5" y="0.0244141" width="1219" height="1476" filterUnits="userSpaceOnUse" color-interpolation-filters="sRGB">
<feFlood flood-opacity="0" result="BackgroundImageFix"/>
<feBlend mode="normal" in="SourceGraphic" in2="BackgroundImageFix" result="shape"/>
<feGaussianBlur stdDeviation="175.5" result="effect1_foregroundBlur_1563_51036"/>
</filter>
<linearGradient id="paint0_linear_1563_51036" x1="636.257" y1="351.524" x2="636.257" y2="1124.52" gradientUnits="userSpaceOnUse">
<stop stop-color="#358F43"/>
<stop offset="1" stop-color="#F0C024"/>
</linearGradient>
</defs>
</svg>
