<svg width="1397" height="1777" viewBox="0 0 1397 1777" fill="none" xmlns="http://www.w3.org/2000/svg">
<g filter="url(#filter0_f_1526_26346)">
<path d="M388.91 1282.49C205.654 852.571 412.872 1221.94 563.506 737.8C554.871 652.725 519.899 463.919 524.216 372.274C528.534 280.629 615.844 311.338 860.025 402.983C1104.21 494.628 760.698 543.474 915.65 737.8C1070.6 932.126 1086.94 1206.2 1078.3 1216.75C1069.67 1227.31 572.165 1712.4 388.91 1282.49Z" fill="url(#paint0_linear_1526_26346)" fill-opacity="0.6"/>
<path d="M388.91 1282.49C205.654 852.571 412.872 1221.94 563.506 737.8C554.871 652.725 519.899 463.919 524.216 372.274C528.534 280.629 615.844 311.338 860.025 402.983C1104.21 494.628 760.698 543.474 915.65 737.8C1070.6 932.126 1086.94 1206.2 1078.3 1216.75C1069.67 1227.31 572.165 1712.4 388.91 1282.49Z" stroke="black" stroke-width="0.899946"/>
</g>
<defs>
<filter id="filter0_f_1526_26346" x="0.668884" y="0.669128" width="1395.82" height="1775.59" filterUnits="userSpaceOnUse" color-interpolation-filters="sRGB">
<feFlood flood-opacity="0" result="BackgroundImageFix"/>
<feBlend mode="normal" in="SourceGraphic" in2="BackgroundImageFix" result="shape"/>
<feGaussianBlur stdDeviation="157.94" result="effect1_foregroundBlur_1526_26346"/>
</filter>
<linearGradient id="paint0_linear_1526_26346" x1="737.41" y1="317" x2="737.41" y2="1459.93" gradientUnits="userSpaceOnUse">
<stop stop-color="#358F43"/>
<stop offset="1" stop-color="#F0C024"/>
</linearGradient>
</defs>
</svg>
