<svg width="1040" height="1315" viewBox="0 0 1040 1315" fill="none" xmlns="http://www.w3.org/2000/svg">
<g filter="url(#filter0_f_1563_50923)">
<path d="M295.834 942.57C163.334 631.786 313.159 898.797 422.072 548.818C415.829 487.317 390.543 350.831 393.665 284.581C396.786 218.332 459.914 240.531 636.464 306.78C813.015 373.03 564.648 408.341 676.683 548.818C788.718 689.295 800.528 887.419 794.284 895.05C788.041 902.681 428.333 1253.35 295.834 942.57Z" fill="url(#paint0_linear_1563_50923)" fill-opacity="0.6"/>
<path d="M295.834 942.57C163.334 631.786 313.159 898.797 422.072 548.818C415.829 487.317 390.543 350.831 393.665 284.581C396.786 218.332 459.914 240.531 636.464 306.78C813.015 373.03 564.648 408.341 676.683 548.818C788.718 689.295 800.528 887.419 794.284 895.05C788.041 902.681 428.333 1253.35 295.834 942.57Z" stroke="black" stroke-width="0.693714"/>
</g>
<defs>
<filter id="filter0_f_1563_50923" x="0.000442505" y="0.783401" width="1039.46" height="1313.9" filterUnits="userSpaceOnUse" color-interpolation-filters="sRGB">
<feFlood flood-opacity="0" result="BackgroundImageFix"/>
<feBlend mode="normal" in="SourceGraphic" in2="BackgroundImageFix" result="shape"/>
<feGaussianBlur stdDeviation="121.747" result="effect1_foregroundBlur_1563_50923"/>
</filter>
<linearGradient id="paint0_linear_1563_50923" x1="547.81" y1="244.624" x2="547.81" y2="1070.84" gradientUnits="userSpaceOnUse">
<stop stop-color="#358F43"/>
<stop offset="1" stop-color="#F0C024"/>
</linearGradient>
</defs>
</svg>
