<svg width="76" height="20" viewBox="0 0 76 20" fill="none" xmlns="http://www.w3.org/2000/svg">
<mask id="mask0_1543_195407" style="mask-type:luminance" maskUnits="userSpaceOnUse" x="0" y="0" width="76" height="20">
<path d="M75.571 0.0419922H0.953125V19.983H75.571V0.0419922Z" fill="white"/>
</mask>
<g mask="url(#mask0_1543_195407)">
<path d="M9.05902 3.06017L2.24761 0.118479C2.10614 0.0572851 1.95195 0.0326841 1.79883 0.0468765C1.64571 0.0610688 1.49844 0.113612 1.3702 0.199805C1.24195 0.285998 1.13673 0.403153 1.06395 0.54079C0.991164 0.678426 0.953088 0.832251 0.953125 0.988503V8.55952C0.95312 8.7205 0.991498 8.87908 1.06497 9.02169C1.13845 9.1643 1.24484 9.28669 1.37502 9.37839C1.50521 9.47009 1.65533 9.52836 1.81252 9.54823C1.96971 9.56809 2.1293 9.54895 2.27762 9.49244L6.79683 7.7705L1.90066 5.6974C1.83056 5.66445 1.77574 5.60518 1.74772 5.53204C1.71969 5.45889 1.72065 5.37755 1.75038 5.30511C1.78011 5.23266 1.8363 5.17473 1.90716 5.14349C1.97802 5.11225 2.05803 5.11012 2.1304 5.13756L7.61591 7.45889L9.15795 6.87093C11.7966 5.94087 11.934 4.08266 9.05949 3.05922M9.70462 5.46822C9.67415 5.54229 9.61604 5.60107 9.54303 5.6317C9.47 5.66233 9.38802 5.66231 9.31501 5.63165L1.78908 2.44648C1.75291 2.43119 1.72005 2.4088 1.6924 2.3806C1.66474 2.35239 1.64282 2.31893 1.62788 2.28212C1.59772 2.20778 1.59786 2.12431 1.62826 2.05007C1.65867 1.97583 1.71684 1.9169 1.79 1.88625C1.86315 1.8556 1.94529 1.85574 2.01835 1.88664L9.54381 5.07276C9.58005 5.08803 9.61297 5.11043 9.64068 5.13866C9.66839 5.1669 9.69034 5.20041 9.70528 5.23728C9.72022 5.27415 9.72785 5.31366 9.72774 5.35353C9.72762 5.39341 9.71977 5.43287 9.70462 5.46965" fill="#CC0066"/>
<path d="M45.5844 12.1549C45.5889 12.3829 45.5539 12.6099 45.4813 12.8257C45.42 13.0046 45.3202 13.1674 45.1892 13.3022C45.0611 13.4302 44.9059 13.5267 44.7354 13.5843C44.5454 13.6477 44.3464 13.6787 44.1465 13.6762C44.0527 13.6762 43.9419 13.6719 43.8141 13.6634C43.6936 13.6566 43.5747 13.6322 43.461 13.5909C43.4027 13.5793 43.3502 13.5473 43.3126 13.5005C43.2751 13.4537 43.2547 13.395 43.2552 13.3346V10.9585C43.2524 10.9125 43.2676 10.8673 43.2974 10.8327C43.3291 10.8003 43.3681 10.7761 43.4109 10.7622C43.5224 10.7269 43.6373 10.7039 43.7536 10.6935C43.8755 10.6821 43.994 10.6764 44.109 10.6764C44.3127 10.6741 44.5155 10.7043 44.71 10.766C44.8848 10.8206 45.0451 10.9147 45.1789 11.0414C45.3117 11.1713 45.4144 11.3297 45.4794 11.505C45.5548 11.7127 45.5913 11.933 45.5868 12.1544M45.095 12.1587C45.0986 11.9946 45.0737 11.8312 45.0214 11.676C44.9782 11.5519 44.9076 11.4394 44.8151 11.3473C44.7263 11.2613 44.62 11.1963 44.5038 11.1567C44.3797 11.1146 44.2496 11.0937 44.1188 11.0947C43.9891 11.0925 43.8595 11.104 43.732 11.129V13.2226C43.7963 13.2378 43.8617 13.2478 43.9275 13.2526C43.9991 13.2584 44.0727 13.2612 44.1484 13.2612C44.2785 13.27 44.4089 13.2497 44.5304 13.2017C44.6519 13.1537 44.7616 13.0792 44.8516 12.9834C45.0289 12.7479 45.115 12.4544 45.0936 12.1587" fill="#CC0066"/>
<path d="M46.0812 10.7147C46.0801 10.6766 46.0864 10.6387 46.0998 10.6032C46.1132 10.5676 46.1333 10.5351 46.159 10.5074C46.1853 10.4797 46.217 10.4579 46.2522 10.4435C46.2873 10.4291 46.3251 10.4225 46.363 10.424C46.4002 10.4228 46.4372 10.4296 46.4716 10.444C46.506 10.4584 46.5371 10.48 46.5627 10.5074C46.6128 10.5645 46.6405 10.6382 46.6405 10.7147C46.6405 10.7911 46.6128 10.8649 46.5627 10.9219C46.5371 10.9494 46.506 10.971 46.4716 10.9854C46.4372 10.9998 46.4002 11.0066 46.363 11.0053C46.3251 11.0069 46.2873 11.0002 46.2522 10.9859C46.217 10.9715 46.1853 10.9497 46.159 10.9219C46.1333 10.8943 46.1131 10.8618 46.0998 10.8262C46.0864 10.7906 46.0801 10.7527 46.0812 10.7147ZM46.5941 13.6116C46.5661 13.6227 46.5373 13.6313 46.5078 13.6373C46.4672 13.6462 46.4256 13.6505 46.384 13.6502C46.3161 13.6559 46.2484 13.637 46.1928 13.5968C46.1706 13.5735 46.1536 13.5456 46.1431 13.515C46.1325 13.4844 46.1287 13.4518 46.1318 13.4196V11.4094L46.22 11.386C46.2612 11.3756 46.3036 11.3706 46.3461 11.3713C46.4128 11.3658 46.4794 11.3847 46.5336 11.4246C46.5554 11.449 46.5719 11.4778 46.582 11.509C46.5921 11.5403 46.5956 11.5734 46.5922 11.6062L46.5941 13.6116Z" fill="#CC0066"/>
<path d="M48.5937 13.411C48.5297 13.4522 48.4605 13.4842 48.3879 13.5063C48.2936 13.5338 48.1958 13.5468 48.0977 13.5449C47.9714 13.5457 47.8458 13.5254 47.7259 13.4848C47.6103 13.4453 47.5048 13.3802 47.417 13.2942C47.3224 13.1997 47.2505 13.0842 47.2069 12.9569C47.1522 12.791 47.1266 12.6167 47.1314 12.4418C47.1283 12.2783 47.1539 12.1155 47.2069 11.9611C47.2525 11.8307 47.3266 11.7124 47.4235 11.6152C47.5184 11.5219 47.6315 11.4499 47.7555 11.4036C47.8936 11.3534 48.0396 11.3289 48.1863 11.3312C48.3217 11.33 48.4564 11.3501 48.5858 11.3908C48.6929 11.4236 48.7949 11.4717 48.8887 11.5337C48.9336 11.5651 48.9721 11.6051 49.0021 11.6514C49.0316 11.7009 49.0462 11.758 49.0443 11.8158V13.6821C49.048 13.8227 49.0223 13.9625 48.9688 14.0923C48.922 14.2015 48.849 14.297 48.7564 14.3701C48.66 14.4438 48.5497 14.4968 48.4325 14.5259C48.301 14.559 48.166 14.575 48.0307 14.5735C47.9002 14.5756 47.77 14.5596 47.6439 14.5259C47.5592 14.5039 47.4774 14.4719 47.4001 14.4306C47.34 14.3933 47.2958 14.3344 47.2763 14.2656C47.2569 14.1967 47.2636 14.123 47.2951 14.059C47.3146 14.022 47.3436 13.9911 47.379 13.9694C47.4616 14.0286 47.5522 14.0753 47.6481 14.108C47.7641 14.15 47.8864 14.171 48.0096 14.17C48.1626 14.1794 48.3143 14.1365 48.4404 14.048C48.4944 13.9996 48.5365 13.939 48.5631 13.871C48.5897 13.8031 48.6002 13.7297 48.5937 13.6568V13.411ZM48.1605 13.1546C48.2478 13.1571 48.3345 13.1409 48.4151 13.107C48.4783 13.0794 48.536 13.0404 48.5853 12.9917V11.8429C48.5348 11.8104 48.4805 11.7847 48.4236 11.7662C48.3495 11.7421 48.272 11.7305 48.1943 11.7319C48.1137 11.7286 48.0334 11.7425 47.9585 11.7727C47.8835 11.8029 47.8157 11.8488 47.7592 11.9072C47.6379 12.0551 47.5784 12.2452 47.5932 12.4371C47.5907 12.5499 47.6055 12.6625 47.6373 12.7706C47.6617 12.8527 47.7033 12.9284 47.7592 12.9926C47.8083 13.0477 47.8695 13.0901 47.9378 13.1165C48.0092 13.1429 48.0846 13.1555 48.1605 13.1546Z" fill="#CC0066"/>
<path d="M49.6212 10.7147C49.6202 10.6766 49.6265 10.6387 49.6398 10.6032C49.6532 10.5676 49.6733 10.5351 49.699 10.5074C49.7253 10.4797 49.7571 10.4579 49.7922 10.4435C49.8274 10.4291 49.8651 10.4225 49.903 10.424C49.9402 10.4228 49.9772 10.4296 50.0117 10.4439C50.0461 10.4583 50.0771 10.48 50.1027 10.5074C50.1528 10.5645 50.1805 10.6382 50.1805 10.7147C50.1805 10.7911 50.1528 10.8649 50.1027 10.9219C50.0771 10.9494 50.0461 10.9711 50.0117 10.9854C49.9772 10.9998 49.9402 11.0066 49.903 11.0053C49.8651 11.0069 49.8274 11.0002 49.7922 10.9859C49.7571 10.9715 49.7253 10.9497 49.699 10.9219C49.6733 10.8943 49.6531 10.8618 49.6398 10.8262C49.6264 10.7906 49.6201 10.7527 49.6212 10.7147ZM50.1341 13.6116C50.1062 13.6227 50.0773 13.6313 50.0479 13.6373C50.007 13.6462 49.9654 13.6505 49.9236 13.6502C49.8556 13.6559 49.7879 13.637 49.7323 13.5968C49.7101 13.5736 49.6931 13.5456 49.6826 13.515C49.6721 13.4844 49.6682 13.4518 49.6714 13.4196V11.4094L49.7595 11.386C49.8007 11.3756 49.8431 11.3706 49.8856 11.3713C49.9524 11.3658 50.0189 11.3847 50.0732 11.4246C50.0949 11.449 50.1114 11.4778 50.1215 11.509C50.1316 11.5403 50.1351 11.5734 50.1318 11.6062L50.1341 13.6116Z" fill="#CC0066"/>
<path d="M51.3372 13.2123C51.4151 13.2636 51.507 13.2883 51.5997 13.2828C51.6538 13.2824 51.7076 13.2745 51.7596 13.2595C51.8106 13.2459 51.86 13.2265 51.9068 13.2018C51.9273 13.2287 51.9456 13.2572 51.9617 13.2871C51.9891 13.3427 51.9946 13.4067 51.9772 13.4663C51.9598 13.5259 51.9207 13.5764 51.8679 13.6078C51.7596 13.6689 51.6362 13.697 51.5125 13.6888C51.3225 13.6986 51.1349 13.6421 50.9808 13.5287C50.9097 13.4631 50.8546 13.3816 50.82 13.2906C50.7853 13.1996 50.772 13.1017 50.7811 13.0046V10.7871C50.8117 10.7763 50.8431 10.7677 50.8749 10.7614C50.9164 10.7526 50.9586 10.7483 51.001 10.7485C51.0668 10.7431 51.1323 10.7613 51.1862 10.8C51.2079 10.8231 51.2244 10.8508 51.2345 10.8811C51.2446 10.9114 51.2481 10.9435 51.2448 10.9753V11.4451H51.9345C51.9481 11.471 51.9595 11.4981 51.9682 11.5261C51.9797 11.5619 51.9854 11.5994 51.9851 11.6371C51.9851 11.7712 51.9304 11.838 51.821 11.8377H51.2448V12.9703C51.2401 13.0152 51.2461 13.0607 51.2624 13.1028C51.2787 13.1449 51.3049 13.1823 51.3386 13.2118" fill="#CC0066"/>
<path d="M53.2288 11.3306C53.4624 11.3175 53.6936 11.3846 53.8852 11.5211C53.9701 11.5955 54.0365 11.6892 54.0788 11.7946C54.1212 11.9 54.1384 12.0142 54.1289 12.1277V13.2345C54.1328 13.2945 54.1163 13.3541 54.0821 13.4032C54.0455 13.4469 54.0031 13.4851 53.956 13.5166C53.8632 13.5695 53.7642 13.6104 53.6615 13.6385C53.5231 13.6765 53.3801 13.6944 53.2367 13.6919C52.9999 13.7059 52.7649 13.6423 52.5663 13.5104C52.4858 13.4489 52.4216 13.3681 52.3794 13.2752C52.3372 13.1823 52.3183 13.0803 52.3243 12.9782C52.3191 12.8896 52.3333 12.801 52.3657 12.7186C52.3981 12.6363 52.448 12.5622 52.5119 12.5017C52.6669 12.3784 52.8555 12.3067 53.052 12.2963L53.6699 12.2277V12.1253C53.6749 12.0681 53.6661 12.0105 53.6441 11.9576C53.6221 11.9047 53.5877 11.858 53.5438 11.8218C53.4405 11.7531 53.3183 11.7197 53.195 11.7265C53.0797 11.7261 52.9649 11.7433 52.8546 11.7775C52.7532 11.8084 52.6546 11.8484 52.5602 11.8971C52.5306 11.8692 52.5052 11.8371 52.4847 11.8018C52.462 11.7633 52.4504 11.7191 52.4511 11.6742C52.4519 11.6293 52.465 11.5855 52.4889 11.5478C52.5199 11.5076 52.5603 11.4759 52.6066 11.4559C52.6966 11.4114 52.792 11.3794 52.8903 11.3606C53.0018 11.3386 53.1152 11.3279 53.2288 11.3286M53.2372 13.3026C53.3295 13.3045 53.4215 13.2929 53.5105 13.2683C53.5678 13.2542 53.622 13.2295 53.6704 13.1954V12.5932L53.1912 12.6446C53.0826 12.652 52.9774 12.6857 52.8842 12.7428C52.85 12.7689 52.8229 12.8033 52.8053 12.8429C52.7877 12.8824 52.7801 12.9258 52.7833 12.9691C52.7815 13.0156 52.7904 13.0618 52.8094 13.1041C52.8284 13.1464 52.8569 13.1836 52.8926 13.2126C52.9944 13.2807 53.1157 13.3122 53.2372 13.3022" fill="#CC0066"/>
<path d="M55.0077 13.6502C54.941 13.6549 54.8748 13.636 54.8202 13.5968C54.7973 13.574 54.7797 13.5462 54.7688 13.5155C54.7578 13.4848 54.7538 13.4521 54.7569 13.4196V10.5398L54.845 10.5165C54.8862 10.506 54.9287 10.501 54.9712 10.5017C55.0375 10.497 55.1035 10.515 55.1587 10.5527C55.1817 10.5751 55.1993 10.6025 55.2103 10.6329C55.2213 10.6633 55.2253 10.6958 55.222 10.728V13.6121C55.1967 13.6206 55.1654 13.6292 55.1282 13.6378C55.0882 13.6468 55.0473 13.6511 55.0063 13.6507" fill="#CC0066"/>
<path d="M57.3337 12.6286V13.6115C57.302 13.6219 57.2698 13.6305 57.2371 13.6373C57.1957 13.6461 57.1534 13.6504 57.111 13.6501C57.0414 13.6563 56.9719 13.6364 56.9155 13.5944C56.8932 13.5698 56.8763 13.5407 56.8658 13.509C56.8553 13.4773 56.8515 13.4437 56.8546 13.4105V10.9619C56.8518 10.916 56.867 10.8708 56.8968 10.8361C56.9285 10.8037 56.9674 10.7796 57.0102 10.7656C57.1177 10.7288 57.2292 10.7051 57.3422 10.6951C57.4672 10.6824 57.5863 10.676 57.6994 10.676C58.0073 10.6505 58.3134 10.7435 58.5569 10.9367C58.6506 11.0278 58.7238 11.1383 58.7717 11.2607C58.8196 11.3831 58.841 11.5146 58.8345 11.6461C58.8404 11.7784 58.8186 11.9104 58.7708 12.0336C58.723 12.1567 58.6501 12.2683 58.5569 12.3608C58.3243 12.557 58.0257 12.6536 57.7243 12.63L57.3337 12.6286ZM57.6994 12.2141C57.87 12.2239 58.0387 12.1734 58.1767 12.0711C58.2363 12.0189 58.2831 11.9534 58.3134 11.8796C58.3436 11.8058 58.3566 11.7259 58.3511 11.6461C58.3577 11.568 58.3462 11.4893 58.3173 11.4166C58.2885 11.3438 58.2432 11.279 58.1852 11.2273C58.0451 11.1302 57.8771 11.0836 57.7079 11.0949C57.6435 11.0949 57.5775 11.0977 57.51 11.1034C57.4492 11.1083 57.3888 11.1169 57.329 11.1292V12.2145L57.6994 12.2141Z" fill="#CC0066"/>
<path d="M60.1028 11.3306C60.3364 11.3174 60.5676 11.3846 60.7592 11.5211C60.8441 11.5954 60.9105 11.6891 60.9529 11.7946C60.9953 11.9 61.0124 12.0142 61.003 12.1277V13.2345C61.0068 13.2945 60.9903 13.3541 60.9561 13.4032C60.9195 13.4469 60.8771 13.4851 60.8299 13.5166C60.7371 13.5694 60.6382 13.6104 60.5355 13.6385C60.3971 13.6765 60.2541 13.6944 60.1107 13.6919C59.8739 13.7059 59.6389 13.6423 59.4403 13.5104C59.3599 13.4489 59.2956 13.3681 59.2534 13.2752C59.2112 13.1823 59.1923 13.0803 59.1984 12.9782C59.1932 12.8896 59.2073 12.801 59.2397 12.7186C59.2721 12.6363 59.322 12.5622 59.3859 12.5017C59.5409 12.3784 59.7295 12.3067 59.926 12.2963L60.544 12.2277V12.1253C60.549 12.0681 60.5401 12.0105 60.5181 11.9576C60.4962 11.9046 60.4617 11.858 60.4178 11.8218C60.3145 11.7531 60.1923 11.7197 60.069 11.7265C59.9537 11.7261 59.8389 11.7433 59.7286 11.7775C59.6272 11.8084 59.5287 11.8484 59.4342 11.8971C59.4046 11.8692 59.3792 11.8371 59.3587 11.8018C59.336 11.7633 59.3244 11.7191 59.3252 11.6742C59.3259 11.6293 59.339 11.5855 59.3629 11.5478C59.3939 11.5076 59.4344 11.4759 59.4806 11.4559C59.5706 11.4114 59.666 11.3794 59.7643 11.3606C59.8758 11.3386 59.9892 11.3279 60.1028 11.3286M60.1112 13.3026C60.2035 13.3045 60.2955 13.2929 60.3845 13.2683C60.4418 13.2542 60.496 13.2295 60.5444 13.1954V12.5932L60.0653 12.6446C59.9567 12.652 59.8514 12.6856 59.7582 12.7428C59.724 12.7689 59.6969 12.8033 59.6793 12.8429C59.6617 12.8824 59.6541 12.9258 59.6574 12.9691C59.6555 13.0156 59.6644 13.0618 59.6834 13.1041C59.7024 13.1464 59.7309 13.1836 59.7666 13.2126C59.8684 13.2807 59.9897 13.3122 60.1112 13.3022" fill="#CC0066"/>
<path d="M61.9992 13.1032C61.9236 12.9466 61.8318 12.7259 61.724 12.4409C61.6162 12.156 61.5132 11.8341 61.415 11.4751C61.4451 11.4393 61.4815 11.4096 61.5224 11.3875C61.5655 11.3634 61.6139 11.3509 61.6631 11.3513C61.7201 11.3485 61.7764 11.3653 61.8229 11.3989C61.873 11.4448 61.9082 11.5052 61.9237 11.5719C62.005 11.8282 62.0885 12.081 62.1741 12.3304C62.2598 12.5797 62.3543 12.8369 62.4578 13.1018H62.4746C62.5193 12.9992 62.5648 12.8802 62.6111 12.7449C62.6573 12.6096 62.7022 12.4657 62.7456 12.3132C62.7891 12.1608 62.8305 12.0062 62.8699 11.8496C62.9093 11.693 62.9443 11.5436 62.9749 11.4013C63.0033 11.3869 63.0328 11.3748 63.063 11.3651C63.0985 11.3545 63.1353 11.3496 63.1723 11.3503C63.2306 11.348 63.2881 11.3647 63.3364 11.398C63.3594 11.4162 63.3776 11.44 63.3893 11.4672C63.401 11.4944 63.4059 11.5242 63.4034 11.5538C63.3966 11.6809 63.3762 11.807 63.3425 11.9297C63.3018 12.0977 63.2493 12.2843 63.1849 12.4895C63.1206 12.6947 63.0469 12.9012 62.9641 13.1089C62.8813 13.317 62.7978 13.5022 62.7138 13.6645C62.6022 13.8899 62.4683 14.1032 62.3143 14.301C62.2762 14.36 62.226 14.4099 62.1673 14.4474C62.1086 14.485 62.0427 14.5093 61.9739 14.5188C61.9379 14.5209 61.9018 14.5156 61.8679 14.5031C61.834 14.4907 61.8029 14.4714 61.7765 14.4464C61.7274 14.3963 61.6947 14.3321 61.6827 14.2625C61.7377 14.2122 61.7897 14.1588 61.8384 14.1024C61.8944 14.0388 61.9505 13.9705 62.0067 13.8975C62.063 13.8244 62.1169 13.7496 62.1685 13.6731C62.2173 13.6014 62.2602 13.5257 62.2965 13.4467C62.2417 13.4265 62.1922 13.394 62.1516 13.3515C62.087 13.2767 62.0352 13.1915 61.9983 13.0994" fill="#CC0066"/>
<path d="M66.3219 11.8283C66.2371 11.7604 66.1308 11.7265 66.0232 11.733C65.9427 11.7326 65.8629 11.7488 65.7887 11.7806C65.713 11.8133 65.6433 11.8587 65.5825 11.915C65.5882 11.9417 65.5924 11.9688 65.5951 11.996C65.5979 12.0246 65.5994 12.0532 65.5994 12.0813V13.6112C65.5714 13.6223 65.5425 13.6309 65.5131 13.6369C65.4738 13.6457 65.4337 13.65 65.3935 13.6498C65.3248 13.6552 65.2564 13.6364 65.1999 13.5964C65.1771 13.5735 65.1596 13.5457 65.1488 13.515C65.1379 13.4843 65.1339 13.4516 65.137 13.4192V12.1327C65.1419 12.0768 65.1347 12.0205 65.1159 11.9677C65.097 11.9149 65.0669 11.867 65.0278 11.8273C64.9431 11.7595 64.8368 11.7256 64.7291 11.732C64.6491 11.7315 64.5696 11.7461 64.4947 11.7749C64.4299 11.7996 64.368 11.8316 64.31 11.8702V13.6136C64.2821 13.6247 64.2532 13.6333 64.2237 13.6393C64.1829 13.6482 64.1412 13.6525 64.0995 13.6522C64.0328 13.6569 63.9666 13.638 63.912 13.5988C63.8891 13.5759 63.8715 13.5481 63.8605 13.5175C63.8496 13.4868 63.8456 13.454 63.8487 13.4216V11.8578C63.8456 11.7961 63.8593 11.7347 63.8885 11.6806C63.9237 11.6274 63.9685 11.5816 64.0207 11.5457C64.2378 11.4083 64.488 11.3345 64.7437 11.3323C64.8713 11.33 64.9984 11.351 65.1188 11.3942C65.2227 11.4319 65.3164 11.4941 65.3921 11.5757C65.4803 11.5033 65.5787 11.445 65.6842 11.4028C65.8108 11.3534 65.9457 11.3294 66.0813 11.3323C66.1924 11.3315 66.303 11.3476 66.4095 11.3799C66.5049 11.4081 66.5931 11.4568 66.6683 11.5228C66.7421 11.5902 66.8002 11.6734 66.8385 11.7663C66.8832 11.8782 66.9047 11.9982 66.9018 12.1189V13.6145C66.871 13.6247 66.8397 13.6333 66.8081 13.6403C66.7688 13.649 66.7287 13.6533 66.6885 13.6531C66.6218 13.6578 66.5556 13.6389 66.5009 13.5998C66.4781 13.5769 66.4605 13.5491 66.4495 13.5184C66.4386 13.4877 66.4346 13.455 66.4376 13.4225V12.1361C66.4427 12.0801 66.4355 12.0237 66.4166 11.9709C66.3978 11.9181 66.3676 11.8702 66.3284 11.8306" fill="#CC0066"/>
<path d="M67.8724 12.7614C67.8993 12.9206 67.985 13.0634 68.1119 13.1607C68.2488 13.2523 68.4105 13.2978 68.5742 13.2908C68.6899 13.2922 68.8048 13.2712 68.9127 13.2288C69.0008 13.195 69.0848 13.1512 69.1631 13.0983C69.2015 13.1186 69.2335 13.1493 69.2558 13.1869C69.278 13.2246 69.2896 13.2678 69.2892 13.3118C69.2887 13.3673 69.2678 13.4207 69.2306 13.4614C69.1857 13.5112 69.1314 13.5513 69.0707 13.579C68.9958 13.6144 68.9172 13.641 68.8363 13.6581C68.5843 13.7101 68.3233 13.6936 68.0796 13.6105C67.944 13.5622 67.8206 13.4841 67.7181 13.3818C67.6136 13.2756 67.5336 13.1472 67.4837 13.0059C67.4265 12.8405 67.3987 12.6661 67.4016 12.4908C67.3984 12.3201 67.4248 12.1501 67.4795 11.9886C67.5257 11.854 67.5996 11.7309 67.6961 11.6274C67.7881 11.5309 67.8991 11.4552 68.0219 11.4054C68.1483 11.3539 68.2833 11.3278 68.4195 11.3287C68.5527 11.3269 68.6849 11.3523 68.8082 11.4035C68.9212 11.4506 69.0237 11.5206 69.1093 11.6091C69.195 11.6976 69.2621 11.8029 69.3065 11.9186C69.3551 12.0437 69.3793 12.1772 69.3778 12.3116C69.3805 12.3431 69.3771 12.3748 69.3677 12.4049C69.3583 12.435 69.3431 12.4629 69.323 12.487C69.2799 12.5273 69.2254 12.5526 69.1673 12.5594L67.8724 12.7614ZM68.419 11.7132C68.3429 11.7114 68.2673 11.7263 68.1973 11.7569C68.1273 11.7875 68.0646 11.833 68.0135 11.8905C67.8976 12.0307 67.8369 12.2096 67.8433 12.3927L68.9362 12.2259C68.9285 12.092 68.8775 11.9644 68.7913 11.8628C68.744 11.8116 68.6862 11.7716 68.6219 11.7457C68.5576 11.7199 68.488 11.7087 68.419 11.7132Z" fill="#CC0066"/>
<path d="M71.1355 11.8412C71.0419 11.7643 70.9236 11.7254 70.8035 11.7321C70.7093 11.7306 70.6155 11.7451 70.5259 11.775C70.4532 11.8001 70.3829 11.832 70.3159 11.8702V13.6136C70.2879 13.6248 70.2591 13.6334 70.2296 13.6394C70.1888 13.6483 70.1471 13.6526 70.1054 13.6522C70.0387 13.6569 69.9724 13.6381 69.9178 13.5989C69.8949 13.576 69.8774 13.5482 69.8664 13.5175C69.8555 13.4869 69.8514 13.4541 69.8545 13.4216V11.8579C69.8516 11.7962 69.8654 11.7349 69.8944 11.6806C69.9297 11.6274 69.9748 11.5816 70.0271 11.5458C70.1305 11.4866 70.2397 11.4387 70.353 11.4028C70.499 11.3554 70.6516 11.3324 70.8049 11.3347C71.0469 11.3207 71.2858 11.3941 71.4796 11.542C71.5649 11.6204 71.6313 11.7175 71.674 11.826C71.7167 11.9345 71.7344 12.0515 71.7257 12.168V13.6165C71.6962 13.6271 71.666 13.6357 71.6353 13.6422C71.5946 13.6511 71.5531 13.6554 71.5115 13.6551C71.4448 13.6598 71.3785 13.6409 71.3239 13.6017C71.3011 13.5788 71.2836 13.551 71.2728 13.5203C71.2619 13.4897 71.2579 13.4569 71.2611 13.4245V12.1857C71.2663 12.1234 71.2582 12.0608 71.2371 12.0021C71.216 11.9434 71.1827 11.8901 71.1392 11.8459" fill="#CC0066"/>
<path d="M72.8987 13.2123C72.9767 13.2636 73.0686 13.2882 73.1613 13.2828C73.2154 13.2824 73.2691 13.2745 73.3212 13.2595C73.3722 13.2459 73.4216 13.2265 73.4684 13.2018C73.4888 13.2287 73.5072 13.2572 73.5232 13.2871C73.5508 13.3426 73.5564 13.4068 73.5389 13.4664C73.5215 13.5259 73.4823 13.5765 73.4294 13.6078C73.3211 13.6689 73.1977 13.697 73.0741 13.6888C72.8841 13.6986 72.6965 13.6421 72.5424 13.5287C72.4712 13.4632 72.4161 13.3816 72.3815 13.2907C72.3468 13.1997 72.3335 13.1017 72.3427 13.0046V10.7871C72.3733 10.7763 72.4046 10.7677 72.4365 10.7614C72.4779 10.7526 72.5202 10.7483 72.5625 10.7485C72.6283 10.7431 72.6939 10.7613 72.7477 10.8C72.7695 10.8231 72.7861 10.8507 72.7963 10.881C72.8065 10.9113 72.8101 10.9435 72.8068 10.9753V11.4451H73.4965C73.5103 11.4709 73.5216 11.4981 73.5303 11.5261C73.5417 11.5619 73.5474 11.5994 73.5472 11.6371C73.5472 11.7712 73.4924 11.838 73.383 11.8377H72.8068V12.9703C72.8021 13.0152 72.8081 13.0607 72.8244 13.1028C72.8408 13.1449 72.8669 13.1823 72.9006 13.2118" fill="#CC0066"/>
<path d="M75.5711 13.0092C75.5753 13.104 75.5575 13.1985 75.5192 13.285C75.4808 13.3714 75.423 13.4476 75.3503 13.5071C75.1633 13.6404 74.9369 13.7045 74.7089 13.6887C74.6004 13.6895 74.4921 13.6794 74.3854 13.6587C74.2996 13.6428 74.2162 13.6156 74.1374 13.5777C74.0763 13.5482 74.022 13.506 73.978 13.4538C73.9403 13.41 73.9193 13.3538 73.9189 13.2956C73.9188 13.2501 73.9296 13.2053 73.9504 13.165C73.9717 13.1232 74.0042 13.0884 74.0441 13.0645C74.1327 13.1256 74.2269 13.1777 74.3254 13.2203C74.4426 13.2694 74.5686 13.2934 74.6954 13.2908C74.8025 13.2979 74.9093 13.2727 75.0024 13.2184C75.0362 13.1957 75.0637 13.1645 75.0821 13.1279C75.1005 13.0912 75.1092 13.0504 75.1074 13.0092C75.1092 12.9742 75.1038 12.9391 75.0916 12.9063C75.0793 12.8735 75.0604 12.8436 75.0362 12.8187C74.9748 12.7644 74.9009 12.7269 74.8214 12.7095L74.5186 12.6243C74.3541 12.5863 74.2021 12.5061 74.0769 12.3913C74.0281 12.337 73.9905 12.2733 73.9663 12.204C73.9422 12.1347 73.932 12.0611 73.9363 11.9877C73.9358 11.8984 73.9545 11.8101 73.9911 11.729C74.0274 11.6481 74.0813 11.5766 74.1487 11.5198C74.2254 11.4572 74.3133 11.4101 74.4075 11.3812C74.5218 11.3454 74.6409 11.328 74.7605 11.3297C74.8593 11.3286 74.958 11.3379 75.055 11.3573C75.1325 11.3728 75.208 11.3973 75.28 11.4302C75.3368 11.4553 75.3872 11.4932 75.4272 11.5413C75.4607 11.5812 75.4793 11.6318 75.4797 11.6842C75.4807 11.729 75.4698 11.7733 75.4483 11.8124C75.4289 11.8475 75.4023 11.878 75.3705 11.9019C75.2937 11.8577 75.2136 11.8198 75.1309 11.7885C75.0237 11.7466 74.9096 11.7256 74.7947 11.7266C74.6922 11.7207 74.5902 11.7443 74.5003 11.7947C74.4724 11.8126 74.4486 11.8364 74.4307 11.8646C74.4128 11.8927 74.4012 11.9245 74.3968 11.9577C74.3923 11.991 74.3951 12.0248 74.4048 12.0568C74.4146 12.0888 74.4312 12.1182 74.4534 12.143C74.5122 12.1945 74.5834 12.2292 74.6597 12.2436L74.9204 12.3122C75.1036 12.3556 75.2734 12.4445 75.4145 12.5709C75.4686 12.6292 75.5105 12.6981 75.5375 12.7734C75.5646 12.8487 75.5764 12.9287 75.5721 13.0088" fill="#CC0066"/>
<path d="M11.3963 6.28955V14.631C11.3963 15.1771 11.2314 15.71 10.924 16.1578C10.6165 16.6056 10.1813 16.9468 9.677 17.1353L2.19139 19.9331C2.07357 19.9773 1.947 19.9918 1.82246 19.9756C1.69791 19.9593 1.57908 19.9127 1.47608 19.8397C1.37308 19.7667 1.28896 19.6695 1.2309 19.5563C1.17283 19.4432 1.14253 19.3174 1.14258 19.1898V12.1119C1.14282 11.6863 1.27131 11.2709 1.51078 10.9217C1.75025 10.5724 2.08921 10.3061 2.48207 10.1584L9.40085 7.5579C10.4928 7.10859 10.9194 6.83367 11.3967 6.29193" fill="white"/>
<path d="M17.9767 8.40053C17.9689 8.71069 17.8454 9.00624 17.6313 9.22738C17.4172 9.44853 17.1284 9.57875 16.8234 9.59169H15.2546C15.1642 9.59387 15.0765 9.55946 15.0111 9.49602C14.9456 9.43259 14.9075 9.34532 14.9053 9.2534V5.78093C14.9046 5.73487 14.913 5.68914 14.9301 5.64645C14.9471 5.60376 14.9724 5.56497 15.0044 5.5324C15.0365 5.49983 15.0746 5.47413 15.1166 5.45683C15.1587 5.43952 15.2036 5.43097 15.249 5.43168H16.7629C16.9893 5.44385 17.2074 5.52251 17.3908 5.65813C17.5741 5.79375 17.7148 5.9805 17.7958 6.19575C17.8768 6.41099 17.8946 6.64549 17.8471 6.87082C17.7995 7.09615 17.6887 7.30263 17.528 7.46523C17.6665 7.57752 17.7786 7.7197 17.8563 7.88147C17.934 8.04324 17.9748 8.22054 17.9767 8.40053ZM15.5711 7.16173L16.6855 7.15029C16.8209 7.14577 16.9495 7.0891 17.0453 6.99177C17.141 6.89445 17.1968 6.76375 17.2013 6.62618C17.2005 6.49386 17.1491 6.36703 17.058 6.27245C16.967 6.17787 16.8433 6.12292 16.7132 6.11922H15.5711V7.16173ZM17.2899 8.40053C17.2806 8.26032 17.2204 8.1286 17.1211 8.03082C17.0218 7.93305 16.8903 7.87617 16.7521 7.87118H15.5987V8.91321H16.7849C16.9174 8.90892 17.0432 8.85353 17.137 8.7583C17.2307 8.66306 17.2852 8.53514 17.2894 8.40053" fill="white"/>
<path d="M20.7064 7.87114H20.2019V9.25289C20.2 9.34384 20.1628 9.43033 20.0984 9.49358C20.0341 9.55683 19.9478 9.59173 19.8583 9.5907C19.7702 9.59045 19.6857 9.55479 19.6233 9.49151C19.561 9.42823 19.5258 9.34245 19.5254 9.25289V5.76945C19.5282 5.67878 19.5657 5.59279 19.6298 5.52972C19.694 5.46666 19.7798 5.43147 19.8691 5.43164H21.0829C21.395 5.43857 21.6926 5.56691 21.9143 5.79021C22.1361 6.01352 22.2651 6.31476 22.2747 6.63186C22.2689 6.88759 22.1868 7.1355 22.0393 7.34277C21.8918 7.55003 21.6858 7.70687 21.4486 7.79252L22.2194 9.07135C22.2643 9.15011 22.2773 9.24355 22.2556 9.33187C22.2339 9.42019 22.1792 9.49645 22.1031 9.54448C22.0504 9.57393 21.9912 9.58949 21.931 9.58975C21.8733 9.5897 21.8165 9.57466 21.766 9.54606C21.7155 9.51746 21.6731 9.47625 21.6427 9.42632L20.7064 7.87114ZM21.6047 6.6371C21.5984 6.4958 21.5381 6.36258 21.4366 6.26577C21.3351 6.16896 21.2005 6.1162 21.0613 6.1187H20.2019V7.1836H21.0613C21.2045 7.18373 21.342 7.12638 21.4437 7.02403C21.5455 6.92167 21.6034 6.7826 21.6047 6.6371Z" fill="white"/>
<path d="M26.1662 9.58903C25.6255 9.58312 25.1092 9.35993 24.73 8.96824C24.3508 8.57656 24.1396 8.04824 24.1426 7.49878C24.1496 7.09425 24.2741 6.70084 24.5003 6.3679C24.7265 6.03497 25.0444 5.77733 25.4142 5.62733C25.7839 5.47734 26.189 5.44165 26.5787 5.52476C26.9683 5.60786 27.3251 5.80606 27.6043 6.09447C27.8835 6.38289 28.0727 6.74868 28.1481 7.14595C28.2235 7.54322 28.1818 7.95427 28.0282 8.32753C27.8746 8.7008 27.6159 9.01964 27.2846 9.24407C26.9534 9.4685 26.5643 9.5885 26.1662 9.58903ZM24.7967 7.49878C24.7971 7.77463 24.8781 8.04414 25.0293 8.27323C25.1805 8.50232 25.3951 8.6807 25.6461 8.78581C25.897 8.89091 26.173 8.91802 26.4392 8.86371C26.7053 8.8094 26.9496 8.6761 27.1412 8.48068C27.3327 8.28526 27.463 8.0365 27.5154 7.76585C27.5679 7.49519 27.5402 7.21482 27.4358 6.96018C27.3314 6.70553 27.1551 6.48806 26.9291 6.33527C26.7031 6.18248 26.4376 6.10122 26.1662 6.10179C25.8032 6.10541 25.4561 6.25392 25.1999 6.51527C24.9437 6.77663 24.7989 7.12987 24.7967 7.49878Z" fill="white"/>
<path d="M32.9744 9.5614C32.9315 9.57839 32.8857 9.58645 32.8397 9.58511C32.7936 9.58377 32.7483 9.57305 32.7064 9.55359C32.6645 9.53412 32.6269 9.50632 32.5958 9.47181C32.5647 9.43731 32.5407 9.39681 32.5253 9.35271L31.5876 6.7798L30.6452 9.35271C30.6308 9.39692 30.6077 9.43767 30.5772 9.47243C30.5467 9.50719 30.5096 9.53522 30.468 9.55478C30.4264 9.57435 30.3813 9.58503 30.3355 9.58617C30.2897 9.5873 30.2441 9.57888 30.2017 9.5614C30.158 9.54617 30.1178 9.52206 30.0835 9.49053C30.0493 9.459 30.0217 9.42072 30.0025 9.37801C29.9833 9.33531 29.9728 9.28907 29.9718 9.24212C29.9707 9.19518 29.9791 9.14851 29.9963 9.10495L31.2491 5.65106C31.2754 5.58204 31.322 5.52289 31.3824 5.48158C31.4428 5.44026 31.5143 5.41876 31.5871 5.41997C31.6596 5.42032 31.7304 5.44245 31.7905 5.48357C31.8507 5.52468 31.8975 5.58296 31.9252 5.65106L33.1779 9.10495C33.1952 9.14848 33.2036 9.19512 33.2025 9.24204C33.2015 9.28897 33.1911 9.33518 33.1719 9.37788C33.1528 9.42059 33.1252 9.45888 33.091 9.49043C33.0569 9.52197 33.0167 9.54612 32.973 9.5614" fill="white"/>
<path d="M34.5762 9.2519V5.78609C34.5783 5.69718 34.614 5.61252 34.6759 5.54963C34.7378 5.48675 34.8211 5.45046 34.9086 5.44828H35.7347C36.0322 5.4465 36.3268 5.50785 36.5997 5.62839C36.8619 5.7453 37.0964 5.9182 37.287 6.13534C37.4773 6.35489 37.6193 6.61319 37.7035 6.89297C37.7876 7.17275 37.8121 7.46756 37.7751 7.7577C37.714 8.26154 37.4742 8.72543 37.1006 9.0625C36.7271 9.39956 36.2455 9.58666 35.7459 9.58876H34.909C34.8215 9.58658 34.7382 9.55029 34.6764 9.48741C34.6145 9.42452 34.5788 9.33985 34.5766 9.25094M37.1047 7.67861C37.134 7.48402 37.1208 7.28527 37.0662 7.0964C37.0116 6.90753 36.9169 6.73316 36.7887 6.5856C36.6561 6.43578 36.4935 6.31654 36.3117 6.23592C36.13 6.1553 35.9334 6.11516 35.7352 6.11819H35.2419V8.91266H35.7464C36.0827 8.91282 36.4072 8.78707 36.6581 8.55942C36.9089 8.33178 37.0684 8.0182 37.1061 7.67861" fill="white"/>
<path d="M41.0679 9.00928C40.902 9.264 40.6463 9.44446 40.3535 9.51358C40.0607 9.5827 39.753 9.53523 39.4935 9.38092C39.414 9.3319 39.3552 9.25457 39.3286 9.16397C39.302 9.07337 39.3095 8.97595 39.3496 8.89064C39.4098 8.81995 39.494 8.7749 39.5854 8.76448C39.6768 8.75406 39.7687 8.77903 39.8428 8.83442C39.9577 8.89782 40.0921 8.91449 40.2186 8.88105C40.3452 8.84762 40.4545 8.76657 40.5245 8.65432C40.5632 8.59589 40.5901 8.5303 40.6038 8.46128C40.6175 8.39227 40.6177 8.32118 40.6043 8.2521C40.5909 8.18302 40.5643 8.1173 40.5259 8.05869C40.4875 8.00008 40.4381 7.94974 40.3806 7.91055C40.1091 7.73569 40.0993 7.73045 39.8372 7.55559C39.5777 7.38447 39.3957 7.11561 39.3313 6.80815C39.2668 6.50069 39.3252 6.17981 39.4935 5.91607C39.6612 5.66345 39.9167 5.48467 40.2088 5.41564C40.5008 5.34661 40.8078 5.39246 41.0679 5.54396C41.1449 5.58964 41.2016 5.66363 41.2264 5.75062C41.2512 5.83762 41.2421 5.93097 41.2011 6.01136C41.1461 6.08504 41.0653 6.13436 40.9754 6.14909C40.8856 6.16382 40.7936 6.14282 40.7186 6.09046C40.5987 6.0284 40.4599 6.01542 40.3308 6.0542C40.2017 6.09298 40.0922 6.18057 40.0247 6.29893C39.9573 6.4173 39.937 6.55744 39.9682 6.69052C39.9993 6.82359 40.0794 6.93948 40.1921 7.01432C40.3328 7.10438 40.3328 7.10437 40.7299 7.36929C40.8581 7.4543 40.9686 7.56417 41.055 7.69261C41.1414 7.82105 41.202 7.96554 41.2334 8.11782C41.2648 8.27009 41.2663 8.42717 41.2379 8.58005C41.2095 8.73294 41.1518 8.87911 41.0679 9.00928Z" fill="white"/>
<path d="M44.8118 7.86094C44.5017 7.88332 44.1907 7.88714 43.8802 7.87238V9.25413C43.8782 9.34508 43.841 9.43157 43.7767 9.49482C43.7123 9.55806 43.626 9.59297 43.5365 9.59194C43.4485 9.59156 43.3641 9.55585 43.3019 9.49258C43.2396 9.42931 43.2045 9.3436 43.2041 9.25413V5.78022C43.2036 5.7357 43.2117 5.69151 43.2283 5.65027C43.2448 5.60902 43.2692 5.57155 43.3002 5.54007C43.3312 5.50858 43.3681 5.48372 43.4086 5.46695C43.4492 5.45018 43.4927 5.44183 43.5365 5.44241H44.7785C45.088 5.45221 45.3818 5.58304 45.5987 5.80763C45.8156 6.03221 45.9388 6.33321 45.9427 6.64787C45.9376 6.95698 45.8187 7.25293 45.6093 7.47719C45.3999 7.70146 45.1153 7.83772 44.8118 7.85904M44.7344 6.11851H43.8807V7.18341H44.7344C44.8773 7.18256 45.0142 7.12488 45.1158 7.02274C45.2173 6.92059 45.2755 6.7821 45.2778 6.63691C45.2706 6.49594 45.21 6.36328 45.1087 6.26667C45.0074 6.17005 44.8733 6.11697 44.7344 6.11851Z" fill="white"/>
<path d="M47.7158 9.25198V5.76997C47.7162 5.68049 47.7513 5.59479 47.8136 5.53152C47.8759 5.46824 47.9602 5.43253 48.0482 5.43216H50.0455C50.1351 5.43101 50.2214 5.46587 50.2858 5.52914C50.3502 5.59242 50.3873 5.67898 50.3892 5.76997C50.3887 5.86244 50.3523 5.95099 50.288 6.01637C50.2236 6.08176 50.1365 6.11872 50.0455 6.11922H48.3933V7.18412H49.6409C49.6847 7.18354 49.7282 7.19189 49.7688 7.20866C49.8094 7.22543 49.8462 7.25029 49.8772 7.28178C49.9082 7.31326 49.9327 7.35073 49.9492 7.39198C49.9657 7.43322 49.9739 7.47741 49.9733 7.52193C49.9739 7.56649 49.9658 7.61073 49.9493 7.65203C49.9328 7.69333 49.9084 7.73086 49.8774 7.7624C49.8464 7.79393 49.8095 7.81883 49.7689 7.83564C49.7283 7.85244 49.6848 7.8608 49.6409 7.86022H48.3933V8.90225H50.0455C50.1365 8.90275 50.2236 8.93971 50.288 9.0051C50.3523 9.07048 50.3887 9.15902 50.3892 9.2515C50.3872 9.34245 50.35 9.42894 50.2857 9.49219C50.2213 9.55544 50.135 9.59034 50.0455 9.58931H48.0497C47.9616 9.58894 47.8773 9.55322 47.815 9.48995C47.7527 9.42668 47.7176 9.34097 47.7172 9.2515" fill="white"/>
<path d="M55.6062 9.13873C55.2532 9.42407 54.8152 9.57898 54.3642 9.57803C53.8216 9.57803 53.3012 9.35898 52.9176 8.96909C52.5339 8.57919 52.3184 8.05037 52.3184 7.49898C52.3184 6.94758 52.5339 6.41876 52.9176 6.02886C53.3012 5.63896 53.8216 5.41992 54.3642 5.41992C54.7328 5.42043 55.0939 5.5259 55.4064 5.72438C55.4457 5.74513 55.4805 5.77374 55.5086 5.8085C55.5367 5.84325 55.5576 5.88342 55.57 5.9266C55.5825 5.96978 55.5862 6.01506 55.5809 6.05974C55.5757 6.10441 55.5617 6.14755 55.5396 6.18655C55.5171 6.22518 55.487 6.25867 55.4511 6.28494C55.4153 6.3112 55.3745 6.32967 55.3314 6.3392C55.2882 6.34872 55.2436 6.3491 55.2003 6.34029C55.1569 6.33149 55.1159 6.3137 55.0796 6.28804C54.8634 6.15748 54.6162 6.08928 54.3646 6.09078C54.1848 6.09078 54.0068 6.12679 53.8407 6.19674C53.6746 6.2667 53.5237 6.36923 53.3966 6.49848C53.2695 6.62773 53.1687 6.78116 53.1 6.95001C53.0313 7.11886 52.996 7.29982 52.9961 7.48254C52.9899 7.74424 53.0565 8.0024 53.1881 8.22739C53.3198 8.45238 53.5112 8.63507 53.7405 8.75448C53.9697 8.87389 54.2274 8.92519 54.484 8.90247C54.7406 8.87975 54.9858 8.78394 55.1912 8.62605C55.2235 8.59799 55.2609 8.57673 55.3013 8.56351C55.3417 8.5503 55.3842 8.54539 55.4265 8.54907C55.4688 8.55275 55.51 8.56495 55.5476 8.58495C55.5852 8.60496 55.6185 8.63237 55.6455 8.6656C55.7019 8.73365 55.7295 8.82165 55.7222 8.91033C55.715 8.999 55.6734 9.08113 55.6066 9.13873" fill="white"/>
<path d="M60.2226 5.76362C60.2226 5.80778 60.214 5.85151 60.1973 5.89226C60.1805 5.933 60.156 5.96996 60.125 6.00099C60.0941 6.03202 60.0574 6.05649 60.0171 6.073C59.9768 6.08951 59.9337 6.09771 59.8902 6.09715H59.0758V9.25229C59.0758 9.34119 59.0411 9.42645 58.9792 9.48931C58.9174 9.55217 58.8335 9.58749 58.746 9.58749C58.6585 9.58749 58.5746 9.55217 58.5128 9.48931C58.4509 9.42645 58.4162 9.34119 58.4162 9.25229V6.09619H57.6013C57.5138 6.09619 57.4299 6.06088 57.3681 5.99802C57.3062 5.93516 57.2715 5.8499 57.2715 5.761C57.2715 5.6721 57.3062 5.58684 57.3681 5.52398C57.4299 5.46112 57.5138 5.42581 57.6013 5.42581H59.8907C59.9345 5.42523 59.978 5.43358 60.0186 5.45035C60.0592 5.46712 60.096 5.49198 60.127 5.52347C60.158 5.55495 60.1825 5.59242 60.199 5.63367C60.2155 5.67491 60.2232 5.7191 60.2226 5.76362Z" fill="white"/>
<path d="M63.0677 7.87114H62.5633V9.25289C62.5613 9.34384 62.5241 9.43033 62.4598 9.49358C62.3954 9.55683 62.3091 9.59173 62.2196 9.5907C62.1315 9.59045 62.047 9.55479 61.9846 9.49151C61.9223 9.42823 61.8871 9.34245 61.8867 9.25289V5.76945C61.8895 5.67878 61.927 5.59279 61.9911 5.52972C62.0553 5.46666 62.1411 5.43147 62.2304 5.43164H63.4447C63.7568 5.43857 64.0544 5.56691 64.2761 5.79021C64.4978 6.01352 64.6268 6.31476 64.6365 6.63186C64.6307 6.88759 64.5486 7.1355 64.4011 7.34277C64.2536 7.55003 64.0476 7.70687 63.8104 7.79252L64.5812 9.07135C64.626 9.15016 64.639 9.24364 64.6172 9.33197C64.5954 9.4203 64.5406 9.49652 64.4644 9.54448C64.4117 9.57395 64.3525 9.58951 64.2924 9.58975C64.2346 9.5897 64.1778 9.57466 64.1273 9.54606C64.0768 9.51746 64.0344 9.47625 64.004 9.42632L63.0677 7.87114ZM63.966 6.6371C63.9597 6.4958 63.8994 6.36258 63.7979 6.26577C63.6965 6.16896 63.5618 6.1162 63.4227 6.1187H62.5633V7.1836H63.4227C63.5658 7.18373 63.7033 7.12638 63.805 7.02403C63.9068 6.92167 63.9647 6.7826 63.966 6.6371Z" fill="white"/>
<path d="M69.4987 5.76369V8.06787C69.5022 8.2699 69.4661 8.4706 69.3925 8.65829C69.3188 8.84597 69.2091 9.01686 69.0698 9.16099C68.9305 9.30512 68.7643 9.4196 68.5809 9.49775C68.3976 9.5759 68.2007 9.61615 68.0019 9.61615C67.8031 9.61615 67.6062 9.5759 67.4229 9.49775C67.2395 9.4196 67.0734 9.30512 66.934 9.16099C66.7947 9.01686 66.685 8.84597 66.6113 8.65829C66.5377 8.4706 66.5016 8.2699 66.5051 8.06787V5.76369C66.5051 5.67252 66.5407 5.58508 66.6042 5.52061C66.6676 5.45614 66.7536 5.41992 66.8434 5.41992C66.9331 5.41992 67.0192 5.45614 67.0826 5.52061C67.146 5.58508 67.1817 5.67252 67.1817 5.76369V8.06787C67.1817 8.29053 67.2687 8.50407 67.4236 8.66151C67.5786 8.81895 67.7887 8.90741 68.0078 8.90741C68.2268 8.90741 68.437 8.81895 68.5919 8.66151C68.7468 8.50407 68.8339 8.29053 68.8339 8.06787V5.76369C68.8333 5.71917 68.8415 5.67498 68.8581 5.63374C68.8746 5.59249 68.899 5.55502 68.93 5.52354C68.961 5.49205 68.9978 5.46719 69.0384 5.45042C69.079 5.43365 69.1225 5.4253 69.1663 5.42588C69.2101 5.4253 69.2536 5.43365 69.2942 5.45042C69.3347 5.46719 69.3716 5.49205 69.4026 5.52354C69.4336 5.55502 69.4581 5.59249 69.4746 5.63374C69.4911 5.67498 69.4993 5.71917 69.4987 5.76369Z" fill="white"/>
<path d="M75.4689 9.1783C75.4809 9.21976 75.4844 9.26326 75.4794 9.30616C75.4743 9.34907 75.4608 9.39048 75.4395 9.4279C75.4183 9.46532 75.3897 9.49797 75.3557 9.52386C75.3216 9.54975 75.2828 9.56835 75.2415 9.57853H75.2246C75.219 9.57853 75.219 9.57853 75.2138 9.58996H75.1749C75.0973 9.5893 75.0224 9.56151 74.9626 9.51127C74.9028 9.46102 74.8619 9.39139 74.8467 9.31409L74.3919 7.06041L73.555 9.3422C73.5328 9.41106 73.4897 9.47103 73.432 9.51354C73.3742 9.55605 73.3047 9.57894 73.2334 9.57894C73.1621 9.57894 73.0926 9.55605 73.0348 9.51354C72.9771 9.47103 72.934 9.41106 72.9118 9.3422L72.1743 7.16762L71.7861 9.31409C71.7738 9.39327 71.7338 9.46531 71.6736 9.51702C71.6133 9.56874 71.5367 9.59666 71.4579 9.59568C71.441 9.59568 71.4189 9.58996 71.4025 9.58996C71.358 9.5834 71.3156 9.56682 71.2782 9.54143C71.2408 9.51604 71.2094 9.48249 71.1864 9.44321C71.1597 9.40868 71.1408 9.36853 71.1312 9.32567C71.1217 9.28282 71.1216 9.23833 71.1311 9.19545L71.7021 5.70249C71.7163 5.62645 71.7552 5.55743 71.8124 5.5064C71.8697 5.45538 71.9421 5.42528 72.0182 5.4209H72.0458C72.1174 5.42085 72.1871 5.44391 72.2449 5.48672C72.3027 5.52954 72.3456 5.58991 72.3675 5.65913L73.2432 8.16629L74.158 5.64769C74.1794 5.58031 74.2218 5.52185 74.2788 5.48118C74.3358 5.44051 74.4043 5.41984 74.474 5.42233H74.4908C74.5665 5.42283 74.6396 5.45097 74.6965 5.50161C74.7535 5.55226 74.7906 5.62203 74.8012 5.6982L75.4689 9.1783Z" fill="white"/>
</g>
</svg>
