<svg width="64" height="18" viewBox="0 0 64 18" fill="none" xmlns="http://www.w3.org/2000/svg">
<mask id="mask0_1543_195613" style="mask-type:luminance" maskUnits="userSpaceOnUse" x="0" y="0" width="64" height="18">
<path d="M63.8305 0.48584H0.405273V17.4357H63.8305V0.48584Z" fill="white"/>
</mask>
<g mask="url(#mask0_1543_195613)">
<path d="M7.29528 3.05144L1.50559 0.551C1.38534 0.498985 1.25427 0.478074 1.12412 0.490138C0.99397 0.502201 0.868792 0.546863 0.759784 0.620127C0.650776 0.693391 0.561339 0.792973 0.499473 0.909964C0.437607 1.02695 0.405242 1.15771 0.405273 1.29052V7.72589C0.40527 7.86272 0.437891 7.99751 0.500345 8.11873C0.5628 8.23995 0.653227 8.34398 0.763887 8.42192C0.874548 8.49987 1.00214 8.5494 1.13576 8.56629C1.26937 8.58317 1.40502 8.5669 1.53109 8.51887L5.37243 7.05522L1.21068 5.29308C1.15109 5.26508 1.10449 5.2147 1.08068 5.15252C1.05686 5.09035 1.05767 5.02121 1.08294 4.95963C1.10821 4.89805 1.15597 4.84882 1.2162 4.82226C1.27643 4.79571 1.34444 4.7939 1.40596 4.81721L6.06864 6.79035L7.37937 6.29059C9.62224 5.50004 9.73901 3.92056 7.29568 3.05063M7.84405 5.09828C7.81815 5.16124 7.76876 5.2112 7.70669 5.23724C7.64462 5.26327 7.57493 5.26326 7.51288 5.2372L1.11583 2.5298C1.08509 2.5168 1.05716 2.49777 1.03365 2.4738C1.01014 2.44983 0.991511 2.42139 0.978818 2.3901C0.953183 2.32691 0.9533 2.25595 0.979142 2.19285C1.00498 2.12974 1.05444 2.07966 1.11662 2.05361C1.1788 2.02756 1.24862 2.02767 1.31071 2.05394L7.70735 4.76214C7.73816 4.77512 7.76614 4.79416 7.78969 4.81816C7.81325 4.84216 7.83191 4.87064 7.8446 4.90198C7.8573 4.93332 7.86379 4.9669 7.86369 5.0008C7.8636 5.03469 7.85692 5.06823 7.84405 5.0995" fill="#CC0066"/>
<path d="M38.3424 10.7817C38.3462 10.9755 38.3165 11.1685 38.2547 11.3519C38.2026 11.504 38.1178 11.6424 38.0065 11.7569C37.8976 11.8658 37.7657 11.9478 37.6207 11.9967C37.4593 12.0506 37.2901 12.077 37.1202 12.0749C37.0405 12.0749 36.9463 12.0712 36.8376 12.0639C36.7352 12.0582 36.6341 12.0374 36.5375 12.0024C36.488 11.9924 36.4433 11.9653 36.4114 11.9255C36.3795 11.8857 36.3622 11.8358 36.3626 11.7845V9.76477C36.3602 9.72572 36.3731 9.6873 36.3985 9.65784C36.4254 9.63032 36.4585 9.60976 36.4949 9.59791C36.5897 9.56792 36.6873 9.54837 36.7862 9.53959C36.8898 9.52987 36.9905 9.525 37.0883 9.525C37.2615 9.52307 37.4339 9.54876 37.5992 9.60114C37.7477 9.64756 37.884 9.7276 37.9977 9.83523C38.1106 9.94568 38.1979 10.0803 38.2532 10.2293C38.3173 10.4059 38.3482 10.5931 38.3444 10.7813M37.9264 10.7849C37.9295 10.6455 37.9083 10.5066 37.8638 10.3747C37.8271 10.2691 37.7672 10.1736 37.6885 10.0952C37.613 10.0222 37.5227 9.9669 37.4238 9.93324C37.3184 9.89749 37.2078 9.8797 37.0967 9.88059C36.9864 9.8787 36.8762 9.88848 36.7679 9.90975V11.6893C36.8225 11.7022 36.8781 11.7107 36.9341 11.7148C36.9949 11.7197 37.0575 11.7221 37.1218 11.7221C37.2323 11.7296 37.3432 11.7123 37.4465 11.6715C37.5498 11.6307 37.643 11.5674 37.7196 11.486C37.8702 11.2858 37.9434 11.0363 37.9252 10.7849" fill="#CC0066"/>
<path d="M38.7638 9.55778C38.7629 9.52544 38.7683 9.49323 38.7796 9.463C38.791 9.43277 38.8081 9.40511 38.8299 9.38161C38.8523 9.35802 38.8793 9.3395 38.9091 9.32729C38.939 9.31507 38.9711 9.30943 39.0033 9.31073C39.0349 9.30969 39.0664 9.31547 39.0956 9.32768C39.1249 9.3399 39.1513 9.35828 39.1731 9.38161C39.2157 9.43008 39.2392 9.49279 39.2392 9.55778C39.2392 9.62277 39.2157 9.68548 39.1731 9.73395C39.1513 9.75728 39.1249 9.77565 39.0956 9.78787C39.0664 9.80008 39.0349 9.80587 39.0033 9.80482C38.9711 9.80613 38.939 9.80049 38.9091 9.78827C38.8793 9.77605 38.8523 9.75754 38.8299 9.73395C38.808 9.71045 38.7909 9.68279 38.7796 9.65256C38.7682 9.62233 38.7628 9.59012 38.7638 9.55778ZM39.1998 12.0201C39.176 12.0296 39.1515 12.0369 39.1264 12.042C39.0919 12.0495 39.0566 12.0532 39.0212 12.0529C38.9635 12.0578 38.9059 12.0417 38.8586 12.0076C38.8398 11.9878 38.8253 11.9641 38.8164 11.9381C38.8074 11.912 38.8042 11.8844 38.8068 11.8569V10.1483L38.8817 10.1284C38.9168 10.1195 38.9528 10.1153 38.9889 10.1159C39.0457 10.1112 39.1022 10.1273 39.1484 10.1612C39.1669 10.1819 39.1809 10.2064 39.1894 10.233C39.198 10.2596 39.201 10.2877 39.1982 10.3155L39.1998 12.0201Z" fill="#CC0066"/>
<path d="M40.8997 11.8495C40.8453 11.8845 40.7865 11.9117 40.7248 11.9305C40.6446 11.9538 40.5614 11.9649 40.4781 11.9633C40.3707 11.964 40.2639 11.9467 40.1621 11.9122C40.0638 11.8787 39.9741 11.8234 39.8994 11.7503C39.8191 11.6699 39.758 11.5717 39.7209 11.4635C39.6744 11.3225 39.6527 11.1743 39.6567 11.0257C39.6541 10.8867 39.6758 10.7483 39.7209 10.6171C39.7597 10.5062 39.8226 10.4057 39.905 10.323C39.9857 10.2438 40.0818 10.1825 40.1872 10.1432C40.3046 10.1006 40.4287 10.0797 40.5534 10.0817C40.6685 10.0807 40.783 10.0977 40.8929 10.1323C40.984 10.1602 41.0706 10.2011 41.1504 10.2538C41.1886 10.2805 41.2213 10.3145 41.2468 10.3538C41.2719 10.3959 41.2843 10.4444 41.2827 10.4935V12.0799C41.2858 12.1995 41.264 12.3183 41.2185 12.4286C41.1788 12.5214 41.1167 12.6026 41.038 12.6647C40.956 12.7274 40.8623 12.7724 40.7626 12.7972C40.6509 12.8253 40.5361 12.8389 40.4211 12.8377C40.3102 12.8394 40.1996 12.8258 40.0923 12.7972C40.0204 12.7784 39.9508 12.7512 39.8851 12.7162C39.834 12.6844 39.7964 12.6344 39.7799 12.5759C39.7634 12.5174 39.7691 12.4547 39.7958 12.4003C39.8124 12.3688 39.8371 12.3425 39.8671 12.3241C39.9373 12.3745 40.0144 12.4142 40.0959 12.442C40.1945 12.4776 40.2985 12.4955 40.4032 12.4946C40.5332 12.5027 40.6622 12.4662 40.7694 12.391C40.8153 12.3498 40.851 12.2983 40.8736 12.2405C40.8963 12.1828 40.9052 12.1204 40.8997 12.0585V11.8495ZM40.5315 11.6316C40.6056 11.6337 40.6793 11.6199 40.7479 11.5911C40.8016 11.5677 40.8506 11.5345 40.8925 11.4931V10.5166C40.8496 10.489 40.8034 10.4671 40.755 10.4514C40.6921 10.431 40.6263 10.4211 40.5602 10.4223C40.4917 10.4195 40.4234 10.4313 40.3597 10.457C40.296 10.4827 40.2383 10.5216 40.1903 10.5713C40.0873 10.697 40.0366 10.8586 40.0493 11.0217C40.0471 11.1176 40.0597 11.2132 40.0867 11.3052C40.1075 11.3749 40.1428 11.4393 40.1903 11.4939C40.2321 11.5407 40.2841 11.5768 40.3422 11.5992C40.4028 11.6216 40.467 11.6323 40.5315 11.6316Z" fill="#CC0066"/>
<path d="M41.7735 9.55778C41.7726 9.52544 41.778 9.49323 41.7894 9.463C41.8007 9.43277 41.8178 9.40511 41.8397 9.38161C41.862 9.35802 41.889 9.3395 41.9189 9.32729C41.9488 9.31507 41.9809 9.30943 42.0131 9.31073C42.0447 9.30966 42.0761 9.31543 42.1054 9.32764C42.1347 9.33986 42.1611 9.35826 42.1828 9.38161C42.2254 9.43008 42.249 9.49279 42.249 9.55778C42.249 9.62277 42.2254 9.68548 42.1828 9.73395C42.1611 9.7573 42.1347 9.77569 42.1054 9.7879C42.0761 9.80012 42.0447 9.80589 42.0131 9.80482C41.9809 9.80613 41.9488 9.80049 41.9189 9.78827C41.889 9.77605 41.862 9.75754 41.8397 9.73395C41.8178 9.71045 41.8007 9.68279 41.7893 9.65256C41.778 9.62233 41.7726 9.59012 41.7735 9.55778ZM42.2095 12.0201C42.1857 12.0296 42.1612 12.0369 42.1362 12.042C42.1015 12.0496 42.0661 12.0532 42.0306 12.0529C41.9728 12.0578 41.9152 12.0417 41.868 12.0076C41.8491 11.9878 41.8347 11.9641 41.8257 11.9381C41.8168 11.9121 41.8135 11.8844 41.8162 11.8569V10.1483L41.8911 10.1284C41.9261 10.1195 41.9622 10.1153 41.9983 10.1159C42.055 10.1112 42.1116 10.1273 42.1577 10.1612C42.1762 10.1819 42.1902 10.2064 42.1988 10.233C42.2074 10.2596 42.2103 10.2877 42.2075 10.3155L42.2095 12.0201Z" fill="#CC0066"/>
<path d="M43.2309 11.6805C43.2971 11.7241 43.3753 11.7451 43.454 11.7404C43.5 11.74 43.5457 11.7334 43.5899 11.7206C43.6333 11.709 43.6753 11.6926 43.7151 11.6716C43.7325 11.6944 43.7481 11.7187 43.7617 11.7441C43.785 11.7913 43.7897 11.8457 43.7749 11.8964C43.7601 11.947 43.7269 11.99 43.682 12.0166C43.5899 12.0686 43.485 12.0925 43.3799 12.0855C43.2184 12.0938 43.059 12.0458 42.928 11.9494C42.8675 11.8937 42.8207 11.8244 42.7912 11.7471C42.7618 11.6697 42.7505 11.5865 42.7582 11.5039V9.61906C42.7843 9.60985 42.8109 9.60254 42.8379 9.59719C42.8732 9.58973 42.9091 9.58607 42.9451 9.58625C43.001 9.58162 43.0568 9.5971 43.1026 9.62999C43.121 9.64968 43.135 9.67321 43.1436 9.69895C43.1522 9.72468 43.1552 9.75201 43.1524 9.77904V10.1784H43.7386C43.7502 10.2004 43.7598 10.2234 43.7673 10.2472C43.777 10.2777 43.7818 10.3095 43.7816 10.3416C43.7816 10.4555 43.7351 10.5123 43.6421 10.5121H43.1524V11.4747C43.1483 11.513 43.1535 11.5516 43.1673 11.5874C43.1812 11.6231 43.2034 11.655 43.2321 11.6801" fill="#CC0066"/>
<path d="M44.84 10.0807C45.0386 10.0696 45.2351 10.1267 45.3979 10.2427C45.4701 10.3059 45.5265 10.3856 45.5626 10.4752C45.5986 10.5648 45.6132 10.6618 45.6052 10.7583V11.6991C45.6085 11.7501 45.5944 11.8008 45.5653 11.8425C45.5343 11.8796 45.4982 11.9121 45.4581 11.9389C45.3792 11.9838 45.2951 12.0186 45.2078 12.0425C45.0902 12.0748 44.9686 12.09 44.8468 12.0879C44.6454 12.0998 44.4457 12.0457 44.2769 11.9336C44.2085 11.8813 44.154 11.8126 44.1181 11.7337C44.0822 11.6548 44.0661 11.568 44.0713 11.4812C44.0668 11.406 44.0788 11.3306 44.1064 11.2606C44.134 11.1906 44.1764 11.1276 44.2307 11.0762C44.3624 10.9715 44.5227 10.9105 44.6898 10.9017L45.215 10.8434V10.7563C45.2193 10.7076 45.2117 10.6587 45.193 10.6137C45.1743 10.5687 45.1451 10.5291 45.1078 10.4983C45.02 10.4399 44.9161 10.4116 44.8113 10.4173C44.7133 10.4169 44.6158 10.4316 44.522 10.4606C44.4358 10.4869 44.352 10.5209 44.2717 10.5623C44.2466 10.5386 44.225 10.5113 44.2076 10.4813C44.1883 10.4485 44.1784 10.411 44.179 10.3728C44.1797 10.3347 44.1908 10.2975 44.2111 10.2654C44.2375 10.2312 44.2719 10.2043 44.3112 10.1873C44.3876 10.1495 44.4687 10.1223 44.5523 10.1063C44.6471 10.0876 44.7434 10.0785 44.84 10.0791M44.8472 11.757C44.9256 11.7586 45.0038 11.7488 45.0795 11.7279C45.1282 11.7159 45.1743 11.6949 45.2154 11.6659V11.154L44.8081 11.1977C44.7158 11.204 44.6263 11.2326 44.5471 11.2812C44.5181 11.3033 44.495 11.3326 44.48 11.3662C44.4651 11.3998 44.4587 11.4367 44.4614 11.4735C44.4598 11.513 44.4674 11.5523 44.4835 11.5883C44.4997 11.6242 44.5239 11.6558 44.5543 11.6805C44.6408 11.7384 44.7439 11.7652 44.8472 11.7566" fill="#CC0066"/>
<path d="M46.3508 12.0528C46.2941 12.0568 46.2378 12.0408 46.1914 12.0074C46.1719 11.988 46.157 11.9644 46.1477 11.9383C46.1384 11.9122 46.1349 11.8844 46.1376 11.8568V9.409L46.2125 9.38916C46.2475 9.38024 46.2836 9.37602 46.3197 9.3766C46.3761 9.3726 46.4322 9.38786 46.4791 9.41994C46.4987 9.43898 46.5137 9.4623 46.523 9.48813C46.5323 9.51396 46.5357 9.54161 46.5329 9.56898V12.0204C46.5114 12.0277 46.4848 12.035 46.4532 12.0423C46.4192 12.0499 46.3845 12.0536 46.3496 12.0532" fill="#CC0066"/>
<path d="M48.3291 11.1847V12.0202C48.3021 12.029 48.2747 12.0363 48.247 12.0421C48.2117 12.0496 48.1758 12.0532 48.1398 12.053C48.0806 12.0582 48.0215 12.0414 47.9736 12.0056C47.9547 11.9847 47.9403 11.96 47.9313 11.9331C47.9224 11.9061 47.9191 11.8776 47.9218 11.8493V9.76802C47.9194 9.72897 47.9323 9.69055 47.9577 9.6611C47.9846 9.63357 48.0177 9.61302 48.0541 9.60116C48.1455 9.56986 48.2402 9.54974 48.3363 9.54122C48.4425 9.53042 48.5437 9.52502 48.6399 9.52502C48.9016 9.50328 49.1618 9.58236 49.3688 9.74656C49.4484 9.82401 49.5107 9.91794 49.5514 10.022C49.5921 10.126 49.6103 10.2378 49.6047 10.3496C49.6097 10.462 49.5913 10.5743 49.5506 10.6789C49.5099 10.7836 49.448 10.8784 49.3688 10.9571C49.1711 11.1239 48.9172 11.2059 48.661 11.1859L48.3291 11.1847ZM48.6399 10.8323C48.7849 10.8407 48.9283 10.7978 49.0456 10.7108C49.0963 10.6665 49.136 10.6107 49.1618 10.548C49.1875 10.4853 49.1985 10.4174 49.1939 10.3496C49.1995 10.2832 49.1897 10.2163 49.1651 10.1545C49.1406 10.0926 49.1021 10.0375 49.0528 9.9936C48.9337 9.91108 48.7909 9.87145 48.6471 9.88102C48.5924 9.88102 48.5363 9.88344 48.4789 9.8883C48.4273 9.89241 48.3759 9.89972 48.3251 9.91017V10.8327L48.6399 10.8323Z" fill="#CC0066"/>
<path d="M50.6818 10.0807C50.8804 10.0696 51.0769 10.1267 51.2397 10.2427C51.3119 10.3059 51.3684 10.3856 51.4044 10.4752C51.4404 10.5648 51.455 10.6618 51.447 10.7583V11.6991C51.4503 11.7501 51.4362 11.8008 51.4071 11.8425C51.376 11.8796 51.34 11.9121 51.2999 11.9389C51.221 11.9838 51.1369 12.0186 51.0496 12.0425C50.932 12.0748 50.8104 12.09 50.6886 12.0879C50.4872 12.0998 50.2875 12.0457 50.1187 11.9336C50.0503 11.8813 49.9957 11.8126 49.9598 11.7337C49.924 11.6548 49.9079 11.568 49.913 11.4812C49.9086 11.406 49.9206 11.3306 49.9482 11.2606C49.9757 11.1906 50.0182 11.1276 50.0724 11.0762C50.2042 10.9714 50.3645 10.9105 50.5316 10.9017L51.0568 10.8434V10.7563C51.0611 10.7076 51.0536 10.6587 51.0349 10.6137C51.0162 10.5687 50.9869 10.5291 50.9496 10.4983C50.8618 10.4399 50.7579 10.4115 50.6531 10.4173C50.5551 10.4169 50.4575 10.4316 50.3638 10.4606C50.2776 10.4869 50.1938 10.521 50.1135 10.5623C50.0884 10.5386 50.0667 10.5113 50.0493 10.4813C50.0301 10.4485 50.0202 10.411 50.0208 10.3728C50.0215 10.3347 50.0326 10.2975 50.0529 10.2654C50.0792 10.2312 50.1137 10.2043 50.153 10.1873C50.2294 10.1495 50.3105 10.1223 50.3941 10.1063C50.4888 10.0876 50.5852 10.0785 50.6818 10.0791M50.689 11.757C50.7674 11.7586 50.8456 11.7488 50.9213 11.7279C50.97 11.7159 51.016 11.6949 51.0572 11.6659V11.154L50.6499 11.1977C50.5576 11.204 50.4681 11.2326 50.3889 11.2812C50.3599 11.3033 50.3368 11.3326 50.3218 11.3662C50.3069 11.3998 50.3005 11.4367 50.3032 11.4735C50.3016 11.513 50.3092 11.5523 50.3253 11.5883C50.3415 11.6242 50.3657 11.6558 50.396 11.6805C50.4826 11.7383 50.5857 11.7651 50.689 11.7566" fill="#CC0066"/>
<path d="M52.2944 11.5878C52.2301 11.4547 52.1521 11.2671 52.0605 11.0249C51.9688 10.7827 51.8813 10.509 51.7979 10.2039C51.8234 10.1735 51.8543 10.1482 51.8891 10.1294C51.9257 10.109 51.9669 10.0984 52.0087 10.0986C52.0571 10.0963 52.105 10.1106 52.1446 10.1391C52.1871 10.1782 52.217 10.2295 52.2303 10.2862C52.2993 10.504 52.3703 10.719 52.4431 10.9309C52.5159 11.1429 52.5962 11.3614 52.6842 11.5866H52.6985C52.7365 11.4994 52.7752 11.3983 52.8145 11.2833C52.8538 11.1682 52.8919 11.0459 52.9289 10.9163C52.9658 10.7867 53.001 10.6554 53.0345 10.5223C53.0679 10.3892 53.0977 10.2621 53.1237 10.1412C53.1479 10.129 53.1729 10.1187 53.1987 10.1104C53.2288 10.1014 53.2601 10.0972 53.2915 10.0978C53.3411 10.0959 53.3899 10.1101 53.431 10.1383C53.4506 10.1539 53.466 10.1741 53.476 10.1972C53.4859 10.2203 53.4901 10.2456 53.488 10.2708C53.4822 10.3789 53.4648 10.486 53.4362 10.5903C53.4016 10.7331 53.357 10.8918 53.3023 11.0662C53.2475 11.2406 53.185 11.4161 53.1146 11.5927C53.0442 11.7695 52.9732 11.9269 52.9018 12.0649C52.8069 12.2565 52.6931 12.4378 52.5622 12.606C52.5298 12.656 52.4872 12.6985 52.4373 12.7304C52.3874 12.7623 52.3313 12.783 52.2729 12.791C52.2423 12.7928 52.2116 12.7883 52.1828 12.7777C52.154 12.7672 52.1275 12.7507 52.1051 12.7295C52.0634 12.6869 52.0355 12.6324 52.0254 12.5732C52.0721 12.5305 52.1163 12.485 52.1577 12.4371C52.2053 12.3831 52.253 12.325 52.3008 12.2629C52.3486 12.2008 52.3944 12.1373 52.4383 12.0722C52.4798 12.0113 52.5162 11.9469 52.5471 11.8798C52.5005 11.8626 52.4584 11.8349 52.4239 11.7988C52.369 11.7353 52.325 11.6629 52.2936 11.5846" fill="#CC0066"/>
<path d="M55.9683 10.5043C55.8963 10.4467 55.8059 10.4178 55.7144 10.4233C55.646 10.423 55.5782 10.4368 55.5152 10.4638C55.4508 10.4916 55.3915 10.5302 55.3398 10.578C55.3447 10.6007 55.3483 10.6237 55.3506 10.6469C55.353 10.6712 55.3542 10.6955 55.3542 10.7194V12.0198C55.3304 12.0293 55.3058 12.0366 55.2808 12.0417C55.2474 12.0491 55.2134 12.0528 55.1792 12.0526C55.1208 12.0572 55.0627 12.0412 55.0146 12.0073C54.9953 11.9878 54.9804 11.9641 54.9712 11.9381C54.9619 11.912 54.9585 11.8842 54.9612 11.8566V10.7631C54.9654 10.7156 54.9593 10.6677 54.9432 10.6228C54.9272 10.578 54.9016 10.5372 54.8684 10.5035C54.7964 10.4458 54.706 10.417 54.6145 10.4225C54.5464 10.4221 54.4789 10.4345 54.4152 10.459C54.3601 10.48 54.3075 10.5071 54.2583 10.54V12.0218C54.2345 12.0313 54.2099 12.0386 54.1849 12.0437C54.1502 12.0513 54.1148 12.0549 54.0793 12.0546C54.0226 12.0587 53.9663 12.0426 53.9199 12.0093C53.9005 11.9898 53.8855 11.9662 53.8762 11.9401C53.8669 11.9141 53.8635 11.8862 53.8661 11.8586V10.5294C53.8635 10.477 53.8752 10.4248 53.9 10.3788C53.9298 10.3336 53.968 10.2947 54.0123 10.2642C54.1969 10.1474 54.4095 10.0846 54.6269 10.0827C54.7354 10.0808 54.8434 10.0986 54.9457 10.1354C55.034 10.1674 55.1137 10.2203 55.178 10.2897C55.2529 10.2281 55.3366 10.1785 55.4263 10.1427C55.5339 10.1007 55.6486 10.0803 55.7638 10.0827C55.8583 10.0821 55.9523 10.0957 56.0428 10.1232C56.1239 10.1472 56.1989 10.1886 56.2628 10.2447C56.3255 10.302 56.3749 10.3727 56.4075 10.4517C56.4454 10.5468 56.4637 10.6488 56.4613 10.7514V12.0226C56.4351 12.0313 56.4085 12.0386 56.3816 12.0445C56.3482 12.0519 56.3141 12.0556 56.2799 12.0554C56.2233 12.0594 56.167 12.0434 56.1205 12.0101C56.1011 11.9906 56.0861 11.967 56.0768 11.9409C56.0675 11.9149 56.0641 11.887 56.0667 11.8594V10.7659C56.071 10.7184 56.0649 10.6705 56.0489 10.6256C56.0328 10.5807 56.0072 10.54 55.9739 10.5063" fill="#CC0066"/>
<path d="M57.2871 11.2975C57.31 11.4328 57.3828 11.5542 57.4907 11.6369C57.607 11.7147 57.7445 11.7534 57.8836 11.7474C57.982 11.7487 58.0796 11.7308 58.1714 11.6948C58.2462 11.6661 58.3176 11.6288 58.3842 11.5838C58.4168 11.6011 58.444 11.6272 58.463 11.6592C58.4819 11.6912 58.4917 11.7279 58.4914 11.7653C58.4909 11.8125 58.4732 11.8578 58.4416 11.8924C58.4034 11.9348 58.3572 11.9688 58.3057 11.9925C58.242 12.0225 58.1752 12.0451 58.1064 12.0597C57.8922 12.1038 57.6704 12.0899 57.4632 12.0192C57.348 11.9781 57.2431 11.9117 57.156 11.8248C57.0671 11.7345 56.9991 11.6254 56.9567 11.5052C56.9081 11.3647 56.8844 11.2164 56.8869 11.0675C56.8842 10.9223 56.9066 10.7778 56.9531 10.6406C56.9924 10.5262 57.0552 10.4215 57.1372 10.3336C57.2154 10.2515 57.3098 10.1872 57.4142 10.1449C57.5216 10.1011 57.6364 10.0789 57.7521 10.0797C57.8653 10.0781 57.9777 10.0997 58.0825 10.1433C58.1786 10.1833 58.2657 10.2428 58.3385 10.318C58.4113 10.3933 58.4683 10.4827 58.5061 10.581C58.5474 10.6874 58.568 10.8009 58.5667 10.9152C58.569 10.9419 58.5661 10.9689 58.5581 10.9944C58.5501 11.02 58.5372 11.0438 58.5201 11.0642C58.4835 11.0984 58.4372 11.12 58.3878 11.1258L57.2871 11.2975ZM57.7517 10.4065C57.687 10.405 57.6227 10.4176 57.5632 10.4436C57.5037 10.4696 57.4505 10.5084 57.407 10.5572C57.3085 10.6764 57.257 10.8285 57.2623 10.984L58.1913 10.8423C58.1848 10.7284 58.1415 10.62 58.0681 10.5337C58.028 10.4901 57.9788 10.4561 57.9241 10.4341C57.8695 10.4121 57.8104 10.4027 57.7517 10.4065Z" fill="#CC0066"/>
<path d="M60.0603 10.515C59.9808 10.4496 59.8803 10.4165 59.7782 10.4222C59.6981 10.421 59.6184 10.4333 59.5423 10.4587C59.4804 10.48 59.4207 10.5071 59.3637 10.5397V12.0215C59.34 12.031 59.3154 12.0383 59.2904 12.0434C59.2557 12.051 59.2203 12.0546 59.1848 12.0543C59.1281 12.0583 59.0718 12.0423 59.0254 12.009C59.0059 11.9895 58.991 11.9659 58.9817 11.9398C58.9724 11.9138 58.9689 11.8859 58.9716 11.8583V10.5291C58.9691 10.4767 58.9808 10.4246 59.0055 10.3785C59.0355 10.3333 59.0738 10.2943 59.1182 10.2639C59.2061 10.2136 59.299 10.1729 59.3952 10.1424C59.5194 10.102 59.6491 10.0825 59.7794 10.0844C59.985 10.0725 60.1882 10.1349 60.3529 10.2606C60.4253 10.3273 60.4819 10.4098 60.5181 10.5021C60.5544 10.5943 60.5694 10.6937 60.5621 10.7928V12.024C60.537 12.033 60.5113 12.0403 60.4852 12.0458C60.4506 12.0534 60.4153 12.057 60.38 12.0568C60.3233 12.0608 60.267 12.0447 60.2205 12.0114C60.2012 11.9919 60.1863 11.9683 60.1771 11.9422C60.1678 11.9162 60.1644 11.8883 60.1671 11.8608V10.8078C60.1716 10.7549 60.1646 10.7016 60.1467 10.6517C60.1289 10.6019 60.1005 10.5566 60.0636 10.519" fill="#CC0066"/>
<path d="M61.559 11.6805C61.6253 11.724 61.7035 11.745 61.7822 11.7404C61.8282 11.7401 61.8739 11.7334 61.9181 11.7206C61.9615 11.709 62.0034 11.6926 62.0432 11.6716C62.0606 11.6944 62.0763 11.7187 62.0899 11.7441C62.1133 11.7913 62.118 11.8458 62.1032 11.8964C62.0884 11.9471 62.0551 11.9901 62.0101 12.0166C61.918 12.0686 61.8132 12.0925 61.7081 12.0855C61.5466 12.0938 61.3871 12.0458 61.2562 11.9494C61.1957 11.8937 61.1488 11.8244 61.1194 11.7471C61.0899 11.6697 61.0786 11.5865 61.0864 11.5039V9.61906C61.1124 9.60985 61.1391 9.60254 61.1661 9.59719C61.2014 9.58974 61.2373 9.58607 61.2733 9.58625C61.3292 9.58162 61.3849 9.5971 61.4307 9.62999C61.4492 9.64965 61.4633 9.67316 61.472 9.6989C61.4806 9.72463 61.4837 9.75198 61.4809 9.77904V10.1784H62.0672C62.0789 10.2003 62.0885 10.2234 62.0959 10.2472C62.1056 10.2777 62.1104 10.3095 62.1102 10.3416C62.1102 10.4555 62.0637 10.5123 61.9707 10.5121H61.4809V11.4747C61.4769 11.513 61.482 11.5516 61.4959 11.5874C61.5098 11.6231 61.532 11.655 61.5606 11.6801" fill="#CC0066"/>
<path d="M63.8301 11.5083C63.8337 11.5888 63.8186 11.6691 63.786 11.7426C63.7534 11.8161 63.7042 11.8808 63.6425 11.9315C63.4834 12.0448 63.291 12.0993 63.0973 12.0858C63.005 12.0865 62.9129 12.0779 62.8223 12.0603C62.7494 12.0468 62.6785 12.0237 62.6115 11.9914C62.5595 11.9664 62.5134 11.9305 62.476 11.8861C62.4439 11.8489 62.4261 11.8012 62.4258 11.7517C62.4257 11.713 62.4348 11.6749 62.4525 11.6407C62.4706 11.6052 62.4982 11.5755 62.5322 11.5552C62.6075 11.6071 62.6876 11.6515 62.7713 11.6877C62.8709 11.7294 62.978 11.7498 63.0857 11.7476C63.1768 11.7536 63.2676 11.7322 63.3467 11.6861C63.3755 11.6668 63.3988 11.6403 63.4144 11.6091C63.4301 11.578 63.4375 11.5432 63.436 11.5083C63.4375 11.4785 63.4329 11.4487 63.4225 11.4208C63.4121 11.3929 63.3961 11.3675 63.3754 11.3463C63.3233 11.3002 63.2605 11.2683 63.1929 11.2535L62.9355 11.181C62.7957 11.1488 62.6664 11.0806 62.56 10.983C62.5186 10.9368 62.4866 10.8827 62.4661 10.8238C62.4455 10.7649 62.4369 10.7024 62.4405 10.64C62.4401 10.5641 62.456 10.489 62.4871 10.42C62.518 10.3513 62.5638 10.2905 62.6211 10.2423C62.6863 10.189 62.7609 10.149 62.841 10.1244C62.9382 10.094 63.0394 10.0792 63.1411 10.0807C63.2251 10.0798 63.309 10.0876 63.3914 10.1042C63.4573 10.1173 63.5214 10.1381 63.5827 10.1661C63.631 10.1874 63.6738 10.2197 63.7078 10.2605C63.7362 10.2944 63.7521 10.3374 63.7524 10.382C63.7533 10.4201 63.744 10.4577 63.7257 10.4909C63.7092 10.5208 63.6867 10.5467 63.6596 10.5671C63.5943 10.5295 63.5262 10.4973 63.4559 10.4707C63.3648 10.435 63.2678 10.4172 63.1702 10.418C63.0831 10.413 62.9963 10.4331 62.9199 10.4759C62.8962 10.4911 62.876 10.5114 62.8608 10.5353C62.8456 10.5592 62.8357 10.5863 62.8319 10.6145C62.8281 10.6427 62.8305 10.6715 62.8388 10.6987C62.8471 10.7259 62.8612 10.7509 62.8801 10.772C62.9301 10.8157 62.9906 10.8452 63.0554 10.8574L63.277 10.9158C63.4328 10.9526 63.5771 11.0282 63.697 11.1357C63.743 11.1853 63.7786 11.2438 63.8016 11.3078C63.8246 11.3718 63.8346 11.4398 63.831 11.5079" fill="#CC0066"/>
<path d="M9.28203 5.79639V12.8866C9.28205 13.3508 9.14194 13.8037 8.88061 14.1844C8.61928 14.5651 8.24931 14.8551 7.82066 15.0153L1.4579 17.3934C1.35775 17.4309 1.25017 17.4433 1.1443 17.4295C1.03844 17.4157 0.937431 17.376 0.849881 17.314C0.762332 17.2519 0.690835 17.1693 0.641477 17.0731C0.59212 16.977 0.566366 16.8701 0.566406 16.7616V10.7454C0.566611 10.3836 0.675831 10.0305 0.87938 9.73368C1.08293 9.43682 1.37104 9.21043 1.70498 9.08494L7.58593 6.87448C8.51409 6.49257 8.87674 6.25889 9.28243 5.79841" fill="white"/>
<path d="M14.8754 7.59045C14.8687 7.85408 14.7638 8.1053 14.5818 8.29327C14.3998 8.48125 14.1543 8.59194 13.895 8.60294H12.5616C12.4847 8.60479 12.4102 8.57554 12.3546 8.52162C12.2989 8.4677 12.2666 8.39353 12.2647 8.31539V5.36379C12.2641 5.32464 12.2712 5.28577 12.2857 5.24948C12.3002 5.21319 12.3217 5.18023 12.3489 5.15254C12.3762 5.12485 12.4086 5.10301 12.4443 5.0883C12.48 5.0736 12.5183 5.06633 12.5568 5.06693H13.8436C14.0361 5.07727 14.2215 5.14414 14.3773 5.25941C14.5332 5.37469 14.6527 5.53343 14.7216 5.71638C14.7904 5.89934 14.8056 6.09867 14.7652 6.2902C14.7248 6.48173 14.6306 6.65723 14.494 6.79545C14.6117 6.89089 14.707 7.01175 14.773 7.14925C14.839 7.28675 14.8737 7.43746 14.8754 7.59045ZM12.8306 6.53747L13.7779 6.52775C13.8929 6.5239 14.0022 6.47573 14.0836 6.39301C14.1651 6.31028 14.2124 6.19918 14.2162 6.08225C14.2155 5.96978 14.1719 5.86198 14.0945 5.78158C14.0171 5.70119 13.912 5.65449 13.8014 5.65134H12.8306V6.53747ZM14.2916 7.59045C14.2836 7.47127 14.2325 7.35931 14.1481 7.2762C14.0637 7.19309 13.9519 7.14474 13.8345 7.1405H12.8541V8.02623H13.8623C13.9749 8.02258 14.0819 7.9755 14.1616 7.89455C14.2412 7.81361 14.2876 7.70487 14.2912 7.59045" fill="white"/>
<path d="M17.1953 7.14047H16.7665V8.31496C16.7648 8.39226 16.7332 8.46578 16.6785 8.51954C16.6238 8.5733 16.5505 8.60297 16.4744 8.6021C16.3995 8.60188 16.3277 8.57158 16.2747 8.51778C16.2216 8.46399 16.1917 8.39108 16.1914 8.31496V5.35404C16.1938 5.27697 16.2256 5.20387 16.2802 5.15027C16.3347 5.09666 16.4076 5.06675 16.4835 5.0669H17.5153C17.7806 5.07278 18.0335 5.18187 18.222 5.37168C18.4105 5.56149 18.5201 5.81755 18.5283 6.08708C18.5234 6.30445 18.4536 6.51518 18.3282 6.69135C18.2028 6.86753 18.0277 7.00084 17.8261 7.07365L18.4813 8.16065C18.5195 8.22759 18.5305 8.30701 18.5121 8.38209C18.4936 8.45716 18.4472 8.52198 18.3825 8.56281C18.3376 8.58784 18.2874 8.60107 18.2362 8.60129C18.1871 8.60124 18.1388 8.58846 18.0959 8.56415C18.053 8.53984 18.017 8.50481 17.9911 8.46237L17.1953 7.14047ZM17.9589 6.09153C17.9535 5.97143 17.9022 5.85819 17.816 5.7759C17.7297 5.69362 17.6152 5.64877 17.497 5.6509H16.7665V6.55606H17.497C17.6187 6.55617 17.7355 6.50742 17.822 6.42042C17.9085 6.33342 17.9577 6.21521 17.9589 6.09153Z" fill="white"/>
<path d="M21.8363 8.60075C21.3767 8.59573 20.9378 8.40601 20.6155 8.07308C20.2932 7.74015 20.1137 7.29108 20.1162 6.82404C20.1222 6.48019 20.228 6.14579 20.4202 5.86279C20.6125 5.57979 20.8828 5.36081 21.1971 5.23331C21.5113 5.10581 21.8557 5.07548 22.1869 5.14612C22.5181 5.21675 22.8214 5.38522 23.0587 5.63037C23.296 5.87553 23.4568 6.18645 23.5209 6.52413C23.585 6.86181 23.5495 7.2112 23.419 7.52848C23.2884 7.84575 23.0685 8.11677 22.787 8.30753C22.5054 8.49829 22.1747 8.6003 21.8363 8.60075ZM20.6722 6.82404C20.6726 7.05851 20.7414 7.2876 20.8699 7.48232C20.9984 7.67705 21.1809 7.82867 21.3942 7.91801C21.6075 8.00735 21.8421 8.03039 22.0683 7.98423C22.2945 7.93806 22.5022 7.82476 22.665 7.65865C22.8278 7.49255 22.9386 7.28109 22.9831 7.05104C23.0277 6.82099 23.0041 6.58267 22.9154 6.36622C22.8267 6.14978 22.6768 5.96493 22.4847 5.83505C22.2927 5.70518 22.067 5.63611 21.8363 5.63659C21.5277 5.63967 21.2327 5.76591 21.0149 5.98806C20.7971 6.21021 20.674 6.51046 20.6722 6.82404Z" fill="white"/>
<path d="M27.6236 8.57739C27.5872 8.59183 27.5482 8.59868 27.5091 8.59754C27.4699 8.5964 27.4314 8.58728 27.3958 8.57074C27.3602 8.5542 27.3283 8.53057 27.3018 8.50124C27.2754 8.47191 27.255 8.43748 27.2419 8.4L26.4448 6.21302L25.6438 8.4C25.6316 8.43758 25.6119 8.47222 25.586 8.50176C25.5601 8.53131 25.5285 8.55513 25.4931 8.57176C25.4578 8.58839 25.4195 8.59747 25.3805 8.59844C25.3416 8.5994 25.3029 8.59224 25.2668 8.57739C25.2296 8.56444 25.1955 8.54395 25.1663 8.51715C25.1372 8.49035 25.1138 8.45781 25.0975 8.42151C25.0811 8.3852 25.0723 8.3459 25.0714 8.306C25.0705 8.2661 25.0776 8.22643 25.0922 8.1894L26.1571 5.25359C26.1795 5.19493 26.219 5.14465 26.2704 5.10953C26.3218 5.07441 26.3825 5.05614 26.4444 5.05717C26.506 5.05747 26.5662 5.07628 26.6173 5.11123C26.6684 5.14618 26.7083 5.19571 26.7318 5.25359L27.7966 8.1894C27.8113 8.2264 27.8184 8.26605 27.8175 8.30593C27.8166 8.34582 27.8078 8.3851 27.7915 8.4214C27.7752 8.45769 27.7518 8.49024 27.7227 8.51706C27.6937 8.54387 27.6596 8.5644 27.6224 8.57739" fill="white"/>
<path d="M28.9854 8.31416V5.36823C28.9872 5.29266 29.0175 5.22069 29.0701 5.16724C29.1227 5.11378 29.1935 5.08294 29.2679 5.08109H29.9701C30.223 5.07958 30.4734 5.13172 30.7054 5.23418C30.9283 5.33356 31.1275 5.48052 31.2896 5.66509C31.4513 5.8517 31.572 6.07126 31.6435 6.30907C31.7151 6.54688 31.7359 6.79747 31.7045 7.0441C31.6525 7.47235 31.4486 7.86667 31.1311 8.15317C30.8136 8.43967 30.4043 8.59871 29.9797 8.60049H29.2683C29.1939 8.59864 29.1231 8.5678 29.0705 8.51434C29.0179 8.46089 28.9876 8.38892 28.9857 8.31335M31.1346 6.97687C31.1595 6.81147 31.1483 6.64253 31.1019 6.48199C31.0555 6.32145 30.9749 6.17323 30.866 6.04781C30.7533 5.92046 30.615 5.81911 30.4606 5.75058C30.3061 5.68205 30.139 5.64793 29.9705 5.65051H29.5512V8.02581H29.98C30.2659 8.02594 30.5418 7.91905 30.755 7.72556C30.9681 7.53206 31.1037 7.26552 31.1358 6.97687" fill="white"/>
<path d="M34.5028 8.10811C34.3617 8.32462 34.1444 8.47801 33.8956 8.53676C33.6467 8.59551 33.3851 8.55516 33.1646 8.424C33.0969 8.38233 33.047 8.31661 33.0244 8.23959C33.0017 8.16258 33.0081 8.07978 33.0422 8.00726C33.0934 7.94717 33.1649 7.90889 33.2426 7.90003C33.3203 7.89117 33.3985 7.9124 33.4615 7.95948C33.5591 8.01337 33.6733 8.02754 33.7809 7.99912C33.8885 7.97069 33.9814 7.90181 34.0409 7.80639C34.0738 7.75673 34.0967 7.70097 34.1083 7.64231C34.12 7.58365 34.1201 7.52323 34.1087 7.46451C34.0974 7.40579 34.0747 7.34992 34.0421 7.30011C34.0095 7.25029 33.9675 7.2075 33.9186 7.17419C33.6878 7.02556 33.6795 7.0211 33.4567 6.87247C33.2361 6.72702 33.0814 6.49849 33.0266 6.23715C32.9719 5.97581 33.0215 5.70306 33.1646 5.47888C33.3071 5.26415 33.5243 5.11219 33.7725 5.05352C34.0208 4.99484 34.2817 5.03381 34.5028 5.16258C34.5682 5.20141 34.6164 5.2643 34.6375 5.33825C34.6585 5.4122 34.6509 5.49154 34.616 5.55988C34.5692 5.6225 34.5005 5.66443 34.4242 5.67695C34.3478 5.68946 34.2696 5.67162 34.2059 5.62711C34.1039 5.57436 33.986 5.56333 33.8762 5.59629C33.7665 5.62925 33.6734 5.7037 33.6161 5.80431C33.5587 5.90492 33.5416 6.02405 33.568 6.13716C33.5945 6.25027 33.6626 6.34878 33.7583 6.4124C33.8779 6.48894 33.8779 6.48894 34.2155 6.71411C34.3245 6.78637 34.4183 6.87976 34.4918 6.98894C34.5652 7.09811 34.6168 7.22093 34.6435 7.35036C34.6702 7.4798 34.6714 7.61331 34.6473 7.74327C34.6232 7.87322 34.5741 7.99746 34.5028 8.10811Z" fill="white"/>
<path d="M37.6849 7.13195C37.4214 7.15097 37.1569 7.15422 36.893 7.14167V8.31615C36.8914 8.39346 36.8597 8.46698 36.8051 8.52074C36.7504 8.5745 36.677 8.60417 36.6009 8.6033C36.5261 8.60298 36.4544 8.57262 36.4015 8.51884C36.3486 8.46506 36.3187 8.39221 36.3184 8.31615V5.36334C36.3179 5.32549 36.3249 5.28793 36.3389 5.25287C36.3529 5.21782 36.3737 5.18597 36.4001 5.1592C36.4264 5.13244 36.4577 5.11131 36.4922 5.09706C36.5267 5.0828 36.5637 5.07571 36.6009 5.0762H37.6566C37.9197 5.08452 38.1694 5.19573 38.3538 5.38663C38.5381 5.57753 38.6429 5.83338 38.6461 6.10083C38.6419 6.36358 38.5407 6.61513 38.3627 6.80576C38.1848 6.99639 37.9429 7.11221 37.6849 7.13033M37.6191 5.65088H36.8934V6.55605H37.6191C37.7406 6.55532 37.857 6.5063 37.9433 6.41947C38.0296 6.33265 38.079 6.21493 38.081 6.09152C38.0749 5.97169 38.0234 5.85893 37.9373 5.77681C37.8512 5.69469 37.7372 5.64957 37.6191 5.65088Z" fill="white"/>
<path d="M40.1533 8.31425V5.35455C40.1536 5.27849 40.1835 5.20564 40.2364 5.15186C40.2894 5.09808 40.361 5.06773 40.4359 5.06741H42.1336C42.2097 5.06643 42.2831 5.09606 42.3378 5.14984C42.3925 5.20363 42.4241 5.2772 42.4257 5.35455C42.4253 5.43315 42.3943 5.50841 42.3397 5.56399C42.285 5.61957 42.2109 5.65098 42.1336 5.65141H40.7292V6.55657H41.7896C41.8269 6.55608 41.8638 6.56318 41.8983 6.57743C41.9328 6.59169 41.9642 6.61282 41.9905 6.63958C42.0168 6.66634 42.0376 6.6982 42.0517 6.73325C42.0657 6.76831 42.0727 6.80587 42.0722 6.84371C42.0727 6.88159 42.0658 6.91919 42.0518 6.9543C42.0378 6.98941 42.017 7.0213 41.9907 7.04811C41.9643 7.07491 41.933 7.09608 41.8984 7.11036C41.8639 7.12465 41.8269 7.13175 41.7896 7.13126H40.7292V8.01699H42.1336C42.2109 8.01741 42.285 8.04882 42.3397 8.1044C42.3943 8.15998 42.4253 8.23524 42.4257 8.31384C42.424 8.39115 42.3924 8.46467 42.3377 8.51843C42.283 8.5722 42.2096 8.60186 42.1336 8.60099H40.4371C40.3622 8.60067 40.2905 8.57031 40.2376 8.51653C40.1847 8.46275 40.1548 8.3899 40.1545 8.31384" fill="white"/>
<path d="M46.8601 8.21811C46.56 8.46066 46.1878 8.59233 45.8044 8.59152C45.3432 8.59152 44.9009 8.40533 44.5748 8.07392C44.2487 7.74251 44.0654 7.29301 44.0654 6.82432C44.0654 6.35564 44.2487 5.90614 44.5748 5.57473C44.9009 5.24331 45.3432 5.05713 45.8044 5.05713C46.1177 5.05756 46.4246 5.14721 46.6903 5.31592C46.7237 5.33356 46.7532 5.35788 46.7771 5.38742C46.801 5.41696 46.8188 5.4511 46.8294 5.4878C46.8399 5.5245 46.8431 5.563 46.8386 5.60097C46.8342 5.63895 46.8222 5.67561 46.8035 5.70877C46.7843 5.7416 46.7587 5.77007 46.7283 5.79239C46.6978 5.81472 46.6632 5.83042 46.6265 5.83851C46.5898 5.84661 46.5519 5.84693 46.515 5.83945C46.4782 5.83196 46.4433 5.81684 46.4125 5.79503C46.2287 5.68405 46.0186 5.62609 45.8048 5.62736C45.6519 5.62736 45.5006 5.65797 45.3594 5.71743C45.2182 5.77689 45.09 5.86404 44.9819 5.9739C44.8739 6.08376 44.7882 6.21418 44.7298 6.3577C44.6714 6.50122 44.6414 6.65504 44.6415 6.81035C44.6362 7.0328 44.6928 7.25224 44.8047 7.44348C44.9167 7.63472 45.0794 7.79001 45.2742 7.89151C45.4691 7.99301 45.6881 8.0366 45.9062 8.01729C46.1244 7.99798 46.3327 7.91655 46.5074 7.78234C46.5348 7.75849 46.5666 7.74042 46.6009 7.72918C46.6353 7.71795 46.6714 7.71377 46.7074 7.7169C46.7433 7.72003 46.7783 7.7304 46.8103 7.74741C46.8422 7.76441 46.8705 7.78771 46.8935 7.81595C46.9415 7.8738 46.9649 7.9486 46.9587 8.02397C46.9525 8.09935 46.9172 8.16916 46.8605 8.21811" fill="white"/>
<path d="M50.7839 5.34918C50.7839 5.38671 50.7765 5.42388 50.7623 5.45851C50.7481 5.49315 50.7272 5.52457 50.7009 5.55094C50.6746 5.57731 50.6434 5.59812 50.6092 5.61215C50.5749 5.62618 50.5383 5.63315 50.5013 5.63267H49.8091V8.31455C49.8091 8.39011 49.7796 8.46258 49.727 8.51601C49.6744 8.56945 49.6031 8.59946 49.5287 8.59946C49.4544 8.59946 49.3831 8.56945 49.3305 8.51601C49.2779 8.46258 49.2484 8.39011 49.2484 8.31455V5.63186H48.5557C48.4814 5.63186 48.4101 5.60185 48.3575 5.54841C48.3049 5.49498 48.2754 5.42251 48.2754 5.34695C48.2754 5.27138 48.3049 5.19892 48.3575 5.14548C48.4101 5.09205 48.4814 5.06204 48.5557 5.06204H50.5017C50.539 5.06155 50.5759 5.06864 50.6104 5.0829C50.6449 5.09715 50.6762 5.11828 50.7026 5.14504C50.7289 5.17181 50.7497 5.20366 50.7638 5.23871C50.7778 5.27377 50.7844 5.31133 50.7839 5.34918Z" fill="white"/>
<path d="M53.2031 7.14047H52.7743V8.31496C52.7726 8.39226 52.741 8.46578 52.6863 8.51954C52.6316 8.5733 52.5582 8.60297 52.4822 8.6021C52.4072 8.60188 52.3355 8.57158 52.2825 8.51778C52.2294 8.46399 52.1995 8.39108 52.1992 8.31496V5.35404C52.2016 5.27697 52.2334 5.20387 52.288 5.15027C52.3425 5.09666 52.4154 5.06675 52.4913 5.0669H53.5235C53.7888 5.07278 54.0417 5.18187 54.2302 5.37168C54.4187 5.56149 54.5283 5.81755 54.5365 6.08708C54.5316 6.30445 54.4618 6.51518 54.3364 6.69135C54.2111 6.86753 54.036 7.00084 53.8344 7.07365L54.4895 8.16065C54.5276 8.22764 54.5386 8.3071 54.5201 8.38218C54.5016 8.45725 54.455 8.52205 54.3903 8.56281C54.3454 8.58786 54.2952 8.60108 54.244 8.60129C54.1949 8.60124 54.1466 8.58846 54.1037 8.56415C54.0608 8.53984 54.0248 8.50481 53.9989 8.46237L53.2031 7.14047ZM53.9666 6.09153C53.9613 5.97143 53.91 5.85819 53.8238 5.7759C53.7375 5.69362 53.6231 5.64877 53.5048 5.6509H52.7743V6.55606H53.5048C53.6265 6.55617 53.7433 6.50742 53.8298 6.42042C53.9163 6.33342 53.9655 6.21521 53.9666 6.09153Z" fill="white"/>
<path d="M58.6688 5.34933V7.30789C58.6718 7.47961 58.6411 7.65021 58.5785 7.80974C58.5159 7.96927 58.4226 8.11453 58.3042 8.23704C58.1858 8.35955 58.0445 8.45686 57.8887 8.52328C57.7328 8.58971 57.5655 8.62392 57.3965 8.62392C57.2275 8.62392 57.0602 8.58971 56.9043 8.52328C56.7485 8.45686 56.6072 8.35955 56.4888 8.23704C56.3703 8.11453 56.2771 7.96927 56.2145 7.80974C56.1519 7.65021 56.1212 7.47961 56.1242 7.30789V5.34933C56.1242 5.27184 56.1545 5.19751 56.2084 5.14272C56.2624 5.08792 56.3355 5.05713 56.4117 5.05713C56.488 5.05713 56.5612 5.08792 56.6151 5.14272C56.669 5.19751 56.6993 5.27184 56.6993 5.34933V7.30789C56.6993 7.49715 56.7733 7.67865 56.905 7.81248C57.0367 7.94631 57.2152 8.02149 57.4015 8.02149C57.5877 8.02149 57.7663 7.94631 57.898 7.81248C58.0297 7.67865 58.1037 7.49715 58.1037 7.30789V5.34933C58.1032 5.31149 58.1102 5.27393 58.1242 5.23887C58.1382 5.20381 58.159 5.17196 58.1854 5.1452C58.2117 5.11844 58.243 5.09731 58.2775 5.08305C58.312 5.0688 58.349 5.0617 58.3862 5.06219C58.4235 5.0617 58.4604 5.0688 58.4949 5.08305C58.5294 5.09731 58.5608 5.11844 58.5871 5.1452C58.6134 5.17196 58.6342 5.20381 58.6482 5.23887C58.6623 5.27393 58.6693 5.31149 58.6688 5.34933Z" fill="white"/>
<path d="M63.7439 8.2519C63.7541 8.28713 63.7571 8.32411 63.7528 8.36058C63.7485 8.39705 63.737 8.43225 63.719 8.46406C63.7009 8.49587 63.6766 8.52361 63.6477 8.54562C63.6188 8.56763 63.5858 8.58344 63.5506 8.59209H63.5363C63.5315 8.59209 63.5315 8.59209 63.5271 8.60181H63.494C63.4281 8.60125 63.3644 8.57762 63.3136 8.53492C63.2628 8.49221 63.228 8.43303 63.2151 8.36732L62.8285 6.45169L62.1171 8.39121C62.0982 8.44975 62.0616 8.50071 62.0125 8.53685C61.9635 8.57298 61.9044 8.59244 61.8437 8.59244C61.7831 8.59244 61.7241 8.57298 61.675 8.53685C61.6259 8.50071 61.5893 8.44975 61.5704 8.39121L60.9435 6.54282L60.6135 8.36732C60.6031 8.43462 60.5691 8.49586 60.5179 8.53981C60.4667 8.58377 60.4016 8.6075 60.3346 8.60667C60.3202 8.60667 60.3015 8.60181 60.2875 8.60181C60.2497 8.59624 60.2136 8.58214 60.1818 8.56056C60.15 8.53898 60.1234 8.51046 60.1038 8.47707C60.0811 8.44772 60.0651 8.41359 60.0569 8.37716C60.0488 8.34074 60.0487 8.30292 60.0568 8.26647L60.5422 5.29746C60.5543 5.23283 60.5873 5.17416 60.6359 5.13079C60.6846 5.08741 60.7462 5.06183 60.8108 5.05811H60.8343C60.8951 5.05807 60.9544 5.07766 61.0035 5.11406C61.0526 5.15045 61.0891 5.20177 61.1077 5.2606L61.8521 7.39169L62.6296 5.25088C62.6478 5.1936 62.6839 5.14391 62.7323 5.10934C62.7808 5.07477 62.839 5.05721 62.8982 5.05932H62.9126C62.9769 5.05975 63.039 5.08367 63.0874 5.12671C63.1358 5.16976 63.1674 5.22907 63.1764 5.29381L63.7439 8.2519Z" fill="white"/>
</g>
</svg>
