<svg width="94" height="26" viewBox="0 0 94 26" fill="none" xmlns="http://www.w3.org/2000/svg">
<mask id="mask0_1586_69101" style="mask-type:luminance" maskUnits="userSpaceOnUse" x="0" y="0" width="94" height="26">
<path d="M93.6113 0.649658H0V25.6665H93.6113V0.649658Z" fill="white"/>
</mask>
<g mask="url(#mask0_1586_69101)">
<path d="M10.1692 4.43608L1.62399 0.745609C1.4465 0.668839 1.25306 0.637976 1.06097 0.655781C0.868877 0.673586 0.684121 0.739504 0.523233 0.847637C0.362345 0.955769 0.230342 1.10275 0.139032 1.27542C0.0477218 1.44809 -4.65362e-05 1.64107 3.40189e-08 1.83709V11.3353C-5.76635e-06 11.5372 0.0481412 11.7361 0.14032 11.9151C0.232498 12.094 0.365963 12.2475 0.52929 12.3626C0.692617 12.4776 0.880941 12.5507 1.07814 12.5756C1.27535 12.6005 1.47556 12.5765 1.66163 12.5056L7.33118 10.3454L1.18873 7.7446C1.10078 7.70327 1.032 7.62891 0.996847 7.53714C0.961692 7.44538 0.962888 7.34334 1.00018 7.25245C1.03748 7.16156 1.10798 7.08889 1.19687 7.0497C1.28577 7.0105 1.38615 7.00783 1.47694 7.04225L8.35874 9.95446L10.2933 9.21685C13.6036 8.05005 13.776 5.71884 10.1698 4.43489M10.9791 7.45709C10.9409 7.55001 10.868 7.62375 10.7764 7.66218C10.6848 7.7006 10.5819 7.70058 10.4903 7.66211L1.04874 3.66619C1.00336 3.647 0.962144 3.61891 0.927446 3.58353C0.892748 3.54815 0.865247 3.50617 0.846513 3.45999C0.808677 3.36672 0.80885 3.262 0.846991 3.16887C0.885132 3.07573 0.958118 3.0018 1.04989 2.96335C1.14167 2.9249 1.24471 2.92508 1.33636 2.96384L10.7774 6.96096C10.8228 6.98013 10.8641 7.00822 10.8989 7.04364C10.9337 7.07906 10.9612 7.12111 10.9799 7.16736C10.9987 7.21362 11.0083 7.26318 11.0081 7.3132C11.008 7.36323 10.9981 7.41273 10.9791 7.45888" fill="#CC0066"/>
<path d="M55.9924 15.8455C55.9979 16.1316 55.9541 16.4164 55.8629 16.6871C55.786 16.9116 55.6608 17.1158 55.4965 17.2849C55.3358 17.4455 55.1411 17.5666 54.9272 17.6387C54.6888 17.7183 54.4392 17.7572 54.1884 17.7541C54.0707 17.7541 53.9317 17.7487 53.7714 17.738C53.6202 17.7295 53.471 17.6989 53.3285 17.6471C53.2553 17.6325 53.1894 17.5923 53.1423 17.5336C53.0951 17.4749 53.0696 17.4013 53.0702 17.3255V14.3446C53.0668 14.2869 53.0858 14.2302 53.1232 14.1868C53.163 14.1461 53.2118 14.1158 53.2655 14.0983C53.4054 14.054 53.5495 14.0252 53.6955 14.0122C53.8484 13.9979 53.997 13.9907 54.1413 13.9907C54.3969 13.9878 54.6514 14.0258 54.8954 14.1031C55.1146 14.1716 55.3157 14.2897 55.4836 14.4486C55.6502 14.6116 55.779 14.8103 55.8606 15.0302C55.9552 15.2908 56.0009 15.5672 55.9953 15.8449M55.3783 15.8503C55.3829 15.6445 55.3517 15.4395 55.286 15.2448C55.2318 15.089 55.1433 14.9479 55.0271 14.8323C54.9158 14.7245 54.7824 14.6429 54.6366 14.5932C54.4809 14.5405 54.3178 14.5142 54.1537 14.5155C53.9909 14.5127 53.8283 14.5272 53.6684 14.5586V17.185C53.7491 17.2041 53.8311 17.2167 53.9137 17.2227C54.0035 17.2299 54.0959 17.2335 54.1907 17.2335C54.3539 17.2445 54.5175 17.219 54.67 17.1588C54.8224 17.0986 54.96 17.0051 55.073 16.885C55.2954 16.5894 55.4034 16.2213 55.3765 15.8503" fill="#CC0066"/>
<path d="M56.6154 14.0392C56.6141 13.9914 56.622 13.9439 56.6388 13.8993C56.6555 13.8546 56.6807 13.8138 56.713 13.7791C56.746 13.7443 56.7858 13.717 56.8299 13.699C56.874 13.6809 56.9214 13.6726 56.9689 13.6745C57.0156 13.673 57.062 13.6815 57.1052 13.6995C57.1484 13.7176 57.1873 13.7447 57.2195 13.7791C57.2824 13.8507 57.3171 13.9432 57.3171 14.0392C57.3171 14.1351 57.2824 14.2276 57.2195 14.2992C57.1873 14.3336 57.1484 14.3607 57.1052 14.3787C57.062 14.3968 57.0156 14.4053 56.9689 14.4038C56.9214 14.4057 56.874 14.3974 56.8299 14.3793C56.7858 14.3613 56.746 14.334 56.713 14.2992C56.6807 14.2645 56.6555 14.2237 56.6387 14.179C56.622 14.1344 56.614 14.0869 56.6154 14.0392ZM57.2589 17.6734C57.2238 17.6874 57.1876 17.6982 57.1507 17.7057C57.0996 17.7168 57.0475 17.7222 56.9954 17.7219C56.9101 17.729 56.8251 17.7053 56.7554 17.6549C56.7275 17.6257 56.7062 17.5907 56.693 17.5523C56.6798 17.5139 56.675 17.473 56.6789 17.4325V14.9107L56.7895 14.8814C56.8412 14.8683 56.8944 14.862 56.9477 14.8628C57.0315 14.856 57.1149 14.8797 57.183 14.9298C57.2103 14.9604 57.231 14.9965 57.2436 15.0357C57.2563 15.0749 57.2607 15.1165 57.2565 15.1575L57.2589 17.6734Z" fill="#CC0066"/>
<path d="M59.7669 17.4218C59.6866 17.4735 59.5997 17.5137 59.5087 17.5413C59.3904 17.5758 59.2676 17.5921 59.1446 17.5898C58.9861 17.5908 58.8285 17.5653 58.6782 17.5144C58.5331 17.4649 58.4007 17.3832 58.2906 17.2753C58.1719 17.1567 58.0818 17.0119 58.0271 16.8521C57.9584 16.6441 57.9264 16.4253 57.9323 16.206C57.9284 16.0008 57.9605 15.7966 58.0271 15.6028C58.0843 15.4392 58.1772 15.2909 58.2988 15.1689C58.4179 15.0519 58.5597 14.9615 58.7152 14.9035C58.8886 14.8405 59.0717 14.8097 59.2558 14.8126C59.4256 14.8111 59.5946 14.8363 59.7569 14.8873C59.8913 14.9286 60.0192 14.9889 60.1369 15.0667C60.1933 15.1061 60.2416 15.1562 60.2792 15.2143C60.3162 15.2764 60.3346 15.348 60.3321 15.4205V17.7619C60.3368 17.9383 60.3045 18.1137 60.2375 18.2766C60.1788 18.4136 60.0871 18.5334 59.971 18.625C59.85 18.7175 59.7117 18.784 59.5645 18.8205C59.3997 18.862 59.2303 18.8821 59.0605 18.8803C58.8968 18.8829 58.7335 18.8628 58.5752 18.8205C58.469 18.7929 58.3664 18.7527 58.2694 18.701C58.194 18.6541 58.1385 18.5802 58.1141 18.4939C58.0898 18.4076 58.0981 18.3151 58.1376 18.2347C58.1622 18.1883 58.1985 18.1495 58.2429 18.1223C58.3465 18.1967 58.4603 18.2553 58.5805 18.2963C58.7261 18.3489 58.8795 18.3752 59.034 18.374C59.226 18.3858 59.4163 18.332 59.5746 18.221C59.6423 18.1603 59.695 18.0842 59.7284 17.999C59.7619 17.9137 59.775 17.8216 59.7669 17.7302V17.4218ZM59.2234 17.1002C59.3328 17.1033 59.4416 17.0829 59.5428 17.0404C59.6221 17.0059 59.6944 16.9568 59.7563 16.8958V15.4546C59.693 15.4139 59.6248 15.3815 59.5534 15.3584C59.4605 15.3281 59.3633 15.3136 59.2658 15.3153C59.1647 15.3112 59.0639 15.3287 58.9699 15.3666C58.8759 15.4044 58.7907 15.4619 58.7199 15.5353C58.5678 15.7207 58.4931 15.9593 58.5117 16.2C58.5085 16.3415 58.5271 16.4827 58.567 16.6184C58.5976 16.7214 58.6498 16.8164 58.7199 16.897C58.7815 16.966 58.8583 17.0193 58.944 17.0524C59.0335 17.0855 59.1282 17.1013 59.2234 17.1002Z" fill="#CC0066"/>
<path d="M61.0563 14.0392C61.055 13.9914 61.0629 13.9439 61.0796 13.8993C61.0964 13.8546 61.1217 13.8138 61.154 13.7791C61.1869 13.7443 61.2267 13.717 61.2708 13.699C61.3149 13.6809 61.3623 13.6726 61.4098 13.6745C61.4565 13.673 61.5029 13.6815 61.5461 13.6995C61.5893 13.7175 61.6283 13.7447 61.6604 13.7791C61.7232 13.8507 61.758 13.9432 61.758 14.0392C61.758 14.1351 61.7232 14.2276 61.6604 14.2992C61.6283 14.3336 61.5893 14.3608 61.5461 14.3788C61.5029 14.3968 61.4565 14.4054 61.4098 14.4038C61.3623 14.4057 61.3149 14.3974 61.2708 14.3793C61.2267 14.3613 61.1869 14.334 61.154 14.2992C61.1216 14.2645 61.0964 14.2237 61.0796 14.179C61.0628 14.1344 61.0549 14.0869 61.0563 14.0392ZM61.6998 17.6734C61.6647 17.6874 61.6285 17.6982 61.5915 17.7057C61.5403 17.7169 61.488 17.7223 61.4357 17.7219C61.3504 17.729 61.2654 17.7053 61.1957 17.6549C61.1678 17.6257 61.1465 17.5907 61.1333 17.5523C61.1201 17.5139 61.1153 17.473 61.1192 17.4325V14.9107L61.2298 14.8814C61.2815 14.8683 61.3347 14.862 61.388 14.8628C61.4718 14.856 61.5552 14.8797 61.6233 14.9298C61.6506 14.9604 61.6713 14.9965 61.6839 15.0357C61.6966 15.0749 61.701 15.1165 61.6968 15.1575L61.6998 17.6734Z" fill="#CC0066"/>
<path d="M63.2089 17.1725C63.3066 17.2368 63.422 17.2678 63.5383 17.261C63.6061 17.2604 63.6736 17.2506 63.7389 17.2317C63.8029 17.2146 63.8648 17.1904 63.9236 17.1594C63.9493 17.1931 63.9723 17.2289 63.9924 17.2664C64.0268 17.336 64.0337 17.4164 64.0119 17.4912C63.99 17.5659 63.941 17.6293 63.8747 17.6686C63.7388 17.7453 63.584 17.7806 63.4289 17.7703C63.1905 17.7826 62.9552 17.7117 62.7619 17.5694C62.6726 17.4872 62.6035 17.3849 62.56 17.2708C62.5165 17.1566 62.4999 17.0337 62.5113 16.9119V14.13C62.5497 14.1164 62.589 14.1056 62.629 14.0977C62.681 14.0867 62.734 14.0813 62.7872 14.0816C62.8697 14.0747 62.9519 14.0976 63.0195 14.1461C63.0467 14.1752 63.0674 14.2099 63.0801 14.2479C63.0928 14.2859 63.0972 14.3262 63.093 14.3661V14.9555H63.9582C63.9754 14.9879 63.9896 15.022 64.0006 15.0571C64.0149 15.1021 64.0221 15.1491 64.0218 15.1964C64.0218 15.3645 63.9531 15.4484 63.8159 15.448H63.093V16.8689C63.0871 16.9253 63.0946 16.9823 63.1151 17.0351C63.1356 17.0879 63.1684 17.1348 63.2107 17.1719" fill="#CC0066"/>
<path d="M65.5823 14.8114C65.8754 14.795 66.1654 14.8792 66.4058 15.0505C66.5123 15.1437 66.5956 15.2613 66.6487 15.3936C66.7019 15.5258 66.7234 15.669 66.7116 15.8114V17.2C66.7165 17.2753 66.6957 17.35 66.6528 17.4116C66.607 17.4664 66.5537 17.5143 66.4946 17.5538C66.3782 17.6202 66.2541 17.6716 66.1252 17.7069C65.9515 17.7544 65.7721 17.777 65.5923 17.7738C65.2952 17.7913 65.0003 17.7115 64.7512 17.5461C64.6503 17.4689 64.5697 17.3675 64.5168 17.251C64.4638 17.1345 64.4401 17.0065 64.4477 16.8784C64.4412 16.7673 64.4589 16.6561 64.4996 16.5528C64.5402 16.4494 64.6028 16.3565 64.683 16.2807C64.8774 16.126 65.114 16.036 65.3605 16.023L66.1358 15.9369V15.8084C66.1421 15.7367 66.1309 15.6644 66.1034 15.598C66.0758 15.5316 66.0326 15.4731 65.9776 15.4277C65.8479 15.3415 65.6946 15.2997 65.5399 15.3081C65.3952 15.3076 65.2513 15.3292 65.1129 15.3721C64.9857 15.4109 64.862 15.4611 64.7435 15.5221C64.7064 15.4871 64.6746 15.4469 64.6489 15.4026C64.6204 15.3542 64.6058 15.2988 64.6067 15.2425C64.6077 15.1862 64.6241 15.1313 64.6541 15.084C64.693 15.0335 64.7438 14.9938 64.8018 14.9686C64.9146 14.9129 65.0343 14.8726 65.1576 14.849C65.2976 14.8215 65.4398 14.8081 65.5823 14.809M65.5929 17.2855C65.7086 17.2878 65.8241 17.2733 65.9358 17.2424C66.0076 17.2247 66.0756 17.1937 66.1364 17.151V16.3954L65.5352 16.46C65.399 16.4692 65.2669 16.5114 65.15 16.5831C65.1072 16.6159 65.0731 16.659 65.051 16.7086C65.0289 16.7583 65.0195 16.8127 65.0235 16.867C65.0212 16.9253 65.0324 16.9833 65.0562 17.0364C65.08 17.0894 65.1158 17.1361 65.1606 17.1725C65.2883 17.2579 65.4405 17.2975 65.5929 17.2849" fill="#CC0066"/>
<path d="M67.8135 17.7218C67.7299 17.7277 67.6467 17.7041 67.5783 17.6549C67.5495 17.6262 67.5275 17.5913 67.5138 17.5528C67.5 17.5144 67.4949 17.4732 67.4988 17.4325V13.8197L67.6094 13.7905C67.6611 13.7773 67.7143 13.7711 67.7677 13.7719C67.8509 13.766 67.9337 13.7885 68.0029 13.8359C68.0318 13.864 68.0539 13.8984 68.0677 13.9365C68.0814 13.9746 68.0864 14.0155 68.0823 14.0559V17.674C68.0506 17.6848 68.0113 17.6955 67.9647 17.7063C67.9145 17.7176 67.8632 17.723 67.8118 17.7224" fill="#CC0066"/>
<path d="M70.7319 16.4403V17.6734C70.6921 17.6864 70.6516 17.6972 70.6107 17.7057C70.5586 17.7168 70.5056 17.7222 70.4524 17.7218C70.365 17.7295 70.2779 17.7046 70.2072 17.6519C70.1792 17.621 70.158 17.5845 70.1448 17.5448C70.1316 17.505 70.1268 17.4629 70.1307 17.4211V14.3493C70.1272 14.2917 70.1463 14.235 70.1837 14.1915C70.2235 14.1509 70.2723 14.1206 70.326 14.1031C70.4609 14.0569 70.6007 14.0272 70.7424 14.0146C70.8993 13.9987 71.0487 13.9907 71.1906 13.9907C71.5769 13.9586 71.9609 14.0753 72.2664 14.3177C72.3839 14.432 72.4758 14.5706 72.5358 14.7242C72.5959 14.8778 72.6228 15.0427 72.6146 15.2077C72.622 15.3736 72.5947 15.5393 72.5347 15.6938C72.4747 15.8483 72.3833 15.9882 72.2664 16.1043C71.9746 16.3505 71.5999 16.4716 71.2218 16.4421L70.7319 16.4403ZM71.1906 15.9202C71.4046 15.9326 71.6162 15.8692 71.7894 15.7409C71.8642 15.6754 71.9228 15.5931 71.9608 15.5006C71.9988 15.408 72.015 15.3077 72.0082 15.2077C72.0165 15.1097 72.002 15.011 71.9658 14.9197C71.9296 14.8285 71.8728 14.7471 71.8 14.6823C71.6243 14.5605 71.4135 14.502 71.2012 14.5161C71.1204 14.5161 71.0377 14.5197 70.953 14.5269C70.8767 14.5329 70.8009 14.5437 70.726 14.5591V15.9208L71.1906 15.9202Z" fill="#CC0066"/>
<path d="M74.2053 14.8114C74.4984 14.7949 74.7885 14.8792 75.0288 15.0505C75.1354 15.1437 75.2187 15.2613 75.2718 15.3935C75.325 15.5258 75.3465 15.669 75.3347 15.8114V17.2C75.3395 17.2753 75.3187 17.35 75.2758 17.4116C75.23 17.4664 75.1767 17.5143 75.1176 17.5538C75.0012 17.6202 74.8771 17.6716 74.7482 17.7069C74.5746 17.7544 74.3952 17.777 74.2153 17.7738C73.9182 17.7913 73.6234 17.7115 73.3742 17.5461C73.2733 17.4689 73.1928 17.3675 73.1398 17.251C73.0868 17.1345 73.0631 17.0065 73.0707 16.8784C73.0642 16.7673 73.0819 16.6561 73.1226 16.5528C73.1632 16.4494 73.2259 16.3565 73.306 16.2807C73.5004 16.126 73.737 16.036 73.9836 16.023L74.7588 15.9369V15.8084C74.7652 15.7366 74.754 15.6644 74.7264 15.598C74.6988 15.5316 74.6556 15.4731 74.6006 15.4277C74.4709 15.3415 74.3177 15.2996 74.163 15.3081C74.0183 15.3076 73.8743 15.3292 73.736 15.3721C73.6087 15.4109 73.4851 15.4611 73.3666 15.5221C73.3295 15.4871 73.2976 15.4469 73.2719 15.4026C73.2434 15.3542 73.2289 15.2988 73.2298 15.2425C73.2307 15.1862 73.2471 15.1313 73.2771 15.084C73.316 15.0335 73.3668 14.9938 73.4248 14.9686C73.5377 14.9129 73.6573 14.8726 73.7806 14.8491C73.9206 14.8215 74.0628 14.8081 74.2053 14.809M74.2159 17.2855C74.3316 17.2878 74.4471 17.2733 74.5588 17.2424C74.6306 17.2247 74.6986 17.1937 74.7594 17.151V16.3954L74.1583 16.46C74.022 16.4692 73.8899 16.5114 73.773 16.5831C73.7302 16.6159 73.6962 16.659 73.6741 16.7086C73.652 16.7583 73.6425 16.8127 73.6466 16.867C73.6442 16.9253 73.6554 16.9833 73.6792 17.0364C73.703 17.0894 73.7388 17.1361 73.7836 17.1725C73.9113 17.2579 74.0635 17.2974 74.2159 17.2849" fill="#CC0066"/>
<path d="M76.5849 17.0356C76.49 16.8391 76.3749 16.5622 76.2397 16.2047C76.1044 15.8473 75.9752 15.4434 75.8521 14.9931C75.8897 14.9481 75.9354 14.9108 75.9867 14.8831C76.0408 14.8529 76.1015 14.8373 76.1632 14.8377C76.2348 14.8342 76.3054 14.8553 76.3638 14.8975C76.4266 14.9551 76.4707 15.0308 76.4902 15.1145C76.5922 15.436 76.6969 15.7532 76.8043 16.0661C76.9118 16.3789 77.0304 16.7015 77.1602 17.0338H77.1814C77.2374 16.9051 77.2945 16.7559 77.3525 16.5861C77.4106 16.4163 77.4668 16.2358 77.5213 16.0445C77.5758 15.8533 77.6278 15.6594 77.6772 15.4629C77.7266 15.2665 77.7705 15.079 77.809 14.9005C77.8446 14.8825 77.8816 14.8673 77.9195 14.855C77.964 14.8418 78.0102 14.8356 78.0566 14.8365C78.1297 14.8336 78.2019 14.8546 78.2625 14.8963C78.2914 14.9192 78.3142 14.9491 78.3288 14.9832C78.3435 15.0173 78.3496 15.0546 78.3466 15.0917C78.338 15.2513 78.3124 15.4095 78.2701 15.5634C78.2191 15.7742 78.1533 16.0083 78.0725 16.2657C77.9917 16.5231 77.8993 16.7822 77.7954 17.0428C77.6915 17.3038 77.5868 17.5361 77.4813 17.7397C77.3413 18.0225 77.1734 18.2901 76.9802 18.5383C76.9324 18.6122 76.8695 18.6749 76.7958 18.722C76.7222 18.7691 76.6394 18.7996 76.5532 18.8115C76.508 18.8142 76.4628 18.8075 76.4202 18.7919C76.3776 18.7762 76.3386 18.752 76.3055 18.7206C76.2439 18.6578 76.2029 18.5773 76.1879 18.4899C76.2568 18.4269 76.322 18.3599 76.3832 18.2891C76.4534 18.2094 76.5238 18.1237 76.5944 18.032C76.6649 17.9404 76.7326 17.8465 76.7973 17.7505C76.8586 17.6606 76.9123 17.5656 76.9578 17.4666C76.8891 17.4412 76.827 17.4003 76.7761 17.347C76.6951 17.2533 76.6301 17.1464 76.5838 17.0308" fill="#CC0066"/>
<path d="M82.0078 15.4361C81.9015 15.351 81.7682 15.3084 81.6331 15.3165C81.5321 15.316 81.432 15.3364 81.339 15.3763C81.244 15.4173 81.1565 15.4743 81.0802 15.5449C81.0874 15.5784 81.0927 15.6123 81.0961 15.6465C81.0996 15.6823 81.1014 15.7182 81.1014 15.7535V17.6728C81.0663 17.6868 81.0301 17.6976 80.9931 17.7051C80.9439 17.7161 80.8936 17.7215 80.8431 17.7213C80.757 17.7281 80.6712 17.7044 80.6002 17.6543C80.5717 17.6255 80.5497 17.5906 80.5361 17.5522C80.5225 17.5137 80.5174 17.4726 80.5214 17.4319V15.818C80.5275 15.7479 80.5185 15.6772 80.4948 15.611C80.4711 15.5448 80.4334 15.4847 80.3844 15.4349C80.2781 15.3498 80.1448 15.3072 80.0097 15.3153C79.9092 15.3148 79.8095 15.333 79.7156 15.3691C79.6342 15.4002 79.5565 15.4403 79.4839 15.4887V17.6758C79.4488 17.6898 79.4125 17.7006 79.3756 17.7081C79.3244 17.7193 79.2721 17.7247 79.2197 17.7242C79.1361 17.7302 79.053 17.7065 78.9845 17.6573C78.9558 17.6286 78.9337 17.5937 78.92 17.5553C78.9062 17.5168 78.9012 17.4757 78.9051 17.4349V15.4731C78.9012 15.3957 78.9185 15.3188 78.9551 15.2508C78.9992 15.1841 79.0555 15.1267 79.1209 15.0816C79.3933 14.9093 79.7071 14.8166 80.0279 14.8138C80.1881 14.811 80.3475 14.8373 80.4985 14.8915C80.6289 14.9388 80.7464 15.0169 80.8414 15.1193C80.952 15.0284 81.0755 14.9552 81.2078 14.9023C81.3667 14.8403 81.5359 14.8103 81.706 14.8138C81.8454 14.8129 81.9842 14.833 82.1177 14.8736C82.2374 14.9089 82.3481 14.9701 82.4424 15.0529C82.5349 15.1374 82.6079 15.2418 82.6559 15.3584C82.712 15.4987 82.739 15.6493 82.7354 15.8007V17.677C82.6967 17.6898 82.6575 17.7006 82.6177 17.7093C82.5685 17.7203 82.5182 17.7257 82.4678 17.7254C82.3841 17.7313 82.301 17.7076 82.2325 17.6585C82.2038 17.6298 82.1817 17.5949 82.168 17.5564C82.1543 17.518 82.1492 17.4769 82.1531 17.4361V15.8222C82.1594 15.752 82.1504 15.6813 82.1267 15.6151C82.103 15.5488 82.0652 15.4887 82.016 15.4391" fill="#CC0066"/>
<path d="M83.9532 16.607C83.987 16.8068 84.0945 16.9859 84.2537 17.108C84.4254 17.2228 84.6283 17.2799 84.8337 17.2711C84.9788 17.2729 85.123 17.2466 85.2584 17.1934C85.3688 17.151 85.4742 17.0961 85.5725 17.0296C85.6206 17.0551 85.6608 17.0936 85.6887 17.1409C85.7167 17.1881 85.7312 17.2423 85.7307 17.2974C85.73 17.3671 85.7038 17.4341 85.6571 17.4851C85.6009 17.5477 85.5326 17.5979 85.4566 17.6328C85.3626 17.6772 85.264 17.7105 85.1625 17.732C84.8464 17.7971 84.519 17.7765 84.2132 17.6722C84.0431 17.6116 83.8883 17.5136 83.7597 17.3853C83.6286 17.2521 83.5282 17.091 83.4656 16.9137C83.3938 16.7062 83.3589 16.4874 83.3626 16.2675C83.3586 16.0533 83.3917 15.8401 83.4603 15.6375C83.5183 15.4686 83.6109 15.3142 83.732 15.1844C83.8475 15.0633 83.9867 14.9684 84.1408 14.9059C84.2993 14.8412 84.4688 14.8085 84.6396 14.8096C84.8067 14.8073 84.9725 14.8392 85.1272 14.9035C85.269 14.9626 85.3975 15.0503 85.505 15.1614C85.6125 15.2725 85.6966 15.4045 85.7524 15.5496C85.8134 15.7066 85.8437 15.8741 85.8418 16.0428C85.8453 16.0822 85.841 16.122 85.8292 16.1598C85.8174 16.1975 85.7983 16.2325 85.773 16.2627C85.719 16.3133 85.6506 16.3451 85.5777 16.3536L83.9532 16.607ZM84.639 15.292C84.5435 15.2897 84.4486 15.3084 84.3608 15.3468C84.273 15.3852 84.1944 15.4423 84.1302 15.5144C83.9849 15.6903 83.9088 15.9148 83.9167 16.1444L85.2878 15.9352C85.2782 15.7672 85.2142 15.6071 85.106 15.4797C85.0467 15.4154 84.9741 15.3652 84.8935 15.3328C84.8128 15.3003 84.7256 15.2864 84.639 15.292Z" fill="#CC0066"/>
<path d="M88.0467 15.4522C87.9294 15.3558 87.781 15.307 87.6303 15.3153C87.5121 15.3135 87.3944 15.3317 87.282 15.3691C87.1908 15.4007 87.1026 15.4407 87.0185 15.4887V17.6758C86.9835 17.6898 86.9473 17.7006 86.9103 17.7081C86.8591 17.7193 86.8068 17.7247 86.7545 17.7242C86.6708 17.7301 86.5877 17.7065 86.5192 17.6573C86.4905 17.6286 86.4684 17.5937 86.4547 17.5553C86.441 17.5168 86.4358 17.4757 86.4398 17.4349V15.4731C86.4361 15.3958 86.4534 15.3188 86.4898 15.2508C86.5341 15.1841 86.5906 15.1266 86.6562 15.0816C86.7859 15.0074 86.923 14.9473 87.0651 14.9023C87.2483 14.8427 87.4398 14.8139 87.6321 14.8168C87.9356 14.7992 88.2354 14.8913 88.4785 15.0768C88.5854 15.1752 88.6688 15.2971 88.7224 15.4332C88.7759 15.5693 88.7981 15.7161 88.7873 15.8623V17.6794C88.7502 17.6928 88.7123 17.7036 88.6738 17.7117C88.6227 17.7228 88.5706 17.7282 88.5184 17.7278C88.4348 17.7337 88.3517 17.7101 88.2832 17.6609C88.2545 17.6321 88.2326 17.5973 88.219 17.5588C88.2053 17.5203 88.2003 17.4792 88.2043 17.4385V15.8844C88.2109 15.8063 88.2007 15.7277 88.1742 15.6541C88.1478 15.5805 88.106 15.5136 88.0515 15.4582" fill="#CC0066"/>
<path d="M90.2592 17.1725C90.357 17.2368 90.4724 17.2678 90.5887 17.261C90.6565 17.2604 90.724 17.2506 90.7892 17.2317C90.8532 17.2146 90.9152 17.1904 90.9739 17.1594C90.9996 17.1931 91.0226 17.2289 91.0427 17.2664C91.0773 17.336 91.0843 17.4165 91.0624 17.4912C91.0405 17.566 90.9914 17.6294 90.9251 17.6686C90.7891 17.7453 90.6344 17.7806 90.4792 17.7703C90.2409 17.7826 90.0055 17.7117 89.8122 17.5694C89.723 17.4872 89.6538 17.385 89.6103 17.2708C89.5668 17.1567 89.5501 17.0337 89.5616 16.9119V14.13C89.6 14.1164 89.6394 14.1056 89.6793 14.0977C89.7314 14.0867 89.7843 14.0813 89.8375 14.0816C89.92 14.0747 90.0022 14.0976 90.0698 14.1461C90.0972 14.1751 90.1179 14.2098 90.1307 14.2478C90.1435 14.2858 90.148 14.3262 90.1439 14.3661V14.9555H91.0092C91.0265 14.9879 91.0407 15.0219 91.0516 15.0571C91.0659 15.1021 91.0731 15.1491 91.0727 15.1964C91.0727 15.3645 91.0041 15.4484 90.8668 15.448H90.1439V16.8689C90.138 16.9253 90.1456 16.9823 90.1661 17.0351C90.1865 17.0879 90.2194 17.1348 90.2616 17.1719" fill="#CC0066"/>
<path d="M93.6113 16.9179C93.6165 17.0368 93.5942 17.1552 93.5461 17.2638C93.498 17.3723 93.4254 17.4677 93.3343 17.5425C93.0996 17.7097 92.8156 17.7901 92.5296 17.7703C92.3935 17.7713 92.2576 17.7586 92.1238 17.7326C92.0162 17.7127 91.9115 17.6786 91.8126 17.631C91.736 17.5941 91.6678 17.5411 91.6127 17.4756C91.5653 17.4206 91.539 17.3502 91.5386 17.2771C91.5384 17.2201 91.5519 17.1638 91.578 17.1133C91.6047 17.0609 91.6455 17.0171 91.6956 16.9872C91.8068 17.0638 91.9249 17.1292 92.0485 17.1827C92.1956 17.2443 92.3536 17.2744 92.5126 17.2711C92.647 17.28 92.781 17.2484 92.8978 17.1803C92.9402 17.1518 92.9747 17.1127 92.9978 17.0667C93.0209 17.0207 93.0318 16.9694 93.0296 16.9179C93.0319 16.8739 93.0251 16.8299 93.0097 16.7887C92.9943 16.7476 92.9706 16.7101 92.9402 16.6788C92.8632 16.6108 92.7705 16.5637 92.6708 16.5419L92.2908 16.4349C92.0846 16.3873 91.8938 16.2866 91.7367 16.1426C91.6755 16.0745 91.6283 15.9946 91.598 15.9076C91.5677 15.8207 91.5549 15.7284 91.5603 15.6363C91.5598 15.5243 91.5832 15.4135 91.6291 15.3117C91.6747 15.2102 91.7423 15.1205 91.8268 15.0493C91.923 14.9707 92.0333 14.9116 92.1515 14.8754C92.2949 14.8304 92.4443 14.8087 92.5943 14.8108C92.7183 14.8095 92.8421 14.8211 92.9637 14.8455C93.061 14.8649 93.1557 14.8956 93.2461 14.9369C93.3173 14.9683 93.3805 15.016 93.4307 15.0762C93.4727 15.1263 93.4961 15.1898 93.4966 15.2555C93.4979 15.3117 93.4842 15.3673 93.4572 15.4163C93.4328 15.4604 93.3995 15.4987 93.3596 15.5287C93.2633 15.4732 93.1628 15.4257 93.059 15.3864C92.9245 15.3338 92.7814 15.3075 92.6373 15.3087C92.5087 15.3013 92.3807 15.3309 92.2679 15.3942C92.2329 15.4166 92.203 15.4465 92.1806 15.4818C92.1582 15.5172 92.1436 15.5571 92.138 15.5987C92.1324 15.6404 92.1359 15.6828 92.1482 15.723C92.1604 15.7631 92.1813 15.8001 92.2091 15.8312C92.2829 15.8957 92.3722 15.9392 92.4679 15.9573L92.7949 16.0434C93.0248 16.0978 93.2378 16.2093 93.4149 16.3679C93.4827 16.4411 93.5352 16.5276 93.5692 16.622C93.6031 16.7164 93.6179 16.8169 93.6125 16.9173" fill="#CC0066"/>
<path d="M13.102 8.48792V18.9526C13.102 19.6377 12.8952 20.3062 12.5095 20.8681C12.1238 21.4299 11.5777 21.8579 10.9451 22.0944L1.55406 25.6043C1.40625 25.6597 1.24746 25.678 1.09122 25.6576C0.934968 25.6372 0.785888 25.5787 0.656671 25.4871C0.527454 25.3955 0.421929 25.2736 0.349081 25.1316C0.276233 24.9897 0.238221 24.8319 0.238281 24.6718V15.7924C0.238583 15.2583 0.399785 14.7372 0.70021 14.2991C1.00063 13.8609 1.42587 13.5268 1.91873 13.3416L10.5986 10.0791C11.9685 9.51544 12.5038 9.17054 13.1025 8.4909" fill="white"/>
<path d="M21.3582 11.1359C21.3483 11.525 21.1934 11.8958 20.9248 12.1732C20.6562 12.4507 20.2939 12.614 19.9112 12.6303H17.9431C17.8297 12.633 17.7198 12.5898 17.6376 12.5103C17.5554 12.4307 17.5077 12.3212 17.5049 12.2059V7.84951C17.5041 7.79173 17.5146 7.73436 17.536 7.6808C17.5573 7.62724 17.5891 7.57859 17.6293 7.53772C17.6695 7.49686 17.7174 7.46462 17.7701 7.44291C17.8228 7.42121 17.8792 7.41048 17.9361 7.41137H19.8353C20.1194 7.42664 20.393 7.52532 20.623 7.69546C20.853 7.8656 21.0295 8.09988 21.1312 8.36992C21.2328 8.63995 21.2551 8.93414 21.1955 9.21683C21.1359 9.49951 20.9968 9.75855 20.7953 9.96254C20.9689 10.1034 21.1096 10.2818 21.207 10.4847C21.3045 10.6877 21.3557 10.9101 21.3582 11.1359ZM18.3402 9.58178L19.7383 9.56743C19.9081 9.56176 20.0695 9.49067 20.1896 9.36857C20.3097 9.24647 20.3797 9.0825 20.3853 8.90991C20.3843 8.74391 20.3199 8.5848 20.2056 8.46614C20.0914 8.34749 19.9363 8.27856 19.773 8.27391H18.3402V9.58178ZM20.4965 11.1359C20.4848 10.96 20.4093 10.7948 20.2847 10.6721C20.1601 10.5494 19.9952 10.4781 19.8218 10.4718H18.3749V11.7791H19.863C20.0291 11.7737 20.1871 11.7042 20.3046 11.5847C20.4222 11.4653 20.4906 11.3048 20.4959 11.1359" fill="white"/>
<path d="M24.7815 10.4718H24.1486V12.2053C24.1461 12.3194 24.0994 12.4279 24.0187 12.5072C23.938 12.5866 23.8297 12.6304 23.7174 12.6291C23.6069 12.6288 23.5009 12.584 23.4227 12.5047C23.3444 12.4253 23.3003 12.3176 23.2998 12.2053V7.83518C23.3033 7.72143 23.3503 7.61355 23.4308 7.53443C23.5113 7.4553 23.619 7.41117 23.7309 7.41138H25.2538C25.6453 7.42007 26.0187 7.58108 26.2968 7.86122C26.575 8.14137 26.7368 8.51929 26.7489 8.9171C26.7417 9.23793 26.6387 9.54894 26.4536 9.80896C26.2685 10.069 26.0101 10.2658 25.7126 10.3732L26.6795 11.9775C26.7359 12.0763 26.7522 12.1936 26.725 12.3044C26.6978 12.4152 26.6291 12.5108 26.5337 12.5711C26.4675 12.6081 26.3933 12.6276 26.3178 12.6279C26.2453 12.6278 26.1741 12.609 26.1108 12.5731C26.0474 12.5372 25.9942 12.4855 25.9561 12.4229L24.7815 10.4718ZM25.9084 8.92368C25.9005 8.74641 25.8248 8.57928 25.6975 8.45783C25.5702 8.33638 25.4013 8.27019 25.2267 8.27333H24.1486V9.60929H25.2267C25.4063 9.60945 25.5788 9.5375 25.7064 9.40909C25.8341 9.28068 25.9067 9.10622 25.9084 8.92368Z" fill="white"/>
<path d="M31.6314 12.6273C30.9532 12.6198 30.3054 12.3398 29.8297 11.8485C29.354 11.3571 29.089 10.6943 29.0928 10.005C29.1016 9.49746 29.2577 9.00391 29.5415 8.58622C29.8253 8.16854 30.2241 7.84533 30.688 7.65715C31.1519 7.46897 31.6601 7.4242 32.1489 7.52846C32.6378 7.63272 33.0854 7.88136 33.4357 8.24319C33.786 8.60502 34.0233 9.06392 34.1179 9.56231C34.2125 10.0607 34.1601 10.5764 33.9674 11.0447C33.7747 11.5129 33.4502 11.9129 33.0346 12.1945C32.6191 12.476 32.1309 12.6266 31.6314 12.6273ZM29.9133 10.005C29.9139 10.351 30.0155 10.6891 30.2052 10.9765C30.3948 11.2639 30.6641 11.4877 30.979 11.6196C31.2938 11.7514 31.6401 11.7855 31.9739 11.7173C32.3078 11.6492 32.6143 11.482 32.8546 11.2368C33.095 10.9916 33.2584 10.6795 33.3241 10.34C33.3899 10.0005 33.3552 9.64871 33.2242 9.32925C33.0933 9.00979 32.8721 8.73697 32.5886 8.54528C32.3051 8.3536 31.972 8.25166 31.6314 8.25237C31.176 8.25691 30.7406 8.44323 30.4192 8.77111C30.0978 9.09899 29.9161 9.54214 29.9133 10.005Z" fill="white"/>
<path d="M40.1728 12.5926C40.119 12.6139 40.0615 12.6241 40.0038 12.6224C39.946 12.6207 39.8892 12.6072 39.8366 12.5828C39.7841 12.5584 39.7369 12.5235 39.6978 12.4802C39.6588 12.437 39.6287 12.3861 39.6094 12.3308L38.433 9.10299L37.2507 12.3308C37.2327 12.3863 37.2037 12.4374 37.1654 12.481C37.1272 12.5246 37.0805 12.5598 37.0284 12.5843C36.9762 12.6089 36.9196 12.6223 36.8622 12.6237C36.8047 12.6251 36.7476 12.6146 36.6943 12.5926C36.6395 12.5735 36.589 12.5433 36.5461 12.5037C36.5031 12.4642 36.4685 12.4161 36.4444 12.3626C36.4203 12.309 36.4072 12.251 36.4059 12.1921C36.4045 12.1332 36.415 12.0746 36.4367 12.02L38.0083 7.68694C38.0414 7.60036 38.0997 7.52615 38.1756 7.47432C38.2514 7.42248 38.341 7.39551 38.4324 7.39703C38.5233 7.39748 38.6121 7.42524 38.6876 7.47682C38.763 7.5284 38.8218 7.60151 38.8565 7.68694L40.4281 12.02C40.4498 12.0746 40.4603 12.1331 40.459 12.192C40.4577 12.2509 40.4447 12.3088 40.4206 12.3624C40.3966 12.416 40.362 12.464 40.3191 12.5036C40.2762 12.5432 40.2259 12.5735 40.1711 12.5926" fill="white"/>
<path d="M42.1826 12.2041V7.8561C42.1853 7.74456 42.2301 7.63835 42.3077 7.55945C42.3854 7.48056 42.4899 7.43503 42.5996 7.4323H43.636C44.0093 7.43007 44.3789 7.50703 44.7212 7.65825C45.0502 7.80493 45.3443 8.02184 45.5835 8.29425C45.8222 8.56968 46.0003 8.89372 46.1059 9.24472C46.2115 9.59571 46.2422 9.96557 46.1958 10.3296C46.1191 10.9616 45.8183 11.5436 45.3497 11.9665C44.881 12.3893 44.2768 12.6241 43.6501 12.6267H42.6002C42.4905 12.624 42.3859 12.5784 42.3083 12.4996C42.2307 12.4207 42.1859 12.3144 42.1832 12.2029M45.3547 10.2303C45.3915 9.98622 45.375 9.73688 45.3065 9.49994C45.238 9.26299 45.1191 9.04423 44.9583 8.85912C44.7919 8.67115 44.5879 8.52157 44.36 8.42042C44.132 8.31928 43.8853 8.26892 43.6366 8.27273H43.0178V11.7785H43.6507C44.0726 11.7787 44.4798 11.6209 44.7944 11.3354C45.1091 11.0498 45.3092 10.6564 45.3565 10.2303" fill="white"/>
<path d="M50.327 11.8998C50.1188 12.2194 49.7981 12.4458 49.4308 12.5325C49.0634 12.6192 48.6774 12.5597 48.3519 12.3661C48.2521 12.3046 48.1783 12.2076 48.145 12.0939C48.1116 11.9802 48.121 11.858 48.1713 11.751C48.2468 11.6623 48.3524 11.6058 48.4671 11.5927C48.5818 11.5796 48.6971 11.611 48.7901 11.6805C48.9343 11.76 49.1028 11.7809 49.2616 11.739C49.4203 11.697 49.5575 11.5953 49.6453 11.4545C49.6938 11.3812 49.7276 11.2989 49.7448 11.2123C49.762 11.1258 49.7622 11.0366 49.7454 10.9499C49.7286 10.8633 49.6952 10.7808 49.6471 10.7073C49.5989 10.6338 49.537 10.5706 49.4648 10.5214C49.1242 10.3021 49.1118 10.2955 48.783 10.0761C48.4575 9.86143 48.2292 9.52414 48.1483 9.13842C48.0675 8.7527 48.1407 8.35014 48.3519 8.01927C48.5622 7.70235 48.8828 7.47806 49.2492 7.39146C49.6156 7.30486 50.0007 7.36237 50.327 7.55243C50.4236 7.60975 50.4947 7.70257 50.5258 7.81171C50.5569 7.92085 50.5456 8.03796 50.4941 8.13882C50.4251 8.23125 50.3237 8.29312 50.211 8.3116C50.0983 8.33008 49.9829 8.30374 49.8888 8.23805C49.7383 8.16019 49.5642 8.14391 49.4023 8.19256C49.2404 8.24121 49.1029 8.35109 49.0183 8.49959C48.9337 8.64808 48.9083 8.8239 48.9474 8.99084C48.9864 9.15779 49.0869 9.30318 49.2283 9.39707C49.4047 9.51005 49.4048 9.51005 49.9029 9.84239C50.0638 9.94904 50.2024 10.0869 50.3108 10.248C50.4192 10.4091 50.4953 10.5904 50.5346 10.7815C50.574 10.9725 50.5759 11.1695 50.5403 11.3613C50.5047 11.5531 50.4322 11.7365 50.327 11.8998Z" fill="white"/>
<path d="M55.0228 10.4592C54.6338 10.4873 54.2436 10.4921 53.854 10.4736V12.207C53.8516 12.3211 53.8049 12.4296 53.7242 12.509C53.6435 12.5883 53.5352 12.6321 53.4229 12.6308C53.3125 12.6304 53.2066 12.5856 53.1285 12.5062C53.0504 12.4268 53.0064 12.3193 53.0059 12.207V7.84888C53.0052 7.79303 53.0155 7.73759 53.0362 7.68585C53.0569 7.6341 53.0876 7.5871 53.1264 7.5476C53.1653 7.5081 53.2116 7.47691 53.2625 7.45587C53.3134 7.43483 53.3679 7.42436 53.4229 7.42508H54.981C55.3693 7.43738 55.7379 7.60151 56.01 7.88326C56.2821 8.16501 56.4367 8.54263 56.4415 8.93738C56.4352 9.32518 56.2859 9.69645 56.0232 9.9778C55.7605 10.2592 55.4035 10.4301 55.0228 10.4568M54.9257 8.27328H53.8546V9.60924H54.9257C55.105 9.60817 55.2767 9.53582 55.4041 9.40767C55.5315 9.27953 55.6045 9.10578 55.6074 8.92363C55.5983 8.74678 55.5223 8.58035 55.3953 8.45915C55.2682 8.33794 55.1 8.27134 54.9257 8.27328Z" fill="white"/>
<path d="M58.6665 12.2041V7.83576C58.667 7.72351 58.7111 7.61599 58.7892 7.53661C58.8673 7.45724 58.9731 7.41243 59.0835 7.41196H61.5892C61.7015 7.41052 61.8099 7.45425 61.8907 7.53363C61.9714 7.61301 62.018 7.72161 62.0204 7.83576C62.0197 7.95177 61.9741 8.06285 61.8934 8.14489C61.8127 8.22692 61.7034 8.27328 61.5892 8.27391H59.5164V9.60987H61.0816C61.1366 9.60915 61.1911 9.61961 61.242 9.64066C61.2929 9.6617 61.3392 9.69289 61.3781 9.73239C61.4169 9.77188 61.4476 9.8189 61.4683 9.87064C61.489 9.92238 61.4993 9.97782 61.4986 10.0337C61.4994 10.0896 61.4892 10.1451 61.4685 10.1969C61.4478 10.2487 61.4172 10.2958 61.3783 10.3353C61.3394 10.3749 61.2931 10.4061 61.2422 10.4272C61.1912 10.4483 61.1366 10.4588 61.0816 10.4581H59.5164V11.7653H61.5892C61.7034 11.766 61.8127 11.8123 61.8934 11.8944C61.9741 11.9764 62.0197 12.0875 62.0204 12.2035C62.0179 12.3176 61.9712 12.4261 61.8905 12.5054C61.8098 12.5848 61.7015 12.6286 61.5892 12.6273H59.0853C58.9749 12.6268 58.869 12.582 58.7909 12.5026C58.7128 12.4233 58.6687 12.3157 58.6683 12.2035" fill="white"/>
<path d="M68.5646 12.0624C68.1218 12.4204 67.5724 12.6148 67.0065 12.6136C66.3258 12.6136 65.673 12.3388 65.1917 11.8496C64.7104 11.3605 64.4399 10.697 64.4399 10.0053C64.4399 9.31354 64.7104 8.65012 65.1917 8.16097C65.673 7.67183 66.3258 7.39703 67.0065 7.39703C67.4689 7.39767 67.9219 7.52999 68.3141 7.77899C68.3633 7.80502 68.4069 7.84092 68.4422 7.88452C68.4775 7.92811 68.5037 7.97851 68.5193 8.03268C68.5349 8.08685 68.5396 8.14366 68.533 8.19971C68.5264 8.25576 68.5088 8.30987 68.4811 8.35881C68.4529 8.40726 68.4151 8.44928 68.3701 8.48223C68.3252 8.51518 68.2741 8.53835 68.2199 8.5503C68.1657 8.56225 68.1098 8.56272 68.0554 8.55168C68.0011 8.54064 67.9496 8.51832 67.9041 8.48612C67.6328 8.32233 67.3227 8.23678 67.0071 8.23866C66.7815 8.23866 66.5582 8.28383 66.3498 8.37159C66.1414 8.45935 65.9521 8.58798 65.7926 8.75013C65.6332 8.91227 65.5067 9.10476 65.4205 9.31659C65.3343 9.52842 65.29 9.75544 65.2902 9.98467C65.2824 10.313 65.3659 10.6369 65.5311 10.9191C65.6963 11.2014 65.9365 11.4306 66.224 11.5804C66.5116 11.7302 66.8349 11.7945 67.1569 11.766C67.4788 11.7375 67.7863 11.6173 68.0441 11.4193C68.0845 11.3841 68.1315 11.3574 68.1821 11.3408C68.2328 11.3242 68.2862 11.3181 68.3393 11.3227C68.3923 11.3273 68.444 11.3426 68.4911 11.3677C68.5383 11.3928 68.5801 11.4272 68.614 11.4689C68.6848 11.5542 68.7194 11.6646 68.7103 11.7759C68.7011 11.8871 68.649 11.9902 68.5652 12.0624" fill="white"/>
<path d="M74.3571 7.82795C74.3571 7.88335 74.3463 7.93821 74.3253 7.98932C74.3043 8.04044 74.2735 8.08681 74.2347 8.12574C74.1959 8.16466 74.1499 8.19537 74.0993 8.21608C74.0487 8.23679 73.9946 8.24708 73.9401 8.24637H72.9184V12.2046C72.9184 12.3162 72.8748 12.4231 72.7972 12.502C72.7196 12.5808 72.6144 12.6251 72.5046 12.6251C72.3949 12.6251 72.2896 12.5808 72.212 12.502C72.1344 12.4231 72.0909 12.3162 72.0909 12.2046V8.24517H71.0686C70.9588 8.24517 70.8536 8.20087 70.776 8.12201C70.6984 8.04315 70.6548 7.93619 70.6548 7.82466C70.6548 7.71313 70.6984 7.60617 70.776 7.52731C70.8536 7.44845 70.9588 7.40415 71.0686 7.40415H73.9407C73.9957 7.40343 74.0502 7.41389 74.1011 7.43494C74.152 7.45598 74.1983 7.48717 74.2372 7.52666C74.276 7.56616 74.3067 7.61317 74.3274 7.66491C74.3481 7.71666 74.3578 7.77209 74.3571 7.82795Z" fill="white"/>
<path d="M77.926 10.4718H77.2931V12.2053C77.2906 12.3194 77.244 12.4279 77.1632 12.5072C77.0825 12.5866 76.9742 12.6304 76.8619 12.6291C76.7514 12.6288 76.6454 12.584 76.5672 12.5047C76.489 12.4253 76.4448 12.3176 76.4443 12.2053V7.83518C76.4479 7.72143 76.4948 7.61355 76.5753 7.53443C76.6558 7.4553 76.7635 7.41117 76.8755 7.41138H78.3989C78.7904 7.42007 79.1637 7.58108 79.4419 7.86122C79.7201 8.14137 79.8819 8.51929 79.8941 8.9171C79.8868 9.23793 79.7838 9.54894 79.5987 9.80896C79.4137 10.069 79.1552 10.2658 78.8577 10.3732L79.8246 11.9775C79.8809 12.0764 79.8971 12.1937 79.8698 12.3045C79.8424 12.4153 79.7737 12.5109 79.6781 12.5711C79.612 12.6081 79.5378 12.6276 79.4623 12.6279C79.3898 12.6278 79.3185 12.609 79.2552 12.5731C79.1919 12.5372 79.1387 12.4855 79.1006 12.4229L77.926 10.4718ZM79.0529 8.92368C79.045 8.74641 78.9693 8.57928 78.842 8.45783C78.7147 8.33638 78.5458 8.27019 78.3712 8.27333H77.2931V9.60929H78.3712C78.5509 9.60945 78.7233 9.5375 78.8509 9.40909C78.9786 9.28068 79.0512 9.10622 79.0529 8.92368Z" fill="white"/>
<path d="M85.9937 7.828V10.7187C85.9981 10.9721 85.9528 11.2239 85.8604 11.4594C85.768 11.6948 85.6304 11.9092 85.4556 12.0901C85.2808 12.2709 85.0723 12.4145 84.8423 12.5125C84.6123 12.6106 84.3653 12.6611 84.1159 12.6611C83.8664 12.6611 83.6195 12.6106 83.3895 12.5125C83.1595 12.4145 82.951 12.2709 82.7762 12.0901C82.6014 11.9092 82.4637 11.6948 82.3713 11.4594C82.279 11.2239 82.2337 10.9721 82.2381 10.7187V7.828C82.2381 7.71362 82.2828 7.60393 82.3624 7.52305C82.442 7.44217 82.5499 7.39673 82.6624 7.39673C82.775 7.39673 82.883 7.44217 82.9626 7.52305C83.0421 7.60393 83.0868 7.71362 83.0868 7.828V10.7187C83.0868 10.998 83.196 11.2659 83.3904 11.4634C83.5848 11.661 83.8483 11.7719 84.1232 11.7719C84.3981 11.7719 84.6617 11.661 84.8561 11.4634C85.0504 11.2659 85.1596 10.998 85.1596 10.7187V7.828C85.1589 7.77215 85.1692 7.71671 85.1899 7.66497C85.2106 7.61322 85.2413 7.56622 85.2802 7.52672C85.3191 7.48722 85.3653 7.45603 85.4162 7.43499C85.4671 7.41395 85.5217 7.40348 85.5767 7.4042C85.6316 7.40348 85.6861 7.41395 85.7371 7.43499C85.788 7.45603 85.8343 7.48722 85.8731 7.52672C85.912 7.56622 85.9427 7.61322 85.9634 7.66497C85.9841 7.71671 85.9944 7.77215 85.9937 7.828Z" fill="white"/>
<path d="M93.4845 12.112C93.4995 12.164 93.504 12.2186 93.4976 12.2724C93.4913 12.3262 93.4743 12.3782 93.4477 12.4251C93.421 12.4721 93.3852 12.513 93.3425 12.5455C93.2998 12.578 93.2511 12.6013 93.1992 12.6141H93.1781C93.171 12.6141 93.171 12.6141 93.1645 12.6285H93.1157C93.0183 12.6276 92.9243 12.5928 92.8494 12.5297C92.7744 12.4667 92.723 12.3793 92.704 12.2824L92.1334 9.45503L91.0835 12.3176C91.0556 12.404 91.0016 12.4792 90.9291 12.5326C90.8567 12.5859 90.7694 12.6146 90.68 12.6146C90.5905 12.6146 90.5034 12.5859 90.4309 12.5326C90.3584 12.4792 90.3044 12.404 90.2765 12.3176L89.3513 9.58953L88.8643 12.2824C88.8489 12.3817 88.7987 12.4721 88.7231 12.537C88.6475 12.6018 88.5515 12.6369 88.4525 12.6356C88.4313 12.6356 88.4037 12.6285 88.3831 12.6285C88.3273 12.6202 88.274 12.5994 88.2271 12.5676C88.1802 12.5357 88.1408 12.4936 88.112 12.4444C88.0784 12.401 88.0548 12.3507 88.0428 12.2969C88.0307 12.2431 88.0307 12.1873 88.0425 12.1335L88.759 7.75146C88.7768 7.65607 88.8255 7.56948 88.8973 7.50546C88.9692 7.44145 89.0601 7.40369 89.1554 7.39819H89.1901C89.2799 7.39814 89.3673 7.42706 89.4398 7.48077C89.5124 7.53449 89.5662 7.61023 89.5936 7.69707L90.6923 10.8424L91.8399 7.68272C91.8667 7.59818 91.9199 7.52484 91.9915 7.47381C92.063 7.42279 92.149 7.39687 92.2363 7.39999H92.2575C92.3525 7.40062 92.4441 7.43592 92.5156 7.49945C92.587 7.56299 92.6336 7.65052 92.6469 7.74608L93.4845 12.112Z" fill="white"/>
</g>
</svg>
