<svg width="94" height="26" viewBox="0 0 94 26" fill="none" xmlns="http://www.w3.org/2000/svg">
<mask id="mask0_1543_194748" style="mask-type:luminance" maskUnits="userSpaceOnUse" x="0" y="0" width="94" height="26">
<path d="M93.6113 0.649414H0V25.6662H93.6113V0.649414Z" fill="white"/>
</mask>
<g mask="url(#mask0_1543_194748)">
<path d="M10.1692 4.43608L1.62399 0.745609C1.4465 0.668839 1.25306 0.637976 1.06097 0.655781C0.868877 0.673586 0.684121 0.739504 0.523233 0.847637C0.362345 0.955769 0.230342 1.10275 0.139032 1.27542C0.0477218 1.44809 -4.65362e-05 1.64107 3.40189e-08 1.83709V11.3353C-5.76635e-06 11.5372 0.0481412 11.7361 0.14032 11.9151C0.232498 12.094 0.365963 12.2475 0.52929 12.3626C0.692617 12.4776 0.880941 12.5507 1.07814 12.5756C1.27535 12.6005 1.47556 12.5765 1.66163 12.5056L7.33118 10.3454L1.18873 7.7446C1.10078 7.70327 1.032 7.62891 0.996847 7.53714C0.961692 7.44538 0.962888 7.34334 1.00018 7.25245C1.03748 7.16156 1.10798 7.08889 1.19687 7.0497C1.28577 7.0105 1.38615 7.00783 1.47694 7.04225L8.35874 9.95446L10.2933 9.21685C13.6036 8.05005 13.776 5.71884 10.1698 4.43489M10.9791 7.45709C10.9409 7.55001 10.868 7.62375 10.7764 7.66218C10.6848 7.7006 10.5819 7.70058 10.4903 7.66211L1.04874 3.66619C1.00336 3.647 0.962144 3.61891 0.927446 3.58353C0.892748 3.54815 0.865247 3.50617 0.846513 3.45999C0.808677 3.36672 0.80885 3.262 0.846991 3.16887C0.885132 3.07573 0.958118 3.0018 1.04989 2.96335C1.14167 2.9249 1.24471 2.92508 1.33636 2.96384L10.7774 6.96096C10.8228 6.98013 10.8641 7.00822 10.8989 7.04364C10.9337 7.07906 10.9612 7.12111 10.9799 7.16736C10.9987 7.21362 11.0083 7.26318 11.0081 7.3132C11.008 7.36323 10.9981 7.41273 10.9791 7.45888" fill="#CC0066"/>
<path d="M55.9928 15.8457C55.9984 16.1317 55.9546 16.4166 55.8634 16.6873C55.7865 16.9117 55.6613 17.1159 55.497 17.285C55.3363 17.4457 55.1416 17.5668 54.9277 17.6389C54.6893 17.7185 54.4397 17.7574 54.1889 17.7543C54.0712 17.7543 53.9322 17.7489 53.7718 17.7381C53.6207 17.7297 53.4715 17.6991 53.3289 17.6473C53.2558 17.6327 53.1899 17.5925 53.1428 17.5338C53.0956 17.4751 53.0701 17.4015 53.0707 17.3257V14.3447C53.0672 14.2871 53.0863 14.2304 53.1237 14.1869C53.1635 14.1463 53.2123 14.116 53.266 14.0985C53.4059 14.0542 53.55 14.0254 53.696 14.0124C53.8489 13.9981 53.9975 13.9909 54.1418 13.9909C54.3974 13.988 54.6519 14.0259 54.8959 14.1033C55.1151 14.1718 55.3162 14.2899 55.4841 14.4487C55.6507 14.6118 55.7795 14.8104 55.8611 15.0303C55.9557 15.291 56.0014 15.5673 55.9958 15.8451M55.3788 15.8505C55.3834 15.6447 55.3521 15.4397 55.2864 15.2449C55.2323 15.0892 55.1438 14.9481 55.0276 14.8325C54.9162 14.7247 54.7829 14.6431 54.6371 14.5934C54.4814 14.5406 54.3183 14.5144 54.1542 14.5157C53.9914 14.5129 53.8288 14.5273 53.6689 14.5587V17.1852C53.7496 17.2042 53.8316 17.2168 53.9142 17.2229C54.004 17.2301 54.0963 17.2336 54.1912 17.2336C54.3544 17.2447 54.518 17.2192 54.6705 17.159C54.8229 17.0988 54.9605 17.0053 55.0735 16.8852C55.2959 16.5896 55.4038 16.2215 55.377 15.8505" fill="#CC0066"/>
<path d="M56.6154 14.0392C56.6141 13.9915 56.622 13.9439 56.6388 13.8993C56.6555 13.8547 56.6807 13.8139 56.713 13.7792C56.746 13.7444 56.7858 13.7171 56.8299 13.699C56.874 13.681 56.9214 13.6727 56.9689 13.6746C57.0156 13.6731 57.062 13.6816 57.1052 13.6996C57.1484 13.7176 57.1873 13.7448 57.2195 13.7792C57.2824 13.8507 57.3171 13.9433 57.3171 14.0392C57.3171 14.1351 57.2824 14.2277 57.2195 14.2992C57.1873 14.3337 57.1484 14.3608 57.1052 14.3788C57.062 14.3968 57.0156 14.4054 56.9689 14.4038C56.9214 14.4058 56.874 14.3974 56.8299 14.3794C56.7858 14.3614 56.746 14.334 56.713 14.2992C56.6807 14.2646 56.6555 14.2237 56.6387 14.1791C56.622 14.1345 56.614 14.087 56.6154 14.0392ZM57.2589 17.6735C57.2238 17.6874 57.1876 17.6982 57.1507 17.7058C57.0996 17.7169 57.0475 17.7223 56.9954 17.7219C56.9101 17.729 56.8251 17.7053 56.7554 17.655C56.7275 17.6258 56.7062 17.5907 56.693 17.5523C56.6798 17.5139 56.675 17.4731 56.6789 17.4326V14.9107L56.7895 14.8814C56.8412 14.8683 56.8944 14.8621 56.9477 14.8629C57.0315 14.856 57.1149 14.8798 57.183 14.9298C57.2103 14.9604 57.231 14.9965 57.2436 15.0358C57.2563 15.075 57.2607 15.1165 57.2565 15.1576L57.2589 17.6735Z" fill="#CC0066"/>
<path d="M59.7669 17.4218C59.6866 17.4735 59.5997 17.5137 59.5087 17.5414C59.3904 17.5759 59.2676 17.5922 59.1446 17.5898C58.9861 17.5908 58.8285 17.5654 58.6782 17.5145C58.5331 17.465 58.4007 17.3833 58.2906 17.2754C58.1719 17.1567 58.0818 17.0119 58.0271 16.8522C57.9584 16.6441 57.9264 16.4254 57.9323 16.206C57.9284 16.0009 57.9605 15.7966 58.0271 15.6029C58.0843 15.4393 58.1772 15.2909 58.2988 15.1689C58.4179 15.0519 58.5597 14.9615 58.7152 14.9035C58.8886 14.8406 59.0717 14.8098 59.2558 14.8127C59.4256 14.8112 59.5946 14.8364 59.7569 14.8874C59.8913 14.9286 60.0192 14.989 60.1369 15.0667C60.1933 15.1061 60.2416 15.1563 60.2792 15.2144C60.3162 15.2764 60.3346 15.3481 60.3321 15.4206V17.762C60.3368 17.9384 60.3045 18.1138 60.2375 18.2766C60.1788 18.4136 60.0871 18.5334 59.971 18.6251C59.85 18.7176 59.7117 18.7841 59.5645 18.8206C59.3997 18.8621 59.2303 18.8822 59.0605 18.8803C58.8968 18.883 58.7335 18.8629 58.5752 18.8206C58.469 18.7929 58.3664 18.7528 58.2694 18.701C58.194 18.6542 58.1385 18.5803 58.1141 18.494C58.0898 18.4076 58.0981 18.3151 58.1376 18.2348C58.1622 18.1884 58.1985 18.1496 58.2429 18.1224C58.3465 18.1967 58.4603 18.2553 58.5805 18.2963C58.7261 18.349 58.8795 18.3753 59.034 18.3741C59.226 18.3859 59.4163 18.332 59.5746 18.221C59.6423 18.1603 59.695 18.0843 59.7284 17.999C59.7619 17.9138 59.775 17.8217 59.7669 17.7303V17.4218ZM59.2234 17.1003C59.3328 17.1033 59.4416 17.083 59.5428 17.0405C59.6221 17.0059 59.6944 16.9569 59.7563 16.8958V15.4547C59.693 15.4139 59.6248 15.3816 59.5534 15.3584C59.4605 15.3282 59.3633 15.3137 59.2658 15.3154C59.1647 15.3113 59.0639 15.3287 58.9699 15.3666C58.8759 15.4045 58.7907 15.462 58.7199 15.5354C58.5678 15.7208 58.4931 15.9594 58.5117 16.2001C58.5085 16.3416 58.5271 16.4828 58.567 16.6185C58.5976 16.7214 58.6498 16.8164 58.7199 16.897C58.7815 16.9661 58.8583 17.0193 58.944 17.0524C59.0335 17.0856 59.1282 17.1014 59.2234 17.1003Z" fill="#CC0066"/>
<path d="M61.0558 14.0392C61.0545 13.9915 61.0624 13.9439 61.0792 13.8993C61.0959 13.8547 61.1212 13.8139 61.1535 13.7792C61.1864 13.7444 61.2263 13.7171 61.2704 13.699C61.3145 13.681 61.3618 13.6727 61.4093 13.6746C61.456 13.673 61.5024 13.6815 61.5456 13.6996C61.5888 13.7176 61.6278 13.7447 61.6599 13.7792C61.7227 13.8507 61.7575 13.9433 61.7575 14.0392C61.7575 14.1351 61.7227 14.2277 61.6599 14.2992C61.6278 14.3337 61.5888 14.3608 61.5456 14.3789C61.5024 14.3969 61.456 14.4054 61.4093 14.4038C61.3618 14.4058 61.3145 14.3974 61.2704 14.3794C61.2263 14.3614 61.1864 14.334 61.1535 14.2992C61.1212 14.2646 61.0959 14.2237 61.0791 14.1791C61.0624 14.1345 61.0544 14.087 61.0558 14.0392ZM61.6993 17.6735C61.6642 17.6874 61.628 17.6982 61.5911 17.7058C61.5398 17.7169 61.4876 17.7223 61.4352 17.7219C61.3499 17.7291 61.2649 17.7054 61.1952 17.655C61.1673 17.6258 61.146 17.5908 61.1328 17.5524C61.1196 17.514 61.1148 17.4731 61.1187 17.4326V14.9107L61.2293 14.8814C61.281 14.8683 61.3342 14.8621 61.3875 14.8629C61.4713 14.856 61.5547 14.8798 61.6228 14.9298C61.6501 14.9604 61.6708 14.9965 61.6835 15.0358C61.6961 15.075 61.7005 15.1165 61.6963 15.1576L61.6993 17.6735Z" fill="#CC0066"/>
<path d="M63.2089 17.1727C63.3066 17.237 63.422 17.268 63.5383 17.2612C63.6061 17.2606 63.6736 17.2507 63.7389 17.2319C63.8029 17.2148 63.8648 17.1906 63.9236 17.1595C63.9493 17.1933 63.9723 17.2291 63.9924 17.2665C64.0268 17.3362 64.0337 17.4166 64.0119 17.4913C63.99 17.5661 63.941 17.6295 63.8747 17.6688C63.7388 17.7455 63.584 17.7808 63.4289 17.7704C63.1905 17.7828 62.9552 17.7119 62.7619 17.5696C62.6726 17.4874 62.6035 17.3851 62.56 17.271C62.5165 17.1568 62.4999 17.0339 62.5113 16.9121V14.1302C62.5497 14.1166 62.589 14.1058 62.629 14.0979C62.681 14.0869 62.734 14.0815 62.7872 14.0818C62.8697 14.0749 62.9519 14.0978 63.0195 14.1463C63.0467 14.1754 63.0674 14.2101 63.0801 14.2481C63.0928 14.2861 63.0972 14.3264 63.093 14.3663V14.9557H63.9582C63.9754 14.9881 63.9896 15.0221 64.0006 15.0573C64.0149 15.1023 64.0221 15.1493 64.0218 15.1966C64.0218 15.3647 63.9531 15.4486 63.8159 15.4482H63.093V16.869C63.0871 16.9255 63.0946 16.9825 63.1151 17.0353C63.1356 17.0881 63.1684 17.135 63.2107 17.1721" fill="#CC0066"/>
<path d="M65.5823 14.8115C65.8754 14.7951 66.1654 14.8793 66.4058 15.0506C66.5123 15.1439 66.5956 15.2614 66.6487 15.3937C66.7019 15.526 66.7234 15.6692 66.7116 15.8115V17.2001C66.7165 17.2754 66.6957 17.3501 66.6528 17.4117C66.607 17.4665 66.5537 17.5144 66.4946 17.554C66.3782 17.6203 66.2541 17.6717 66.1252 17.707C65.9515 17.7545 65.7721 17.7771 65.5923 17.7739C65.2952 17.7915 65.0003 17.7116 64.7512 17.5462C64.6503 17.469 64.5697 17.3677 64.5168 17.2512C64.4638 17.1347 64.4401 17.0066 64.4477 16.8785C64.4412 16.7674 64.4589 16.6562 64.4996 16.5529C64.5402 16.4496 64.6028 16.3566 64.683 16.2808C64.8774 16.1261 65.114 16.0362 65.3605 16.0231L66.1358 15.9371V15.8085C66.1421 15.7368 66.1309 15.6645 66.1034 15.5981C66.0758 15.5318 66.0326 15.4733 65.9776 15.4278C65.8479 15.3417 65.6946 15.2998 65.5399 15.3082C65.3952 15.3077 65.2513 15.3293 65.1129 15.3722C64.9857 15.411 64.862 15.4612 64.7435 15.5222C64.7064 15.4873 64.6746 15.447 64.6489 15.4027C64.6204 15.3544 64.6058 15.2989 64.6067 15.2426C64.6077 15.1863 64.6241 15.1314 64.6541 15.0841C64.693 15.0336 64.7438 14.9939 64.8018 14.9687C64.9146 14.913 65.0343 14.8728 65.1576 14.8492C65.2976 14.8217 65.4398 14.8082 65.5823 14.8091M65.5929 17.2856C65.7086 17.2879 65.8241 17.2734 65.9358 17.2425C66.0076 17.2249 66.0756 17.1939 66.1364 17.1511V16.3955L65.5352 16.4601C65.399 16.4693 65.2669 16.5116 65.15 16.5832C65.1072 16.616 65.0731 16.6591 65.051 16.7088C65.0289 16.7584 65.0195 16.8129 65.0235 16.8672C65.0212 16.9254 65.0324 16.9834 65.0562 17.0365C65.08 17.0896 65.1158 17.1362 65.1606 17.1726C65.2883 17.258 65.4405 17.2976 65.5929 17.285" fill="#CC0066"/>
<path d="M67.8131 17.7218C67.7294 17.7277 67.6463 17.7041 67.5778 17.6549C67.549 17.6262 67.527 17.5913 67.5133 17.5528C67.4995 17.5144 67.4944 17.4732 67.4984 17.4325V13.8197L67.6089 13.7905C67.6606 13.7773 67.7139 13.7711 67.7672 13.7719C67.8504 13.766 67.9332 13.7885 68.0024 13.8359C68.0313 13.864 68.0534 13.8984 68.0672 13.9365C68.081 13.9746 68.086 14.0155 68.0818 14.0559V17.674C68.0501 17.6848 68.0109 17.6955 67.9642 17.7063C67.914 17.7176 67.8627 17.723 67.8113 17.7224" fill="#CC0066"/>
<path d="M70.7323 16.4401V17.6733C70.6926 17.6863 70.6521 17.697 70.6111 17.7056C70.5591 17.7166 70.5061 17.722 70.4529 17.7217C70.3655 17.7294 70.2784 17.7045 70.2077 17.6518C70.1797 17.6209 70.1584 17.5844 70.1453 17.5447C70.1321 17.5049 70.1273 17.4628 70.1312 17.421V14.3492C70.1277 14.2916 70.1468 14.2349 70.1842 14.1914C70.224 14.1508 70.2728 14.1205 70.3265 14.1029C70.4614 14.0568 70.6012 14.0271 70.7429 14.0145C70.8998 13.9985 71.0492 13.9906 71.1911 13.9906C71.5774 13.9585 71.9614 14.0752 72.2669 14.3175C72.3843 14.4319 72.4762 14.5705 72.5363 14.7241C72.5964 14.8776 72.6233 15.0425 72.6151 15.2076C72.6225 15.3735 72.5952 15.5392 72.5352 15.6937C72.4752 15.8482 72.3838 15.9881 72.2669 16.1042C71.975 16.3503 71.6004 16.4715 71.2223 16.4419L70.7323 16.4401ZM71.1911 15.9201C71.4051 15.9325 71.6167 15.8691 71.7899 15.7408C71.8646 15.6753 71.9233 15.593 71.9613 15.5005C71.9993 15.4079 72.0155 15.3076 72.0087 15.2076C72.017 15.1095 72.0025 15.0109 71.9663 14.9196C71.9301 14.8283 71.8733 14.747 71.8005 14.6822C71.6248 14.5604 71.414 14.5019 71.2017 14.516C71.1209 14.516 71.0382 14.5196 70.9535 14.5267C70.8772 14.5328 70.8014 14.5436 70.7265 14.559V15.9207L71.1911 15.9201Z" fill="#CC0066"/>
<path d="M74.2053 14.8115C74.4984 14.7951 74.7885 14.8793 75.0288 15.0506C75.1354 15.1438 75.2187 15.2614 75.2718 15.3937C75.325 15.5259 75.3465 15.6692 75.3347 15.8115V17.2001C75.3395 17.2754 75.3187 17.3501 75.2758 17.4117C75.23 17.4665 75.1767 17.5144 75.1176 17.554C75.0012 17.6203 74.8771 17.6717 74.7482 17.707C74.5746 17.7546 74.3952 17.7771 74.2153 17.7739C73.9182 17.7915 73.6234 17.7116 73.3742 17.5462C73.2733 17.469 73.1928 17.3677 73.1398 17.2512C73.0868 17.1347 73.0631 17.0066 73.0707 16.8785C73.0642 16.7674 73.0819 16.6562 73.1226 16.5529C73.1632 16.4496 73.2259 16.3566 73.306 16.2808C73.5004 16.1261 73.737 16.0361 73.9836 16.0231L74.7588 15.9371V15.8086C74.7652 15.7368 74.754 15.6645 74.7264 15.5981C74.6988 15.5317 74.6556 15.4732 74.6006 15.4278C74.4709 15.3416 74.3177 15.2997 74.163 15.3082C74.0183 15.3077 73.8743 15.3293 73.736 15.3722C73.6087 15.411 73.4851 15.4612 73.3666 15.5222C73.3295 15.4873 73.2976 15.447 73.2719 15.4027C73.2434 15.3544 73.2289 15.2989 73.2298 15.2426C73.2307 15.1863 73.2471 15.1314 73.2771 15.0841C73.316 15.0336 73.3668 14.9939 73.4248 14.9687C73.5377 14.913 73.6573 14.8728 73.7806 14.8492C73.9206 14.8217 74.0628 14.8082 74.2053 14.8091M74.2159 17.2856C74.3316 17.2879 74.4471 17.2734 74.5588 17.2425C74.6306 17.2248 74.6986 17.1938 74.7594 17.1511V16.3955L74.1583 16.4601C74.022 16.4693 73.8899 16.5115 73.773 16.5832C73.7302 16.616 73.6962 16.6591 73.6741 16.7088C73.652 16.7584 73.6425 16.8129 73.6466 16.8672C73.6442 16.9254 73.6554 16.9834 73.6792 17.0365C73.703 17.0896 73.7388 17.1362 73.7836 17.1726C73.9113 17.258 74.0635 17.2975 74.2159 17.285" fill="#CC0066"/>
<path d="M76.5854 17.0358C76.4905 16.8393 76.3754 16.5624 76.2402 16.2049C76.1049 15.8475 75.9757 15.4436 75.8525 14.9933C75.8902 14.9483 75.9359 14.911 75.9872 14.8833C76.0413 14.8531 76.102 14.8375 76.1637 14.8379C76.2352 14.8344 76.3059 14.8555 76.3643 14.8977C76.4271 14.9553 76.4712 15.031 76.4907 15.1146C76.5927 15.4362 76.6974 15.7534 76.8048 16.0662C76.9123 16.3791 77.0309 16.7016 77.1607 17.034H77.1818C77.2379 16.9053 77.295 16.756 77.353 16.5863C77.4111 16.4165 77.4673 16.236 77.5218 16.0447C77.5763 15.8534 77.6283 15.6596 77.6777 15.4631C77.7271 15.2667 77.771 15.0792 77.8095 14.9006C77.8451 14.8826 77.8821 14.8675 77.92 14.8552C77.9645 14.842 78.0107 14.8357 78.0571 14.8367C78.1302 14.8338 78.2023 14.8548 78.2629 14.8965C78.2918 14.9194 78.3146 14.9492 78.3293 14.9834C78.344 15.0175 78.3501 15.0548 78.3471 15.0919C78.3385 15.2515 78.3129 15.4096 78.2706 15.5635C78.2196 15.7744 78.1537 16.0085 78.073 16.2659C77.9922 16.5233 77.8998 16.7823 77.7959 17.043C77.692 17.304 77.5873 17.5363 77.4818 17.7399C77.3418 18.0227 77.1739 18.2902 76.9807 18.5385C76.9328 18.6124 76.87 18.6751 76.7963 18.7222C76.7227 18.7693 76.6399 18.7998 76.5537 18.8117C76.5085 18.8143 76.4633 18.8077 76.4207 18.792C76.3781 18.7764 76.3391 18.7522 76.306 18.7208C76.2444 18.658 76.2033 18.5775 76.1884 18.4901C76.2573 18.4271 76.3225 18.36 76.3837 18.2893C76.4539 18.2096 76.5243 18.1239 76.5948 18.0322C76.6654 17.9406 76.7331 17.8467 76.7978 17.7507C76.859 17.6608 76.9128 17.5658 76.9583 17.4668C76.8896 17.4414 76.8275 17.4005 76.7766 17.3472C76.6956 17.2535 76.6306 17.1466 76.5843 17.031" fill="#CC0066"/>
<path d="M82.0073 15.436C81.901 15.3509 81.7677 15.3084 81.6326 15.3165C81.5316 15.316 81.4315 15.3363 81.3385 15.3762C81.2435 15.4172 81.156 15.4742 81.0797 15.5448C81.0869 15.5783 81.0922 15.6123 81.0956 15.6464C81.0991 15.6823 81.1009 15.7182 81.1009 15.7534V17.6728C81.0658 17.6867 81.0296 17.6975 80.9926 17.7051C80.9434 17.716 80.8931 17.7214 80.8426 17.7212C80.7565 17.728 80.6707 17.7044 80.5997 17.6543C80.5712 17.6255 80.5493 17.5906 80.5356 17.5521C80.522 17.5136 80.517 17.4726 80.5209 17.4319V15.818C80.5271 15.7478 80.518 15.6771 80.4943 15.6109C80.4707 15.5447 80.433 15.4846 80.3839 15.4348C80.2776 15.3497 80.1443 15.3072 80.0092 15.3153C79.9087 15.3147 79.809 15.3329 79.7151 15.3691C79.6337 15.4001 79.5561 15.4402 79.4834 15.4886V17.6758C79.4483 17.6897 79.4121 17.7005 79.3751 17.708C79.3239 17.7192 79.2716 17.7246 79.2192 17.7242C79.1356 17.7301 79.0525 17.7065 78.984 17.6572C78.9553 17.6285 78.9332 17.5937 78.9195 17.5552C78.9057 17.5167 78.9007 17.4756 78.9046 17.4349V15.4731C78.9007 15.3957 78.918 15.3187 78.9546 15.2507C78.9987 15.184 79.055 15.1266 79.1204 15.0816C79.3928 14.9092 79.7066 14.8165 80.0274 14.8138C80.1876 14.8109 80.347 14.8373 80.498 14.8915C80.6284 14.9388 80.7459 15.0168 80.8409 15.1192C80.9515 15.0283 81.075 14.9552 81.2073 14.9022C81.3662 14.8403 81.5354 14.8102 81.7055 14.8138C81.8449 14.8128 81.9837 14.833 82.1172 14.8735C82.2369 14.9089 82.3477 14.97 82.4419 15.0529C82.5345 15.1374 82.6074 15.2417 82.6555 15.3583C82.7115 15.4987 82.7385 15.6492 82.7349 15.8006V17.677C82.6962 17.6897 82.657 17.7005 82.6173 17.7092C82.568 17.7202 82.5177 17.7256 82.4673 17.7254C82.3836 17.7312 82.3005 17.7076 82.232 17.6584C82.2033 17.6297 82.1812 17.5948 82.1675 17.5564C82.1538 17.5179 82.1487 17.4768 82.1526 17.4361V15.8222C82.1589 15.752 82.1499 15.6812 82.1262 15.615C82.1025 15.5488 82.0647 15.4887 82.0155 15.439" fill="#CC0066"/>
<path d="M83.9532 16.6071C83.987 16.8068 84.0945 16.986 84.2537 17.108C84.4254 17.2229 84.6283 17.28 84.8337 17.2712C84.9788 17.273 85.123 17.2466 85.2584 17.1935C85.3688 17.1511 85.4742 17.0961 85.5725 17.0297C85.6206 17.0552 85.6608 17.0937 85.6887 17.1409C85.7167 17.1882 85.7312 17.2424 85.7307 17.2975C85.73 17.3672 85.7038 17.4341 85.6571 17.4852C85.6009 17.5477 85.5326 17.598 85.4566 17.6328C85.3626 17.6772 85.264 17.7105 85.1625 17.7321C84.8464 17.7972 84.519 17.7766 84.2132 17.6723C84.0431 17.6117 83.8883 17.5137 83.7597 17.3854C83.6286 17.2521 83.5282 17.0911 83.4656 16.9137C83.3938 16.7063 83.3589 16.4875 83.3626 16.2676C83.3586 16.0534 83.3917 15.8401 83.4603 15.6376C83.5183 15.4687 83.6109 15.3143 83.732 15.1845C83.8475 15.0634 83.9867 14.9684 84.1408 14.9059C84.2993 14.8413 84.4688 14.8086 84.6396 14.8097C84.8067 14.8074 84.9725 14.8393 85.1272 14.9035C85.269 14.9626 85.3975 15.0504 85.505 15.1615C85.6125 15.2725 85.6966 15.4046 85.7524 15.5497C85.8134 15.7066 85.8437 15.8741 85.8418 16.0428C85.8453 16.0823 85.841 16.1221 85.8292 16.1598C85.8174 16.1976 85.7983 16.2326 85.773 16.2628C85.719 16.3133 85.6506 16.3451 85.5777 16.3537L83.9532 16.6071ZM84.639 15.2921C84.5435 15.2898 84.4486 15.3085 84.3608 15.3469C84.273 15.3853 84.1944 15.4424 84.1302 15.5144C83.9849 15.6904 83.9088 15.9148 83.9167 16.1445L85.2878 15.9352C85.2782 15.7672 85.2142 15.6071 85.106 15.4798C85.0467 15.4155 84.9741 15.3653 84.8935 15.3328C84.8128 15.3004 84.7256 15.2865 84.639 15.2921Z" fill="#CC0066"/>
<path d="M88.0467 15.452C87.9294 15.3555 87.781 15.3067 87.6303 15.3151C87.5121 15.3133 87.3944 15.3314 87.282 15.3689C87.1908 15.4004 87.1026 15.4404 87.0185 15.4884V17.6756C86.9835 17.6896 86.9473 17.7004 86.9103 17.7079C86.8591 17.719 86.8068 17.7245 86.7545 17.724C86.6708 17.7299 86.5877 17.7062 86.5192 17.6571C86.4905 17.6284 86.4684 17.5935 86.4547 17.555C86.441 17.5165 86.4358 17.4754 86.4398 17.4347V15.4729C86.4361 15.3955 86.4534 15.3186 86.4898 15.2505C86.5341 15.1838 86.5906 15.1264 86.6562 15.0814C86.7859 15.0072 86.923 14.9471 87.0651 14.9021C87.2483 14.8425 87.4398 14.8136 87.6321 14.8166C87.9356 14.799 88.2354 14.8911 88.4785 15.0766C88.5854 15.1749 88.6688 15.2968 88.7224 15.433C88.7759 15.5691 88.7981 15.7159 88.7873 15.862V17.6792C88.7502 17.6925 88.7123 17.7033 88.6738 17.7115C88.6227 17.7226 88.5706 17.728 88.5184 17.7276C88.4348 17.7335 88.3517 17.7098 88.2832 17.6606C88.2545 17.6319 88.2326 17.597 88.219 17.5585C88.2053 17.5201 88.2003 17.479 88.2043 17.4383V15.8841C88.2109 15.8061 88.2007 15.7275 88.1742 15.6539C88.1478 15.5803 88.106 15.5134 88.0515 15.458" fill="#CC0066"/>
<path d="M90.2588 17.1727C90.3565 17.237 90.4719 17.268 90.5882 17.2612C90.656 17.2606 90.7235 17.2508 90.7887 17.2319C90.8527 17.2148 90.9147 17.1906 90.9734 17.1595C90.9991 17.1933 91.0221 17.2291 91.0422 17.2665C91.0768 17.3362 91.0838 17.4166 91.0619 17.4914C91.0401 17.5662 90.9909 17.6296 90.9246 17.6688C90.7886 17.7455 90.6339 17.7808 90.4788 17.7704C90.2404 17.7828 90.005 17.7119 89.8117 17.5696C89.7225 17.4874 89.6533 17.3851 89.6098 17.271C89.5663 17.1568 89.5496 17.0339 89.5611 16.9121V14.1302C89.5996 14.1166 89.6389 14.1058 89.6788 14.0979C89.7309 14.0869 89.7839 14.0815 89.837 14.0818C89.9195 14.0749 90.0018 14.0978 90.0694 14.1463C90.0967 14.1753 90.1174 14.21 90.1302 14.248C90.143 14.286 90.1475 14.3264 90.1434 14.3663V14.9557H91.0087C91.026 14.9881 91.0402 15.0221 91.0511 15.0573C91.0654 15.1022 91.0726 15.1493 91.0723 15.1966C91.0723 15.3647 91.0036 15.4486 90.8663 15.4482H90.1434V16.869C90.1375 16.9255 90.1451 16.9825 90.1656 17.0353C90.1861 17.0881 90.2189 17.135 90.2611 17.1721" fill="#CC0066"/>
<path d="M93.6118 16.9177C93.617 17.0366 93.5947 17.1551 93.5466 17.2636C93.4985 17.3721 93.4259 17.4676 93.3348 17.5424C93.1001 17.7096 92.8161 17.79 92.5301 17.7701C92.394 17.7711 92.258 17.7585 92.1243 17.7325C92.0167 17.7126 91.912 17.6785 91.8131 17.6309C91.7364 17.5939 91.6683 17.541 91.6132 17.4754C91.5658 17.4205 91.5395 17.35 91.5391 17.277C91.5389 17.2199 91.5524 17.1637 91.5785 17.1132C91.6052 17.0607 91.646 17.017 91.6961 16.9871C91.8072 17.0637 91.9254 17.1291 92.049 17.1825C92.196 17.2442 92.3541 17.2743 92.5131 17.271C92.6475 17.2799 92.7815 17.2483 92.8983 17.1801C92.9407 17.1517 92.9752 17.1126 92.9983 17.0666C93.0214 17.0206 93.0323 16.9693 93.0301 16.9177C93.0323 16.8738 93.0256 16.8298 93.0102 16.7886C92.9948 16.7474 92.9711 16.71 92.9407 16.6786C92.8637 16.6106 92.771 16.5635 92.6713 16.5418L92.2913 16.4348C92.085 16.3871 91.8942 16.2865 91.7372 16.1425C91.676 16.0744 91.6288 15.9945 91.5985 15.9075C91.5682 15.8205 91.5554 15.7283 91.5608 15.6362C91.5603 15.5242 91.5837 15.4134 91.6296 15.3116C91.6752 15.2101 91.7428 15.1204 91.8273 15.0492C91.9235 14.9706 92.0337 14.9115 92.152 14.8752C92.2954 14.8303 92.4448 14.8085 92.5948 14.8107C92.7188 14.8094 92.8426 14.821 92.9642 14.8454C93.0615 14.8648 93.1562 14.8955 93.2465 14.9368C93.3178 14.9682 93.381 15.0159 93.4312 15.0761C93.4732 15.1262 93.4966 15.1896 93.4971 15.2554C93.4983 15.3116 93.4847 15.3671 93.4577 15.4162C93.4333 15.4602 93.4 15.4985 93.3601 15.5286C93.2638 15.4731 93.1633 15.4255 93.0595 15.3863C92.925 15.3337 92.7819 15.3073 92.6378 15.3086C92.5092 15.3012 92.3812 15.3308 92.2684 15.3941C92.2334 15.4165 92.2035 15.4464 92.1811 15.4817C92.1587 15.517 92.1441 15.5569 92.1385 15.5986C92.1329 15.6403 92.1364 15.6827 92.1486 15.7228C92.1609 15.763 92.1818 15.7999 92.2096 15.831C92.2834 15.8956 92.3727 15.9391 92.4684 15.9572L92.7954 16.0432C93.0253 16.0977 93.2383 16.2092 93.4153 16.3678C93.4832 16.441 93.5357 16.5274 93.5696 16.6219C93.6036 16.7163 93.6184 16.8168 93.613 16.9171" fill="#CC0066"/>
<path d="M13.102 8.48779V18.9525C13.102 19.6376 12.8952 20.3061 12.5095 20.8679C12.1238 21.4298 11.5777 21.8578 10.9451 22.0943L1.55406 25.6042C1.40625 25.6596 1.24746 25.6779 1.09122 25.6575C0.934968 25.637 0.785888 25.5786 0.656671 25.487C0.527454 25.3954 0.421929 25.2735 0.349081 25.1315C0.276233 24.9896 0.238221 24.8318 0.238281 24.6717V15.7922C0.238583 15.2582 0.399785 14.7371 0.70021 14.299C1.00063 13.8608 1.42587 13.5267 1.91873 13.3415L10.5986 10.079C11.9685 9.51531 12.5038 9.17042 13.1025 8.49078" fill="white"/>
<path d="M21.3582 11.1357C21.3483 11.5248 21.1934 11.8956 20.9248 12.173C20.6562 12.4505 20.2939 12.6139 19.9112 12.6301H17.9431C17.8297 12.6328 17.7198 12.5897 17.6376 12.5101C17.5554 12.4305 17.5077 12.321 17.5049 12.2057V7.84933C17.5041 7.79155 17.5146 7.73418 17.536 7.68062C17.5573 7.62706 17.5891 7.5784 17.6293 7.53754C17.6695 7.49668 17.7174 7.46443 17.7701 7.44273C17.8228 7.42102 17.8792 7.4103 17.9361 7.41118H19.8353C20.1194 7.42645 20.393 7.52514 20.623 7.69528C20.853 7.86541 21.0295 8.0997 21.1312 8.36974C21.2328 8.63977 21.2551 8.93396 21.1955 9.21664C21.1359 9.49933 20.9968 9.75837 20.7953 9.96236C20.9689 10.1032 21.1096 10.2816 21.207 10.4845C21.3045 10.6875 21.3557 10.9099 21.3582 11.1357ZM18.3402 9.5816L19.7383 9.56725C19.9081 9.56158 20.0695 9.49048 20.1896 9.36838C20.3097 9.24628 20.3797 9.08232 20.3853 8.90973C20.3843 8.74373 20.3199 8.58462 20.2056 8.46596C20.0914 8.3473 19.9363 8.27838 19.773 8.27373H18.3402V9.5816ZM20.4965 11.1357C20.4848 10.9598 20.4093 10.7946 20.2847 10.6719C20.1601 10.5493 19.9952 10.4779 19.8218 10.4716H18.3749V11.7789H19.863C20.0291 11.7735 20.1871 11.704 20.3046 11.5846C20.4222 11.4651 20.4906 11.3046 20.4959 11.1357" fill="white"/>
<path d="M24.7815 10.4716H24.1486V12.205C24.1461 12.3192 24.0994 12.4277 24.0187 12.507C23.938 12.5864 23.8297 12.6301 23.7174 12.6288C23.6069 12.6285 23.5009 12.5838 23.4227 12.5044C23.3444 12.425 23.3003 12.3174 23.2998 12.205V7.83493C23.3033 7.72118 23.3503 7.61331 23.4308 7.53418C23.5113 7.45506 23.619 7.41092 23.7309 7.41113H25.2538C25.6453 7.41982 26.0187 7.58083 26.2968 7.86098C26.575 8.14112 26.7368 8.51905 26.7489 8.91686C26.7417 9.23768 26.6387 9.5487 26.4536 9.80872C26.2685 10.0687 26.0101 10.2655 25.7126 10.373L26.6795 11.9773C26.7359 12.0761 26.7522 12.1933 26.725 12.3041C26.6978 12.4149 26.6291 12.5106 26.5337 12.5709C26.4675 12.6078 26.3933 12.6273 26.3178 12.6277C26.2453 12.6276 26.1741 12.6087 26.1108 12.5728C26.0474 12.537 25.9942 12.4853 25.9561 12.4226L24.7815 10.4716ZM25.9084 8.92343C25.9005 8.74617 25.8248 8.57903 25.6975 8.45758C25.5702 8.33613 25.4013 8.26994 25.2267 8.27308H24.1486V9.60904H25.2267C25.4063 9.60921 25.5788 9.53726 25.7064 9.40885C25.8341 9.28044 25.9067 9.10597 25.9084 8.92343Z" fill="white"/>
<path d="M31.6314 12.6274C30.9532 12.62 30.3054 12.34 29.8297 11.8486C29.354 11.3572 29.089 10.6944 29.0928 10.0051C29.1016 9.49758 29.2577 9.00403 29.5415 8.58634C29.8253 8.16866 30.2241 7.84545 30.688 7.65727C31.1519 7.46909 31.6601 7.42432 32.1489 7.52858C32.6378 7.63284 33.0854 7.88148 33.4357 8.24331C33.786 8.60514 34.0233 9.06404 34.1179 9.56243C34.2125 10.0608 34.1601 10.5765 33.9674 11.0448C33.7747 11.5131 33.4502 11.9131 33.0346 12.1946C32.6191 12.4762 32.1309 12.6267 31.6314 12.6274ZM29.9133 10.0051C29.9139 10.3511 30.0155 10.6893 30.2052 10.9767C30.3948 11.2641 30.6641 11.4879 30.979 11.6197C31.2938 11.7516 31.6401 11.7856 31.9739 11.7174C32.3078 11.6493 32.6143 11.4821 32.8546 11.2369C33.095 10.9918 33.2584 10.6797 33.3241 10.3401C33.3899 10.0006 33.3552 9.64883 33.2242 9.32937C33.0933 9.00991 32.8721 8.73709 32.5886 8.5454C32.3051 8.35372 31.972 8.25178 31.6314 8.25249C31.176 8.25703 30.7406 8.44335 30.4192 8.77123C30.0978 9.09911 29.9161 9.54226 29.9133 10.0051Z" fill="white"/>
<path d="M40.1724 12.5926C40.1185 12.6139 40.061 12.6241 40.0033 12.6224C39.9455 12.6207 39.8887 12.6072 39.8361 12.5828C39.7836 12.5584 39.7364 12.5235 39.6974 12.4802C39.6583 12.437 39.6282 12.3861 39.6089 12.3308L38.4325 9.10299L37.2502 12.3308C37.2322 12.3863 37.2032 12.4374 37.1649 12.481C37.1267 12.5246 37.0801 12.5598 37.0279 12.5843C36.9757 12.6089 36.9192 12.6223 36.8617 12.6237C36.8042 12.6251 36.7471 12.6146 36.6938 12.5926C36.639 12.5735 36.5885 12.5433 36.5456 12.5037C36.5026 12.4642 36.468 12.4161 36.4439 12.3626C36.4198 12.309 36.4067 12.251 36.4054 12.1921C36.4041 12.1332 36.4145 12.0746 36.4362 12.02L38.0078 7.68694C38.0409 7.60036 38.0993 7.52615 38.1751 7.47432C38.2509 7.42248 38.3405 7.39551 38.4319 7.39703C38.5229 7.39748 38.6116 7.42524 38.6871 7.47682C38.7625 7.5284 38.8213 7.60151 38.856 7.68694L40.4276 12.02C40.4493 12.0746 40.4598 12.1331 40.4585 12.192C40.4572 12.2509 40.4442 12.3088 40.4201 12.3624C40.3961 12.416 40.3615 12.464 40.3186 12.5036C40.2757 12.5432 40.2254 12.5735 40.1706 12.5926" fill="white"/>
<path d="M42.1826 12.204V7.85598C42.1853 7.74444 42.2301 7.63822 42.3077 7.55933C42.3854 7.48044 42.4899 7.43491 42.5996 7.43218H43.636C44.0093 7.42995 44.3789 7.50691 44.7212 7.65813C45.0502 7.80481 45.3443 8.02171 45.5835 8.29412C45.8222 8.56955 46.0003 8.8936 46.1059 9.2446C46.2115 9.59559 46.2422 9.96545 46.1958 10.3294C46.1191 10.9615 45.8183 11.5435 45.3497 11.9664C44.881 12.3892 44.2768 12.624 43.6501 12.6266H42.6002C42.4905 12.6238 42.3859 12.5783 42.3083 12.4994C42.2307 12.4205 42.1859 12.3143 42.1832 12.2028M45.3547 10.2302C45.3915 9.9861 45.375 9.73676 45.3065 9.49982C45.238 9.26287 45.1191 9.04411 44.9583 8.85899C44.7919 8.67103 44.5879 8.52145 44.36 8.4203C44.132 8.31916 43.8853 8.2688 43.6366 8.27261H43.0178V11.7784H43.6507C44.0726 11.7786 44.4798 11.6208 44.7944 11.3352C45.1091 11.0496 45.3092 10.6563 45.3565 10.2302" fill="white"/>
<path d="M50.327 11.8998C50.1188 12.2193 49.7981 12.4457 49.4308 12.5324C49.0634 12.6191 48.6774 12.5596 48.3519 12.366C48.2521 12.3045 48.1783 12.2075 48.145 12.0938C48.1116 11.9802 48.121 11.858 48.1713 11.7509C48.2468 11.6622 48.3524 11.6057 48.4671 11.5927C48.5818 11.5796 48.6971 11.6109 48.7901 11.6804C48.9343 11.7599 49.1028 11.7809 49.2616 11.7389C49.4203 11.697 49.5575 11.5953 49.6453 11.4545C49.6938 11.3812 49.7276 11.2989 49.7448 11.2123C49.762 11.1257 49.7622 11.0365 49.7454 10.9499C49.7286 10.8632 49.6952 10.7807 49.6471 10.7072C49.5989 10.6337 49.537 10.5705 49.4648 10.5214C49.1242 10.302 49.1118 10.2954 48.783 10.0761C48.4575 9.86137 48.2292 9.52408 48.1483 9.13836C48.0675 8.75264 48.1407 8.35008 48.3519 8.01921C48.5622 7.70229 48.8828 7.478 49.2492 7.3914C49.6156 7.3048 50.0007 7.36231 50.327 7.55237C50.4236 7.60969 50.4947 7.70251 50.5258 7.81165C50.5569 7.92079 50.5456 8.0379 50.4941 8.13876C50.4251 8.23119 50.3237 8.29306 50.211 8.31154C50.0983 8.33002 49.9829 8.30367 49.8888 8.23798C49.7383 8.16013 49.5642 8.14385 49.4023 8.1925C49.2404 8.24115 49.1029 8.35103 49.0183 8.49952C48.9337 8.64802 48.9083 8.82384 48.9474 8.99078C48.9864 9.15773 49.0869 9.30312 49.2283 9.39701C49.4047 9.50999 49.4048 9.50998 49.9029 9.84233C50.0638 9.94898 50.2024 10.0868 50.3108 10.2479C50.4192 10.4091 50.4953 10.5904 50.5346 10.7814C50.574 10.9724 50.5759 11.1695 50.5403 11.3613C50.5047 11.5531 50.4322 11.7365 50.327 11.8998Z" fill="white"/>
<path d="M55.0228 10.459C54.6338 10.4871 54.2436 10.4919 53.854 10.4733V12.2068C53.8516 12.3209 53.8049 12.4294 53.7242 12.5088C53.6435 12.5881 53.5352 12.6319 53.4229 12.6306C53.3125 12.6301 53.2066 12.5853 53.1285 12.5059C53.0504 12.4266 53.0064 12.3191 53.0059 12.2068V7.84864C53.0052 7.79279 53.0155 7.73735 53.0362 7.68561C53.0569 7.63386 53.0876 7.58685 53.1264 7.54736C53.1653 7.50786 53.2116 7.47667 53.2625 7.45563C53.3134 7.43459 53.3679 7.42412 53.4229 7.42484H54.981C55.3693 7.43713 55.7379 7.60126 56.01 7.88302C56.2821 8.16477 56.4367 8.54239 56.4415 8.93713C56.4352 9.32493 56.2859 9.69621 56.0232 9.97756C55.7605 10.2589 55.4035 10.4299 55.0228 10.4566M54.9257 8.27304H53.8546V9.609H54.9257C55.105 9.60793 55.2767 9.53557 55.4041 9.40743C55.5315 9.27928 55.6045 9.10553 55.6074 8.92338C55.5983 8.74653 55.5223 8.58011 55.3953 8.4589C55.2682 8.3377 55.1 8.2711 54.9257 8.27304Z" fill="white"/>
<path d="M58.666 12.2038V7.83546C58.6665 7.7232 58.7106 7.61568 58.7887 7.53631C58.8668 7.45693 58.9726 7.41213 59.083 7.41166H61.5887C61.7011 7.41021 61.8094 7.45395 61.8902 7.53333C61.9709 7.61271 62.0176 7.7213 62.0199 7.83546C62.0193 7.95147 61.9736 8.06255 61.8929 8.14458C61.8122 8.22661 61.7029 8.27298 61.5887 8.2736H59.516V9.60956H61.0811C61.1361 9.60884 61.1906 9.61931 61.2415 9.64035C61.2924 9.66139 61.3387 9.69258 61.3776 9.73208C61.4165 9.77158 61.4471 9.81859 61.4678 9.87033C61.4885 9.92208 61.4989 9.97751 61.4981 10.0334C61.4989 10.0893 61.4887 10.1448 61.468 10.1966C61.4474 10.2484 61.4167 10.2955 61.3778 10.335C61.3389 10.3746 61.2926 10.4058 61.2417 10.4269C61.1907 10.448 61.1361 10.4585 61.0811 10.4578H59.516V11.765H61.5887C61.7029 11.7657 61.8122 11.812 61.8929 11.8941C61.9736 11.9761 62.0193 12.0872 62.0199 12.2032C62.0174 12.3173 61.9708 12.4258 61.89 12.5051C61.8093 12.5845 61.701 12.6283 61.5887 12.627H59.0848C58.9744 12.6265 58.8686 12.5817 58.7904 12.5023C58.7123 12.423 58.6682 12.3154 58.6678 12.2032" fill="white"/>
<path d="M68.5641 12.0624C68.1213 12.4204 67.5719 12.6147 67.006 12.6135C66.3253 12.6135 65.6725 12.3387 65.1912 11.8495C64.7099 11.3604 64.4395 10.697 64.4395 10.0052C64.4395 9.31348 64.7099 8.65006 65.1912 8.16091C65.6725 7.67177 66.3253 7.39697 67.006 7.39697C67.4684 7.39761 67.9214 7.52993 68.3136 7.77893C68.3629 7.80496 68.4064 7.84086 68.4417 7.88446C68.477 7.92805 68.5032 7.97845 68.5188 8.03262C68.5344 8.08679 68.5391 8.1436 68.5325 8.19965C68.5259 8.2557 68.5083 8.30981 68.4806 8.35874C68.4524 8.4072 68.4146 8.44922 68.3697 8.48217C68.3247 8.51512 68.2736 8.53829 68.2194 8.55024C68.1653 8.56219 68.1093 8.56266 68.0549 8.55162C68.0006 8.54058 67.9491 8.51826 67.9036 8.48606C67.6323 8.32227 67.3222 8.23671 67.0066 8.2386C66.781 8.2386 66.5577 8.28377 66.3493 8.37153C66.1409 8.45929 65.9516 8.58792 65.7921 8.75007C65.6327 8.91221 65.5062 9.1047 65.42 9.31653C65.3338 9.52836 65.2895 9.75538 65.2897 9.98461C65.2819 10.3129 65.3654 10.6368 65.5306 10.9191C65.6958 11.2013 65.936 11.4305 66.2235 11.5803C66.5111 11.7301 66.8344 11.7945 67.1564 11.766C67.4783 11.7375 67.7858 11.6173 68.0436 11.4192C68.084 11.384 68.131 11.3573 68.1816 11.3407C68.2323 11.3242 68.2857 11.318 68.3388 11.3226C68.3918 11.3272 68.4435 11.3425 68.4906 11.3676C68.5378 11.3927 68.5796 11.4271 68.6135 11.4688C68.6843 11.5542 68.7189 11.6646 68.7098 11.7758C68.7006 11.8871 68.6485 11.9901 68.5647 12.0624" fill="white"/>
<path d="M74.3566 7.82813C74.3566 7.88354 74.3458 7.93839 74.3248 7.98951C74.3038 8.04063 74.273 8.08699 74.2342 8.12592C74.1954 8.16484 74.1494 8.19555 74.0988 8.21626C74.0482 8.23697 73.9941 8.24726 73.9396 8.24655H72.9179V12.2048C72.9179 12.3163 72.8743 12.4233 72.7967 12.5022C72.7191 12.581 72.6139 12.6253 72.5042 12.6253C72.3944 12.6253 72.2891 12.581 72.2115 12.5022C72.1339 12.4233 72.0904 12.3163 72.0904 12.2048V8.24536H71.0681C70.9583 8.24536 70.8531 8.20106 70.7755 8.12219C70.6979 8.04333 70.6543 7.93637 70.6543 7.82484C70.6543 7.71332 70.6979 7.60636 70.7755 7.5275C70.8531 7.44863 70.9583 7.40433 71.0681 7.40433H73.9402C73.9952 7.40361 74.0497 7.41408 74.1006 7.43512C74.1516 7.45616 74.1978 7.48735 74.2367 7.52685C74.2755 7.56635 74.3062 7.61335 74.327 7.6651C74.3477 7.71684 74.3574 7.77228 74.3566 7.82813Z" fill="white"/>
<path d="M77.926 10.4716H77.2931V12.205C77.2906 12.3192 77.244 12.4277 77.1632 12.507C77.0825 12.5864 76.9742 12.6301 76.8619 12.6288C76.7514 12.6285 76.6454 12.5838 76.5672 12.5044C76.489 12.425 76.4448 12.3174 76.4443 12.205V7.83493C76.4479 7.72118 76.4948 7.61331 76.5753 7.53418C76.6558 7.45506 76.7635 7.41092 76.8755 7.41113H78.3989C78.7904 7.41982 79.1637 7.58083 79.4419 7.86098C79.7201 8.14112 79.8819 8.51905 79.8941 8.91686C79.8868 9.23768 79.7838 9.5487 79.5987 9.80872C79.4137 10.0687 79.1552 10.2655 78.8577 10.373L79.8246 11.9773C79.8809 12.0762 79.8971 12.1935 79.8698 12.3043C79.8424 12.4151 79.7737 12.5107 79.6781 12.5709C79.612 12.6078 79.5378 12.6274 79.4623 12.6277C79.3898 12.6276 79.3185 12.6087 79.2552 12.5728C79.1919 12.537 79.1387 12.4853 79.1006 12.4226L77.926 10.4716ZM79.0529 8.92343C79.045 8.74617 78.9693 8.57903 78.842 8.45758C78.7147 8.33613 78.5458 8.26994 78.3712 8.27308H77.2931V9.60904H78.3712C78.5509 9.60921 78.7233 9.53726 78.8509 9.40885C78.9786 9.28044 79.0512 9.10597 79.0529 8.92343Z" fill="white"/>
<path d="M85.9942 7.82776V10.7185C85.9986 10.9719 85.9533 11.2237 85.8609 11.4591C85.7685 11.6946 85.6309 11.909 85.4561 12.0898C85.2813 12.2706 85.0728 12.4143 84.8428 12.5123C84.6128 12.6103 84.3658 12.6608 84.1164 12.6608C83.8669 12.6608 83.62 12.6103 83.39 12.5123C83.1599 12.4143 82.9515 12.2706 82.7766 12.0898C82.6018 11.909 82.4642 11.6946 82.3718 11.4591C82.2795 11.2237 82.2342 10.9719 82.2386 10.7185V7.82776C82.2386 7.71338 82.2833 7.60368 82.3629 7.5228C82.4424 7.44192 82.5504 7.39648 82.6629 7.39648C82.7755 7.39648 82.8835 7.44192 82.963 7.5228C83.0426 7.60368 83.0873 7.71338 83.0873 7.82776V10.7185C83.0873 10.9978 83.1965 11.2657 83.3909 11.4632C83.5853 11.6607 83.8488 11.7717 84.1237 11.7717C84.3986 11.7717 84.6622 11.6607 84.8566 11.4632C85.0509 11.2657 85.1601 10.9978 85.1601 10.7185V7.82776C85.1594 7.77191 85.1697 7.71647 85.1904 7.66472C85.2111 7.61298 85.2418 7.56597 85.2807 7.52647C85.3195 7.48698 85.3658 7.45579 85.4167 7.43475C85.4676 7.4137 85.5222 7.40324 85.5771 7.40396C85.6321 7.40324 85.6866 7.4137 85.7375 7.43475C85.7885 7.45579 85.8347 7.48698 85.8736 7.52647C85.9125 7.56597 85.9432 7.61298 85.9639 7.66472C85.9846 7.71647 85.9949 7.77191 85.9942 7.82776Z" fill="white"/>
<path d="M93.484 12.1118C93.499 12.1638 93.5035 12.2183 93.4971 12.2722C93.4908 12.326 93.4738 12.378 93.4472 12.4249C93.4205 12.4718 93.3847 12.5128 93.342 12.5453C93.2993 12.5778 93.2506 12.6011 93.1987 12.6139H93.1776C93.1705 12.6139 93.1705 12.6139 93.164 12.6282H93.1152C93.0179 12.6274 92.9238 12.5925 92.8489 12.5295C92.7739 12.4665 92.7225 12.3791 92.7035 12.2821L92.1329 9.45479L91.083 12.3174C91.0551 12.4038 91.0011 12.479 90.9286 12.5323C90.8562 12.5857 90.769 12.6144 90.6795 12.6144C90.59 12.6144 90.5029 12.5857 90.4304 12.5323C90.358 12.479 90.3039 12.4038 90.276 12.3174L89.3508 9.58928L88.8638 12.2821C88.8484 12.3815 88.7983 12.4718 88.7226 12.5367C88.647 12.6016 88.551 12.6366 88.452 12.6354C88.4309 12.6354 88.4032 12.6282 88.3826 12.6282C88.3268 12.62 88.2735 12.5992 88.2266 12.5673C88.1797 12.5355 88.1403 12.4934 88.1115 12.4441C88.0779 12.4008 88.0543 12.3504 88.0423 12.2967C88.0303 12.2429 88.0302 12.1871 88.042 12.1333L88.7585 7.75122C88.7763 7.65583 88.825 7.56923 88.8968 7.50522C88.9687 7.44121 89.0596 7.40345 89.155 7.39795H89.1896C89.2794 7.39789 89.3668 7.42681 89.4394 7.48053C89.5119 7.53425 89.5657 7.60998 89.5932 7.69682L90.6918 10.8422L91.8394 7.68247C91.8662 7.59794 91.9195 7.52459 91.991 7.47357C92.0625 7.42255 92.1485 7.39663 92.2358 7.39974H92.257C92.352 7.40037 92.4436 7.43567 92.5151 7.49921C92.5865 7.56274 92.6331 7.65028 92.6464 7.74584L93.484 12.1118Z" fill="white"/>
</g>
</svg>
