<svg width="9" height="10" viewBox="0 0 9 10" fill="none" xmlns="http://www.w3.org/2000/svg">
<path d="M6.12507 1.03906H2.42552C1.31031 1.03906 0.40625 2.01267 0.40625 3.21367V7.19779C0.40625 8.39879 1.31031 9.37239 2.42552 9.37239H6.12507C7.24028 9.37239 8.14434 8.39879 8.14434 7.19779V3.21367C8.14434 2.01267 7.24028 1.03906 6.12507 1.03906Z" stroke="#13340C" stroke-width="0.553494" stroke-linecap="round" stroke-linejoin="round"/>
<path d="M4.27567 7.38754C5.39495 7.38754 6.30231 6.41038 6.30231 5.205C6.30231 3.99962 5.39495 3.02246 4.27567 3.02246C3.15638 3.02246 2.24902 3.99962 2.24902 5.205C2.24902 6.41038 3.15638 7.38754 4.27567 7.38754Z" stroke="#13340C" stroke-width="0.553494" stroke-linecap="round" stroke-linejoin="round"/>
<path d="M6.48624 2.62534C6.588 2.62534 6.67048 2.53651 6.67048 2.42693C6.67048 2.31735 6.588 2.22852 6.48624 2.22852C6.38449 2.22852 6.302 2.31735 6.302 2.42693C6.302 2.53651 6.38449 2.62534 6.48624 2.62534Z" stroke="#13340C" stroke-width="0.553494" stroke-linecap="round" stroke-linejoin="round"/>
</svg>
