<svg width="15" height="17" viewBox="0 0 15 17" fill="none" xmlns="http://www.w3.org/2000/svg">
<path d="M10.8242 1.37207H4.16497C2.15758 1.37207 0.530273 3.12456 0.530273 5.28636V12.4578C0.530273 14.6196 2.15758 16.3721 4.16497 16.3721H10.8242C12.8315 16.3721 14.4588 14.6196 14.4588 12.4578V5.28636C14.4588 3.12456 12.8315 1.37207 10.8242 1.37207Z" stroke="#13340C" stroke-width="0.996289" stroke-linecap="round" stroke-linejoin="round"/>
<path d="M7.49464 12.8005C9.50935 12.8005 11.1426 11.0416 11.1426 8.87193C11.1426 6.70224 9.50935 4.94336 7.49464 4.94336C5.47993 4.94336 3.84668 6.70224 3.84668 8.87193C3.84668 11.0416 5.47993 12.8005 7.49464 12.8005Z" stroke="#13340C" stroke-width="0.996289" stroke-linecap="round" stroke-linejoin="round"/>
<path d="M11.4742 4.22698C11.6574 4.22698 11.8058 4.06708 11.8058 3.86984C11.8058 3.67259 11.6574 3.5127 11.4742 3.5127C11.2911 3.5127 11.1426 3.67259 11.1426 3.86984C11.1426 4.06708 11.2911 4.22698 11.4742 4.22698Z" stroke="#13340C" stroke-width="0.996289" stroke-linecap="round" stroke-linejoin="round"/>
</svg>
