<svg width="9" height="10" viewBox="0 0 9 10" fill="none" xmlns="http://www.w3.org/2000/svg">
<path d="M6.12483 1.20996H2.42528C1.31007 1.20996 0.406006 2.18356 0.406006 3.38456V7.36869C0.406006 8.56969 1.31007 9.54329 2.42528 9.54329H6.12483C7.24004 9.54329 8.1441 8.56969 8.1441 7.36869V3.38456C8.1441 2.18356 7.24004 1.20996 6.12483 1.20996Z" stroke="#13340C" stroke-width="0.553494" stroke-linecap="round" stroke-linejoin="round"/>
<path d="M4.27548 7.55844C5.39477 7.55844 6.30213 6.58128 6.30213 5.3759C6.30213 4.17052 5.39477 3.19336 4.27548 3.19336C3.1562 3.19336 2.24884 4.17052 2.24884 5.3759C2.24884 6.58128 3.1562 7.55844 4.27548 7.55844Z" stroke="#13340C" stroke-width="0.553494" stroke-linecap="round" stroke-linejoin="round"/>
<path d="M6.48594 2.79624C6.58769 2.79624 6.67018 2.70741 6.67018 2.59783C6.67018 2.48825 6.58769 2.39941 6.48594 2.39941C6.38418 2.39941 6.3017 2.48825 6.3017 2.59783C6.3017 2.70741 6.38418 2.79624 6.48594 2.79624Z" stroke="#13340C" stroke-width="0.553494" stroke-linecap="round" stroke-linejoin="round"/>
</svg>
