<svg width="15" height="17" viewBox="0 0 15 17" fill="none" xmlns="http://www.w3.org/2000/svg">
<path d="M10.8242 1.36133H4.16497C2.15758 1.36133 0.530273 3.11381 0.530273 5.27561V12.447C0.530273 14.6088 2.15758 16.3613 4.16497 16.3613H10.8242C12.8315 16.3613 14.4588 14.6088 14.4588 12.447V5.27561C14.4588 3.11381 12.8315 1.36133 10.8242 1.36133Z" stroke="#13340C" stroke-width="0.996289" stroke-linecap="round" stroke-linejoin="round"/>
<path d="M7.49464 12.7898C9.50935 12.7898 11.1426 11.0309 11.1426 8.86119C11.1426 6.6915 9.50935 4.93262 7.49464 4.93262C5.47993 4.93262 3.84668 6.6915 3.84668 8.86119C3.84668 11.0309 5.47993 12.7898 7.49464 12.7898Z" stroke="#13340C" stroke-width="0.996289" stroke-linecap="round" stroke-linejoin="round"/>
<path d="M11.4742 4.21624C11.6574 4.21624 11.8058 4.05634 11.8058 3.8591C11.8058 3.66185 11.6574 3.50195 11.4742 3.50195C11.2911 3.50195 11.1426 3.66185 11.1426 3.8591C11.1426 4.05634 11.2911 4.21624 11.4742 4.21624Z" stroke="#13340C" stroke-width="0.996289" stroke-linecap="round" stroke-linejoin="round"/>
</svg>
