<svg width="11" height="12" viewBox="0 0 11 12" fill="none" xmlns="http://www.w3.org/2000/svg">
<path d="M7.61169 0.727539H2.98826C1.59455 0.727539 0.464722 1.94428 0.464722 3.4452V8.42427C0.464722 9.92519 1.59455 11.1419 2.98826 11.1419H7.61169C9.0054 11.1419 10.1352 9.92519 10.1352 8.42427V3.4452C10.1352 1.94428 9.0054 0.727539 7.61169 0.727539Z" stroke="#13340C" stroke-width="0.691716" stroke-linecap="round" stroke-linejoin="round"/>
<path d="M5.30051 8.66219C6.69931 8.66219 7.83326 7.44101 7.83326 5.93461C7.83326 4.42821 6.69931 3.20703 5.30051 3.20703C3.90171 3.20703 2.76776 4.42821 2.76776 5.93461C2.76776 7.44101 3.90171 8.66219 5.30051 8.66219Z" stroke="#13340C" stroke-width="0.691716" stroke-linecap="round" stroke-linejoin="round"/>
<path d="M8.06332 2.70881C8.19048 2.70881 8.29357 2.5978 8.29357 2.46085C8.29357 2.32391 8.19048 2.21289 8.06332 2.21289C7.93616 2.21289 7.83307 2.32391 7.83307 2.46085C7.83307 2.5978 7.93616 2.70881 8.06332 2.70881Z" stroke="#13340C" stroke-width="0.691716" stroke-linecap="round" stroke-linejoin="round"/>
</svg>
