<svg width="79" height="14" viewBox="0 0 79 14" fill="none" xmlns="http://www.w3.org/2000/svg">
<path d="M13.5053 1.38892H10.784C10.695 1.39106 10.6065 1.37527 10.5237 1.34249C10.4409 1.3097 10.3654 1.26059 10.3018 1.19803C10.2381 1.13547 10.1875 1.06073 10.1529 0.978212C10.1184 0.89569 10.1006 0.807051 10.1006 0.717507C10.1006 0.627963 10.1184 0.539324 10.1529 0.456802C10.1875 0.37428 10.2381 0.299542 10.3018 0.236984C10.3654 0.174426 10.4409 0.125311 10.5237 0.0925278C10.6065 0.0597449 10.695 0.0439555 10.784 0.0460891H13.5053C13.5942 0.0439555 13.6827 0.0597449 13.7656 0.0925278C13.8484 0.125311 13.9239 0.174426 13.9875 0.236984C14.0512 0.299542 14.1018 0.37428 14.1363 0.456802C14.1709 0.539324 14.1887 0.627963 14.1887 0.717507C14.1887 0.807051 14.1709 0.89569 14.1363 0.978212C14.1018 1.06073 14.0512 1.13547 13.9875 1.19803C13.9239 1.26059 13.8484 1.3097 13.7656 1.34249C13.6827 1.37527 13.5942 1.39106 13.5053 1.38892Z" fill="#AB2346"/>
<path d="M14.8558 3.42359H10.784C10.695 3.42573 10.6065 3.40994 10.5237 3.37715C10.4409 3.34437 10.3654 3.29526 10.3018 3.2327C10.2381 3.17014 10.1875 3.0954 10.1529 3.01288C10.1184 2.93036 10.1006 2.84172 10.1006 2.75217C10.1006 2.66263 10.1184 2.57399 10.1529 2.49147C10.1875 2.40895 10.2381 2.33421 10.3018 2.27165C10.3654 2.20909 10.4409 2.15998 10.5237 2.1272C10.6065 2.09441 10.695 2.07862 10.784 2.08076H14.8558C14.9448 2.07862 15.0333 2.09441 15.1161 2.1272C15.199 2.15998 15.2744 2.20909 15.3381 2.27165C15.4018 2.33421 15.4524 2.40895 15.4869 2.49147C15.5215 2.57399 15.5393 2.66263 15.5393 2.75217C15.5393 2.84172 15.5215 2.93036 15.4869 3.01288C15.4524 3.0954 15.4018 3.17014 15.3381 3.2327C15.2744 3.29526 15.199 3.34437 15.1161 3.37715C15.0333 3.40994 14.9448 3.42573 14.8558 3.42359Z" fill="#AB2346"/>
<path d="M16.1968 5.45826H10.7834C10.6092 5.45408 10.4435 5.38151 10.3218 5.25605C10.2 5.13059 10.1318 4.96219 10.1318 4.78684C10.1318 4.61149 10.2 4.4431 10.3218 4.31764C10.4435 4.19218 10.6092 4.1196 10.7834 4.11543H16.1968C16.2857 4.11329 16.3742 4.12908 16.4571 4.16186C16.5399 4.19465 16.6154 4.24376 16.679 4.30632C16.7427 4.36888 16.7933 4.44361 16.8278 4.52614C16.8624 4.60866 16.8802 4.6973 16.8802 4.78684C16.8802 4.87639 16.8624 4.96502 16.8278 5.04755C16.7933 5.13007 16.7427 5.20481 16.679 5.26736C16.6154 5.32992 16.5399 5.37904 16.4571 5.41182C16.3742 5.4446 16.2857 5.46039 16.1968 5.45826Z" fill="#AB2346"/>
<path d="M13.5053 9.52711H10.784C10.695 9.52924 10.6065 9.51345 10.5237 9.48067C10.4409 9.44789 10.3654 9.39877 10.3018 9.33621C10.2381 9.27365 10.1875 9.19892 10.1529 9.11639C10.1184 9.03387 10.1006 8.94523 10.1006 8.85569C10.1006 8.76615 10.1184 8.67751 10.1529 8.59498C10.1875 8.51246 10.2381 8.43773 10.3018 8.37517C10.3654 8.31261 10.4409 8.26349 10.5237 8.23071C10.6065 8.19793 10.695 8.18214 10.784 8.18427H13.5053C13.5942 8.18214 13.6827 8.19793 13.7656 8.23071C13.8484 8.26349 13.9239 8.31261 13.9875 8.37517C14.0512 8.43773 14.1018 8.51246 14.1363 8.59498C14.1709 8.67751 14.1887 8.76615 14.1887 8.85569C14.1887 8.94523 14.1709 9.03387 14.1363 9.11639C14.1018 9.19892 14.0512 9.27365 13.9875 9.33621C13.9239 9.39877 13.8484 9.44789 13.7656 9.48067C13.6827 9.51345 13.5942 9.52924 13.5053 9.52711Z" fill="#AB2346"/>
<path d="M12.83 11.5618H10.783C10.6941 11.5639 10.6056 11.5481 10.5228 11.5153C10.4399 11.4826 10.3645 11.4334 10.3008 11.3709C10.2371 11.3083 10.1865 11.2336 10.152 11.1511C10.1174 11.0685 10.0996 10.9799 10.0996 10.8904C10.0996 10.8008 10.1174 10.7122 10.152 10.6297C10.1865 10.5471 10.2371 10.4724 10.3008 10.4098C10.3645 10.3473 10.4399 10.2982 10.5228 10.2654C10.6056 10.2326 10.6941 10.2168 10.783 10.2189H12.83C12.9189 10.2168 13.0074 10.2326 13.0902 10.2654C13.1731 10.2982 13.2485 10.3473 13.3122 10.4098C13.3759 10.4724 13.4265 10.5471 13.461 10.6297C13.4956 10.7122 13.5134 10.8008 13.5134 10.8904C13.5134 10.9799 13.4956 11.0685 13.461 11.1511C13.4265 11.2336 13.3759 11.3083 13.3122 11.3709C13.2485 11.4334 13.1731 11.4826 13.0902 11.5153C13.0074 11.5481 12.9189 11.5639 12.83 11.5618Z" fill="#AB2346"/>
<path d="M8.78322 1.38892H7.41293C7.32395 1.39106 7.23544 1.37527 7.15262 1.34249C7.0698 1.3097 6.99434 1.26059 6.93066 1.19803C6.86698 1.13547 6.8164 1.06073 6.78185 0.978212C6.7473 0.89569 6.72949 0.807051 6.72949 0.717507C6.72949 0.627963 6.7473 0.539324 6.78185 0.456802C6.8164 0.37428 6.86698 0.299542 6.93066 0.236984C6.99434 0.174426 7.0698 0.125311 7.15262 0.0925278C7.23544 0.0597449 7.32395 0.0439555 7.41293 0.0460891H8.78322C8.87219 0.0439555 8.9607 0.0597449 9.04352 0.0925278C9.12634 0.125311 9.20181 0.174426 9.26548 0.236984C9.32916 0.299542 9.37975 0.37428 9.41429 0.456802C9.44884 0.539324 9.46665 0.627963 9.46665 0.717507C9.46665 0.807051 9.44884 0.89569 9.41429 0.978212C9.37975 1.06073 9.32916 1.13547 9.26548 1.19803C9.20181 1.26059 9.12634 1.3097 9.04352 1.34249C8.9607 1.37527 8.87219 1.39106 8.78322 1.38892Z" fill="#82AEC9"/>
<path d="M8.78394 3.42359H6.07406C5.98509 3.42573 5.8966 3.40994 5.81378 3.37715C5.73096 3.34437 5.65549 3.29526 5.59181 3.2327C5.52814 3.17014 5.47753 3.0954 5.44298 3.01288C5.40843 2.93036 5.39062 2.84172 5.39062 2.75217C5.39062 2.66263 5.40843 2.57399 5.44298 2.49147C5.47753 2.40895 5.52814 2.33421 5.59181 2.27165C5.65549 2.20909 5.73096 2.15998 5.81378 2.1272C5.8966 2.09441 5.98509 2.07862 6.07406 2.08076H8.78394C8.87291 2.07862 8.96142 2.09441 9.04424 2.1272C9.12706 2.15998 9.20253 2.20909 9.26621 2.27165C9.32988 2.33421 9.38049 2.40895 9.41504 2.49147C9.44959 2.57399 9.46737 2.66263 9.46737 2.75217C9.46737 2.84172 9.44959 2.93036 9.41504 3.01288C9.38049 3.0954 9.32988 3.17014 9.26621 3.2327C9.20253 3.29526 9.12706 3.34437 9.04424 3.37715C8.96142 3.40994 8.87291 3.42573 8.78394 3.42359Z" fill="#82AEC9"/>
<path d="M8.78324 5.45826H4.73226C4.64329 5.46039 4.55478 5.4446 4.47196 5.41182C4.38914 5.37904 4.31367 5.32992 4.24999 5.26736C4.18632 5.20481 4.13571 5.13007 4.10116 5.04755C4.06661 4.96502 4.04883 4.87639 4.04883 4.78684C4.04883 4.6973 4.06661 4.60866 4.10116 4.52614C4.13571 4.44361 4.18632 4.36888 4.24999 4.30632C4.31367 4.24376 4.38914 4.19465 4.47196 4.16186C4.55478 4.12908 4.64329 4.11329 4.73226 4.11543H8.78324C8.87221 4.11329 8.96072 4.12908 9.04354 4.16186C9.12636 4.19465 9.20183 4.24376 9.2655 4.30632C9.32918 4.36888 9.37979 4.44361 9.41434 4.52614C9.44888 4.60866 9.46667 4.6973 9.46667 4.78684C9.46667 4.87639 9.44888 4.96502 9.41434 5.04755C9.37979 5.13007 9.32918 5.20481 9.2655 5.26736C9.20183 5.32992 9.12636 5.37904 9.04354 5.41182C8.96072 5.4446 8.87221 5.46039 8.78324 5.45826Z" fill="#82AEC9"/>
<path d="M8.78369 7.49293H3.37679C3.28782 7.49506 3.19933 7.47927 3.11651 7.44649C3.03369 7.4137 2.95823 7.36459 2.89455 7.30203C2.83087 7.23947 2.78026 7.16474 2.74572 7.08221C2.71117 6.99969 2.69336 6.91105 2.69336 6.82151C2.69336 6.73197 2.71117 6.64333 2.74572 6.5608C2.78026 6.47828 2.83087 6.40354 2.89455 6.34099C2.95823 6.27843 3.03369 6.22931 3.11651 6.19653C3.19933 6.16375 3.28782 6.14796 3.37679 6.15009H8.78369C8.87267 6.14796 8.96115 6.16375 9.04397 6.19653C9.12679 6.22931 9.20226 6.27843 9.26594 6.34099C9.32961 6.40354 9.38022 6.47828 9.41477 6.5608C9.44932 6.64333 9.4671 6.73197 9.4671 6.82151C9.4671 6.91105 9.44932 6.99969 9.41477 7.08221C9.38022 7.16474 9.32961 7.23947 9.26594 7.30203C9.20226 7.36459 9.12679 7.4137 9.04397 7.44649C8.96115 7.47927 8.87267 7.49506 8.78369 7.49293Z" fill="#82AEC9"/>
<path d="M17.5479 7.49293H10.784C10.695 7.49506 10.6065 7.47927 10.5237 7.44649C10.4409 7.4137 10.3654 7.36459 10.3018 7.30203C10.2381 7.23947 10.1875 7.16474 10.1529 7.08221C10.1184 6.99969 10.1006 6.91105 10.1006 6.82151C10.1006 6.73197 10.1184 6.64333 10.1529 6.5608C10.1875 6.47828 10.2381 6.40354 10.3018 6.34099C10.3654 6.27843 10.4409 6.22931 10.5237 6.19653C10.6065 6.16375 10.695 6.14796 10.784 6.15009H17.5479C17.6369 6.14796 17.7254 6.16375 17.8082 6.19653C17.891 6.22931 17.9665 6.27843 18.0302 6.34099C18.0939 6.40354 18.1445 6.47828 18.179 6.5608C18.2136 6.64333 18.2313 6.73197 18.2313 6.82151C18.2313 6.91105 18.2136 6.99969 18.179 7.08221C18.1445 7.16474 18.0939 7.23947 18.0302 7.30203C17.9665 7.36459 17.891 7.4137 17.8082 7.44649C17.7254 7.47927 17.6369 7.49506 17.5479 7.49293Z" fill="#82AEC9"/>
<path d="M8.7833 9.52711H4.72738C4.63841 9.52924 4.54992 9.51345 4.4671 9.48067C4.38428 9.44789 4.30881 9.39877 4.24513 9.33621C4.18146 9.27365 4.13085 9.19892 4.0963 9.11639C4.06175 9.03387 4.04395 8.94523 4.04395 8.85569C4.04395 8.76615 4.06175 8.67751 4.0963 8.59498C4.13085 8.51246 4.18146 8.43773 4.24513 8.37517C4.30881 8.31261 4.38428 8.26349 4.4671 8.23071C4.54992 8.19793 4.63841 8.18214 4.72738 8.18427H8.7833C8.87228 8.18214 8.96079 8.19793 9.04361 8.23071C9.12643 8.26349 9.20187 8.31261 9.26555 8.37517C9.32923 8.43773 9.37983 8.51246 9.41438 8.59498C9.44893 8.67751 9.46674 8.76615 9.46674 8.85569C9.46674 8.94523 9.44893 9.03387 9.41438 9.11639C9.37983 9.19892 9.32923 9.27365 9.26555 9.33621C9.20187 9.39877 9.12643 9.44789 9.04361 9.48067C8.96079 9.51345 8.87228 9.52924 8.7833 9.52711Z" fill="#82AEC9"/>
<path d="M17.5474 9.52711H15.5032C15.329 9.52293 15.1632 9.45036 15.0415 9.3249C14.9197 9.19944 14.8516 9.03104 14.8516 8.85569C14.8516 8.68034 14.9197 8.51194 15.0415 8.38648C15.1632 8.26102 15.329 8.18845 15.5032 8.18427H17.5474C17.6364 8.18214 17.7249 8.19793 17.8077 8.23071C17.8906 8.26349 17.966 8.31261 18.0297 8.37517C18.0934 8.43773 18.144 8.51246 18.1785 8.59498C18.2131 8.67751 18.2309 8.76615 18.2309 8.85569C18.2309 8.94523 18.2131 9.03387 18.1785 9.11639C18.144 9.19892 18.0934 9.27365 18.0297 9.33621C17.966 9.39877 17.8906 9.44789 17.8077 9.48067C17.7249 9.51345 17.6364 9.52924 17.5474 9.52711Z" fill="#82AEC9"/>
<path d="M8.78262 11.5618H6.0682C5.97923 11.5639 5.89072 11.5481 5.8079 11.5153C5.72508 11.4826 5.64961 11.4334 5.58593 11.3709C5.52225 11.3083 5.47165 11.2336 5.4371 11.1511C5.40255 11.0685 5.38477 10.9799 5.38477 10.8904C5.38477 10.8008 5.40255 10.7122 5.4371 10.6297C5.47165 10.5471 5.52225 10.4724 5.58593 10.4098C5.64961 10.3473 5.72508 10.2982 5.8079 10.2654C5.89072 10.2326 5.97923 10.2168 6.0682 10.2189H8.78262C8.87159 10.2168 8.9601 10.2326 9.04292 10.2654C9.12574 10.2982 9.20121 10.3473 9.26488 10.4098C9.32856 10.4724 9.37917 10.5471 9.41372 10.6297C9.44826 10.7122 9.46605 10.8008 9.46605 10.8904C9.46605 10.9799 9.44826 11.0685 9.41372 11.1511C9.37917 11.2336 9.32856 11.3083 9.26488 11.3709C9.20121 11.4334 9.12574 11.4826 9.04292 11.5153C8.9601 11.5481 8.87159 11.5639 8.78262 11.5618Z" fill="#82AEC9"/>
<path d="M17.673 11.5618H14.8391C14.6649 11.5576 14.4992 11.485 14.3774 11.3596C14.2557 11.2341 14.1875 11.0657 14.1875 10.8904C14.1875 10.715 14.2557 10.5466 14.3774 10.4212C14.4992 10.2957 14.6649 10.2231 14.8391 10.2189H17.673C17.7619 10.2168 17.8504 10.2326 17.9332 10.2654C18.0161 10.2982 18.0915 10.3473 18.1552 10.4098C18.2189 10.4724 18.2695 10.5471 18.304 10.6297C18.3386 10.7122 18.3564 10.8008 18.3564 10.8904C18.3564 10.9799 18.3386 11.0685 18.304 11.1511C18.2695 11.2336 18.2189 11.3083 18.1552 11.3709C18.0915 11.4334 18.0161 11.4826 17.9332 11.5153C17.8504 11.5481 17.7619 11.5639 17.673 11.5618Z" fill="#82AEC9"/>
<path d="M8.78322 13.5969H7.41293C7.32395 13.5991 7.23544 13.5833 7.15262 13.5505C7.0698 13.5177 6.99434 13.4686 6.93066 13.406C6.86698 13.3435 6.8164 13.2687 6.78185 13.1862C6.7473 13.1037 6.72949 13.0151 6.72949 12.9255C6.72949 12.836 6.7473 12.7473 6.78185 12.6648C6.8164 12.5823 6.86698 12.5075 6.93066 12.445C6.99434 12.3824 7.0698 12.3333 7.15262 12.3005C7.23544 12.2677 7.32395 12.252 7.41293 12.2541H8.78322C8.87219 12.252 8.9607 12.2677 9.04352 12.3005C9.12634 12.3333 9.20181 12.3824 9.26548 12.445C9.32916 12.5075 9.37975 12.5823 9.41429 12.6648C9.44884 12.7473 9.46665 12.836 9.46665 12.9255C9.46665 13.0151 9.44884 13.1037 9.41429 13.1862C9.37975 13.2687 9.32916 13.3435 9.26548 13.406C9.20181 13.4686 9.12634 13.5177 9.04352 13.5505C8.9607 13.5833 8.87219 13.5991 8.78322 13.5969Z" fill="#82AEC9"/>
<path d="M13.5053 13.5969H10.784C10.695 13.5991 10.6065 13.5833 10.5237 13.5505C10.4409 13.5177 10.3654 13.4686 10.3018 13.406C10.2381 13.3435 10.1875 13.2687 10.1529 13.1862C10.1184 13.1037 10.1006 13.0151 10.1006 12.9255C10.1006 12.836 10.1184 12.7473 10.1529 12.6648C10.1875 12.5823 10.2381 12.5075 10.3018 12.445C10.3654 12.3824 10.4409 12.3333 10.5237 12.3005C10.6065 12.2677 10.695 12.252 10.784 12.2541H13.5053C13.5942 12.252 13.6827 12.2677 13.7656 12.3005C13.8484 12.3333 13.9239 12.3824 13.9875 12.445C14.0512 12.5075 14.1018 12.5823 14.1363 12.6648C14.1709 12.7473 14.1887 12.836 14.1887 12.9255C14.1887 13.0151 14.1709 13.1037 14.1363 13.1862C14.1018 13.2687 14.0512 13.3435 13.9875 13.406C13.9239 13.4686 13.8484 13.5177 13.7656 13.5505C13.6827 13.5833 13.5942 13.5991 13.5053 13.5969Z" fill="#82AEC9"/>
<path d="M6.09878 1.23024C6.09878 1.33169 6.06887 1.43087 6.01285 1.51522C5.95683 1.59958 5.8772 1.66532 5.78404 1.70415C5.69088 1.74297 5.58837 1.75313 5.48947 1.73334C5.39057 1.71355 5.29973 1.66469 5.22843 1.59295C5.15713 1.52121 5.10857 1.42982 5.0889 1.33031C5.06923 1.23081 5.07932 1.12767 5.11791 1.03394C5.1565 0.940211 5.22184 0.860098 5.30568 0.803733C5.38952 0.747369 5.4881 0.717285 5.58893 0.717285C5.72415 0.717285 5.85382 0.771329 5.94944 0.867527C6.04505 0.963724 6.09878 1.0942 6.09878 1.23024Z" fill="#1D365A"/>
<path d="M6.07925 12.7507C6.07925 12.8522 6.04934 12.9514 5.99332 13.0357C5.9373 13.1201 5.85767 13.1858 5.76451 13.2247C5.67135 13.2635 5.56884 13.2736 5.46994 13.2538C5.37104 13.2341 5.2802 13.1852 5.2089 13.1135C5.1376 13.0417 5.08904 12.9503 5.06937 12.8508C5.04969 12.7513 5.05979 12.6482 5.09838 12.5544C5.13697 12.4607 5.20233 12.3806 5.28617 12.3242C5.37001 12.2679 5.46857 12.2378 5.5694 12.2378C5.70462 12.2378 5.83432 12.2918 5.92993 12.388C6.02554 12.4842 6.07925 12.6147 6.07925 12.7507Z" fill="#1D365A"/>
<path d="M4.39249 3.42356H3.71852C3.63 3.42356 3.54511 3.38818 3.48251 3.32521C3.41992 3.26223 3.38477 3.17682 3.38477 3.08776C3.38477 2.9987 3.41992 2.91328 3.48251 2.85031C3.54511 2.78733 3.63 2.75195 3.71852 2.75195H4.39249C4.48101 2.75195 4.56591 2.78733 4.6285 2.85031C4.6911 2.91328 4.72625 2.9987 4.72625 3.08776C4.72625 3.17682 4.6911 3.26223 4.6285 3.32521C4.56591 3.38818 4.48101 3.42356 4.39249 3.42356Z" fill="#1D365A"/>
<path d="M3.04208 5.45823H1.69606C1.60754 5.45823 1.52265 5.42285 1.46005 5.35988C1.39746 5.2969 1.3623 5.21149 1.3623 5.12243C1.3623 5.03336 1.39746 4.94795 1.46005 4.88498C1.52265 4.822 1.60754 4.78662 1.69606 4.78662H3.04208C3.1306 4.78662 3.2155 4.822 3.27809 4.88498C3.34069 4.94795 3.37587 5.03336 3.37587 5.12243C3.37587 5.21149 3.34069 5.2969 3.27809 5.35988C3.2155 5.42285 3.1306 5.45823 3.04208 5.45823Z" fill="#1D365A"/>
<path d="M3.05059 8.84153H1.02907C0.940552 8.84153 0.855677 8.80615 0.793085 8.74317C0.730492 8.6802 0.695312 8.59479 0.695312 8.50573C0.695312 8.41667 0.730492 8.33125 0.793085 8.26828C0.855677 8.2053 0.940552 8.16992 1.02907 8.16992H3.05059C3.13911 8.16992 3.22401 8.2053 3.2866 8.26828C3.34919 8.33125 3.38435 8.41667 3.38435 8.50573C3.38435 8.59479 3.34919 8.6802 3.2866 8.74317C3.22401 8.80615 3.13911 8.84153 3.05059 8.84153Z" fill="#1D365A"/>
<path d="M4.39553 10.8689H3.71852C3.63 10.8689 3.54511 10.8335 3.48251 10.7705C3.41992 10.7075 3.38477 10.6221 3.38477 10.5331C3.38477 10.444 3.41992 10.3586 3.48251 10.2956C3.54511 10.2326 3.63 10.1973 3.71852 10.1973H4.39553C4.48404 10.1973 4.56894 10.2326 4.63153 10.2956C4.69413 10.3586 4.72928 10.444 4.72928 10.5331C4.72928 10.6221 4.69413 10.7075 4.63153 10.7705C4.56894 10.8335 4.48404 10.8689 4.39553 10.8689Z" fill="#1D365A"/>
<path d="M25.344 6.37675C25.5252 6.60356 25.6225 6.88666 25.6192 7.17765C25.6243 7.43124 25.5551 7.68074 25.4202 7.89502C25.2786 8.10887 25.0787 8.27705 24.8444 8.37937C24.5637 8.50192 24.2599 8.56153 23.954 8.55404H21.7744V3.46988H23.8592C24.1633 3.46244 24.4655 3.51948 24.7462 3.63731C24.9759 3.73362 25.1724 3.89584 25.311 4.10374C25.4398 4.30575 25.5065 4.54148 25.5028 4.78145C25.5122 5.04909 25.4291 5.31173 25.2678 5.52475C25.1069 5.72664 24.8883 5.8741 24.6416 5.94732C24.9208 5.99735 25.1713 6.15051 25.344 6.37675ZM22.7876 5.56823H23.7148C23.914 5.58127 24.1113 5.52319 24.272 5.40424C24.3382 5.34624 24.3903 5.2737 24.4242 5.19223C24.4581 5.11076 24.473 5.02254 24.4676 4.93438C24.4727 4.84568 24.4578 4.75697 24.4239 4.67493C24.3901 4.59288 24.3381 4.51963 24.272 4.46071C24.1123 4.3393 23.9146 4.27974 23.7148 4.2929H22.7876V5.56823ZM24.3842 7.5514C24.4539 7.49008 24.5088 7.41351 24.5445 7.32757C24.5802 7.24163 24.596 7.1486 24.5904 7.05561C24.5953 6.95902 24.5783 6.86258 24.5406 6.77358C24.503 6.68458 24.4458 6.60536 24.3732 6.54189C24.2065 6.4108 23.9982 6.34483 23.7868 6.35616H22.7876V7.72569H23.8088C24.0153 7.73839 24.2195 7.67644 24.3846 7.55102" fill="#AB2346"/>
<path d="M27.9451 4.64298C28.1648 4.51899 28.4134 4.45607 28.6653 4.46069V5.53274H28.3973C28.262 5.51071 28.1234 5.5221 27.9934 5.56593C27.8635 5.60977 27.746 5.68473 27.6513 5.78436C27.5565 5.884 27.4872 6.00532 27.4494 6.13788C27.4116 6.27043 27.4063 6.41026 27.4341 6.5453V8.55593H26.4209V4.51904H27.433V5.14564C27.5581 4.93726 27.7338 4.76429 27.9436 4.64298" fill="#AB2346"/>
<path d="M30.1625 8.36175C29.856 8.19184 29.6036 7.93793 29.4347 7.62951C29.2534 7.2947 29.1619 6.91809 29.1694 6.53686C29.1616 6.15471 29.2553 5.77738 29.4408 5.44382C29.6151 5.13459 29.8723 4.88087 30.183 4.71158C30.5073 4.54178 30.8674 4.45312 31.233 4.45312C31.5986 4.45312 31.9587 4.54178 32.283 4.71158C32.5937 4.8809 32.8508 5.13462 33.0252 5.44382C33.2108 5.77734 33.3047 6.15467 33.297 6.53686C33.3047 6.9198 33.2084 7.29761 33.0183 7.62951C32.839 7.93867 32.5784 8.19205 32.2652 8.36175C31.9388 8.53674 31.5736 8.6257 31.2038 8.62033C30.8399 8.62596 30.4807 8.53689 30.161 8.36175M31.7216 7.59671C31.8871 7.5028 32.0218 7.36229 32.109 7.19244C32.2108 6.98946 32.2606 6.76411 32.2538 6.53686C32.2643 6.37668 32.2432 6.21599 32.1916 6.06407C32.1401 5.91215 32.0592 5.77199 31.9536 5.65168C31.8591 5.55164 31.745 5.47249 31.6184 5.41924C31.4919 5.36599 31.3557 5.33981 31.2186 5.34238C31.0825 5.33938 30.9472 5.36539 30.8218 5.4187C30.6964 5.47201 30.5836 5.5514 30.4908 5.65168C30.2816 5.89674 30.1763 6.21454 30.1974 6.53686C30.1762 6.85795 30.2787 7.17492 30.4836 7.42204C30.5745 7.52263 30.6859 7.60236 30.8102 7.6558C30.9344 7.70923 31.0687 7.73512 31.2038 7.73171C31.385 7.7323 31.5634 7.68556 31.7216 7.59671Z" fill="#AB2346"/>
<path d="M34.0653 5.43712C34.213 5.13706 34.4414 4.88468 34.7245 4.70869C35.0049 4.53789 35.3273 4.4495 35.6551 4.45355C35.928 4.44732 36.1982 4.50999 36.4409 4.63585C36.6523 4.74603 36.8366 4.9024 36.9803 5.0935V4.51915H38.0015V8.55604H36.9803V7.96528C36.8404 8.16309 36.6555 8.32423 36.4409 8.43514C36.1961 8.56277 35.9235 8.62663 35.6479 8.62087C35.3215 8.6241 35.001 8.53304 34.7245 8.35849C34.4414 8.17763 34.2133 7.92176 34.0653 7.61899C33.8985 7.27828 33.8153 6.90228 33.8227 6.52253C33.8155 6.14623 33.8987 5.77412 34.0653 5.43712ZM36.8351 5.89935C36.7453 5.72925 36.6097 5.58798 36.4439 5.49166C36.2833 5.3978 36.1008 5.3487 35.9151 5.34941C35.7286 5.34735 35.5451 5.39688 35.3847 5.49259C35.2243 5.58829 35.0931 5.72649 35.0054 5.89211C34.9024 6.08576 34.8512 6.30299 34.8568 6.52253C34.8518 6.74432 34.9029 6.96375 35.0054 7.16019C35.0954 7.33324 35.2307 7.47829 35.3966 7.57971C35.5526 7.67528 35.7317 7.7257 35.9143 7.7254C36.1 7.72617 36.2825 7.6772 36.4431 7.58352C36.6089 7.48701 36.7444 7.34562 36.8343 7.17545C36.9296 6.9766 36.979 6.75871 36.979 6.53797C36.979 6.31724 36.9296 6.09934 36.8343 5.9005" fill="#AB2346"/>
<path d="M38.9448 5.43659C39.091 5.13731 39.3187 4.88597 39.6013 4.71184C39.884 4.53771 40.21 4.44795 40.5414 4.45302C40.7998 4.45252 41.0548 4.51108 41.2874 4.62426C41.51 4.72709 41.7039 4.88348 41.8522 5.07962V3.16357H42.8806V8.55474H41.8522V7.9575C41.7212 8.16179 41.5389 8.32768 41.3238 8.43842C41.0798 8.56396 40.8086 8.6266 40.5346 8.62072C40.2072 8.62368 39.8857 8.53266 39.6078 8.35833C39.3231 8.17831 39.0938 7.92231 38.9452 7.61884C38.7783 7.27814 38.6951 6.90213 38.7026 6.52238C38.6954 6.14607 38.7786 5.77358 38.9452 5.43659M41.715 5.8992C41.6252 5.72915 41.4898 5.58788 41.3242 5.49151C41.1637 5.39772 40.9813 5.34861 40.7958 5.34926C40.6093 5.3472 40.4258 5.39673 40.2654 5.49244C40.1049 5.58814 39.9737 5.72634 39.886 5.89196C39.7831 6.08561 39.7319 6.30284 39.7374 6.52238C39.7324 6.74417 39.7836 6.9636 39.886 7.16004C39.9761 7.33309 40.1113 7.47814 40.2772 7.57956C40.4332 7.67515 40.6124 7.72557 40.795 7.72525C40.9805 7.72595 41.1629 7.67698 41.3234 7.58337C41.4891 7.4868 41.6245 7.34542 41.7142 7.1753C41.8096 6.97648 41.8591 6.75858 41.8591 6.53782C41.8591 6.31707 41.8096 6.09916 41.7142 5.90035" fill="#AB2346"/>
<path d="M44.485 8.44108C44.2411 8.33509 44.028 8.16825 43.866 7.95635C43.7171 7.76087 43.6301 7.52488 43.6162 7.27902H44.6374C44.6467 7.35567 44.6718 7.42955 44.7109 7.49598C44.7501 7.56241 44.8025 7.61995 44.8648 7.66497C45.0084 7.77034 45.183 7.82406 45.3606 7.81752C45.5199 7.82681 45.678 7.78602 45.8132 7.70082C45.8632 7.66894 45.9044 7.62484 45.9329 7.57262C45.9614 7.5204 45.9763 7.46178 45.9762 7.4022C45.9766 7.33853 45.9578 7.27624 45.9222 7.22354C45.8867 7.17085 45.8362 7.13022 45.7772 7.10701C45.5727 7.01648 45.3606 6.94449 45.1434 6.89192C44.8934 6.83445 44.6477 6.759 44.4084 6.66614C44.218 6.58873 44.049 6.46628 43.9157 6.30917C43.7704 6.12573 43.697 5.89505 43.7094 5.66083C43.7084 5.44226 43.7755 5.22886 43.9012 5.05062C44.0409 4.85646 44.2315 4.70515 44.4516 4.61356C44.7186 4.50104 45.0061 4.44633 45.2954 4.453C45.7074 4.43155 46.1133 4.55957 46.4394 4.81378C46.581 4.93386 46.696 5.08242 46.7771 5.24991C46.8582 5.4174 46.9036 5.60012 46.9102 5.7863H45.9398C45.9351 5.71224 45.9149 5.64002 45.8807 5.57431C45.8464 5.5086 45.7987 5.45089 45.7408 5.40492C45.6077 5.31979 45.4546 5.27144 45.2969 5.26475C45.1393 5.25805 44.9827 5.29324 44.8428 5.36679C44.7958 5.39719 44.7574 5.43935 44.7314 5.48916C44.7054 5.53896 44.6928 5.5947 44.6946 5.65091C44.6942 5.71696 44.7133 5.78166 44.7494 5.83684C44.7854 5.89202 44.837 5.93521 44.8974 5.96097C45.0993 6.05462 45.3105 6.12659 45.5274 6.17569C45.7713 6.23402 46.0109 6.30959 46.2442 6.40185C46.4337 6.48041 46.6014 6.60409 46.7328 6.76225C46.8774 6.94516 46.9531 7.17356 46.9466 7.40716C46.9493 7.63106 46.8823 7.8502 46.7548 8.03376C46.6155 8.22747 46.4247 8.37776 46.2044 8.46739C45.9393 8.57677 45.6547 8.63 45.3682 8.62376C45.0644 8.62877 44.763 8.56789 44.4846 8.44527" fill="#AB2346"/>
<path d="M49.3167 4.63915C49.559 4.51205 49.8292 4.44818 50.1025 4.45342C50.4302 4.44929 50.7526 4.53753 51.033 4.70818C51.3154 4.88349 51.5436 5.13439 51.6922 5.4328C51.8595 5.77078 51.9428 6.14455 51.9348 6.52202C51.9422 6.90176 51.859 7.27775 51.6922 7.61849C51.5441 7.92116 51.316 8.177 51.033 8.35798C50.7542 8.53322 50.4312 8.62428 50.1025 8.62037C49.832 8.62602 49.5644 8.56334 49.3243 8.43807C49.1115 8.32683 48.9251 8.17073 48.7777 7.98041V10.4792H47.7637V4.51902H48.7777V5.10177C48.9192 4.90743 49.1036 4.74902 49.3167 4.63915ZM50.7507 5.89198C50.6602 5.72333 50.5249 5.58334 50.3598 5.48772C50.2 5.39592 50.0189 5.34816 49.8349 5.34928C49.6527 5.34885 49.4738 5.39801 49.3171 5.49154C49.1517 5.59003 49.0165 5.73239 48.9262 5.90304C48.8286 6.0999 48.7778 6.31689 48.7778 6.5369C48.7778 6.7569 48.8286 6.97389 48.9262 7.17075C49.0166 7.34136 49.1518 7.48372 49.3171 7.58225C49.4753 7.67571 49.6555 7.72466 49.839 7.72399C50.0224 7.72332 50.2023 7.67305 50.3598 7.57844C50.5248 7.47783 50.6598 7.33437 50.7507 7.16312C50.8539 6.96573 50.9051 6.74499 50.8993 6.52202C50.9049 6.30248 50.8536 6.08562 50.7507 5.89198Z" fill="#AB2346"/>
<path d="M56.3596 6.84266H53.4268C53.4354 7.10243 53.5442 7.34864 53.73 7.52914C53.9093 7.69475 54.1456 7.78365 54.3888 7.77704C54.5562 7.78706 54.7226 7.74571 54.8661 7.65847C55.0096 7.57124 55.1234 7.44222 55.1924 7.28849H56.286C56.1736 7.67239 55.9398 8.00889 55.62 8.2469C55.2698 8.50405 54.8442 8.63601 54.4108 8.62179C54.0481 8.62763 53.69 8.53853 53.3718 8.36322C53.0679 8.19353 52.819 7.9393 52.655 7.63097C52.4787 7.29456 52.3902 6.91857 52.398 6.53832C52.3896 6.15598 52.4768 5.77765 52.6516 5.43804C52.8124 5.13076 53.0591 4.87754 53.3612 4.70961C53.6817 4.54326 54.037 4.45586 54.3976 4.4546C54.7583 4.45334 55.1141 4.53826 55.4358 4.70236C55.7329 4.86298 55.9769 5.10723 56.1382 5.40525C56.309 5.72657 56.395 6.08664 56.388 6.45099C56.389 6.58262 56.3793 6.71412 56.3592 6.84419M55.338 6.15771C55.3401 6.03822 55.3159 5.91974 55.2671 5.8108C55.2182 5.70186 55.146 5.60516 55.0556 5.52767C54.8677 5.36819 54.6281 5.28388 54.3824 5.29083C54.15 5.28371 53.9235 5.36548 53.7486 5.51966C53.5701 5.68646 53.458 5.91303 53.4336 6.15694L55.338 6.15771Z" fill="#AB2346"/>
<path d="M57.229 5.44066C57.3898 5.13577 57.6334 4.88313 57.9314 4.71223C58.2454 4.536 58.6003 4.44677 58.9598 4.45365C59.4013 4.43636 59.8359 4.56849 60.194 4.82893C60.5282 5.09184 60.7601 5.46432 60.8494 5.88154H59.7558C59.7046 5.71617 59.6017 5.57185 59.4624 5.47003C59.3121 5.3666 59.1327 5.31434 58.9507 5.32091C58.8194 5.31548 58.6886 5.34136 58.5691 5.39643C58.4496 5.45151 58.3448 5.53423 58.2631 5.63784C58.0973 5.90702 58.0095 6.21741 58.0095 6.53408C58.0095 6.85074 58.0973 7.16113 58.2631 7.43031C58.3448 7.53392 58.4496 7.61664 58.5691 7.67172C58.6886 7.72679 58.8194 7.75267 58.9507 7.74724C59.1276 7.76251 59.3043 7.7157 59.4508 7.61475C59.5973 7.51381 59.7045 7.36496 59.7543 7.19348H60.8479C60.7525 7.60616 60.5199 7.97371 60.1887 8.2354C59.8342 8.50143 59.3999 8.6376 58.9579 8.62136C58.5984 8.62826 58.2435 8.53903 57.9295 8.36279C57.6316 8.19181 57.388 7.9392 57.2271 7.63435C57.0604 7.2932 56.9736 6.91808 56.9736 6.53789C56.9736 6.1577 57.0604 5.78258 57.2271 5.44143" fill="#AB2346"/>
<path d="M62.8441 5.35695V7.30961C62.8391 7.36295 62.8453 7.41674 62.8621 7.46756C62.8789 7.51838 62.9061 7.56512 62.9419 7.6048C63.0369 7.67464 63.1541 7.70694 63.2713 7.69557H63.7421V8.5552H63.1049C62.2505 8.5552 61.8233 8.13758 61.8233 7.30237V5.35733H61.3438V4.5183H61.8217V3.521H62.8426V4.51907H63.7405V5.3581L62.8441 5.35695Z" fill="#AB2346"/>
<path d="M66.0972 4.64299C66.317 4.51898 66.5655 4.45606 66.8174 4.46069V5.53274H66.5494C66.4141 5.51062 66.2755 5.52194 66.1455 5.56574C66.0154 5.60954 65.898 5.68451 65.8032 5.78416C65.7084 5.88382 65.6391 6.00518 65.6013 6.13779C65.5635 6.27039 65.5584 6.41024 65.5863 6.5453V8.55593H64.5723V4.51904H65.5863V5.14564C65.7113 4.93721 65.8874 4.76423 66.0972 4.64299Z" fill="#AB2346"/>
<path d="M71.3045 4.51904V8.55517H70.2833V8.04527C70.1498 8.22288 69.9745 8.3643 69.7731 8.45678C69.5589 8.55711 69.3252 8.60806 69.0889 8.60589C68.7985 8.61201 68.5114 8.54308 68.255 8.40567C68.0116 8.27001 67.8137 8.06466 67.6864 7.81568C67.5425 7.52802 67.4716 7.20896 67.4802 6.88702V4.51904H68.4942V6.74133C68.4764 7.00942 68.562 7.27409 68.733 7.48045C68.8169 7.56792 68.9185 7.63626 69.0309 7.68087C69.1433 7.72548 69.2639 7.74531 69.3846 7.73902C69.5064 7.74578 69.6282 7.7262 69.7418 7.6816C69.8555 7.637 69.9583 7.5684 70.0434 7.48045C70.2144 7.27411 70.3 7.00943 70.2822 6.74133V4.51904H71.3045Z" fill="#AB2346"/>
<path d="M78.5363 4.91619C78.6931 5.08639 78.8141 5.28681 78.8919 5.50534C78.9697 5.72387 79.0027 5.956 78.9888 6.18771V8.55531H77.9753V6.32577C77.9931 6.06202 77.9071 5.80178 77.736 5.60115C77.6509 5.51571 77.549 5.4492 77.4367 5.4059C77.3245 5.36261 77.2045 5.34351 77.0844 5.34982C76.9638 5.34377 76.8434 5.36298 76.7305 5.40625C76.6177 5.44951 76.515 5.51588 76.429 5.60115C76.3432 5.69996 76.2777 5.81482 76.236 5.93916C76.1944 6.06349 76.1776 6.19487 76.1865 6.32577V8.55531H75.1729V6.32577C75.1906 6.06209 75.1048 5.80195 74.934 5.60115C74.8489 5.51573 74.747 5.44923 74.6348 5.40594C74.5225 5.36265 74.4025 5.34353 74.2824 5.34982C74.1607 5.34327 74.039 5.36222 73.925 5.40548C73.8109 5.44875 73.707 5.51538 73.6199 5.60115C73.5341 5.69998 73.4686 5.81484 73.4269 5.93918C73.3853 6.06351 73.3684 6.19487 73.3773 6.32577V8.55531H72.3633V4.51918H73.3773V5.00734C73.5106 4.83502 73.6833 4.69764 73.8807 4.60689C74.0927 4.50823 74.324 4.45846 74.5577 4.46121C74.8499 4.45606 75.1388 4.52491 75.3976 4.66143C75.6401 4.79135 75.8391 4.99034 75.9697 5.2335C76.1036 4.99703 76.3006 4.80287 76.5382 4.67287C76.8553 4.49994 77.2181 4.43052 77.5761 4.47426C77.9342 4.51799 78.2699 4.6727 78.5366 4.91695" fill="#AB2346"/>
</svg>
