<svg width="116" height="20" viewBox="0 0 116 20" fill="none" xmlns="http://www.w3.org/2000/svg">
<path d="M18.9049 1.98221H14.8885C14.7572 1.98536 14.6266 1.96206 14.5044 1.91367C14.3822 1.86529 14.2708 1.7928 14.1768 1.70047C14.0828 1.60814 14.0081 1.49783 13.9571 1.37603C13.9061 1.25423 13.8799 1.12341 13.8799 0.991248C13.8799 0.859088 13.9061 0.728262 13.9571 0.606465C14.0081 0.484668 14.0828 0.37436 14.1768 0.282029C14.2708 0.189697 14.3822 0.117207 14.5044 0.0688217C14.6266 0.0204364 14.7572 -0.00286767 14.8885 0.000281457H18.9049C19.0363 -0.00286767 19.1669 0.0204364 19.2891 0.0688217C19.4114 0.117207 19.5228 0.189697 19.6167 0.282029C19.7107 0.37436 19.7854 0.484668 19.8364 0.606465C19.8874 0.728262 19.9137 0.859088 19.9137 0.991248C19.9137 1.12341 19.8874 1.25423 19.8364 1.37603C19.7854 1.49783 19.7107 1.60814 19.6167 1.70047C19.5228 1.7928 19.4114 1.86529 19.2891 1.91367C19.1669 1.96206 19.0363 1.98536 18.9049 1.98221Z" fill="#AB2346"/>
<path d="M20.8993 4.98514H14.8895C14.7582 4.98829 14.6276 4.96499 14.5054 4.9166C14.3831 4.86822 14.2718 4.79573 14.1778 4.7034C14.0838 4.61107 14.0091 4.50076 13.9581 4.37896C13.9071 4.25716 13.8809 4.12634 13.8809 3.99418C13.8809 3.86202 13.9071 3.73119 13.9581 3.60939C14.0091 3.4876 14.0838 3.37729 14.1778 3.28496C14.2718 3.19263 14.3831 3.12014 14.5054 3.07175C14.6276 3.02337 14.7582 3.00006 14.8895 3.00321H20.8993C21.0306 3.00006 21.1612 3.02337 21.2835 3.07175C21.4057 3.12014 21.5171 3.19263 21.6111 3.28496C21.7051 3.37729 21.7797 3.4876 21.8307 3.60939C21.8817 3.73119 21.908 3.86202 21.908 3.99418C21.908 4.12634 21.8817 4.25716 21.8307 4.37896C21.7797 4.50076 21.7051 4.61107 21.6111 4.7034C21.5171 4.79573 21.4057 4.86822 21.2835 4.9166C21.1612 4.96499 21.0306 4.98829 20.8993 4.98514Z" fill="#AB2346"/>
<path d="M22.8792 7.98807H14.8894C14.6323 7.9819 14.3878 7.87479 14.208 7.68962C14.0283 7.50445 13.9277 7.25591 13.9277 6.99711C13.9277 6.7383 14.0283 6.48976 14.208 6.30459C14.3878 6.11942 14.6323 6.01231 14.8894 6.00614H22.8792C23.0105 6.00299 23.1411 6.0263 23.2633 6.07468C23.3856 6.12307 23.497 6.19555 23.5909 6.28789C23.6849 6.38022 23.7596 6.49053 23.8106 6.61232C23.8616 6.73412 23.8879 6.86495 23.8879 6.99711C23.8879 7.12927 23.8616 7.26009 23.8106 7.38189C23.7596 7.50368 23.6849 7.61399 23.5909 7.70632C23.497 7.79866 23.3856 7.87115 23.2633 7.91953C23.1411 7.96792 23.0105 7.99122 22.8792 7.98807Z" fill="#AB2346"/>
<path d="M18.9049 13.9939H14.8885C14.7572 13.9971 14.6266 13.9738 14.5044 13.9254C14.3822 13.877 14.2708 13.8045 14.1768 13.7122C14.0828 13.6199 14.0081 13.5095 13.9571 13.3877C13.9061 13.266 13.8799 13.1351 13.8799 13.003C13.8799 12.8708 13.9061 12.74 13.9571 12.6182C14.0081 12.4964 14.0828 12.3861 14.1768 12.2937C14.2708 12.2014 14.3822 12.1289 14.5044 12.0805C14.6266 12.0322 14.7572 12.0089 14.8885 12.012H18.9049C19.0363 12.0089 19.1669 12.0322 19.2891 12.0805C19.4114 12.1289 19.5228 12.2014 19.6167 12.2937C19.7107 12.3861 19.7854 12.4964 19.8364 12.6182C19.8874 12.74 19.9137 12.8708 19.9137 13.003C19.9137 13.1351 19.8874 13.266 19.8364 13.3877C19.7854 13.5095 19.7107 13.6199 19.6167 13.7122C19.5228 13.8045 19.4114 13.877 19.2891 13.9254C19.1669 13.9738 19.0363 13.9971 18.9049 13.9939Z" fill="#AB2346"/>
<path d="M17.9087 16.9964H14.8876C14.7563 16.9995 14.6257 16.9762 14.5035 16.9278C14.3812 16.8794 14.2698 16.807 14.1758 16.7146C14.0819 16.6223 14.0072 16.512 13.9562 16.3902C13.9052 16.2684 13.8789 16.1376 13.8789 16.0054C13.8789 15.8732 13.9052 15.7424 13.9562 15.6206C14.0072 15.4988 14.0819 15.3885 14.1758 15.2962C14.2698 15.2039 14.3812 15.1314 14.5035 15.083C14.6257 15.0346 14.7563 15.0113 14.8876 15.0144H17.9087C18.04 15.0113 18.1706 15.0346 18.2929 15.083C18.4151 15.1314 18.5265 15.2039 18.6205 15.2962C18.7145 15.3885 18.7892 15.4988 18.8402 15.6206C18.8911 15.7424 18.9174 15.8732 18.9174 16.0054C18.9174 16.1376 18.8911 16.2684 18.8402 16.3902C18.7892 16.512 18.7145 16.6223 18.6205 16.7146C18.5265 16.807 18.4151 16.8794 18.2929 16.9278C18.1706 16.9762 18.04 16.9995 17.9087 16.9964Z" fill="#AB2346"/>
<path d="M11.9374 1.98221H9.91495C9.78363 1.98536 9.653 1.96206 9.53076 1.91367C9.40853 1.86529 9.29714 1.7928 9.20316 1.70047C9.10917 1.60814 9.03451 1.49783 8.98352 1.37603C8.93253 1.25423 8.90625 1.12341 8.90625 0.991248C8.90625 0.859088 8.93253 0.728262 8.98352 0.606465C9.03451 0.484668 9.10917 0.37436 9.20316 0.282029C9.29714 0.189697 9.40853 0.117207 9.53076 0.0688217C9.653 0.0204364 9.78363 -0.00286767 9.91495 0.000281457H11.9374C12.0687 -0.00286767 12.1994 0.0204364 12.3216 0.0688217C12.4438 0.117207 12.5552 0.189697 12.6492 0.282029C12.7432 0.37436 12.8178 0.484668 12.8688 0.606465C12.9198 0.728262 12.9461 0.859088 12.9461 0.991248C12.9461 1.12341 12.9198 1.25423 12.8688 1.37603C12.8178 1.49783 12.7432 1.60814 12.6492 1.70047C12.5552 1.7928 12.4438 1.86529 12.3216 1.91367C12.1994 1.96206 12.0687 1.98536 11.9374 1.98221Z" fill="#82AEC9"/>
<path d="M11.937 4.98514H7.93741C7.80609 4.98829 7.6755 4.96499 7.55326 4.9166C7.43102 4.86822 7.31964 4.79573 7.22565 4.7034C7.13167 4.61107 7.05698 4.50076 7.00599 4.37896C6.955 4.25716 6.92871 4.12634 6.92871 3.99418C6.92871 3.86202 6.955 3.73119 7.00599 3.60939C7.05698 3.4876 7.13167 3.37729 7.22565 3.28496C7.31964 3.19263 7.43102 3.12014 7.55326 3.07175C7.6755 3.02337 7.80609 3.00006 7.93741 3.00321H11.937C12.0683 3.00006 12.199 3.02337 12.3212 3.07175C12.4434 3.12014 12.5548 3.19263 12.6488 3.28496C12.7428 3.37729 12.8175 3.4876 12.8685 3.60939C12.9195 3.73119 12.9457 3.86202 12.9457 3.99418C12.9457 4.12634 12.9195 4.25716 12.8685 4.37896C12.8175 4.50076 12.7428 4.61107 12.6488 4.7034C12.5548 4.79573 12.4434 4.86822 12.3212 4.9166C12.199 4.96499 12.0683 4.98829 11.937 4.98514Z" fill="#82AEC9"/>
<path d="M11.9369 7.98807H5.95792C5.8266 7.99122 5.69597 7.96792 5.57373 7.91953C5.4515 7.87115 5.34011 7.79866 5.24613 7.70632C5.15214 7.61399 5.07745 7.50368 5.02646 7.38189C4.97547 7.26009 4.94922 7.12927 4.94922 6.99711C4.94922 6.86495 4.97547 6.73412 5.02646 6.61232C5.07745 6.49053 5.15214 6.38022 5.24613 6.28789C5.34011 6.19555 5.4515 6.12307 5.57373 6.07468C5.69597 6.0263 5.8266 6.00299 5.95792 6.00614H11.9369C12.0682 6.00299 12.1988 6.0263 12.3211 6.07468C12.4433 6.12307 12.5547 6.19555 12.6487 6.28789C12.7427 6.38022 12.8174 6.49053 12.8683 6.61232C12.9193 6.73412 12.9456 6.86495 12.9456 6.99711C12.9456 7.12927 12.9193 7.26009 12.8683 7.38189C12.8174 7.50368 12.7427 7.61399 12.6487 7.70632C12.5547 7.79866 12.4433 7.87115 12.3211 7.91953C12.1988 7.96792 12.0682 7.99122 11.9369 7.98807Z" fill="#82AEC9"/>
<path d="M11.9372 10.991H3.95694C3.82562 10.9941 3.69503 10.9708 3.57279 10.9225C3.45055 10.8741 3.33917 10.8016 3.24518 10.7093C3.1512 10.6169 3.07651 10.5066 3.02552 10.3848C2.97453 10.263 2.94824 10.1322 2.94824 10C2.94824 9.86787 2.97453 9.73705 3.02552 9.61525C3.07651 9.49346 3.1512 9.38315 3.24518 9.29082C3.33917 9.19848 3.45055 9.12599 3.57279 9.07761C3.69503 9.02922 3.82562 9.00592 3.95694 9.00907H11.9372C12.0685 9.00592 12.1991 9.02922 12.3213 9.07761C12.4435 9.12599 12.5549 9.19848 12.6489 9.29082C12.7429 9.38315 12.8176 9.49346 12.8686 9.61525C12.9196 9.73705 12.9458 9.86787 12.9458 10C12.9458 10.1322 12.9196 10.263 12.8686 10.3848C12.8176 10.5066 12.7429 10.6169 12.6489 10.7093C12.5549 10.8016 12.4435 10.8741 12.3213 10.9225C12.1991 10.9708 12.0685 10.9941 11.9372 10.991Z" fill="#82AEC9"/>
<path d="M24.8726 10.991H14.8896C14.7582 10.9941 14.6276 10.9708 14.5054 10.9225C14.3831 10.8741 14.2718 10.8016 14.1778 10.7093C14.0838 10.6169 14.0091 10.5066 13.9581 10.3848C13.9071 10.263 13.8809 10.1322 13.8809 10C13.8809 9.86787 13.9071 9.73705 13.9581 9.61525C14.0091 9.49346 14.0838 9.38315 14.1778 9.29082C14.2718 9.19848 14.3831 9.12599 14.5054 9.07761C14.6276 9.02922 14.7582 9.00592 14.8896 9.00907H24.8726C25.0039 9.00592 25.1345 9.02922 25.2568 9.07761C25.379 9.12599 25.4904 9.19848 25.5844 9.29082C25.6784 9.38315 25.7531 9.49346 25.8041 9.61525C25.855 9.73705 25.8813 9.86787 25.8813 10C25.8813 10.1322 25.855 10.263 25.8041 10.3848C25.7531 10.5066 25.6784 10.6169 25.5844 10.7093C25.4904 10.8016 25.379 10.8741 25.2568 10.9225C25.1345 10.9708 25.0039 10.9941 24.8726 10.991Z" fill="#82AEC9"/>
<path d="M11.9374 13.9939H5.95108C5.81977 13.9971 5.68917 13.9738 5.56693 13.9254C5.44469 13.877 5.33331 13.8045 5.23932 13.7122C5.14534 13.6199 5.07065 13.5095 5.01966 13.3877C4.96867 13.266 4.94238 13.1351 4.94238 13.003C4.94238 12.8708 4.96867 12.74 5.01966 12.6182C5.07065 12.4964 5.14534 12.3861 5.23932 12.2937C5.33331 12.2014 5.44469 12.1289 5.56693 12.0805C5.68917 12.0322 5.81977 12.0089 5.95108 12.012H11.9374C12.0687 12.0089 12.1993 12.0322 12.3215 12.0805C12.4438 12.1289 12.5551 12.2014 12.6491 12.2937C12.7431 12.3861 12.8178 12.4964 12.8688 12.6182C12.9198 12.74 12.9461 12.8708 12.9461 13.003C12.9461 13.1351 12.9198 13.266 12.8688 13.3877C12.8178 13.5095 12.7431 13.6199 12.6491 13.7122C12.5551 13.8045 12.4438 13.877 12.3215 13.9254C12.1993 13.9738 12.0687 13.9971 11.9374 13.9939Z" fill="#82AEC9"/>
<path d="M24.8735 13.9939H21.8563C21.5991 13.9878 21.3546 13.8807 21.1748 13.6955C20.9951 13.5103 20.8945 13.2618 20.8945 13.003C20.8945 12.7442 20.9951 12.4956 21.1748 12.3105C21.3546 12.1253 21.5991 12.0182 21.8563 12.012H24.8735C25.0048 12.0089 25.1354 12.0322 25.2577 12.0805C25.3799 12.1289 25.4913 12.2014 25.5853 12.2937C25.6792 12.3861 25.7539 12.4964 25.8049 12.6182C25.8559 12.74 25.8822 12.8708 25.8822 13.003C25.8822 13.1351 25.8559 13.266 25.8049 13.3877C25.7539 13.5095 25.6792 13.6199 25.5853 13.7122C25.4913 13.8045 25.3799 13.877 25.2577 13.9254C25.1354 13.9738 25.0048 13.9971 24.8735 13.9939Z" fill="#82AEC9"/>
<path d="M11.9359 16.9964H7.9296C7.79828 16.9995 7.66765 16.9762 7.54541 16.9278C7.42318 16.8794 7.31179 16.807 7.21781 16.7146C7.12382 16.6223 7.04913 16.512 6.99814 16.3902C6.94715 16.2684 6.9209 16.1376 6.9209 16.0054C6.9209 15.8732 6.94715 15.7424 6.99814 15.6206C7.04913 15.4988 7.12382 15.3885 7.21781 15.2962C7.31179 15.2039 7.42318 15.1314 7.54541 15.083C7.66765 15.0346 7.79828 15.0113 7.9296 15.0144H11.9359C12.0672 15.0113 12.1978 15.0346 12.3201 15.083C12.4423 15.1314 12.5537 15.2039 12.6477 15.2962C12.7417 15.3885 12.8164 15.4988 12.8674 15.6206C12.9183 15.7424 12.9446 15.8732 12.9446 16.0054C12.9446 16.1376 12.9183 16.2684 12.8674 16.3902C12.8164 16.512 12.7417 16.6223 12.6477 16.7146C12.5537 16.807 12.4423 16.8794 12.3201 16.9278C12.1978 16.9762 12.0672 16.9995 11.9359 16.9964Z" fill="#82AEC9"/>
<path d="M25.0584 16.9964H20.8758C20.6187 16.9902 20.3741 16.8831 20.1944 16.6979C20.0147 16.5128 19.9141 16.2642 19.9141 16.0054C19.9141 15.7466 20.0147 15.4981 20.1944 15.3129C20.3741 15.1277 20.6187 15.0206 20.8758 15.0144H25.0584C25.1897 15.0113 25.3203 15.0346 25.4425 15.083C25.5648 15.1314 25.6761 15.2039 25.7701 15.2962C25.8641 15.3885 25.9388 15.4988 25.9898 15.6206C26.0408 15.7424 26.067 15.8732 26.067 16.0054C26.067 16.1376 26.0408 16.2684 25.9898 16.3902C25.9388 16.512 25.8641 16.6223 25.7701 16.7146C25.6761 16.807 25.5648 16.8794 25.4425 16.9278C25.3203 16.9762 25.1897 16.9995 25.0584 16.9964Z" fill="#82AEC9"/>
<path d="M11.9374 19.9998H9.91495C9.78363 20.0029 9.653 19.9796 9.53076 19.9312C9.40853 19.8829 9.29714 19.8104 9.20316 19.718C9.10917 19.6257 9.03451 19.5154 8.98352 19.3936C8.93253 19.2718 8.90625 19.141 8.90625 19.0088C8.90625 18.8767 8.93253 18.7458 8.98352 18.624C9.03451 18.5022 9.10917 18.3919 9.20316 18.2996C9.29714 18.2073 9.40853 18.1348 9.53076 18.0864C9.653 18.038 9.78363 18.0147 9.91495 18.0179H11.9374C12.0687 18.0147 12.1994 18.038 12.3216 18.0864C12.4438 18.1348 12.5552 18.2073 12.6492 18.2996C12.7432 18.3919 12.8178 18.5022 12.8688 18.624C12.9198 18.7458 12.9461 18.8767 12.9461 19.0088C12.9461 19.141 12.9198 19.2718 12.8688 19.3936C12.8178 19.5154 12.7432 19.6257 12.6492 19.718C12.5552 19.8104 12.4438 19.8829 12.3216 19.9312C12.1994 19.9796 12.0687 20.0029 11.9374 19.9998Z" fill="#82AEC9"/>
<path d="M18.9049 19.9998H14.8885C14.7572 20.0029 14.6266 19.9796 14.5044 19.9312C14.3822 19.8829 14.2708 19.8104 14.1768 19.718C14.0828 19.6257 14.0081 19.5154 13.9571 19.3936C13.9061 19.2718 13.8799 19.141 13.8799 19.0088C13.8799 18.8767 13.9061 18.7458 13.9571 18.624C14.0081 18.5022 14.0828 18.3919 14.1768 18.2996C14.2708 18.2073 14.3822 18.1348 14.5044 18.0864C14.6266 18.038 14.7572 18.0147 14.8885 18.0179H18.9049C19.0363 18.0147 19.1669 18.038 19.2891 18.0864C19.4114 18.1348 19.5228 18.2073 19.6167 18.2996C19.7107 18.3919 19.7854 18.5022 19.8364 18.624C19.8874 18.7458 19.9137 18.8767 19.9137 19.0088C19.9137 19.141 19.8874 19.2718 19.8364 19.3936C19.7854 19.5154 19.7107 19.6257 19.6167 19.718C19.5228 19.8104 19.4114 19.8829 19.2891 19.9312C19.1669 19.9796 19.0363 20.0029 18.9049 19.9998Z" fill="#82AEC9"/>
<path d="M7.97568 1.74781C7.97568 1.89755 7.93154 2.04392 7.84885 2.16842C7.76617 2.29292 7.64864 2.38996 7.51114 2.44726C7.37364 2.50457 7.22235 2.51956 7.07638 2.49035C6.93042 2.46113 6.79634 2.38903 6.6911 2.28315C6.58587 2.17727 6.5142 2.04237 6.48516 1.89551C6.45613 1.74865 6.47103 1.59642 6.52798 1.45808C6.58494 1.31975 6.68137 1.2015 6.80512 1.11831C6.92886 1.03512 7.07435 0.990723 7.22318 0.990723C7.42275 0.990723 7.61414 1.07049 7.75526 1.21247C7.89638 1.35445 7.97568 1.54702 7.97568 1.74781Z" fill="#1D365A"/>
<path d="M7.94736 18.7517C7.94736 18.9014 7.90322 19.0478 7.82053 19.1723C7.73785 19.2968 7.62032 19.3939 7.48282 19.4512C7.34532 19.5085 7.19403 19.5235 7.04806 19.4943C6.9021 19.465 6.76802 19.3929 6.66278 19.2871C6.55755 19.1812 6.48588 19.0463 6.45684 18.8994C6.42781 18.7526 6.44271 18.6003 6.49966 18.462C6.55662 18.3236 6.65309 18.2054 6.77683 18.1222C6.90058 18.039 7.04603 17.9946 7.19486 17.9946C7.39443 17.9946 7.58585 18.0744 7.72697 18.2164C7.86809 18.3584 7.94736 18.5509 7.94736 18.7517Z" fill="#1D365A"/>
<path d="M5.45609 4.9849H4.46135C4.33071 4.9849 4.2054 4.93268 4.11302 4.83974C4.02064 4.74679 3.96875 4.62073 3.96875 4.48928C3.96875 4.35783 4.02064 4.23176 4.11302 4.13882C4.2054 4.04587 4.33071 3.99365 4.46135 3.99365H5.45609C5.58674 3.99365 5.71204 4.04587 5.80442 4.13882C5.8968 4.23176 5.94869 4.35783 5.94869 4.48928C5.94869 4.62073 5.8968 4.74679 5.80442 4.83974C5.71204 4.93268 5.58674 4.9849 5.45609 4.9849Z" fill="#1D365A"/>
<path d="M3.46264 7.98783H1.476C1.34535 7.98783 1.22005 7.93561 1.12767 7.84267C1.03529 7.74972 0.983398 7.62365 0.983398 7.49221C0.983398 7.36076 1.03529 7.2347 1.12767 7.14175C1.22005 7.0488 1.34535 6.99658 1.476 6.99658H3.46264C3.59329 6.99658 3.71859 7.0488 3.81097 7.14175C3.90335 7.2347 3.95528 7.36076 3.95528 7.49221C3.95528 7.62365 3.90335 7.74972 3.81097 7.84267C3.71859 7.93561 3.59329 7.98783 3.46264 7.98783Z" fill="#1D365A"/>
<path d="M3.47623 12.982H0.492604C0.361956 12.982 0.236687 12.9298 0.144305 12.8368C0.0519231 12.7439 0 12.6178 0 12.4863C0 12.3549 0.0519231 12.2288 0.144305 12.1359C0.236687 12.0429 0.361956 11.9907 0.492604 11.9907H3.47623C3.60688 11.9907 3.73218 12.0429 3.82456 12.1359C3.91694 12.2288 3.96883 12.3549 3.96883 12.4863C3.96883 12.6178 3.91694 12.7439 3.82456 12.8368C3.73218 12.9298 3.60688 12.982 3.47623 12.982Z" fill="#1D365A"/>
<path d="M5.46056 15.9742H4.46135C4.33071 15.9742 4.2054 15.9219 4.11302 15.829C4.02064 15.736 3.96875 15.61 3.96875 15.4785C3.96875 15.3471 4.02064 15.221 4.11302 15.1281C4.2054 15.0351 4.33071 14.9829 4.46135 14.9829H5.46056C5.59121 14.9829 5.71651 15.0351 5.8089 15.1281C5.90128 15.221 5.95317 15.3471 5.95317 15.4785C5.95317 15.61 5.90128 15.736 5.8089 15.829C5.71651 15.9219 5.59121 15.9742 5.46056 15.9742Z" fill="#1D365A"/>
<path d="M36.3788 9.34403C36.6463 9.67878 36.7899 10.0966 36.785 10.5261C36.7925 10.9004 36.6904 11.2686 36.4913 11.5849C36.2823 11.9005 35.9872 12.1487 35.6414 12.2998C35.2272 12.4806 34.7787 12.5686 34.3273 12.5576H31.1104V5.05369H34.1874C34.6362 5.04269 35.0822 5.12689 35.4965 5.3008C35.8356 5.44294 36.1255 5.68237 36.3302 5.98921C36.5202 6.28737 36.6187 6.63529 36.6132 6.98946C36.627 7.38449 36.5045 7.77212 36.2664 8.08653C36.0288 8.3845 35.7063 8.60215 35.3421 8.71021C35.7541 8.78406 36.1239 9.01011 36.3788 9.34403ZM32.6058 8.1507H33.9743C34.2682 8.16994 34.5594 8.08423 34.7967 7.90866C34.8944 7.82306 34.9713 7.716 35.0213 7.59576C35.0714 7.47551 35.0933 7.3453 35.0853 7.21518C35.0929 7.08427 35.0709 6.95334 35.0209 6.83225C34.9709 6.71115 34.8942 6.60304 34.7967 6.51607C34.5609 6.33689 34.2691 6.24898 33.9743 6.2684H32.6058V8.1507ZM34.9623 11.0777C35.0651 10.9872 35.146 10.8742 35.1988 10.7474C35.2516 10.6205 35.2748 10.4832 35.2666 10.346C35.2738 10.2034 35.2486 10.0611 35.1931 9.92971C35.1376 9.79836 35.0531 9.68143 34.946 9.58776C34.6999 9.39428 34.3924 9.29691 34.0805 9.31363H32.6058V11.335H34.113C34.4178 11.3537 34.7191 11.2623 34.9628 11.0772" fill="#AB2346"/>
<path d="M40.2184 6.78503C40.5427 6.60203 40.9096 6.50917 41.2813 6.51597V8.09825H40.8858C40.6861 8.06574 40.4815 8.08255 40.2897 8.14724C40.0979 8.21194 39.9246 8.32258 39.7847 8.46963C39.6448 8.61669 39.5425 8.79575 39.4867 8.99139C39.4309 9.18704 39.4232 9.39341 39.4642 9.59272V12.5603H37.9688V6.6021H39.4625V7.52692C39.6472 7.21936 39.9065 6.96407 40.2161 6.78503" fill="#AB2346"/>
<path d="M43.4918 12.2737C43.0394 12.023 42.6669 11.6482 42.4177 11.193C42.15 10.6989 42.015 10.143 42.0261 9.58033C42.0145 9.0163 42.1528 8.45939 42.4266 7.96709C42.6839 7.51068 43.0635 7.1362 43.5221 6.88634C44.0007 6.63573 44.5323 6.50488 45.0718 6.50488C45.6113 6.50488 46.1429 6.63573 46.6215 6.88634C47.08 7.13625 47.4596 7.51072 47.7169 7.96709C47.991 8.45933 48.1295 9.01625 48.1181 9.58033C48.1295 10.1455 47.9873 10.7031 47.7068 11.193C47.4422 11.6493 47.0575 12.0233 46.5952 12.2737C46.1134 12.532 45.5745 12.6633 45.0287 12.6554C44.4916 12.6637 43.9614 12.5322 43.4896 12.2737M45.7929 11.1446C46.0372 11.006 46.2359 10.7986 46.3647 10.5479C46.5149 10.2483 46.5884 9.91574 46.5784 9.58033C46.5939 9.34392 46.5627 9.10676 46.4867 8.88253C46.4106 8.6583 46.2912 8.45144 46.1353 8.27386C45.9959 8.12622 45.8274 8.00939 45.6406 7.9308C45.4539 7.85221 45.2529 7.81357 45.0505 7.81736C44.8496 7.81294 44.65 7.85133 44.4649 7.93C44.2798 8.00868 44.1133 8.12587 43.9764 8.27386C43.6676 8.63556 43.5122 9.10461 43.5433 9.58033C43.5121 10.0542 43.6633 10.5221 43.9657 10.8868C44.0999 11.0353 44.2643 11.1529 44.4477 11.2318C44.6311 11.3107 44.8293 11.3489 45.0287 11.3439C45.2962 11.3447 45.5594 11.2757 45.7929 11.1446Z" fill="#AB2346"/>
<path d="M49.2513 7.95671C49.4692 7.51383 49.8063 7.14134 50.2242 6.88159C50.6381 6.6295 51.1139 6.49905 51.5977 6.50502C52.0006 6.49582 52.3993 6.58833 52.7575 6.77408C53.0696 6.9367 53.3416 7.16749 53.5536 7.44955V6.60184H55.0608V12.56H53.5536V11.6881C53.3472 11.9801 53.0742 12.2179 52.7575 12.3816C52.3962 12.57 51.9938 12.6642 51.587 12.6557C51.1053 12.6605 50.6323 12.5261 50.2242 12.2684C49.8064 12.0015 49.4697 11.6239 49.2513 11.177C49.005 10.6741 48.8823 10.1192 48.8933 9.55869C48.8826 9.0033 49.0054 8.4541 49.2513 7.95671ZM53.3393 8.63893C53.2067 8.38787 53.0067 8.17936 52.7619 8.0372C52.525 7.89867 52.2555 7.8262 51.9815 7.82724C51.7062 7.82421 51.4354 7.89732 51.1987 8.03857C50.9619 8.17982 50.7682 8.3838 50.6388 8.62824C50.4869 8.91406 50.4113 9.23467 50.4195 9.55869C50.4121 9.88604 50.4875 10.2099 50.6388 10.4998C50.7716 10.7552 50.9713 10.9693 51.2161 11.119C51.4464 11.2601 51.7108 11.3345 51.9803 11.334C52.2544 11.3352 52.5237 11.2629 52.7608 11.1246C53.0055 10.9822 53.2055 10.7735 53.3382 10.5224C53.4787 10.2289 53.5518 9.90728 53.5518 9.58149C53.5518 9.2557 53.4787 8.9341 53.3382 8.64062" fill="#AB2346"/>
<path d="M56.4529 7.95638C56.6686 7.51466 57.0047 7.1437 57.4219 6.8867C57.8391 6.62969 58.3203 6.49721 58.8094 6.50469C59.1907 6.50396 59.5671 6.59038 59.9104 6.75743C60.2389 6.9092 60.5252 7.14003 60.744 7.42952V4.60156H62.2618V12.5586H60.744V11.6771C60.5506 11.9786 60.2816 12.2234 59.9641 12.3869C59.6039 12.5722 59.2037 12.6646 58.7993 12.6559C58.316 12.6603 57.8415 12.526 57.4314 12.2687C57.0113 12.003 56.6727 11.6251 56.4535 11.1772C56.2072 10.6744 56.0844 10.1194 56.0954 9.55892C56.0847 9.00353 56.2076 8.45375 56.4535 7.95638M60.5414 8.63917C60.409 8.38818 60.2092 8.17968 59.9647 8.03744C59.7279 7.899 59.4586 7.82653 59.1848 7.82748C58.9095 7.82445 58.6387 7.89755 58.4019 8.0388C58.1652 8.18006 57.9715 8.38403 57.8421 8.62847C57.6901 8.91429 57.6146 9.2349 57.6227 9.55892C57.6154 9.88627 57.6908 10.2101 57.8421 10.5001C57.9749 10.7555 58.1745 10.9696 58.4194 11.1193C58.6496 11.2603 58.9141 11.3348 59.1836 11.3343C59.4574 11.3353 59.7266 11.263 59.9635 11.1249C60.208 10.9823 60.4079 10.7737 60.5404 10.5226C60.6811 10.2292 60.7542 9.90754 60.7542 9.58172C60.7542 9.25591 60.6811 8.93429 60.5404 8.64085" fill="#AB2346"/>
<path d="M64.6299 12.391C64.2699 12.2346 63.9555 11.9883 63.7163 11.6756C63.4966 11.3871 63.3682 11.0388 63.3477 10.6759H64.8548C64.8686 10.789 64.9056 10.8981 64.9634 10.9961C65.0211 11.0942 65.0985 11.1791 65.1905 11.2455C65.4025 11.401 65.6602 11.4803 65.9223 11.4707C66.1573 11.4844 66.3908 11.4242 66.5903 11.2984C66.6641 11.2514 66.7249 11.1863 66.767 11.1092C66.809 11.0322 66.831 10.9456 66.8309 10.8577C66.8314 10.7637 66.8036 10.6718 66.7512 10.594C66.6988 10.5162 66.6241 10.4563 66.5372 10.422C66.2354 10.2884 65.9223 10.1822 65.6017 10.1046C65.2327 10.0197 64.8701 9.90838 64.5169 9.77133C64.2359 9.65708 63.9864 9.47635 63.7896 9.24447C63.5752 8.97371 63.4669 8.63325 63.4853 8.28755C63.4838 7.96496 63.5828 7.65 63.7683 7.38693C63.9745 7.10036 64.2558 6.87704 64.5807 6.74186C64.9747 6.57578 65.399 6.49504 65.8261 6.50489C66.4341 6.47323 67.0333 6.66218 67.5145 7.03738C67.7235 7.21459 67.8933 7.43386 68.013 7.68107C68.1326 7.92828 68.1995 8.19795 68.2094 8.47275H66.7772C66.7702 8.36344 66.7404 8.25684 66.6898 8.15986C66.6392 8.06288 66.5689 7.9777 66.4834 7.90986C66.2869 7.7842 66.0609 7.71285 65.8283 7.70296C65.5956 7.69308 65.3644 7.74503 65.1581 7.85357C65.0886 7.89844 65.032 7.96068 64.9936 8.03418C64.9553 8.10769 64.9366 8.18995 64.9393 8.27292C64.9387 8.37041 64.9668 8.4659 65.0201 8.54734C65.0734 8.62878 65.1494 8.69253 65.2386 8.73055C65.5367 8.86877 65.8483 8.97499 66.1685 9.04746C66.5285 9.13354 66.882 9.24508 67.2264 9.38125C67.506 9.4972 67.7535 9.67974 67.9476 9.91318C68.1609 10.1831 68.2727 10.5202 68.2631 10.865C68.2671 11.1955 68.1681 11.5189 67.98 11.7898C67.7744 12.0757 67.4929 12.2976 67.1677 12.4299C66.7764 12.5913 66.3563 12.6699 65.9335 12.6606C65.485 12.668 65.0402 12.5782 64.6294 12.3972" fill="#AB2346"/>
<path d="M71.7619 6.77945C72.1196 6.59185 72.5183 6.49759 72.9216 6.50532C73.4054 6.49922 73.8811 6.62947 74.2951 6.88133C74.7118 7.14007 75.0487 7.51039 75.268 7.95082C75.5149 8.44965 75.6378 9.00131 75.6261 9.55843C75.637 10.1189 75.5142 10.6738 75.268 11.1767C75.0494 11.6235 74.7128 12.0011 74.2951 12.2682C73.8835 12.5268 73.4069 12.6612 72.9216 12.6554C72.5224 12.6638 72.1275 12.5713 71.773 12.3864C71.459 12.2222 71.1838 11.9918 70.9663 11.7109V15.399H69.4697V6.60214H70.9663V7.46224C71.1753 7.17541 71.4473 6.94161 71.7619 6.77945ZM73.8783 8.62854C73.7448 8.37961 73.5451 8.17301 73.3015 8.03188C73.0656 7.89638 72.7983 7.82589 72.5267 7.82755C72.2578 7.82692 71.9937 7.89946 71.7624 8.03751C71.5184 8.18287 71.3188 8.393 71.1856 8.64486C71.0415 8.93541 70.9665 9.25568 70.9665 9.58039C70.9665 9.9051 71.0415 10.2254 71.1856 10.5159C71.3189 10.7677 71.5185 10.9778 71.7624 11.1233C71.9959 11.2612 72.262 11.3334 72.5327 11.3325C72.8035 11.3315 73.069 11.2573 73.3015 11.1176C73.545 10.9691 73.7443 10.7574 73.8783 10.5046C74.0307 10.2133 74.1062 9.88752 74.0976 9.55843C74.1059 9.2344 74.0303 8.91434 73.8783 8.62854Z" fill="#AB2346"/>
<path d="M82.1554 10.032H77.8268C77.8395 10.4154 78.0001 10.7787 78.2744 11.0452C78.539 11.2896 78.8877 11.4208 79.2467 11.411C79.4938 11.4258 79.7394 11.3648 79.9512 11.236C80.163 11.1073 80.3309 10.9169 80.4328 10.69H82.0469C81.881 11.2566 81.5358 11.7532 81.0639 12.1045C80.547 12.484 79.9188 12.6788 79.2792 12.6578C78.7438 12.6665 78.2154 12.5349 77.7457 12.2762C77.2971 12.0257 76.9298 11.6505 76.6878 11.1954C76.4275 10.6989 76.2969 10.144 76.3084 9.58277C76.2961 9.01847 76.4248 8.46008 76.6827 7.95883C76.92 7.5053 77.2841 7.13157 77.73 6.88372C78.2031 6.6382 78.7274 6.5092 79.2597 6.50734C79.792 6.50549 80.3172 6.63081 80.792 6.87302C81.2304 7.11007 81.5907 7.47058 81.8287 7.91043C82.0808 8.38469 82.2078 8.91612 82.1973 9.45387C82.1988 9.64815 82.1846 9.84224 82.1548 10.0342M80.6477 9.02101C80.6508 8.84465 80.615 8.66979 80.543 8.50899C80.4709 8.3482 80.3643 8.20549 80.2309 8.09111C79.9536 7.85573 79.5999 7.7313 79.2372 7.74156C78.8942 7.73104 78.56 7.85173 78.3018 8.0793C78.0383 8.32548 77.873 8.65989 77.8369 9.01988L80.6477 9.02101Z" fill="#AB2346"/>
<path d="M83.4394 7.96191C83.6767 7.5119 84.0362 7.13903 84.4761 6.88679C84.9396 6.62669 85.4634 6.495 85.9939 6.50515C86.6456 6.47963 87.287 6.67464 87.8156 7.05903C88.3088 7.44706 88.651 7.99683 88.7829 8.61261H87.1688C87.0932 8.36854 86.9413 8.15554 86.7358 8.00525C86.5139 7.85259 86.2492 7.77546 85.9805 7.78516C85.7867 7.77714 85.5937 7.81534 85.4173 7.89663C85.241 7.97792 85.0862 8.1 84.9656 8.25292C84.721 8.65023 84.5914 9.10833 84.5914 9.57571C84.5914 10.0431 84.721 10.5012 84.9656 10.8985C85.0862 11.0514 85.241 11.1735 85.4173 11.2548C85.5937 11.3361 85.7867 11.3743 85.9805 11.3663C86.2416 11.3888 86.5024 11.3197 86.7186 11.1707C86.9349 11.0217 87.0931 10.802 87.1666 10.5489H88.7806C88.6398 11.158 88.2966 11.7005 87.8077 12.0868C87.2844 12.4794 86.6435 12.6804 85.9911 12.6564C85.4606 12.6666 84.9368 12.5349 84.4734 12.2748C84.0335 12.0224 83.674 11.6496 83.4366 11.1996C83.1905 10.6961 83.0625 10.1425 83.0625 9.58134C83.0625 9.02021 83.1905 8.46656 83.4366 7.96304" fill="#AB2346"/>
<path d="M91.7271 7.83865V10.7206C91.7197 10.7994 91.7288 10.8788 91.7537 10.9538C91.7785 11.0288 91.8186 11.0978 91.8714 11.1563C92.0117 11.2594 92.1847 11.3071 92.3576 11.2903H93.0524V12.559H92.112C90.8509 12.559 90.2204 11.9427 90.2204 10.7099V7.83922H89.5127V6.60086H90.2182V5.12891H91.7248V6.60199H93.0502V7.84034L91.7271 7.83865Z" fill="#AB2346"/>
<path d="M96.5281 6.78504C96.8524 6.60201 97.2193 6.50914 97.5911 6.51598V8.09826H97.1955C96.9958 8.0656 96.7912 8.08232 96.5993 8.14696C96.4074 8.21161 96.234 8.32225 96.0941 8.46934C95.9542 8.61643 95.8519 8.79555 95.7961 8.99126C95.7404 9.18697 95.7328 9.39339 95.7739 9.59272V12.5603H94.2773V6.6021H95.7739V7.52692C95.9585 7.21929 96.2184 6.96398 96.5281 6.78504Z" fill="#AB2346"/>
<path d="M104.214 6.60205V12.5591H102.707V11.8065C102.51 12.0687 102.251 12.2774 101.954 12.4139C101.637 12.562 101.292 12.6372 100.944 12.634C100.515 12.643 100.091 12.5413 99.7129 12.3385C99.3537 12.1382 99.0616 11.8351 98.8737 11.4677C98.6613 11.0431 98.5567 10.5722 98.5694 10.097V6.60205H100.066V9.882C100.04 10.2777 100.166 10.6683 100.418 10.9729C100.542 11.102 100.692 11.2029 100.858 11.2687C101.024 11.3345 101.202 11.3638 101.38 11.3545C101.56 11.3645 101.74 11.3356 101.907 11.2698C102.075 11.2039 102.227 11.1027 102.352 10.9729C102.605 10.6683 102.731 10.2777 102.705 9.882V6.60205H104.214Z" fill="#AB2346"/>
<path d="M114.887 7.18804C115.119 7.43924 115.297 7.73504 115.412 8.05758C115.527 8.38012 115.576 8.72272 115.555 9.06471V12.5591H114.059V9.26847C114.086 8.87919 113.959 8.49511 113.706 8.19898C113.581 8.07289 113.43 7.97472 113.264 7.91082C113.099 7.84692 112.922 7.81872 112.744 7.82804C112.566 7.81911 112.389 7.84747 112.222 7.91133C112.056 7.97518 111.904 8.07314 111.777 8.19898C111.651 8.34482 111.554 8.51435 111.492 8.69786C111.431 8.88138 111.406 9.07528 111.419 9.26847V12.5591H109.923V9.26847C109.949 8.87931 109.823 8.49535 109.571 8.19898C109.445 8.07292 109.295 7.97477 109.129 7.91087C108.963 7.84697 108.786 7.81876 108.609 7.82804C108.429 7.81837 108.25 7.84635 108.081 7.9102C107.913 7.97405 107.76 8.07239 107.631 8.19898C107.504 8.34486 107.408 8.51439 107.346 8.69789C107.285 8.8814 107.26 9.07528 107.273 9.26847V12.5591H105.776V6.60207H107.273V7.32257C107.47 7.06823 107.725 6.86547 108.016 6.73153C108.329 6.58591 108.67 6.51245 109.015 6.51651C109.446 6.50891 109.873 6.61053 110.255 6.81203C110.613 7.00378 110.906 7.29748 111.099 7.65636C111.297 7.30735 111.588 7.02079 111.938 6.82891C112.406 6.57367 112.942 6.47122 113.47 6.53577C113.999 6.60032 114.494 6.82867 114.888 7.18916" fill="#AB2346"/>
</svg>
