<svg width="185" height="32" viewBox="0 0 185 32" fill="none" xmlns="http://www.w3.org/2000/svg">
<path d="M30.2472 3.17145H23.8211C23.611 3.17649 23.402 3.13921 23.2065 3.06179C23.0109 2.98438 22.8327 2.8684 22.6823 2.72067C22.5319 2.57295 22.4124 2.39646 22.3309 2.20159C22.2493 2.00672 22.2073 1.7974 22.2073 1.58595C22.2073 1.3745 22.2493 1.16519 22.3309 0.970317C22.4124 0.775448 22.5319 0.598959 22.6823 0.451233C22.8327 0.303507 23.0109 0.187526 23.2065 0.110112C23.402 0.0326973 23.611 -0.00458815 23.8211 0.000450319H30.2472C30.4573 -0.00458815 30.6663 0.0326973 30.8618 0.110112C31.0574 0.187526 31.2356 0.303507 31.386 0.451233C31.5364 0.598959 31.6558 0.775448 31.7374 0.970317C31.819 1.16519 31.861 1.3745 31.861 1.58595C31.861 1.7974 31.819 2.00672 31.7374 2.20159C31.6558 2.39646 31.5364 2.57295 31.386 2.72067C31.2356 2.8684 31.0574 2.98438 30.8618 3.06179C30.6663 3.13921 30.4573 3.17649 30.2472 3.17145Z" fill="#1D365A"/>
<path d="M33.4377 7.97614H23.8223C23.6122 7.98118 23.4033 7.9439 23.2077 7.86648C23.0121 7.78907 22.8339 7.67309 22.6835 7.52536C22.5332 7.37763 22.4137 7.20115 22.3321 7.00628C22.2505 6.81141 22.2085 6.60209 22.2085 6.39064C22.2085 6.17919 22.2505 5.96987 22.3321 5.775C22.4137 5.58014 22.5332 5.40365 22.6835 5.25592C22.8339 5.10819 23.0121 4.99221 23.2077 4.9148C23.4033 4.83738 23.6122 4.8001 23.8223 4.80514H33.4377C33.6478 4.8001 33.8568 4.83738 34.0524 4.9148C34.2479 4.99221 34.4261 5.10819 34.5765 5.25592C34.7269 5.40365 34.8463 5.58014 34.9279 5.775C35.0095 5.96987 35.0515 6.17919 35.0515 6.39064C35.0515 6.60209 35.0095 6.81141 34.9279 7.00628C34.8463 7.20115 34.7269 7.37763 34.5765 7.52536C34.4261 7.67309 34.2479 7.78907 34.0524 7.86648C33.8568 7.9439 33.6478 7.98118 33.4377 7.97614Z" fill="#1D365A"/>
<path d="M36.6053 12.7807H23.8221C23.4107 12.7708 23.0195 12.5995 22.7319 12.3032C22.4444 12.0069 22.2834 11.6093 22.2834 11.1952C22.2834 10.7811 22.4444 10.3835 22.7319 10.0872C23.0195 9.79095 23.4107 9.61957 23.8221 9.6097H36.6053C36.8154 9.60466 37.0244 9.64195 37.22 9.71936C37.4156 9.79678 37.5938 9.91276 37.7442 10.0605C37.8945 10.2082 38.014 10.3847 38.0956 10.5796C38.1771 10.7744 38.2192 10.9838 38.2192 11.1952C38.2192 11.4067 38.1771 11.616 38.0956 11.8108C38.014 12.0057 37.8945 12.1822 37.7442 12.3299C37.5938 12.4776 37.4156 12.5936 37.22 12.671C37.0244 12.7485 36.8154 12.7857 36.6053 12.7807Z" fill="#1D365A"/>
<path d="M30.2472 22.3902H23.8211C23.611 22.3952 23.402 22.358 23.2065 22.2805C23.0109 22.2031 22.8327 22.0871 22.6823 21.9394C22.5319 21.7917 22.4124 21.6152 22.3309 21.4203C22.2493 21.2255 22.2073 21.0162 22.2073 20.8047C22.2073 20.5932 22.2493 20.3839 22.3309 20.1891C22.4124 19.9942 22.5319 19.8177 22.6823 19.67C22.8327 19.5223 23.0109 19.4063 23.2065 19.3289C23.402 19.2514 23.611 19.2142 23.8211 19.2192H30.2472C30.4573 19.2142 30.6663 19.2514 30.8618 19.3289C31.0574 19.4063 31.2356 19.5223 31.386 19.67C31.5364 19.8177 31.6558 19.9942 31.7374 20.1891C31.819 20.3839 31.861 20.5932 31.861 20.8047C31.861 21.0162 31.819 21.2255 31.7374 21.4203C31.6558 21.6152 31.5364 21.7917 31.386 21.9394C31.2356 22.0871 31.0574 22.2031 30.8618 22.2805C30.6663 22.358 30.4573 22.3952 30.2472 22.3902Z" fill="#1D365A"/>
<path d="M28.6526 27.1939H23.819C23.6089 27.1989 23.3999 27.1617 23.2043 27.0842C23.0088 27.0068 22.8305 26.8909 22.6802 26.7431C22.5298 26.5954 22.4103 26.4189 22.3287 26.224C22.2471 26.0292 22.2051 25.8199 22.2051 25.6084C22.2051 25.397 22.2471 25.1876 22.3287 24.9928C22.4103 24.7979 22.5298 24.6214 22.6802 24.4737C22.8305 24.326 23.0088 24.21 23.2043 24.1326C23.3999 24.0552 23.6089 24.0179 23.819 24.0229H28.6526C28.8627 24.0179 29.0717 24.0552 29.2672 24.1326C29.4628 24.21 29.641 24.326 29.7914 24.4737C29.9418 24.6214 30.0613 24.7979 30.1429 24.9928C30.2244 25.1876 30.2664 25.397 30.2664 25.6084C30.2664 25.8199 30.2244 26.0292 30.1429 26.224C30.0613 26.4189 29.9418 26.5954 29.7914 26.7431C29.641 26.8909 29.4628 27.0068 29.2672 27.0842C29.0717 27.1617 28.8627 27.1989 28.6526 27.1939Z" fill="#1D365A"/>
<path d="M19.0983 3.17145H15.8624C15.6523 3.17649 15.4433 3.13921 15.2477 3.06179C15.0522 2.98438 14.8739 2.8684 14.7236 2.72067C14.5732 2.57295 14.4538 2.39646 14.3722 2.20159C14.2906 2.00672 14.2485 1.7974 14.2485 1.58595C14.2485 1.3745 14.2906 1.16519 14.3722 0.970317C14.4538 0.775448 14.5732 0.598959 14.7236 0.451233C14.8739 0.303507 15.0522 0.187526 15.2477 0.110112C15.4433 0.0326973 15.6523 -0.00458815 15.8624 0.000450319H19.0983C19.3084 -0.00458815 19.5174 0.0326973 19.7129 0.110112C19.9085 0.187526 20.0867 0.303507 20.2371 0.451233C20.3875 0.598959 20.5069 0.775448 20.5885 0.970317C20.6701 1.16519 20.7121 1.3745 20.7121 1.58595C20.7121 1.7974 20.6701 2.00672 20.5885 2.20159C20.5069 2.39646 20.3875 2.57295 20.2371 2.72067C20.0867 2.8684 19.9085 2.98438 19.7129 3.06179C19.5174 3.13921 19.3084 3.17649 19.0983 3.17145Z" fill="#82AEC9"/>
<path d="M19.0997 7.97602H12.7005C12.4904 7.98106 12.2815 7.94377 12.0859 7.86636C11.8903 7.78895 11.7121 7.67296 11.5618 7.52524C11.4114 7.37751 11.2919 7.20102 11.2103 7.00615C11.1287 6.81128 11.0867 6.60197 11.0867 6.39052C11.0867 6.17907 11.1287 5.96975 11.2103 5.77488C11.2919 5.58001 11.4114 5.40352 11.5618 5.2558C11.7121 5.10807 11.8903 4.99209 12.0859 4.91468C12.2815 4.83726 12.4904 4.79998 12.7005 4.80502H19.0997C19.3098 4.79998 19.5188 4.83726 19.7144 4.91468C19.91 4.99209 20.0882 5.10807 20.2386 5.2558C20.3889 5.40352 20.5084 5.58001 20.59 5.77488C20.6716 5.96975 20.7136 6.17907 20.7136 6.39052C20.7136 6.60197 20.6716 6.81128 20.59 7.00615C20.5084 7.20102 20.3889 7.37751 20.2386 7.52524C20.0882 7.67296 19.91 7.78895 19.7144 7.86636C19.5188 7.94377 19.3098 7.98106 19.0997 7.97602Z" fill="#82AEC9"/>
<path d="M19.0979 12.7807H9.53185C9.32174 12.7857 9.11274 12.7485 8.91716 12.671C8.72159 12.5936 8.54338 12.4776 8.39301 12.3299C8.24264 12.1822 8.12313 12.0057 8.04155 11.8108C7.95997 11.616 7.91797 11.4067 7.91797 11.1952C7.91797 10.9838 7.95997 10.7744 8.04155 10.5796C8.12313 10.3847 8.24264 10.2082 8.39301 10.0605C8.54338 9.91276 8.72159 9.79678 8.91716 9.71936C9.11274 9.64195 9.32174 9.60466 9.53185 9.6097H19.0979C19.308 9.60466 19.517 9.64195 19.7126 9.71936C19.9082 9.79678 20.0864 9.91276 20.2368 10.0605C20.3871 10.2082 20.5066 10.3847 20.5882 10.5796C20.6698 10.7744 20.7118 10.9838 20.7118 11.1952C20.7118 11.4067 20.6698 11.616 20.5882 11.8108C20.5066 12.0057 20.3871 12.1822 20.2368 12.3299C20.0864 12.4776 19.9082 12.5936 19.7126 12.671C19.517 12.7485 19.308 12.7857 19.0979 12.7807Z" fill="#82AEC9"/>
<path d="M19.0984 17.5854H6.33043C6.12033 17.5904 5.91137 17.5531 5.7158 17.4757C5.52023 17.3983 5.34202 17.2823 5.19165 17.1346C5.04128 16.9869 4.92177 16.8104 4.84019 16.6155C4.75861 16.4207 4.71655 16.2113 4.71655 15.9999C4.71655 15.7884 4.75861 15.5791 4.84019 15.3843C4.92177 15.1894 5.04128 15.0129 5.19165 14.8652C5.34202 14.7174 5.52023 14.6015 5.7158 14.524C5.91137 14.4466 6.12033 14.4094 6.33043 14.4144H19.0984C19.3085 14.4094 19.5175 14.4466 19.713 14.524C19.9086 14.6015 20.0868 14.7174 20.2372 14.8652C20.3876 15.0129 20.5071 15.1894 20.5887 15.3843C20.6702 15.5791 20.7122 15.7884 20.7122 15.9999C20.7122 16.2113 20.6702 16.4207 20.5887 16.6155C20.5071 16.8104 20.3876 16.9869 20.2372 17.1346C20.0868 17.2823 19.9086 17.3983 19.713 17.4757C19.5175 17.5531 19.3085 17.5904 19.0984 17.5854Z" fill="#82AEC9"/>
<path d="M39.7948 17.5854H23.8224C23.6123 17.5904 23.4033 17.5531 23.2077 17.4757C23.0121 17.3983 22.8339 17.2823 22.6835 17.1346C22.5332 16.9869 22.4137 16.8104 22.3321 16.6155C22.2505 16.4207 22.2085 16.2113 22.2085 15.9999C22.2085 15.7884 22.2505 15.5791 22.3321 15.3843C22.4137 15.1894 22.5332 15.0129 22.6835 14.8652C22.8339 14.7174 23.0121 14.6015 23.2077 14.524C23.4033 14.4466 23.6123 14.4094 23.8224 14.4144H39.7948C40.0049 14.4094 40.2139 14.4466 40.4095 14.524C40.605 14.6015 40.7833 14.7174 40.9336 14.8652C41.084 15.0129 41.2035 15.1894 41.2851 15.3843C41.3667 15.5791 41.4087 15.7884 41.4087 15.9999C41.4087 16.2113 41.3667 16.4207 41.2851 16.6155C41.2035 16.8104 41.084 16.9869 40.9336 17.1346C40.7833 17.2823 40.605 17.3983 40.4095 17.4757C40.2139 17.5531 40.0049 17.5904 39.7948 17.5854Z" fill="#82AEC9"/>
<path d="M19.0986 22.3902H9.52086C9.31076 22.3952 9.1018 22.358 8.90623 22.2805C8.71066 22.2031 8.53244 22.0871 8.38208 21.9394C8.23171 21.7917 8.1122 21.6152 8.03062 21.4203C7.94904 21.2255 7.90698 21.0162 7.90698 20.8047C7.90698 20.5932 7.94904 20.3839 8.03062 20.1891C8.1122 19.9942 8.23171 19.8177 8.38208 19.67C8.53244 19.5223 8.71066 19.4063 8.90623 19.3289C9.1018 19.2514 9.31076 19.2142 9.52086 19.2192H19.0986C19.3087 19.2142 19.5177 19.2514 19.7133 19.3289C19.9089 19.4063 20.087 19.5223 20.2374 19.67C20.3878 19.8177 20.5073 19.9942 20.5889 20.1891C20.6704 20.3839 20.7125 20.5932 20.7125 20.8047C20.7125 21.0162 20.6704 21.2255 20.5889 21.4203C20.5073 21.6152 20.3878 21.7917 20.2374 21.9394C20.087 22.0871 19.9089 22.2031 19.7133 22.2805C19.5177 22.358 19.3087 22.3952 19.0986 22.3902Z" fill="#82AEC9"/>
<path d="M39.7965 22.3902H34.9692C34.5577 22.3803 34.1664 22.209 33.8789 21.9127C33.5914 21.6164 33.4304 21.2188 33.4304 20.8047C33.4304 20.3906 33.5914 19.993 33.8789 19.6967C34.1664 19.4004 34.5577 19.2291 34.9692 19.2192H39.7965C40.0067 19.2142 40.2157 19.2514 40.4112 19.3289C40.6068 19.4063 40.785 19.5223 40.9354 19.67C41.0858 19.8177 41.2052 19.9942 41.2868 20.1891C41.3684 20.3839 41.4104 20.5932 41.4104 20.8047C41.4104 21.0162 41.3684 21.2255 41.2868 21.4203C41.2052 21.6152 41.0858 21.7917 40.9354 21.9394C40.785 22.0871 40.6068 22.2031 40.4112 22.2805C40.2157 22.358 40.0067 22.3952 39.7965 22.3902Z" fill="#82AEC9"/>
<path d="M19.0973 27.194H12.6874C12.4773 27.1991 12.2683 27.1618 12.0727 27.0844C11.8771 27.007 11.6989 26.891 11.5485 26.7433C11.3982 26.5955 11.2786 26.419 11.1971 26.2242C11.1155 26.0293 11.0735 25.82 11.0735 25.6085C11.0735 25.3971 11.1155 25.1878 11.1971 24.9929C11.2786 24.798 11.3982 24.6215 11.5485 24.4738C11.6989 24.3261 11.8771 24.2101 12.0727 24.1327C12.2683 24.0553 12.4773 24.018 12.6874 24.023H19.0973C19.3074 24.018 19.5164 24.0553 19.7119 24.1327C19.9075 24.2101 20.0857 24.3261 20.2361 24.4738C20.3865 24.6215 20.506 24.798 20.5876 24.9929C20.6691 25.1878 20.7111 25.3971 20.7111 25.6085C20.7111 25.82 20.6691 26.0293 20.5876 26.2242C20.506 26.419 20.3865 26.5955 20.2361 26.7433C20.0857 26.891 19.9075 27.007 19.7119 27.0844C19.5164 27.1618 19.3074 27.1991 19.0973 27.194Z" fill="#82AEC9"/>
<path d="M40.0922 27.194H33.4003C32.9889 27.1842 32.5976 27.0128 32.3101 26.7165C32.0225 26.4203 31.8616 26.0226 31.8616 25.6085C31.8616 25.1945 32.0225 24.7968 32.3101 24.5005C32.5976 24.2043 32.9889 24.0329 33.4003 24.023H40.0922C40.3023 24.018 40.5113 24.0553 40.7069 24.1327C40.9024 24.2101 41.0807 24.3261 41.231 24.4738C41.3814 24.6215 41.5009 24.798 41.5825 24.9929C41.6641 25.1878 41.7061 25.3971 41.7061 25.6085C41.7061 25.82 41.6641 26.0293 41.5825 26.2242C41.5009 26.419 41.3814 26.5955 41.231 26.7433C41.0807 26.891 40.9024 27.007 40.7069 27.0844C40.5113 27.1618 40.3023 27.1991 40.0922 27.194Z" fill="#82AEC9"/>
<path d="M19.0983 31.9996H15.8624C15.6523 32.0046 15.4433 31.9673 15.2477 31.8899C15.0522 31.8125 14.8739 31.6965 14.7236 31.5488C14.5732 31.4011 14.4538 31.2246 14.3722 31.0297C14.2906 30.8348 14.2485 30.6255 14.2485 30.4141C14.2485 30.2026 14.2906 29.9933 14.3722 29.7984C14.4538 29.6036 14.5732 29.4271 14.7236 29.2794C14.8739 29.1316 15.0522 29.0156 15.2477 28.9382C15.4433 28.8608 15.6523 28.8235 15.8624 28.8286H19.0983C19.3084 28.8235 19.5174 28.8608 19.7129 28.9382C19.9085 29.0156 20.0867 29.1316 20.2371 29.2794C20.3875 29.4271 20.5069 29.6036 20.5885 29.7984C20.6701 29.9933 20.7121 30.2026 20.7121 30.4141C20.7121 30.6255 20.6701 30.8348 20.5885 31.0297C20.5069 31.2246 20.3875 31.4011 20.2371 31.5488C20.0867 31.6965 19.9085 31.8125 19.7129 31.8899C19.5174 31.9673 19.3084 32.0046 19.0983 31.9996Z" fill="#82AEC9"/>
<path d="M30.2472 31.9996H23.8211C23.611 32.0046 23.402 31.9673 23.2065 31.8899C23.0109 31.8125 22.8327 31.6965 22.6823 31.5488C22.5319 31.4011 22.4124 31.2246 22.3309 31.0297C22.2493 30.8348 22.2073 30.6255 22.2073 30.4141C22.2073 30.2026 22.2493 29.9933 22.3309 29.7984C22.4124 29.6036 22.5319 29.4271 22.6823 29.2794C22.8327 29.1316 23.0109 29.0156 23.2065 28.9382C23.402 28.8608 23.611 28.8235 23.8211 28.8286H30.2472C30.4573 28.8235 30.6663 28.8608 30.8618 28.9382C31.0574 29.0156 31.2356 29.1316 31.386 29.2794C31.5364 29.4271 31.6558 29.6036 31.7374 29.7984C31.819 29.9933 31.861 30.2026 31.861 30.4141C31.861 30.6255 31.819 30.8348 31.7374 31.0297C31.6558 31.2246 31.5364 31.4011 31.386 31.5488C31.2356 31.6965 31.0574 31.8125 30.8618 31.8899C30.6663 31.9673 30.4573 32.0046 30.2472 31.9996Z" fill="#82AEC9"/>
<path d="M12.7602 2.79688C12.7602 3.03645 12.6896 3.27064 12.5573 3.46984C12.425 3.66904 12.2369 3.82429 12.017 3.91597C11.797 4.00765 11.5549 4.03164 11.3214 3.9849C11.0878 3.93817 10.8733 3.8228 10.7049 3.65339C10.5366 3.48399 10.4219 3.26816 10.3754 3.03319C10.329 2.79822 10.3528 2.55467 10.4439 2.33333C10.5351 2.11199 10.6894 1.92281 10.8873 1.78971C11.0853 1.65661 11.3181 1.58557 11.5562 1.58557C11.8755 1.58557 12.1817 1.71319 12.4075 1.94036C12.6333 2.16752 12.7602 2.47562 12.7602 2.79688Z" fill="#1D365A"/>
<path d="M12.7162 30.0018C12.7162 30.2414 12.6456 30.4756 12.5133 30.6748C12.381 30.874 12.193 31.0292 11.973 31.1209C11.753 31.2126 11.5109 31.2366 11.2774 31.1899C11.0439 31.1431 10.8294 31.0278 10.661 30.8584C10.4926 30.6889 10.3779 30.4731 10.3315 30.2381C10.285 30.0032 10.3089 29.7596 10.4 29.5383C10.4911 29.3169 10.6455 29.1278 10.8435 28.9947C11.0414 28.8616 11.2742 28.7905 11.5123 28.7905C11.8316 28.7905 12.1379 28.9181 12.3636 29.1453C12.5894 29.3725 12.7162 29.6806 12.7162 30.0018Z" fill="#1D365A"/>
<path d="M8.73002 7.97609H7.13849C6.92946 7.97609 6.72898 7.89254 6.58117 7.74383C6.43336 7.59512 6.35034 7.39343 6.35034 7.18312C6.35034 6.97281 6.43336 6.77111 6.58117 6.62239C6.72898 6.47368 6.92946 6.39014 7.13849 6.39014H8.73002C8.93905 6.39014 9.13953 6.47368 9.28734 6.62239C9.43514 6.77111 9.51816 6.97281 9.51816 7.18312C9.51816 7.39343 9.43514 7.59512 9.28734 7.74383C9.13953 7.89254 8.93905 7.97609 8.73002 7.97609Z" fill="#1D365A"/>
<path d="M5.53992 12.7808H2.36139C2.15236 12.7808 1.95188 12.6972 1.80407 12.5485C1.65626 12.3998 1.57324 12.1981 1.57324 11.9878C1.57324 11.7775 1.65626 11.5758 1.80407 11.4271C1.95188 11.2784 2.15236 11.1948 2.36139 11.1948H5.53992C5.74895 11.1948 5.94943 11.2784 6.09723 11.4271C6.24504 11.5758 6.32812 11.7775 6.32812 11.9878C6.32812 12.1981 6.24504 12.3998 6.09723 12.5485C5.94943 12.6972 5.74895 12.7808 5.53992 12.7808Z" fill="#1D365A"/>
<path d="M5.56181 20.7709H0.788144C0.579114 20.7709 0.378689 20.6873 0.230882 20.5386C0.0830747 20.3899 0 20.1882 0 19.9779C0 19.7676 0.0830747 19.5659 0.230882 19.4172C0.378689 19.2685 0.579114 19.1849 0.788144 19.1849H5.56181C5.77084 19.1849 5.97132 19.2685 6.11913 19.4172C6.26694 19.5659 6.34996 19.7676 6.34996 19.9779C6.34996 20.1882 6.26694 20.3899 6.11913 20.5386C5.97132 20.6873 5.77084 20.7709 5.56181 20.7709Z" fill="#1D365A"/>
<path d="M8.73717 25.5585H7.13849C6.92946 25.5585 6.72898 25.4749 6.58117 25.3262C6.43336 25.1775 6.35034 24.9758 6.35034 24.7655C6.35034 24.5552 6.43336 24.3535 6.58117 24.2048C6.72898 24.0561 6.92946 23.9725 7.13849 23.9725H8.73717C8.94621 23.9725 9.14669 24.0561 9.29449 24.2048C9.4423 24.3535 9.52532 24.5552 9.52532 24.7655C9.52532 24.9758 9.4423 25.1775 9.29449 25.3262C9.14669 25.4749 8.94621 25.5585 8.73717 25.5585Z" fill="#1D365A"/>
<path d="M58.2047 14.9502C58.6326 15.4858 58.8623 16.1543 58.8546 16.8415C58.8666 17.4403 58.7032 18.0295 58.3846 18.5355C58.0502 19.0405 57.5781 19.4376 57.0249 19.6793C56.3621 19.9687 55.6446 20.1094 54.9223 20.0917H49.7754V8.08588H54.6985C55.4166 8.06829 56.1302 8.203 56.7931 8.48124C57.3355 8.70866 57.7994 9.09173 58.1269 9.58267C58.4309 10.0597 58.5885 10.6164 58.5798 11.183C58.6018 11.815 58.4057 12.4353 58.0248 12.9383C57.6447 13.415 57.1286 13.7633 56.546 13.9362C57.2052 14.0543 57.7968 14.416 58.2047 14.9502ZM52.168 13.041H54.3575C54.8278 13.0717 55.2937 12.9346 55.6733 12.6537C55.8297 12.5167 55.9527 12.3455 56.0327 12.1531C56.1128 11.9607 56.1479 11.7524 56.1352 11.5442C56.1473 11.3347 56.112 11.1252 56.032 10.9315C55.952 10.7377 55.8294 10.5648 55.6733 10.4256C55.2962 10.1389 54.8292 9.99829 54.3575 10.0294H52.168V13.041ZM55.9383 17.7241C56.1029 17.5793 56.2323 17.3985 56.3167 17.1955C56.4011 16.9926 56.4383 16.7729 56.4252 16.5533C56.4367 16.3252 56.3965 16.0975 56.3076 15.8873C56.2187 15.6771 56.0836 15.4901 55.9123 15.3402C55.5185 15.0306 55.0266 14.8748 54.5275 14.9016H52.168V18.1356H54.5795C55.0671 18.1656 55.5493 18.0193 55.9392 17.7232" fill="#1D365A"/>
<path d="M64.3478 10.8561C64.8667 10.5633 65.4537 10.4147 66.0485 10.4256V12.9572H65.4157C65.0961 12.9052 64.7688 12.9321 64.4619 13.0356C64.155 13.1391 63.8778 13.3161 63.654 13.5514C63.4301 13.7867 63.2665 14.0731 63.1772 14.3862C63.0879 14.6992 63.0755 15.0294 63.1412 15.3483V20.0962H60.7485V10.5634H63.1385V12.0431C63.4339 11.551 63.8489 11.1425 64.3442 10.8561" fill="#1D365A"/>
<path d="M69.586 19.6378C68.8621 19.2365 68.2662 18.637 67.8674 17.9086C67.4391 17.118 67.2231 16.2287 67.2408 15.3284C67.2224 14.426 67.4436 13.535 67.8817 12.7473C68.2933 12.0171 68.9007 11.4179 69.6344 11.0182C70.4001 10.6172 71.2506 10.4078 72.1139 10.4078C72.9771 10.4078 73.8276 10.6172 74.5933 11.0182C75.3269 11.418 75.9342 12.0171 76.3459 12.7473C76.7844 13.5349 77.006 14.4259 76.9878 15.3284C77.0061 16.2327 76.7785 17.1249 76.3298 17.9086C75.9064 18.6387 75.2909 19.237 74.5512 19.6378C73.7804 20.051 72.9182 20.2611 72.0449 20.2484C71.1855 20.2617 70.3373 20.0513 69.5825 19.6378M73.2677 17.8312C73.6585 17.6094 73.9765 17.2776 74.1824 16.8765C74.4228 16.3972 74.5404 15.8651 74.5244 15.3284C74.5492 14.9502 74.4993 14.5707 74.3776 14.212C74.2559 13.8532 74.0649 13.5222 73.8155 13.2381C73.5924 13.0019 73.3228 12.815 73.024 12.6892C72.7252 12.5635 72.4037 12.5017 72.0798 12.5077C71.7584 12.5007 71.4391 12.5621 71.1429 12.688C70.8467 12.8138 70.5803 13.0013 70.3612 13.2381C69.8673 13.8168 69.6186 14.5673 69.6684 15.3284C69.6184 16.0867 69.8604 16.8352 70.3442 17.4187C70.5589 17.6563 70.8219 17.8445 71.1154 17.9707C71.4088 18.0969 71.7259 18.158 72.0449 18.15C72.4729 18.1514 72.894 18.041 73.2677 17.8312Z" fill="#1D365A"/>
<path d="M78.8 12.7311C79.1487 12.0225 79.688 11.4266 80.3566 11.011C81.0188 10.6076 81.7801 10.3989 82.5541 10.4085C83.1987 10.3938 83.8366 10.5418 84.4097 10.839C84.9091 11.0991 85.3443 11.4684 85.6834 11.9197V10.5634H88.0949V20.0962H85.6834V18.7012C85.3533 19.1683 84.9165 19.5488 84.4097 19.8107C83.8318 20.1121 83.1879 20.2629 82.5371 20.2493C81.7663 20.2569 81.0096 20.0419 80.3566 19.6297C79.6881 19.2026 79.1495 18.5984 78.8 17.8834C78.406 17.0789 78.2096 16.191 78.2272 15.2942C78.2102 14.4056 78.4067 13.5269 78.8 12.7311ZM85.3406 13.8226C85.1285 13.4209 84.8084 13.0873 84.4169 12.8599C84.0377 12.6383 83.6067 12.5223 83.1682 12.524C82.7278 12.5191 82.2945 12.6361 81.9157 12.8621C81.5369 13.0881 81.227 13.4144 81.0199 13.8055C80.7768 14.2628 80.6559 14.7758 80.669 15.2942C80.6572 15.818 80.7779 16.3361 81.0199 16.8C81.2325 17.2086 81.5519 17.5512 81.9437 17.7907C82.312 18.0164 82.7351 18.1354 83.1664 18.1347C83.6048 18.1365 84.0358 18.0209 84.4151 17.7997C84.8065 17.5718 85.1266 17.2379 85.3388 16.836C85.5637 16.3665 85.6806 15.8519 85.6806 15.3307C85.6806 14.8094 85.5637 14.2949 85.3388 13.8253" fill="#1D365A"/>
<path d="M90.3218 12.7304C90.667 12.0236 91.2047 11.4301 91.8722 11.0189C92.5397 10.6077 93.3095 10.3957 94.0921 10.4077C94.7022 10.4066 95.3045 10.5448 95.8536 10.8121C96.3792 11.0549 96.8373 11.4242 97.1874 11.8874V7.36279H99.6158V20.0936H97.1874V18.6833C96.878 19.1657 96.4476 19.5574 95.9396 19.819C95.3634 20.1154 94.723 20.2633 94.076 20.2494C93.3028 20.2564 92.5436 20.0415 91.8874 19.6298C91.2152 19.2047 90.6736 18.6002 90.3228 17.8836C89.9287 17.079 89.7322 16.1911 89.7499 15.2944C89.7328 14.4057 89.9294 13.5261 90.3228 12.7304M96.8633 13.8228C96.6514 13.4212 96.3317 13.0876 95.9405 12.86C95.5616 12.6386 95.1309 12.5226 94.6927 12.5241C94.2523 12.5193 93.8191 12.6362 93.4402 12.8622C93.0614 13.0882 92.7515 13.4146 92.5444 13.8057C92.3014 14.263 92.1804 14.7759 92.1935 15.2944C92.1817 15.8181 92.3025 16.3363 92.5444 16.8002C92.757 17.2088 93.0764 17.5513 93.4682 17.7908C93.8365 18.0165 94.2596 18.1356 94.6909 18.1348C95.129 18.1365 95.5597 18.0209 95.9387 17.7998C96.3299 17.5718 96.6496 17.2379 96.8616 16.8362C97.0868 16.3667 97.2037 15.8521 97.2037 15.3308C97.2037 14.8095 97.0868 14.295 96.8616 13.8255" fill="#1D365A"/>
<path d="M103.406 19.8252C102.83 19.5749 102.326 19.181 101.944 18.6806C101.592 18.219 101.387 17.6617 101.354 17.0811H103.765C103.787 17.2621 103.847 17.4366 103.939 17.5935C104.031 17.7503 104.155 17.8862 104.303 17.9925C104.642 18.2413 105.054 18.3682 105.473 18.3528C105.849 18.3747 106.223 18.2784 106.542 18.0772C106.66 18.0019 106.757 17.8977 106.825 17.7744C106.892 17.6511 106.927 17.5127 106.927 17.372C106.928 17.2217 106.883 17.0746 106.8 16.9501C106.716 16.8257 106.596 16.7297 106.457 16.6749C105.974 16.4612 105.473 16.2912 104.96 16.167C104.37 16.0313 103.79 15.8531 103.225 15.6339C102.775 15.4511 102.376 15.1619 102.061 14.7909C101.718 14.3577 101.545 13.813 101.574 13.2599C101.572 12.7437 101.73 12.2398 102.027 11.8189C102.357 11.3604 102.807 11.0031 103.327 10.7868C103.957 10.5211 104.636 10.3919 105.319 10.4077C106.292 10.357 107.251 10.6594 108.021 11.2597C108.355 11.5432 108.627 11.894 108.818 12.2895C109.01 12.6851 109.117 13.1165 109.133 13.5562H106.841C106.83 13.3813 106.782 13.2107 106.701 13.0556C106.62 12.9004 106.508 12.7641 106.371 12.6556C106.057 12.4545 105.695 12.3404 105.323 12.3246C104.951 12.3088 104.581 12.3919 104.251 12.5655C104.14 12.6373 104.049 12.7369 103.988 12.8545C103.926 12.9721 103.896 13.1037 103.901 13.2365C103.9 13.3925 103.945 13.5452 104.03 13.6755C104.115 13.8058 104.237 13.9078 104.38 13.9687C104.856 14.1898 105.355 14.3598 105.867 14.4757C106.443 14.6134 107.009 14.7919 107.56 15.0097C108.007 15.1953 108.403 15.4873 108.714 15.8608C109.055 16.2927 109.234 16.8321 109.218 17.3837C109.225 17.9125 109.067 18.4299 108.766 18.8634C108.437 19.3208 107.986 19.6757 107.466 19.8874C106.84 20.1457 106.168 20.2714 105.491 20.2566C104.774 20.2685 104.062 20.1247 103.405 19.8351" fill="#1D365A"/>
<path d="M114.815 10.8471C115.388 10.547 116.026 10.3962 116.671 10.4085C117.445 10.3988 118.206 10.6072 118.868 11.0101C119.535 11.4241 120.074 12.0166 120.425 12.7213C120.82 13.5194 121.017 14.402 120.998 15.2934C121.015 16.1901 120.819 17.078 120.425 17.8826C120.075 18.5974 119.537 19.2015 118.868 19.6289C118.21 20.0427 117.447 20.2577 116.671 20.2485C116.032 20.2618 115.4 20.1138 114.833 19.818C114.331 19.5553 113.89 19.1867 113.542 18.7373V24.638H111.148V10.5634H113.542V11.9396C113.877 11.4806 114.312 11.1066 114.815 10.8471ZM118.201 13.8056C117.988 13.4073 117.668 13.0768 117.279 12.851C116.901 12.6342 116.474 12.5214 116.039 12.524C115.609 12.523 115.186 12.6391 114.816 12.86C114.426 13.0925 114.106 13.4287 113.893 13.8317C113.663 14.2966 113.543 14.809 113.543 15.3285C113.543 15.848 113.663 16.3604 113.893 16.8253C114.107 17.2282 114.426 17.5644 114.816 17.797C115.19 18.0177 115.615 18.1333 116.049 18.1317C116.482 18.1302 116.907 18.0114 117.279 17.788C117.668 17.5505 117.987 17.2117 118.201 16.8073C118.445 16.3412 118.566 15.8199 118.552 15.2934C118.566 14.7749 118.445 14.2629 118.201 13.8056Z" fill="#1D365A"/>
<path d="M131.444 16.0509H124.519C124.539 16.6643 124.796 17.2457 125.235 17.6719C125.658 18.063 126.216 18.273 126.791 18.2573C127.186 18.281 127.579 18.1834 127.918 17.9774C128.257 17.7713 128.525 17.4667 128.688 17.1037H131.271C131.005 18.0102 130.453 18.8048 129.698 19.3669C128.871 19.9741 127.866 20.2857 126.843 20.2522C125.986 20.266 125.14 20.0555 124.389 19.6416C123.671 19.2408 123.084 18.6405 122.696 17.9124C122.28 17.118 122.071 16.2301 122.089 15.3322C122.07 14.4293 122.276 13.5359 122.688 12.734C123.068 12.0083 123.651 11.4104 124.364 11.0138C125.121 10.621 125.96 10.4146 126.811 10.4117C127.663 10.4087 128.503 10.6092 129.263 10.9967C129.964 11.376 130.541 11.9528 130.922 12.6565C131.325 13.4153 131.528 14.2656 131.511 15.126C131.514 15.4368 131.491 15.7473 131.443 16.0545M129.032 14.4334C129.037 14.1512 128.98 13.8715 128.864 13.6142C128.749 13.3569 128.579 13.1286 128.365 12.9456C127.922 12.569 127.356 12.3699 126.775 12.3863C126.227 12.3695 125.692 12.5626 125.279 12.9267C124.857 13.3206 124.593 13.8556 124.535 14.4316L129.032 14.4334Z" fill="#1D365A"/>
<path d="M133.499 12.7393C133.879 12.0193 134.454 11.4228 135.158 11.0192C135.899 10.603 136.738 10.3923 137.586 10.4086C138.629 10.3677 139.655 10.6798 140.501 11.2948C141.29 11.9156 141.838 12.7952 142.049 13.7804H139.466C139.345 13.3899 139.102 13.0491 138.773 12.8087C138.418 12.5644 137.995 12.441 137.565 12.4565C137.255 12.4437 136.946 12.5048 136.664 12.6349C136.382 12.7649 136.134 12.9603 135.941 13.2049C135.55 13.8406 135.342 14.5736 135.342 15.3213C135.342 16.0691 135.55 16.8021 135.941 17.4377C136.134 17.6824 136.382 17.8777 136.664 18.0078C136.946 18.1379 137.255 18.199 137.565 18.1861C137.983 18.2222 138.4 18.1117 138.746 17.8733C139.092 17.6349 139.345 17.2834 139.463 16.8785H142.045C141.82 17.853 141.271 18.7209 140.488 19.3389C139.651 19.9671 138.626 20.2887 137.582 20.2503C136.733 20.2666 135.895 20.0559 135.154 19.6397C134.45 19.236 133.875 18.6394 133.495 17.9196C133.101 17.114 132.896 16.2281 132.896 15.3304C132.896 14.4326 133.101 13.5467 133.495 12.7411" fill="#1D365A"/>
<path d="M146.76 12.5421V17.1532C146.748 17.2791 146.762 17.4062 146.802 17.5262C146.842 17.6462 146.906 17.7566 146.991 17.8503C147.215 18.0152 147.492 18.0915 147.768 18.0646H148.88V20.0945H147.376C145.358 20.0945 144.349 19.1084 144.349 17.1361V12.543H143.217V10.5617H144.346V8.20667H146.756V10.5635H148.877V12.5448L146.76 12.5421Z" fill="#1D365A"/>
<path d="M154.441 10.8561C154.96 10.5633 155.547 10.4147 156.141 10.4256V12.9572H155.509C155.189 12.9049 154.862 12.9317 154.555 13.0351C154.248 13.1386 153.97 13.3156 153.746 13.5509C153.522 13.7862 153.359 14.0728 153.27 14.386C153.18 14.6991 153.168 15.0293 153.234 15.3483V20.0962H150.84V10.5634H153.234V12.0431C153.529 11.5509 153.945 11.1424 154.441 10.8561Z" fill="#1D365A"/>
<path d="M166.737 10.5635V20.0945H164.325V18.8904C164.01 19.3098 163.596 19.6438 163.12 19.8621C162.615 20.0991 162.063 20.2194 161.505 20.2143C160.819 20.2287 160.141 20.0659 159.535 19.7415C158.961 19.4211 158.493 18.9362 158.193 18.3482C157.853 17.669 157.685 16.9155 157.706 16.1553V10.5635H160.1V15.8113C160.058 16.4443 160.26 17.0693 160.664 17.5566C160.862 17.7632 161.102 17.9246 161.368 18.0299C161.633 18.1352 161.918 18.1821 162.203 18.1672C162.49 18.1832 162.778 18.1369 163.046 18.0316C163.315 17.9263 163.558 17.7643 163.759 17.5566C164.162 17.0694 164.364 16.4443 164.322 15.8113V10.5635H166.737Z" fill="#1D365A"/>
<path d="M183.815 11.5011C184.185 11.903 184.471 12.3762 184.655 12.8923C184.838 13.4084 184.916 13.9565 184.884 14.5037V20.0946H182.49V14.8297C182.532 14.2069 182.329 13.5923 181.925 13.1185C181.724 12.9168 181.483 12.7597 181.218 12.6575C180.953 12.5553 180.67 12.5101 180.386 12.5251C180.102 12.5108 179.817 12.5561 179.551 12.6583C179.284 12.7605 179.042 12.9172 178.839 13.1185C178.636 13.3519 178.481 13.6231 178.383 13.9167C178.285 14.2103 178.245 14.5206 178.266 14.8297V20.0946H175.872V14.8297C175.914 14.207 175.712 13.5927 175.308 13.1185C175.108 12.9168 174.867 12.7598 174.602 12.6576C174.337 12.5553 174.053 12.5102 173.77 12.5251C173.482 12.5096 173.195 12.5543 172.926 12.6565C172.656 12.7587 172.411 12.916 172.205 13.1185C172.003 13.3519 171.848 13.6232 171.75 13.9168C171.651 14.2104 171.611 14.5206 171.632 14.8297V20.0946H169.238V10.5636H171.632V11.7163C171.947 11.3094 172.355 10.985 172.821 10.7707C173.322 10.5377 173.868 10.4202 174.42 10.4267C175.11 10.4145 175.792 10.5771 176.403 10.8995C176.976 11.2063 177.446 11.6762 177.754 12.2504C178.07 11.692 178.535 11.2335 179.097 10.9265C179.845 10.5181 180.702 10.3542 181.548 10.4575C182.393 10.5608 183.186 10.9261 183.816 11.5029" fill="#1D365A"/>
</svg>
