<svg width="93" height="17" viewBox="0 0 93 17" fill="none" xmlns="http://www.w3.org/2000/svg">
<path d="M15.8356 2.10395H12.6341C12.5294 2.10647 12.4253 2.08789 12.3279 2.04932C12.2304 2.01075 12.1417 1.95297 12.0667 1.87937C11.9918 1.80578 11.9323 1.71785 11.8916 1.62077C11.851 1.52368 11.8301 1.4194 11.8301 1.31405C11.8301 1.20871 11.851 1.10443 11.8916 1.00734C11.9323 0.910257 11.9918 0.822329 12.0667 0.748732C12.1417 0.675134 12.2304 0.617352 12.3279 0.578784C12.4253 0.540216 12.5294 0.52164 12.6341 0.52415H15.8356C15.9403 0.52164 16.0444 0.540216 16.1418 0.578784C16.2392 0.617352 16.328 0.675134 16.403 0.748732C16.4779 0.822329 16.5374 0.910257 16.578 1.00734C16.6187 1.10443 16.6396 1.20871 16.6396 1.31405C16.6396 1.4194 16.6187 1.52368 16.578 1.62077C16.5374 1.71785 16.4779 1.80578 16.403 1.87937C16.328 1.95297 16.2392 2.01075 16.1418 2.04932C16.0444 2.08789 15.9403 2.10647 15.8356 2.10395Z" fill="#AB2346"/>
<path d="M17.4255 4.49751H12.6351C12.5304 4.50002 12.4263 4.48145 12.3289 4.44288C12.2314 4.40431 12.1426 4.34653 12.0677 4.27293C11.9928 4.19933 11.9333 4.1114 11.8926 4.01432C11.852 3.91724 11.8311 3.81295 11.8311 3.70761C11.8311 3.60226 11.852 3.49798 11.8926 3.4009C11.9333 3.30381 11.9928 3.21588 12.0677 3.14229C12.1426 3.06869 12.2314 3.01091 12.3289 2.97234C12.4263 2.93377 12.5304 2.91519 12.6351 2.9177H17.4255C17.5301 2.91519 17.6343 2.93377 17.7317 2.97234C17.8291 3.01091 17.9179 3.06869 17.9928 3.14229C18.0678 3.21588 18.1273 3.30381 18.1679 3.4009C18.2086 3.49798 18.2295 3.60226 18.2295 3.70761C18.2295 3.81295 18.2086 3.91724 18.1679 4.01432C18.1273 4.1114 18.0678 4.19933 17.9928 4.27293C17.9179 4.34653 17.8291 4.40431 17.7317 4.44288C17.6343 4.48145 17.5301 4.50002 17.4255 4.49751Z" fill="#AB2346"/>
<path d="M19.0024 6.89106H12.6338C12.4288 6.88615 12.2339 6.80077 12.0906 6.65317C11.9474 6.50557 11.8672 6.30746 11.8672 6.10116C11.8672 5.89487 11.9474 5.69676 12.0906 5.54916C12.2339 5.40156 12.4288 5.31618 12.6338 5.31126H19.0024C19.1071 5.30875 19.2112 5.32733 19.3086 5.36589C19.4061 5.40446 19.4949 5.46224 19.5698 5.53584C19.6447 5.60944 19.7042 5.69736 19.7448 5.79445C19.7855 5.89153 19.8064 5.99582 19.8064 6.10116C19.8064 6.20651 19.7855 6.31079 19.7448 6.40787C19.7042 6.50496 19.6447 6.59288 19.5698 6.66648C19.4949 6.74008 19.4061 6.79786 19.3086 6.83643C19.2112 6.875 19.1071 6.89357 19.0024 6.89106Z" fill="#AB2346"/>
<path d="M15.8356 11.6787H12.6341C12.5294 11.6812 12.4253 11.6626 12.3279 11.624C12.2304 11.5855 12.1417 11.5277 12.0667 11.4541C11.9918 11.3805 11.9323 11.2926 11.8916 11.1955C11.851 11.0984 11.8301 10.9941 11.8301 10.8888C11.8301 10.7834 11.851 10.6791 11.8916 10.582C11.9323 10.485 11.9918 10.397 12.0667 10.3234C12.1417 10.2498 12.2304 10.1921 12.3279 10.1535C12.4253 10.1149 12.5294 10.0963 12.6341 10.0989H15.8356C15.9403 10.0963 16.0444 10.1149 16.1418 10.1535C16.2392 10.1921 16.328 10.2498 16.403 10.3234C16.4779 10.397 16.5374 10.485 16.578 10.582C16.6187 10.6791 16.6396 10.7834 16.6396 10.8888C16.6396 10.9941 16.6187 11.0984 16.578 11.1955C16.5374 11.2926 16.4779 11.3805 16.403 11.4541C16.328 11.5277 16.2392 11.5855 16.1418 11.624C16.0444 11.6626 15.9403 11.6812 15.8356 11.6787Z" fill="#AB2346"/>
<path d="M15.0413 14.0717H12.6331C12.5285 14.0742 12.4244 14.0557 12.3269 14.0171C12.2295 13.9785 12.1407 13.9207 12.0658 13.8471C11.9909 13.7735 11.9313 13.6856 11.8907 13.5885C11.8501 13.4915 11.8291 13.3872 11.8291 13.2818C11.8291 13.1765 11.8501 13.0722 11.8907 12.9751C11.9313 12.878 11.9909 12.7901 12.0658 12.7165C12.1407 12.6429 12.2295 12.5851 12.3269 12.5466C12.4244 12.508 12.5285 12.4894 12.6331 12.4919H15.0413C15.146 12.4894 15.2501 12.508 15.3475 12.5466C15.4449 12.5851 15.5337 12.6429 15.6086 12.7165C15.6835 12.7901 15.7431 12.878 15.7837 12.9751C15.8244 13.0722 15.8453 13.1765 15.8453 13.2818C15.8453 13.3872 15.8244 13.4915 15.7837 13.5885C15.7431 13.6856 15.6835 13.7735 15.6086 13.8471C15.5337 13.9207 15.4449 13.9785 15.3475 14.0171C15.2501 14.0557 15.146 14.0742 15.0413 14.0717Z" fill="#AB2346"/>
<path d="M10.2814 2.10395H8.66927C8.5646 2.10647 8.46047 2.08789 8.36304 2.04932C8.2656 2.01075 8.17681 1.95297 8.1019 1.87937C8.02699 1.80578 7.96747 1.71785 7.92683 1.62077C7.88619 1.52368 7.86523 1.4194 7.86523 1.31405C7.86523 1.20871 7.88619 1.10443 7.92683 1.00734C7.96747 0.910257 8.02699 0.822329 8.1019 0.748732C8.17681 0.675134 8.2656 0.617352 8.36304 0.578784C8.46047 0.540216 8.5646 0.52164 8.66927 0.52415H10.2814C10.3861 0.52164 10.4902 0.540216 10.5876 0.578784C10.6851 0.617352 10.7738 0.675134 10.8488 0.748732C10.9237 0.822329 10.9832 0.910257 11.0238 1.00734C11.0645 1.10443 11.0854 1.20871 11.0854 1.31405C11.0854 1.4194 11.0645 1.52368 11.0238 1.62077C10.9832 1.71785 10.9237 1.80578 10.8488 1.87937C10.7738 1.95297 10.6851 2.01075 10.5876 2.04932C10.4902 2.08789 10.3861 2.10647 10.2814 2.10395Z" fill="#82AEC9"/>
<path d="M10.2812 4.49751H7.0931C6.98843 4.50002 6.88433 4.48145 6.78689 4.44288C6.68946 4.40431 6.60067 4.34653 6.52576 4.27293C6.45084 4.19933 6.3913 4.1114 6.35066 4.01432C6.31001 3.91724 6.28906 3.81295 6.28906 3.70761C6.28906 3.60226 6.31001 3.49798 6.35066 3.4009C6.3913 3.30381 6.45084 3.21588 6.52576 3.14229C6.60067 3.06869 6.68946 3.01091 6.78689 2.97234C6.88433 2.93377 6.98843 2.91519 7.0931 2.9177H10.2812C10.3859 2.91519 10.49 2.93377 10.5874 2.97234C10.6849 3.01091 10.7737 3.06869 10.8486 3.14229C10.9235 3.21588 10.983 3.30381 11.0237 3.4009C11.0643 3.49798 11.0852 3.60226 11.0852 3.70761C11.0852 3.81295 11.0643 3.91724 11.0237 4.01432C10.983 4.1114 10.9235 4.19933 10.8486 4.27293C10.7737 4.34653 10.6849 4.40431 10.5874 4.44288C10.49 4.48145 10.3859 4.50002 10.2812 4.49751Z" fill="#82AEC9"/>
<path d="M10.2799 6.89106H5.514C5.40933 6.89357 5.3052 6.875 5.20776 6.83643C5.11033 6.79786 5.02154 6.74008 4.94663 6.66648C4.87171 6.59288 4.81217 6.50496 4.77153 6.40787C4.73089 6.31079 4.70996 6.20651 4.70996 6.10116C4.70996 5.99582 4.73089 5.89153 4.77153 5.79445C4.81217 5.69736 4.87171 5.60944 4.94663 5.53584C5.02154 5.46224 5.11033 5.40446 5.20776 5.36589C5.3052 5.32733 5.40933 5.30875 5.514 5.31126H10.2799C10.3845 5.30875 10.4887 5.32733 10.5861 5.36589C10.6835 5.40446 10.7723 5.46224 10.8472 5.53584C10.9221 5.60944 10.9817 5.69736 11.0223 5.79445C11.063 5.89153 11.0839 5.99582 11.0839 6.10116C11.0839 6.20651 11.063 6.31079 11.0223 6.40787C10.9817 6.50496 10.9221 6.59288 10.8472 6.66648C10.7723 6.74008 10.6835 6.79786 10.5861 6.83643C10.4887 6.875 10.3845 6.89357 10.2799 6.89106Z" fill="#82AEC9"/>
<path d="M10.2813 9.28462H3.92025C3.81558 9.28713 3.71148 9.26855 3.61404 9.22998C3.51661 9.19142 3.42782 9.13364 3.3529 9.06004C3.27799 8.98644 3.21845 8.89851 3.17781 8.80143C3.13716 8.70434 3.11621 8.60006 3.11621 8.49472C3.11621 8.38937 3.13716 8.28509 3.17781 8.188C3.21845 8.09092 3.27799 8.00299 3.3529 7.92939C3.42782 7.8558 3.51661 7.79801 3.61404 7.75944C3.71148 7.72088 3.81558 7.7023 3.92025 7.70481H10.2813C10.386 7.7023 10.4901 7.72088 10.5875 7.75944C10.685 7.79801 10.7737 7.8558 10.8487 7.92939C10.9236 8.00299 10.9831 8.09092 11.0238 8.188C11.0644 8.28509 11.0853 8.38937 11.0853 8.49472C11.0853 8.60006 11.0644 8.70434 11.0238 8.80143C10.9831 8.89851 10.9236 8.98644 10.8487 9.06004C10.7737 9.13364 10.685 9.19142 10.5875 9.22998C10.4901 9.26855 10.386 9.28713 10.2813 9.28462Z" fill="#82AEC9"/>
<path d="M20.5926 9.28462H12.6351C12.5304 9.28713 12.4263 9.26855 12.3289 9.22998C12.2314 9.19142 12.1426 9.13364 12.0677 9.06004C11.9928 8.98644 11.9333 8.89851 11.8926 8.80143C11.852 8.70434 11.8311 8.60006 11.8311 8.49472C11.8311 8.38937 11.852 8.28509 11.8926 8.188C11.9333 8.09092 11.9928 8.00299 12.0677 7.92939C12.1426 7.8558 12.2314 7.79801 12.3289 7.75944C12.4263 7.72088 12.5304 7.7023 12.6351 7.70481H20.5926C20.6973 7.7023 20.8014 7.72088 20.8988 7.75944C20.9963 7.79801 21.0851 7.8558 21.16 7.92939C21.2349 8.00299 21.2944 8.09092 21.3351 8.188C21.3757 8.28509 21.3966 8.38937 21.3966 8.49472C21.3966 8.60006 21.3757 8.70434 21.3351 8.80143C21.2944 8.89851 21.2349 8.98644 21.16 9.06004C21.0851 9.13364 20.9963 9.19142 20.8988 9.22998C20.8014 9.26855 20.6973 9.28713 20.5926 9.28462Z" fill="#82AEC9"/>
<path d="M10.2808 11.6787H5.50912C5.40444 11.6812 5.30034 11.6626 5.20291 11.624C5.10547 11.5855 5.01669 11.5277 4.94177 11.4541C4.86686 11.3805 4.80732 11.2926 4.76667 11.1955C4.72603 11.0984 4.70508 10.9941 4.70508 10.8888C4.70508 10.7834 4.72603 10.6791 4.76667 10.582C4.80732 10.485 4.86686 10.397 4.94177 10.3234C5.01669 10.2498 5.10547 10.1921 5.20291 10.1535C5.30034 10.1149 5.40444 10.0963 5.50912 10.0989H10.2808C10.3855 10.0963 10.4896 10.1149 10.587 10.1535C10.6845 10.1921 10.7732 10.2498 10.8481 10.3234C10.9231 10.397 10.9826 10.485 11.0232 10.582C11.0639 10.6791 11.0848 10.7834 11.0848 10.8888C11.0848 10.9941 11.0639 11.0984 11.0232 11.1955C10.9826 11.2926 10.9231 11.3805 10.8481 11.4541C10.7732 11.5277 10.6845 11.5855 10.587 11.624C10.4896 11.6626 10.3855 11.6812 10.2808 11.6787Z" fill="#82AEC9"/>
<path d="M20.5925 11.6787H18.1875C17.9825 11.6737 17.7876 11.5884 17.6443 11.4408C17.5011 11.2932 17.4209 11.0951 17.4209 10.8888C17.4209 10.6825 17.5011 10.4844 17.6443 10.3368C17.7876 10.1892 17.9825 10.1038 18.1875 10.0989H20.5925C20.6972 10.0963 20.8013 10.1149 20.8988 10.1535C20.9962 10.1921 21.085 10.2498 21.1599 10.3234C21.2348 10.397 21.2943 10.485 21.335 10.582C21.3756 10.6791 21.3966 10.7834 21.3966 10.8888C21.3966 10.9941 21.3756 11.0984 21.335 11.1955C21.2943 11.2926 21.2348 11.3805 21.1599 11.4541C21.085 11.5277 20.9962 11.5855 20.8988 11.624C20.8013 11.6626 20.6972 11.6812 20.5925 11.6787Z" fill="#82AEC9"/>
<path d="M10.2807 14.0717H7.08724C6.98257 14.0742 6.87844 14.0557 6.78101 14.0171C6.68357 13.9785 6.59478 13.9207 6.51987 13.8471C6.44496 13.7735 6.38542 13.6856 6.34477 13.5885C6.30413 13.4915 6.2832 13.3872 6.2832 13.2818C6.2832 13.1765 6.30413 13.0722 6.34477 12.9751C6.38542 12.878 6.44496 12.7901 6.51987 12.7165C6.59478 12.6429 6.68357 12.5851 6.78101 12.5466C6.87844 12.508 6.98257 12.4894 7.08724 12.4919H10.2807C10.3853 12.4894 10.4895 12.508 10.5869 12.5466C10.6843 12.5851 10.7731 12.6429 10.848 12.7165C10.923 12.7901 10.9825 12.878 11.0231 12.9751C11.0638 13.0722 11.0847 13.1765 11.0847 13.2818C11.0847 13.3872 11.0638 13.4915 11.0231 13.5885C10.9825 13.6856 10.923 13.7735 10.848 13.8471C10.7731 13.9207 10.6843 13.9785 10.5869 14.0171C10.4895 14.0557 10.3853 14.0742 10.2807 14.0717Z" fill="#82AEC9"/>
<path d="M20.7392 14.0717H17.4053C17.2003 14.0668 17.0054 13.9814 16.8621 13.8338C16.7189 13.6862 16.6387 13.4881 16.6387 13.2818C16.6387 13.0755 16.7189 12.8774 16.8621 12.7298C17.0054 12.5822 17.2003 12.4968 17.4053 12.4919H20.7392C20.8439 12.4894 20.948 12.508 21.0454 12.5466C21.1429 12.5851 21.2317 12.6429 21.3066 12.7165C21.3815 12.7901 21.441 12.878 21.4817 12.9751C21.5223 13.0722 21.5432 13.1765 21.5432 13.2818C21.5432 13.3872 21.5223 13.4915 21.4817 13.5885C21.441 13.6856 21.3815 13.7735 21.3066 13.8471C21.2317 13.9207 21.1429 13.9785 21.0454 14.0171C20.948 14.0557 20.8439 14.0742 20.7392 14.0717Z" fill="#82AEC9"/>
<path d="M10.2814 16.4663H8.66927C8.5646 16.4688 8.46047 16.4502 8.36304 16.4116C8.2656 16.3731 8.17681 16.3153 8.1019 16.2417C8.02699 16.1681 7.96747 16.0802 7.92683 15.9831C7.88619 15.886 7.86523 15.7817 7.86523 15.6764C7.86523 15.571 7.88619 15.4667 7.92683 15.3696C7.96747 15.2726 8.02699 15.1846 8.1019 15.111C8.17681 15.0374 8.2656 14.9797 8.36304 14.9411C8.46047 14.9025 8.5646 14.8839 8.66927 14.8865H10.2814C10.3861 14.8839 10.4902 14.9025 10.5876 14.9411C10.6851 14.9797 10.7738 15.0374 10.8488 15.111C10.9237 15.1846 10.9832 15.2726 11.0238 15.3696C11.0645 15.4667 11.0854 15.571 11.0854 15.6764C11.0854 15.7817 11.0645 15.886 11.0238 15.9831C10.9832 16.0802 10.9237 16.1681 10.8488 16.2417C10.7738 16.3153 10.6851 16.3731 10.5876 16.4116C10.4902 16.4502 10.3861 16.4688 10.2814 16.4663Z" fill="#82AEC9"/>
<path d="M15.8356 16.4663H12.6341C12.5294 16.4688 12.4253 16.4502 12.3279 16.4116C12.2304 16.3731 12.1417 16.3153 12.0667 16.2417C11.9918 16.1681 11.9323 16.0802 11.8916 15.9831C11.851 15.886 11.8301 15.7817 11.8301 15.6764C11.8301 15.571 11.851 15.4667 11.8916 15.3696C11.9323 15.2726 11.9918 15.1846 12.0667 15.111C12.1417 15.0374 12.2304 14.9797 12.3279 14.9411C12.4253 14.9025 12.5294 14.8839 12.6341 14.8865H15.8356C15.9403 14.8839 16.0444 14.9025 16.1418 14.9411C16.2392 14.9797 16.328 15.0374 16.403 15.111C16.4779 15.1846 16.5374 15.2726 16.578 15.3696C16.6187 15.4667 16.6396 15.571 16.6396 15.6764C16.6396 15.7817 16.6187 15.886 16.578 15.9831C16.5374 16.0802 16.4779 16.1681 16.403 16.2417C16.328 16.3153 16.2392 16.3731 16.1418 16.4116C16.0444 16.4502 15.9403 16.4688 15.8356 16.4663Z" fill="#82AEC9"/>
<path d="M7.12247 1.91695C7.12247 2.03631 7.08729 2.15298 7.02138 2.25223C6.95547 2.35147 6.86179 2.42882 6.75219 2.47449C6.64259 2.52017 6.52199 2.53212 6.40564 2.50883C6.28929 2.48555 6.18242 2.42807 6.09853 2.34367C6.01465 2.25928 5.95752 2.15175 5.93438 2.03469C5.91123 1.91762 5.92311 1.79628 5.96851 1.68601C6.01391 1.57574 6.09078 1.48149 6.18942 1.41518C6.28805 1.34887 6.40402 1.31348 6.52265 1.31348C6.68173 1.31348 6.83429 1.37706 6.94678 1.49023C7.05926 1.60341 7.12247 1.7569 7.12247 1.91695Z" fill="#1D365A"/>
<path d="M7.10001 15.4707C7.10001 15.59 7.06483 15.7067 6.99892 15.8059C6.93301 15.9052 6.83933 15.9825 6.72973 16.0282C6.62013 16.0739 6.49953 16.0858 6.38318 16.0625C6.26683 16.0393 6.15996 15.9818 6.07607 15.8974C5.99219 15.813 5.93506 15.7055 5.91192 15.5884C5.88877 15.4713 5.90065 15.35 5.94605 15.2397C5.99145 15.1294 6.06834 15.0352 6.16698 14.9689C6.26562 14.9026 6.38156 14.8672 6.50019 14.8672C6.65927 14.8672 6.81186 14.9308 6.92434 15.0439C7.03683 15.1571 7.10001 15.3106 7.10001 15.4707Z" fill="#1D365A"/>
<path d="M5.11525 4.49716H4.32234C4.2182 4.49716 4.11832 4.45554 4.04469 4.38145C3.97105 4.30736 3.92969 4.20687 3.92969 4.1021C3.92969 3.99732 3.97105 3.89683 4.04469 3.82274C4.11832 3.74865 4.2182 3.70703 4.32234 3.70703H5.11525C5.21939 3.70703 5.31927 3.74865 5.39291 3.82274C5.46655 3.89683 5.50791 3.99732 5.50791 4.1021C5.50791 4.20687 5.46655 4.30736 5.39291 4.38145C5.31927 4.45554 5.21939 4.49716 5.11525 4.49716Z" fill="#1D365A"/>
<path d="M3.52602 6.8912H1.94246C1.83832 6.8912 1.73844 6.84958 1.6648 6.77549C1.59117 6.7014 1.5498 6.60092 1.5498 6.49614C1.5498 6.39136 1.59117 6.29088 1.6648 6.21679C1.73844 6.1427 1.83832 6.10107 1.94246 6.10107H3.52602C3.63016 6.10107 3.73004 6.1427 3.80367 6.21679C3.87731 6.29088 3.9187 6.39136 3.9187 6.49614C3.9187 6.60092 3.87731 6.7014 3.80367 6.77549C3.73004 6.84958 3.63016 6.8912 3.52602 6.8912Z" fill="#1D365A"/>
<path d="M3.53654 10.8717H1.15828C1.05414 10.8717 0.954289 10.83 0.880651 10.756C0.807013 10.6819 0.765625 10.5814 0.765625 10.4766C0.765625 10.3718 0.807013 10.2713 0.880651 10.1973C0.954289 10.1232 1.05414 10.0815 1.15828 10.0815H3.53654C3.64068 10.0815 3.74056 10.1232 3.8142 10.1973C3.88784 10.2713 3.9292 10.3718 3.9292 10.4766C3.9292 10.5814 3.88784 10.6819 3.8142 10.756C3.74056 10.83 3.64068 10.8717 3.53654 10.8717Z" fill="#1D365A"/>
<path d="M5.11882 13.2569H4.32234C4.2182 13.2569 4.11832 13.2153 4.04469 13.1412C3.97105 13.0671 3.92969 12.9666 3.92969 12.8619C3.92969 12.7571 3.97105 12.6566 4.04469 12.5825C4.11832 12.5084 4.2182 12.4668 4.32234 12.4668H5.11882C5.22296 12.4668 5.32284 12.5084 5.39647 12.5825C5.47011 12.6566 5.51147 12.7571 5.51147 12.8619C5.51147 12.9666 5.47011 13.0671 5.39647 13.1412C5.32284 13.2153 5.22296 13.2569 5.11882 13.2569Z" fill="#1D365A"/>
<path d="M29.763 7.97187C29.9762 8.23871 30.0906 8.57177 30.0868 8.9141C30.0928 9.21245 30.0113 9.50598 29.8526 9.75807C29.686 10.0097 29.4508 10.2075 29.1752 10.3279C28.845 10.4721 28.4876 10.5422 28.1277 10.5334H25.5635V4.55203H28.0162C28.3739 4.54327 28.7295 4.61038 29.0597 4.749C29.33 4.8623 29.5611 5.05315 29.7242 5.29774C29.8757 5.5354 29.9542 5.81273 29.9498 6.09504C29.9608 6.40992 29.8631 6.71891 29.6734 6.96952C29.484 7.20703 29.2269 7.38052 28.9366 7.46666C29.2651 7.52552 29.5598 7.70571 29.763 7.97187ZM26.7555 7.02067H27.8463C28.0806 7.03601 28.3127 6.96769 28.5018 6.82774C28.5797 6.7595 28.641 6.67417 28.6809 6.57832C28.7208 6.48248 28.7383 6.37868 28.7319 6.27497C28.738 6.17062 28.7204 6.06625 28.6806 5.96973C28.6407 5.8732 28.5796 5.78703 28.5018 5.7177C28.314 5.57487 28.0813 5.5048 27.8463 5.52028H26.7555V7.02067ZM28.6339 9.35381C28.7159 9.28167 28.7803 9.19159 28.8224 9.09049C28.8644 8.98938 28.883 8.87993 28.8765 8.77053C28.8822 8.65689 28.8621 8.54343 28.8178 8.43873C28.7736 8.33403 28.7063 8.24082 28.6209 8.16615C28.4247 8.01193 28.1796 7.93432 27.931 7.94765H26.7555V9.55886H27.9569C28.1998 9.5738 28.4401 9.50092 28.6343 9.35336" fill="#AB2346"/>
<path d="M32.8234 5.93252C33.082 5.78665 33.3744 5.71263 33.6708 5.71805V6.97929H33.3555C33.1963 6.95337 33.0332 6.96677 32.8803 7.01834C32.7274 7.06991 32.5893 7.1581 32.4778 7.27532C32.3663 7.39254 32.2848 7.53527 32.2403 7.69122C32.1958 7.84717 32.1896 8.01166 32.2223 8.17054V10.536H31.0303V5.7867H32.221V6.52388C32.3681 6.27873 32.5749 6.07523 32.8217 5.93252" fill="#AB2346"/>
<path d="M35.4336 10.3074C35.0729 10.1075 34.776 9.80876 34.5773 9.4459C34.364 9.05201 34.2564 8.60894 34.2652 8.16043C34.256 7.71085 34.3662 7.26693 34.5845 6.87451C34.7896 6.51071 35.0921 6.21221 35.4577 6.01305C35.8391 5.81328 36.2629 5.70898 36.6929 5.70898C37.123 5.70898 37.5467 5.81328 37.9282 6.01305C38.2937 6.21225 38.5963 6.51074 38.8014 6.87451C39.0198 7.26688 39.1302 7.7108 39.1212 8.16043C39.1303 8.61096 39.0169 9.05543 38.7934 9.4459C38.5824 9.80962 38.2758 10.1077 37.9073 10.3074C37.5232 10.5132 37.0937 10.6179 36.6586 10.6116C36.2304 10.6182 35.8079 10.5134 35.4318 10.3074M37.2678 9.40732C37.4625 9.29684 37.6209 9.13153 37.7235 8.93171C37.8433 8.69291 37.9019 8.42779 37.8939 8.16043C37.9062 7.97199 37.8814 7.78295 37.8208 7.60421C37.7601 7.42548 37.665 7.26059 37.5407 7.11905C37.4295 7.00136 37.2952 6.90823 37.1464 6.84559C36.9975 6.78294 36.8373 6.75215 36.676 6.75516C36.5158 6.75164 36.3568 6.78224 36.2092 6.84495C36.0616 6.90767 35.9289 7.00108 35.8198 7.11905C35.5737 7.40735 35.4498 7.78123 35.4746 8.16043C35.4497 8.53819 35.5702 8.9111 35.8113 9.20182C35.9183 9.32017 36.0493 9.41397 36.1955 9.47683C36.3417 9.5397 36.4997 9.57016 36.6586 9.56615C36.8718 9.56684 37.0816 9.51184 37.2678 9.40732Z" fill="#AB2346"/>
<path d="M40.0242 6.86663C40.1979 6.51361 40.4666 6.2167 40.7997 6.00965C41.1296 5.80871 41.5089 5.70473 41.8945 5.70948C42.2157 5.70215 42.5335 5.77589 42.819 5.92395C43.0678 6.05358 43.2846 6.23754 43.4536 6.46237V5.78666H44.655V10.5359H43.4536V9.84093C43.2891 10.0736 43.0715 10.2632 42.819 10.3937C42.5311 10.5439 42.2103 10.619 41.886 10.6122C41.502 10.616 41.125 10.5089 40.7997 10.3035C40.4667 10.0908 40.1983 9.78973 40.0242 9.43353C39.8279 9.0327 39.7301 8.59034 39.7388 8.14358C39.7304 7.70087 39.8282 7.2631 40.0242 6.86663ZM43.2828 7.41043C43.1771 7.21031 43.0176 7.0441 42.8226 6.93079C42.6337 6.82037 42.4189 6.7626 42.2005 6.76343C41.981 6.76102 41.7652 6.81929 41.5765 6.93188C41.3877 7.04447 41.2333 7.20706 41.1302 7.40191C41.0091 7.62974 40.9488 7.8853 40.9554 8.14358C40.9495 8.40451 41.0096 8.66266 41.1302 8.89377C41.2361 9.09736 41.3952 9.268 41.5904 9.38732C41.7739 9.49976 41.9847 9.55907 42.1996 9.55872C42.418 9.55962 42.6327 9.50201 42.8217 9.39181C43.0167 9.27826 43.1761 9.11192 43.2819 8.91172C43.3939 8.67778 43.4521 8.42143 43.4521 8.16175C43.4521 7.90206 43.3939 7.64571 43.2819 7.41178" fill="#AB2346"/>
<path d="M45.764 6.86603C45.936 6.51394 46.2039 6.21824 46.5364 6.01338C46.8689 5.80852 47.2525 5.70292 47.6424 5.70889C47.9463 5.70831 48.2464 5.77719 48.52 5.91034C48.7818 6.03132 49.01 6.21532 49.1844 6.44607V4.19189H50.3943V10.5344H49.1844V9.83181C49.0303 10.0721 48.8159 10.2673 48.5628 10.3976C48.2757 10.5453 47.9567 10.619 47.6343 10.6121C47.2491 10.6155 46.8709 10.5085 46.544 10.3034C46.2091 10.0916 45.9392 9.7904 45.7645 9.43338C45.5681 9.03256 45.4703 8.59019 45.4791 8.14343C45.4706 7.70072 45.5685 7.26249 45.7645 6.86603M49.023 7.41028C48.9174 7.21022 48.7582 7.04402 48.5633 6.93064C48.3745 6.8203 48.1599 6.76253 47.9416 6.76329C47.7222 6.76087 47.5063 6.81914 47.3176 6.93173C47.1289 7.04433 46.9745 7.20691 46.8713 7.40176C46.7502 7.62959 46.69 7.88515 46.6965 8.14343C46.6906 8.40436 46.7508 8.66251 46.8713 8.89362C46.9772 9.09721 47.1363 9.26786 47.3315 9.38717C47.515 9.49963 47.7258 9.55895 47.9407 9.55857C48.159 9.55939 48.3735 9.50179 48.5624 9.39166C48.7572 9.27804 48.9165 9.11171 49.0221 8.91157C49.1343 8.67767 49.1926 8.42131 49.1926 8.1616C49.1926 7.90189 49.1343 7.64553 49.0221 7.41163" fill="#AB2346"/>
<path d="M52.2829 10.4006C51.9959 10.2759 51.7452 10.0797 51.5546 9.83036C51.3795 9.60039 51.2771 9.32276 51.2607 9.03351H52.4621C52.4731 9.12369 52.5026 9.2106 52.5486 9.28875C52.5947 9.3669 52.6563 9.4346 52.7297 9.48757C52.8986 9.61153 53.1041 9.67474 53.313 9.66704C53.5004 9.67797 53.6864 9.62998 53.8455 9.52975C53.9043 9.49224 53.9528 9.44035 53.9863 9.37892C54.0198 9.31749 54.0373 9.24852 54.0372 9.17843C54.0376 9.10352 54.0155 9.03024 53.9737 8.96824C53.9319 8.90625 53.8724 8.85845 53.8031 8.83115C53.5625 8.72464 53.313 8.63995 53.0575 8.5781C52.7633 8.51049 52.4743 8.42172 52.1928 8.31248C51.9688 8.2214 51.7699 8.07735 51.613 7.89251C51.4421 7.67669 51.3558 7.40531 51.3704 7.12975C51.3692 6.87261 51.4481 6.62155 51.5961 6.41186C51.7604 6.18344 51.9846 6.00543 52.2436 5.89768C52.5577 5.7653 52.8959 5.70093 53.2363 5.70878C53.721 5.68355 54.1985 5.83416 54.5822 6.13323C54.7487 6.27449 54.8841 6.44927 54.9795 6.64632C55.0749 6.84337 55.1282 7.05833 55.1361 7.27737H53.9944C53.9889 7.19024 53.9651 7.10527 53.9248 7.02797C53.8845 6.95067 53.8284 6.88277 53.7603 6.82869C53.6036 6.72853 53.4235 6.67165 53.238 6.66377C53.0526 6.6559 52.8683 6.6973 52.7038 6.78382C52.6485 6.81959 52.6033 6.8692 52.5728 6.92779C52.5422 6.98638 52.5273 7.05195 52.5295 7.11809C52.529 7.1958 52.5514 7.27191 52.5939 7.33683C52.6363 7.40175 52.6969 7.45256 52.7681 7.48287C53.0056 7.59304 53.254 7.67771 53.5092 7.73547C53.7962 7.80409 54.078 7.893 54.3525 8.00154C54.5754 8.09397 54.7727 8.23947 54.9273 8.42554C55.0974 8.64073 55.1865 8.90944 55.1788 9.18426C55.182 9.44768 55.1031 9.70548 54.9532 9.92144C54.7893 10.1493 54.5649 10.3261 54.3057 10.4316C53.9938 10.5603 53.6589 10.6229 53.3219 10.6156C52.9645 10.6215 52.6099 10.5498 52.2824 10.4056" fill="#AB2346"/>
<path d="M57.9677 5.92784C58.2528 5.7783 58.5707 5.70317 58.8922 5.70934C59.2777 5.70447 59.657 5.80829 59.9869 6.00905C60.3191 6.2153 60.5876 6.51048 60.7625 6.86155C60.9592 7.25917 61.0572 7.6989 61.0479 8.14298C61.0566 8.58973 60.9587 9.03207 60.7625 9.43294C60.5882 9.78903 60.3199 10.09 59.9869 10.3029C59.6589 10.5091 59.2789 10.6162 58.8922 10.6116C58.574 10.6183 58.2592 10.5445 57.9766 10.3972C57.7263 10.2663 57.507 10.0826 57.3336 9.85874V12.7985H56.1406V5.78651H57.3336V6.47209C57.5001 6.24346 57.717 6.0571 57.9677 5.92784ZM59.6547 7.40176C59.5483 7.20334 59.3891 7.03865 59.1949 6.92616C59.0069 6.81815 58.7939 6.76197 58.5773 6.76329C58.363 6.76278 58.1525 6.82061 57.9681 6.93064C57.7736 7.04652 57.6146 7.21401 57.5084 7.41477C57.3935 7.64636 57.3337 7.90165 57.3337 8.16048C57.3337 8.41931 57.3935 8.67459 57.5084 8.90619C57.6146 9.10691 57.7737 9.27439 57.9681 9.39031C58.1543 9.50026 58.3663 9.55785 58.5822 9.55706C58.798 9.55627 59.0096 9.49713 59.1949 9.38583C59.389 9.26746 59.5479 9.09868 59.6547 8.89721C59.7762 8.66499 59.8364 8.4053 59.8295 8.14298C59.8361 7.88469 59.7759 7.62957 59.6547 7.40176Z" fill="#AB2346"/>
<path d="M66.2521 8.52043H62.8018C62.8119 8.82605 62.9399 9.1157 63.1586 9.32806C63.3694 9.52289 63.6474 9.62748 63.9336 9.6197C64.1305 9.63148 64.3263 9.58284 64.4951 9.48021C64.6639 9.37758 64.7978 9.2258 64.879 9.04494H66.1656C66.0334 9.49658 65.7583 9.89247 65.382 10.1725C64.97 10.475 64.4693 10.6303 63.9595 10.6135C63.5327 10.6204 63.1115 10.5156 62.7371 10.3093C62.3796 10.1097 62.0868 9.81059 61.8938 9.44786C61.6864 9.05208 61.5823 8.60974 61.5915 8.16239C61.5816 7.71258 61.6842 7.26748 61.8898 6.86794C62.079 6.50643 62.3692 6.20853 62.7246 6.01096C63.1017 5.81526 63.5196 5.71244 63.944 5.71095C64.3683 5.70947 64.7869 5.80937 65.1653 6.00244C65.5148 6.19139 65.802 6.47875 65.9917 6.82936C66.1927 7.20739 66.2938 7.631 66.2855 8.05964C66.2867 8.2145 66.2754 8.36921 66.2517 8.52223M65.0503 7.7146C65.0528 7.57403 65.0243 7.43464 64.9668 7.30648C64.9094 7.17831 64.8244 7.06455 64.718 6.97338C64.497 6.78576 64.2151 6.68657 63.926 6.69475C63.6526 6.68637 63.3862 6.78257 63.1804 6.96396C62.9703 7.1602 62.8386 7.42675 62.8098 7.71371L65.0503 7.7146Z" fill="#AB2346"/>
<path d="M67.2751 6.87048C67.4642 6.51178 67.7508 6.21456 68.1014 6.0135C68.4708 5.80617 68.8883 5.70119 69.3113 5.70929C69.8307 5.68894 70.342 5.84439 70.7633 6.15079C71.1564 6.46009 71.4293 6.89831 71.5343 7.38915H70.2478C70.1875 7.19461 70.0664 7.02482 69.9026 6.90503C69.7257 6.78334 69.5147 6.72186 69.3006 6.72959C69.1461 6.7232 68.9922 6.75365 68.8517 6.81844C68.7111 6.88324 68.5877 6.98055 68.4916 7.10245C68.2966 7.41914 68.1933 7.7843 68.1933 8.15684C68.1933 8.52939 68.2966 8.89455 68.4916 9.21124C68.5877 9.33314 68.7111 9.43045 68.8517 9.49525C68.9922 9.56004 69.1461 9.59049 69.3006 9.5841C69.5087 9.60206 69.7166 9.54699 69.8889 9.42823C70.0613 9.30947 70.1874 9.13435 70.246 8.93262H71.5326C71.4203 9.41812 71.1467 9.85054 70.7571 10.1584C70.3399 10.4714 69.829 10.6316 69.309 10.6125C68.8861 10.6206 68.4686 10.5156 68.0992 10.3083C67.7486 10.1071 67.4621 9.80993 67.2728 9.45129C67.0766 9.04993 66.9746 8.60861 66.9746 8.16133C66.9746 7.71405 67.0766 7.27274 67.2728 6.87138" fill="#AB2346"/>
<path d="M73.8823 6.77225V9.0695C73.8764 9.13225 73.8837 9.19553 73.9035 9.25532C73.9233 9.31511 73.9552 9.37009 73.9973 9.41678C74.1091 9.49894 74.247 9.53694 74.3849 9.52356H74.9387V10.5349H74.1891C73.1839 10.5349 72.6813 10.0436 72.6813 9.06097V6.7727H72.1172V5.78561H72.6795V4.6123H73.8805V5.7865H74.9369V6.7736L73.8823 6.77225Z" fill="#AB2346"/>
<path d="M77.7091 5.93252C77.9676 5.78663 78.2601 5.71261 78.5564 5.71805V6.97929H78.2411C78.0819 6.95326 77.9188 6.96659 77.7659 7.01812C77.6129 7.06965 77.4747 7.15784 77.3632 7.27509C77.2517 7.39233 77.1701 7.53511 77.1257 7.69111C77.0812 7.84711 77.0751 8.01165 77.108 8.17054V10.536H75.915V5.7867H77.108V6.52388C77.2551 6.27867 77.4622 6.07516 77.7091 5.93252Z" fill="#AB2346"/>
<path d="M83.835 5.78662V10.535H82.6336V9.93512C82.4765 10.1441 82.2702 10.3104 82.0333 10.4192C81.7814 10.5373 81.5064 10.5972 81.2284 10.5947C80.8867 10.6019 80.5489 10.5208 80.2473 10.3591C79.9609 10.1995 79.7281 9.95794 79.5784 9.66502C79.409 9.3266 79.3257 8.95123 79.3358 8.57248V5.78662H80.5287V8.40108C80.5078 8.71648 80.6084 9.02785 80.8096 9.27063C80.9084 9.37354 81.0279 9.45394 81.1601 9.50642C81.2924 9.5589 81.4343 9.58223 81.5762 9.57483C81.7195 9.58279 81.8628 9.55975 81.9965 9.50728C82.1302 9.4548 82.2512 9.37411 82.3513 9.27063C82.5525 9.02788 82.6532 8.71649 82.6323 8.40108V5.78662H83.835Z" fill="#AB2346"/>
<path d="M92.3424 6.25337C92.527 6.4536 92.6693 6.68938 92.7608 6.94648C92.8523 7.20358 92.8911 7.47667 92.8749 7.74927V10.5347H91.6824V7.91169C91.7033 7.60139 91.6022 7.29524 91.401 7.0592C91.3009 6.95868 91.1809 6.88043 91.0489 6.8295C90.9168 6.77857 90.7756 6.75609 90.6344 6.76352C90.4925 6.7564 90.3508 6.779 90.218 6.8299C90.0853 6.8808 89.9645 6.95888 89.8633 7.0592C89.7624 7.17544 89.6852 7.31057 89.6363 7.45685C89.5873 7.60313 89.5675 7.75769 89.578 7.91169V10.5347H88.3855V7.91169C88.4063 7.60149 88.3054 7.29543 88.1045 7.0592C88.0044 6.95871 87.8845 6.88047 87.7524 6.82954C87.6204 6.77861 87.4791 6.75612 87.3379 6.76352C87.1947 6.75581 87.0515 6.77811 86.9173 6.82901C86.7832 6.8799 86.6609 6.95829 86.5584 7.0592C86.4575 7.17547 86.3804 7.31061 86.3314 7.45688C86.2825 7.60315 86.2626 7.7577 86.273 7.91169V10.5347H85.0801V5.78629H86.273V6.3606C86.4298 6.15787 86.633 5.99625 86.8652 5.88948C87.1147 5.77341 87.3869 5.71486 87.6617 5.71809C88.0055 5.71203 88.3453 5.79303 88.6499 5.95365C88.9352 6.10649 89.1693 6.3406 89.3229 6.62667C89.4805 6.34847 89.7122 6.12005 89.9918 5.96711C90.3649 5.76365 90.7916 5.68199 91.2128 5.73344C91.6341 5.78489 92.029 5.96691 92.3428 6.25426" fill="#AB2346"/>
</svg>
