<svg width="16" height="17" viewBox="0 0 16 17" fill="none" xmlns="http://www.w3.org/2000/svg">
<path d="M11.4911 0.554688H4.83196C2.82457 0.554688 1.19727 2.30717 1.19727 4.46897V11.6404C1.19727 13.8022 2.82457 15.5547 4.83196 15.5547H11.4911C13.4985 15.5547 15.1258 13.8022 15.1258 11.6404V4.46897C15.1258 2.30717 13.4985 0.554688 11.4911 0.554688Z" stroke="#13340C" stroke-width="0.996289" stroke-linecap="round" stroke-linejoin="round"/>
<path d="M8.16163 11.9831C10.1763 11.9831 11.8096 10.2242 11.8096 8.05455C11.8096 5.88486 10.1763 4.12598 8.16163 4.12598C6.14692 4.12598 4.51367 5.88486 4.51367 8.05455C4.51367 10.2242 6.14692 11.9831 8.16163 11.9831Z" stroke="#13340C" stroke-width="0.996289" stroke-linecap="round" stroke-linejoin="round"/>
<path d="M12.1412 3.4096C12.3244 3.4096 12.4728 3.2497 12.4728 3.05246C12.4728 2.85521 12.3244 2.69531 12.1412 2.69531C11.958 2.69531 11.8096 2.85521 11.8096 3.05246C11.8096 3.2497 11.958 3.4096 12.1412 3.4096Z" stroke="#13340C" stroke-width="0.996289" stroke-linecap="round" stroke-linejoin="round"/>
</svg>
