<svg width="11" height="13" viewBox="0 0 11 13" fill="none" xmlns="http://www.w3.org/2000/svg">
<path d="M7.97129 0.868164H3.13363C1.67534 0.868164 0.493164 2.14128 0.493164 3.71175V8.92153C0.493164 10.492 1.67534 11.7651 3.13363 11.7651H7.97129C9.42958 11.7651 10.6118 10.492 10.6118 8.92153V3.71175C10.6118 2.14128 9.42958 0.868164 7.97129 0.868164Z" stroke="#13340C" stroke-width="0.723768" stroke-linecap="round" stroke-linejoin="round"/>
<path d="M5.55245 9.16984C7.01607 9.16984 8.20256 7.89208 8.20256 6.31588C8.20256 4.73968 7.01607 3.46191 5.55245 3.46191C4.08884 3.46191 2.90234 4.73968 2.90234 6.31588C2.90234 7.89208 4.08884 9.16984 5.55245 9.16984Z" stroke="#13340C" stroke-width="0.723768" stroke-linecap="round" stroke-linejoin="round"/>
<path d="M8.44356 2.94175C8.57661 2.94175 8.68447 2.82559 8.68447 2.6823C8.68447 2.53901 8.57661 2.42285 8.44356 2.42285C8.3105 2.42285 8.20264 2.53901 8.20264 2.6823C8.20264 2.82559 8.3105 2.94175 8.44356 2.94175Z" stroke="#13340C" stroke-width="0.723768" stroke-linecap="round" stroke-linejoin="round"/>
</svg>
