<svg width="9" height="11" viewBox="0 0 9 11" fill="none" xmlns="http://www.w3.org/2000/svg">
<path d="M6.50598 0.780273H2.53807C1.34195 0.780273 0.372314 1.8245 0.372314 3.11262V7.38576C0.372314 8.67388 1.34195 9.71811 2.53807 9.71811H6.50598C7.70209 9.71811 8.67173 8.67388 8.67173 7.38576V3.11262C8.67173 1.8245 7.70209 0.780273 6.50598 0.780273Z" stroke="#13340C" stroke-width="0.593645" stroke-linecap="round" stroke-linejoin="round"/>
<path d="M4.5218 7.58895C5.72228 7.58895 6.69546 6.54091 6.69546 5.24809C6.69546 3.95527 5.72228 2.90723 4.5218 2.90723C3.32132 2.90723 2.34814 3.95527 2.34814 5.24809C2.34814 6.54091 3.32132 7.58895 4.5218 7.58895Z" stroke="#13340C" stroke-width="0.593645" stroke-linecap="round" stroke-linejoin="round"/>
<path d="M6.89316 2.48128C7.0023 2.48128 7.09077 2.386 7.09077 2.26847C7.09077 2.15094 7.0023 2.05566 6.89316 2.05566C6.78403 2.05566 6.69556 2.15094 6.69556 2.26847C6.69556 2.386 6.78403 2.48128 6.89316 2.48128Z" stroke="#13340C" stroke-width="0.593645" stroke-linecap="round" stroke-linejoin="round"/>
</svg>
