<svg width="11" height="13" viewBox="0 0 11 13" fill="none" xmlns="http://www.w3.org/2000/svg">
<path d="M7.97153 1.26074H3.13388C1.67559 1.26074 0.493408 2.53386 0.493408 4.10433V9.31411C0.493408 10.8846 1.67559 12.1577 3.13388 12.1577H7.97153C9.42982 12.1577 10.612 10.8846 10.612 9.31411V4.10433C10.612 2.53386 9.42982 1.26074 7.97153 1.26074Z" stroke="#13340C" stroke-width="0.723768" stroke-linecap="round" stroke-linejoin="round"/>
<path d="M5.5527 9.56242C7.01631 9.56242 8.2028 8.28465 8.2028 6.70845C8.2028 5.13225 7.01631 3.85449 5.5527 3.85449C4.08908 3.85449 2.90259 5.13225 2.90259 6.70845C2.90259 8.28465 4.08908 9.56242 5.5527 9.56242Z" stroke="#13340C" stroke-width="0.723768" stroke-linecap="round" stroke-linejoin="round"/>
<path d="M8.4438 3.33433C8.57686 3.33433 8.68472 3.21817 8.68472 3.07488C8.68472 2.93159 8.57686 2.81543 8.4438 2.81543C8.31074 2.81543 8.20288 2.93159 8.20288 3.07488C8.20288 3.21817 8.31074 3.33433 8.4438 3.33433Z" stroke="#13340C" stroke-width="0.723768" stroke-linecap="round" stroke-linejoin="round"/>
</svg>
