<svg width="9" height="11" viewBox="0 0 9 11" fill="none" xmlns="http://www.w3.org/2000/svg">
<path d="M6.50635 0.951172H2.53843C1.34232 0.951172 0.372681 1.9954 0.372681 3.28352V7.55666C0.372681 8.84478 1.34232 9.88901 2.53843 9.88901H6.50635C7.70246 9.88901 8.6721 8.84478 8.6721 7.55666V3.28352C8.6721 1.9954 7.70246 0.951172 6.50635 0.951172Z" stroke="#13340C" stroke-width="0.593645" stroke-linecap="round" stroke-linejoin="round"/>
<path d="M4.52211 7.75985C5.72258 7.75985 6.69576 6.71181 6.69576 5.41899C6.69576 4.12616 5.72258 3.07812 4.52211 3.07812C3.32163 3.07812 2.34845 4.12616 2.34845 5.41899C2.34845 6.71181 3.32163 7.75985 4.52211 7.75985Z" stroke="#13340C" stroke-width="0.593645" stroke-linecap="round" stroke-linejoin="round"/>
<path d="M6.89365 2.65217C7.00278 2.65217 7.09126 2.5569 7.09126 2.43937C7.09126 2.32184 7.00278 2.22656 6.89365 2.22656C6.78452 2.22656 6.69604 2.32184 6.69604 2.43937C6.69604 2.5569 6.78452 2.65217 6.89365 2.65217Z" stroke="#13340C" stroke-width="0.593645" stroke-linecap="round" stroke-linejoin="round"/>
</svg>
