<svg width="11" height="12" viewBox="0 0 11 12" fill="none" xmlns="http://www.w3.org/2000/svg">
<path d="M7.61132 0.556641H2.9879C1.59418 0.556641 0.464355 1.77338 0.464355 3.2743V8.25337C0.464355 9.75429 1.59418 10.971 2.9879 10.971H7.61132C9.00503 10.971 10.1349 9.75429 10.1349 8.25337V3.2743C10.1349 1.77338 9.00503 0.556641 7.61132 0.556641Z" stroke="#13340C" stroke-width="0.691716" stroke-linecap="round" stroke-linejoin="round"/>
<path d="M5.30009 8.49129C6.69889 8.49129 7.83284 7.27011 7.83284 5.76371C7.83284 4.25731 6.69889 3.03613 5.30009 3.03613C3.90129 3.03613 2.76733 4.25731 2.76733 5.76371C2.76733 7.27011 3.90129 8.49129 5.30009 8.49129Z" stroke="#13340C" stroke-width="0.691716" stroke-linecap="round" stroke-linejoin="round"/>
<path d="M8.06301 2.53792C8.19018 2.53792 8.29326 2.4269 8.29326 2.28995C8.29326 2.15301 8.19018 2.04199 8.06301 2.04199C7.93585 2.04199 7.83276 2.15301 7.83276 2.28995C7.83276 2.4269 7.93585 2.53792 8.06301 2.53792Z" stroke="#13340C" stroke-width="0.691716" stroke-linecap="round" stroke-linejoin="round"/>
</svg>
