<svg width="116" height="20" viewBox="0 0 116 20" fill="none" xmlns="http://www.w3.org/2000/svg">
<path d="M18.9054 1.98197H14.889C14.7577 1.98512 14.6271 1.96182 14.5049 1.91343C14.3826 1.86505 14.2713 1.79255 14.1773 1.70022C14.0833 1.60789 14.0086 1.49758 13.9576 1.37579C13.9066 1.25399 13.8804 1.12316 13.8804 0.991004C13.8804 0.858844 13.9066 0.728018 13.9576 0.606221C14.0086 0.484424 14.0833 0.374116 14.1773 0.281784C14.2713 0.189453 14.3826 0.116963 14.5049 0.0685776C14.6271 0.0201922 14.7577 -0.00311181 14.889 3.73166e-05H18.9054C19.0368 -0.00311181 19.1674 0.0201922 19.2896 0.0685776C19.4119 0.116963 19.5232 0.189453 19.6172 0.281784C19.7112 0.374116 19.7859 0.484424 19.8369 0.606221C19.8879 0.728018 19.9141 0.858844 19.9141 0.991004C19.9141 1.12316 19.8879 1.25399 19.8369 1.37579C19.7859 1.49758 19.7112 1.60789 19.6172 1.70022C19.5232 1.79255 19.4119 1.86505 19.2896 1.91343C19.1674 1.96182 19.0368 1.98512 18.9054 1.98197Z" fill="#AB2346"/>
<path d="M20.8998 4.98496H14.89C14.7587 4.98811 14.6281 4.96481 14.5059 4.91642C14.3836 4.86804 14.2722 4.79555 14.1783 4.70321C14.0843 4.61088 14.0096 4.50057 13.9586 4.37878C13.9076 4.25698 13.8813 4.12616 13.8813 3.99399C13.8813 3.86183 13.9076 3.73101 13.9586 3.60921C14.0096 3.48742 14.0843 3.37711 14.1783 3.28478C14.2722 3.19244 14.3836 3.11995 14.5059 3.07157C14.6281 3.02318 14.7587 2.99988 14.89 3.00303H20.8998C21.0311 2.99988 21.1617 3.02318 21.284 3.07157C21.4062 3.11995 21.5176 3.19244 21.6116 3.28478C21.7056 3.37711 21.7802 3.48742 21.8312 3.60921C21.8822 3.73101 21.9085 3.86183 21.9085 3.99399C21.9085 4.12616 21.8822 4.25698 21.8312 4.37878C21.7802 4.50057 21.7056 4.61088 21.6116 4.70321C21.5176 4.79555 21.4062 4.86804 21.284 4.91642C21.1617 4.96481 21.0311 4.98811 20.8998 4.98496Z" fill="#AB2346"/>
<path d="M22.8787 7.98795H14.889C14.6318 7.98178 14.3873 7.87467 14.2076 7.6895C14.0278 7.50433 13.9272 7.25579 13.9272 6.99698C13.9272 6.73818 14.0278 6.48964 14.2076 6.30447C14.3873 6.1193 14.6318 6.01219 14.889 6.00602H22.8787C23.01 6.00287 23.1406 6.02617 23.2629 6.07456C23.3851 6.12294 23.4965 6.19543 23.5905 6.28776C23.6844 6.3801 23.7591 6.4904 23.8101 6.6122C23.8611 6.734 23.8874 6.86482 23.8874 6.99698C23.8874 7.12914 23.8611 7.25997 23.8101 7.38177C23.7591 7.50356 23.6844 7.61387 23.5905 7.7062C23.4965 7.79853 23.3851 7.87103 23.2629 7.91941C23.1406 7.9678 23.01 7.9911 22.8787 7.98795Z" fill="#AB2346"/>
<path d="M18.9054 13.9939H14.889C14.7577 13.9971 14.6271 13.9738 14.5049 13.9254C14.3826 13.877 14.2713 13.8045 14.1773 13.7122C14.0833 13.6199 14.0086 13.5095 13.9576 13.3877C13.9066 13.266 13.8804 13.1351 13.8804 13.003C13.8804 12.8708 13.9066 12.74 13.9576 12.6182C14.0086 12.4964 14.0833 12.3861 14.1773 12.2937C14.2713 12.2014 14.3826 12.1289 14.5049 12.0805C14.6271 12.0322 14.7577 12.0089 14.889 12.012H18.9054C19.0368 12.0089 19.1674 12.0322 19.2896 12.0805C19.4119 12.1289 19.5232 12.2014 19.6172 12.2937C19.7112 12.3861 19.7859 12.4964 19.8369 12.6182C19.8879 12.74 19.9141 12.8708 19.9141 13.003C19.9141 13.1351 19.8879 13.266 19.8369 13.3877C19.7859 13.5095 19.7112 13.6199 19.6172 13.7122C19.5232 13.8045 19.4119 13.877 19.2896 13.9254C19.1674 13.9738 19.0368 13.9971 18.9054 13.9939Z" fill="#AB2346"/>
<path d="M17.9092 16.9964H14.8881C14.7568 16.9996 14.6262 16.9763 14.5039 16.9279C14.3817 16.8795 14.2703 16.807 14.1763 16.7147C14.0824 16.6224 14.0077 16.512 13.9567 16.3903C13.9057 16.2685 13.8794 16.1376 13.8794 16.0055C13.8794 15.8733 13.9057 15.7425 13.9567 15.6207C14.0077 15.4989 14.0824 15.3886 14.1763 15.2962C14.2703 15.2039 14.3817 15.1314 14.5039 15.083C14.6262 15.0347 14.7568 15.0114 14.8881 15.0145H17.9092C18.0405 15.0114 18.1711 15.0347 18.2934 15.083C18.4156 15.1314 18.527 15.2039 18.621 15.2962C18.715 15.3886 18.7897 15.4989 18.8406 15.6207C18.8916 15.7425 18.9179 15.8733 18.9179 16.0055C18.9179 16.1376 18.8916 16.2685 18.8406 16.3903C18.7897 16.512 18.715 16.6224 18.621 16.7147C18.527 16.807 18.4156 16.8795 18.2934 16.9279C18.1711 16.9763 18.0405 16.9996 17.9092 16.9964Z" fill="#AB2346"/>
<path d="M11.9374 1.98197H9.91495C9.78363 1.98512 9.653 1.96182 9.53076 1.91343C9.40853 1.86505 9.29714 1.79255 9.20316 1.70022C9.10917 1.60789 9.03451 1.49758 8.98352 1.37579C8.93253 1.25399 8.90625 1.12316 8.90625 0.991004C8.90625 0.858844 8.93253 0.728018 8.98352 0.606221C9.03451 0.484424 9.10917 0.374116 9.20316 0.281784C9.29714 0.189453 9.40853 0.116963 9.53076 0.0685776C9.653 0.0201922 9.78363 -0.00311181 9.91495 3.73166e-05H11.9374C12.0687 -0.00311181 12.1994 0.0201922 12.3216 0.0685776C12.4438 0.116963 12.5552 0.189453 12.6492 0.281784C12.7432 0.374116 12.8178 0.484424 12.8688 0.606221C12.9198 0.728018 12.9461 0.858844 12.9461 0.991004C12.9461 1.12316 12.9198 1.25399 12.8688 1.37579C12.8178 1.49758 12.7432 1.60789 12.6492 1.70022C12.5552 1.79255 12.4438 1.86505 12.3216 1.91343C12.1994 1.96182 12.0687 1.98512 11.9374 1.98197Z" fill="#82AEC9"/>
<path d="M11.9375 4.98496H7.9379C7.80658 4.98811 7.67598 4.96481 7.55375 4.91642C7.43151 4.86804 7.32012 4.79555 7.22614 4.70321C7.13216 4.61088 7.05746 4.50057 7.00647 4.37878C6.95548 4.25698 6.9292 4.12616 6.9292 3.99399C6.9292 3.86183 6.95548 3.73101 7.00647 3.60921C7.05746 3.48742 7.13216 3.37711 7.22614 3.28478C7.32012 3.19244 7.43151 3.11995 7.55375 3.07157C7.67598 3.02318 7.80658 2.99988 7.9379 3.00303H11.9375C12.0688 2.99988 12.1995 3.02318 12.3217 3.07157C12.4439 3.11995 12.5553 3.19244 12.6493 3.28478C12.7433 3.37711 12.818 3.48742 12.869 3.60921C12.92 3.73101 12.9462 3.86183 12.9462 3.99399C12.9462 4.12616 12.92 4.25698 12.869 4.37878C12.818 4.50057 12.7433 4.61088 12.6493 4.70321C12.5553 4.79555 12.4439 4.86804 12.3217 4.91642C12.1995 4.96481 12.0688 4.98811 11.9375 4.98496Z" fill="#82AEC9"/>
<path d="M11.9364 7.98795H5.95743C5.82611 7.9911 5.69548 7.9678 5.57324 7.91941C5.45101 7.87103 5.33962 7.79853 5.24564 7.7062C5.15166 7.61387 5.07696 7.50356 5.02597 7.38177C4.97498 7.25997 4.94873 7.12914 4.94873 6.99698C4.94873 6.86482 4.97498 6.734 5.02597 6.6122C5.07696 6.4904 5.15166 6.3801 5.24564 6.28776C5.33962 6.19543 5.45101 6.12294 5.57324 6.07456C5.69548 6.02617 5.82611 6.00287 5.95743 6.00602H11.9364C12.0677 6.00287 12.1983 6.02617 12.3206 6.07456C12.4428 6.12294 12.5542 6.19543 12.6482 6.28776C12.7422 6.3801 12.8169 6.4904 12.8679 6.6122C12.9188 6.734 12.9451 6.86482 12.9451 6.99698C12.9451 7.12914 12.9188 7.25997 12.8679 7.38177C12.8169 7.50356 12.7422 7.61387 12.6482 7.7062C12.5542 7.79853 12.4428 7.87103 12.3206 7.91941C12.1983 7.9678 12.0677 7.9911 11.9364 7.98795Z" fill="#82AEC9"/>
<path d="M11.9376 10.9909H3.95743C3.82611 10.9941 3.69551 10.9708 3.57328 10.9224C3.45104 10.874 3.33966 10.8015 3.24567 10.7092C3.15169 10.6169 3.07699 10.5066 3.02601 10.3848C2.97502 10.263 2.94873 10.1321 2.94873 9.99997C2.94873 9.86781 2.97502 9.73699 3.02601 9.61519C3.07699 9.49339 3.15169 9.38309 3.24567 9.29075C3.33966 9.19842 3.45104 9.12593 3.57328 9.07755C3.69551 9.02916 3.82611 9.00586 3.95743 9.00901H11.9376C12.069 9.00586 12.1996 9.02916 12.3218 9.07755C12.444 9.12593 12.5554 9.19842 12.6494 9.29075C12.7434 9.38309 12.8181 9.49339 12.8691 9.61519C12.9201 9.73699 12.9463 9.86781 12.9463 9.99997C12.9463 10.1321 12.9201 10.263 12.8691 10.3848C12.8181 10.5066 12.7434 10.6169 12.6494 10.7092C12.5554 10.8015 12.444 10.874 12.3218 10.9224C12.1996 10.9708 12.069 10.9941 11.9376 10.9909Z" fill="#82AEC9"/>
<path d="M24.8731 10.9909H14.89C14.7587 10.9941 14.6281 10.9708 14.5059 10.9224C14.3836 10.874 14.2722 10.8015 14.1783 10.7092C14.0843 10.6169 14.0096 10.5066 13.9586 10.3848C13.9076 10.263 13.8813 10.1321 13.8813 9.99997C13.8813 9.86781 13.9076 9.73699 13.9586 9.61519C14.0096 9.49339 14.0843 9.38309 14.1783 9.29075C14.2722 9.19842 14.3836 9.12593 14.5059 9.07755C14.6281 9.02916 14.7587 9.00586 14.89 9.00901H24.8731C25.0044 9.00586 25.135 9.02916 25.2573 9.07755C25.3795 9.12593 25.4909 9.19842 25.5849 9.29075C25.6789 9.38309 25.7536 9.49339 25.8045 9.61519C25.8555 9.73699 25.8818 9.86781 25.8818 9.99997C25.8818 10.1321 25.8555 10.263 25.8045 10.3848C25.7536 10.5066 25.6789 10.6169 25.5849 10.7092C25.4909 10.8015 25.3795 10.874 25.2573 10.9224C25.135 10.9708 25.0044 10.9941 24.8731 10.9909Z" fill="#82AEC9"/>
<path d="M11.9369 13.9939H5.9506C5.81928 13.9971 5.68868 13.9738 5.56644 13.9254C5.44421 13.877 5.33282 13.8045 5.23884 13.7122C5.14485 13.6199 5.07016 13.5095 5.01917 13.3877C4.96818 13.266 4.94189 13.1351 4.94189 13.003C4.94189 12.8708 4.96818 12.74 5.01917 12.6182C5.07016 12.4964 5.14485 12.3861 5.23884 12.2937C5.33282 12.2014 5.44421 12.1289 5.56644 12.0805C5.68868 12.0322 5.81928 12.0089 5.9506 12.012H11.9369C12.0682 12.0089 12.1988 12.0322 12.3211 12.0805C12.4433 12.1289 12.5546 12.2014 12.6486 12.2937C12.7426 12.3861 12.8173 12.4964 12.8683 12.6182C12.9193 12.74 12.9456 12.8708 12.9456 13.003C12.9456 13.1351 12.9193 13.266 12.8683 13.3877C12.8173 13.5095 12.7426 13.6199 12.6486 13.7122C12.5546 13.8045 12.4433 13.877 12.3211 13.9254C12.1988 13.9738 12.0682 13.9971 11.9369 13.9939Z" fill="#82AEC9"/>
<path d="M24.873 13.9939H21.8558C21.5986 13.9878 21.3541 13.8807 21.1744 13.6955C20.9946 13.5103 20.894 13.2618 20.894 13.003C20.894 12.7442 20.9946 12.4956 21.1744 12.3105C21.3541 12.1253 21.5986 12.0182 21.8558 12.012H24.873C25.0043 12.0089 25.1349 12.0322 25.2572 12.0805C25.3794 12.1289 25.4908 12.2014 25.5848 12.2937C25.6788 12.3861 25.7534 12.4964 25.8044 12.6182C25.8554 12.74 25.8817 12.8708 25.8817 13.003C25.8817 13.1351 25.8554 13.266 25.8044 13.3877C25.7534 13.5095 25.6788 13.6199 25.5848 13.7122C25.4908 13.8045 25.3794 13.877 25.2572 13.9254C25.1349 13.9738 25.0043 13.9971 24.873 13.9939Z" fill="#82AEC9"/>
<path d="M11.9364 16.9964H7.93009C7.79877 16.9996 7.66814 16.9763 7.5459 16.9279C7.42366 16.8795 7.31228 16.807 7.21829 16.7147C7.12431 16.6224 7.04962 16.512 6.99863 16.3903C6.94764 16.2685 6.92139 16.1376 6.92139 16.0055C6.92139 15.8733 6.94764 15.7425 6.99863 15.6207C7.04962 15.4989 7.12431 15.3886 7.21829 15.2962C7.31228 15.2039 7.42366 15.1314 7.5459 15.083C7.66814 15.0347 7.79877 15.0114 7.93009 15.0145H11.9364C12.0677 15.0114 12.1983 15.0347 12.3206 15.083C12.4428 15.1314 12.5542 15.2039 12.6482 15.2962C12.7422 15.3886 12.8169 15.4989 12.8678 15.6207C12.9188 15.7425 12.9451 15.8733 12.9451 16.0055C12.9451 16.1376 12.9188 16.2685 12.8678 16.3903C12.8169 16.512 12.7422 16.6224 12.6482 16.7147C12.5542 16.807 12.4428 16.8795 12.3206 16.9279C12.1983 16.9763 12.0677 16.9996 11.9364 16.9964Z" fill="#82AEC9"/>
<path d="M25.0584 16.9964H20.8758C20.6187 16.9903 20.3741 16.8832 20.1944 16.698C20.0147 16.5128 19.9141 16.2643 19.9141 16.0055C19.9141 15.7467 20.0147 15.4981 20.1944 15.313C20.3741 15.1278 20.6187 15.0207 20.8758 15.0145H25.0584C25.1897 15.0114 25.3203 15.0347 25.4425 15.083C25.5648 15.1314 25.6761 15.2039 25.7701 15.2962C25.8641 15.3886 25.9388 15.4989 25.9898 15.6207C26.0408 15.7425 26.067 15.8733 26.067 16.0055C26.067 16.1376 26.0408 16.2685 25.9898 16.3903C25.9388 16.512 25.8641 16.6224 25.7701 16.7147C25.6761 16.807 25.5648 16.8795 25.4425 16.9279C25.3203 16.9763 25.1897 16.9996 25.0584 16.9964Z" fill="#82AEC9"/>
<path d="M11.9374 20H9.91495C9.78363 20.0032 9.653 19.9799 9.53076 19.9315C9.40853 19.8831 9.29714 19.8106 9.20316 19.7183C9.10917 19.626 9.03451 19.5156 8.98352 19.3939C8.93253 19.2721 8.90625 19.1412 8.90625 19.0091C8.90625 18.8769 8.93253 18.7461 8.98352 18.6243C9.03451 18.5025 9.10917 18.3922 9.20316 18.2998C9.29714 18.2075 9.40853 18.135 9.53076 18.0866C9.653 18.0383 9.78363 18.015 9.91495 18.0181H11.9374C12.0687 18.015 12.1994 18.0383 12.3216 18.0866C12.4438 18.135 12.5552 18.2075 12.6492 18.2998C12.7432 18.3922 12.8178 18.5025 12.8688 18.6243C12.9198 18.7461 12.9461 18.8769 12.9461 19.0091C12.9461 19.1412 12.9198 19.2721 12.8688 19.3939C12.8178 19.5156 12.7432 19.626 12.6492 19.7183C12.5552 19.8106 12.4438 19.8831 12.3216 19.9315C12.1994 19.9799 12.0687 20.0032 11.9374 20Z" fill="#82AEC9"/>
<path d="M18.9054 20H14.889C14.7577 20.0032 14.6271 19.9799 14.5049 19.9315C14.3826 19.8831 14.2713 19.8106 14.1773 19.7183C14.0833 19.626 14.0086 19.5156 13.9576 19.3939C13.9066 19.2721 13.8804 19.1412 13.8804 19.0091C13.8804 18.8769 13.9066 18.7461 13.9576 18.6243C14.0086 18.5025 14.0833 18.3922 14.1773 18.2998C14.2713 18.2075 14.3826 18.135 14.5049 18.0866C14.6271 18.0383 14.7577 18.015 14.889 18.0181H18.9054C19.0368 18.015 19.1674 18.0383 19.2896 18.0866C19.4119 18.135 19.5232 18.2075 19.6172 18.2998C19.7112 18.3922 19.7859 18.5025 19.8369 18.6243C19.8879 18.7461 19.9141 18.8769 19.9141 19.0091C19.9141 19.1412 19.8879 19.2721 19.8369 19.3939C19.7859 19.5156 19.7112 19.626 19.6172 19.7183C19.5232 19.8106 19.4119 19.8831 19.2896 19.9315C19.1674 19.9799 19.0368 20.0032 18.9054 20Z" fill="#82AEC9"/>
<path d="M7.97568 1.74775C7.97568 1.89749 7.93154 2.04386 7.84885 2.16836C7.76617 2.29286 7.64864 2.3899 7.51114 2.4472C7.37364 2.50451 7.22235 2.5195 7.07638 2.49029C6.93042 2.46107 6.79634 2.38897 6.6911 2.28309C6.58587 2.17721 6.5142 2.04231 6.48516 1.89545C6.45613 1.74859 6.47103 1.59636 6.52798 1.45802C6.58494 1.31968 6.68137 1.20144 6.80512 1.11825C6.92886 1.03506 7.07435 0.990662 7.22318 0.990662C7.42275 0.990662 7.61414 1.07043 7.75526 1.21241C7.89638 1.35439 7.97568 1.54696 7.97568 1.74775Z" fill="#1D365A"/>
<path d="M7.94687 18.7515C7.94687 18.9013 7.90273 19.0476 7.82005 19.1721C7.73736 19.2966 7.61983 19.3937 7.48233 19.451C7.34484 19.5083 7.19354 19.5233 7.04757 19.4941C6.90161 19.4649 6.76753 19.3928 6.66229 19.2869C6.55706 19.181 6.48539 19.0461 6.45635 18.8992C6.42732 18.7524 6.44222 18.6001 6.49917 18.4618C6.55613 18.3235 6.6526 18.2052 6.77634 18.122C6.90009 18.0388 7.04555 17.9944 7.19437 17.9944C7.39394 17.9944 7.58537 18.0742 7.72648 18.2162C7.8676 18.3582 7.94687 18.5507 7.94687 18.7515Z" fill="#1D365A"/>
<path d="M5.45609 4.9849H4.46135C4.33071 4.9849 4.2054 4.93268 4.11302 4.83974C4.02064 4.74679 3.96875 4.62073 3.96875 4.48928C3.96875 4.35783 4.02064 4.23176 4.11302 4.13882C4.2054 4.04587 4.33071 3.99365 4.46135 3.99365H5.45609C5.58674 3.99365 5.71204 4.04587 5.80442 4.13882C5.8968 4.23176 5.94869 4.35783 5.94869 4.48928C5.94869 4.62073 5.8968 4.74679 5.80442 4.83974C5.71204 4.93268 5.58674 4.9849 5.45609 4.9849Z" fill="#1D365A"/>
<path d="M3.46313 7.98795H1.47649C1.34584 7.98795 1.22054 7.93574 1.12816 7.84279C1.03578 7.74984 0.983887 7.62378 0.983887 7.49233C0.983887 7.36088 1.03578 7.23482 1.12816 7.14187C1.22054 7.04892 1.34584 6.9967 1.47649 6.9967H3.46313C3.59377 6.9967 3.71908 7.04892 3.81146 7.14187C3.90384 7.23482 3.95577 7.36088 3.95577 7.49233C3.95577 7.62378 3.90384 7.74984 3.81146 7.84279C3.71908 7.93574 3.59377 7.98795 3.46313 7.98795Z" fill="#1D365A"/>
<path d="M3.47623 12.9818H0.492604C0.361956 12.9818 0.236687 12.9296 0.144305 12.8367C0.0519231 12.7437 0 12.6177 0 12.4862C0 12.3548 0.0519231 12.2287 0.144305 12.1358C0.236687 12.0428 0.361956 11.9906 0.492604 11.9906H3.47623C3.60688 11.9906 3.73218 12.0428 3.82456 12.1358C3.91694 12.2287 3.96883 12.3548 3.96883 12.4862C3.96883 12.6177 3.91694 12.7437 3.82456 12.8367C3.73218 12.9296 3.60688 12.9818 3.47623 12.9818Z" fill="#1D365A"/>
<path d="M5.46056 15.9742H4.46135C4.33071 15.9742 4.2054 15.922 4.11302 15.8291C4.02064 15.7361 3.96875 15.61 3.96875 15.4786C3.96875 15.3471 4.02064 15.2211 4.11302 15.1281C4.2054 15.0352 4.33071 14.983 4.46135 14.983H5.46056C5.59121 14.983 5.71651 15.0352 5.8089 15.1281C5.90128 15.2211 5.95317 15.3471 5.95317 15.4786C5.95317 15.61 5.90128 15.7361 5.8089 15.8291C5.71651 15.922 5.59121 15.9742 5.46056 15.9742Z" fill="#1D365A"/>
<path d="M36.3788 9.34397C36.6463 9.67872 36.7899 10.0966 36.785 10.526C36.7925 10.9003 36.6904 11.2686 36.4913 11.5848C36.2823 11.9004 35.9872 12.1487 35.6414 12.2997C35.2272 12.4806 34.7787 12.5685 34.3273 12.5575H31.1104V5.05363H34.1874C34.6362 5.04263 35.0822 5.12683 35.4965 5.30074C35.8356 5.44288 36.1255 5.6823 36.3302 5.98915C36.5202 6.28731 36.6187 6.63523 36.6132 6.9894C36.627 7.38442 36.5045 7.77206 36.2664 8.08647C36.0288 8.38444 35.7063 8.60209 35.3421 8.71015C35.7541 8.784 36.1239 9.01005 36.3788 9.34397ZM32.6058 8.15064H33.9743C34.2682 8.16988 34.5594 8.08417 34.7967 7.9086C34.8944 7.823 34.9713 7.71594 35.0213 7.5957C35.0714 7.47545 35.0933 7.34524 35.0853 7.21512C35.0929 7.08421 35.0709 6.95328 35.0209 6.83219C34.9709 6.71109 34.8942 6.60298 34.7967 6.51601C34.5609 6.33683 34.2691 6.24892 33.9743 6.26834H32.6058V8.15064ZM34.9623 11.0777C35.0651 10.9872 35.146 10.8742 35.1988 10.7473C35.2516 10.6205 35.2748 10.4832 35.2666 10.3459C35.2738 10.2033 35.2486 10.061 35.1931 9.92965C35.1376 9.7983 35.0531 9.68137 34.946 9.5877C34.6999 9.39422 34.3924 9.29685 34.0805 9.31357H32.6058V11.3349H34.113C34.4178 11.3536 34.7191 11.2622 34.9628 11.0771" fill="#AB2346"/>
<path d="M40.2184 6.78503C40.5427 6.60203 40.9096 6.50917 41.2813 6.51597V8.09825H40.8858C40.6861 8.06574 40.4815 8.08255 40.2897 8.14724C40.0979 8.21194 39.9246 8.32258 39.7847 8.46963C39.6448 8.61669 39.5425 8.79575 39.4867 8.99139C39.4309 9.18704 39.4232 9.39341 39.4642 9.59272V12.5603H37.9688V6.6021H39.4625V7.52692C39.6472 7.21936 39.9065 6.96407 40.2161 6.78503" fill="#AB2346"/>
<path d="M43.4918 12.2737C43.0394 12.023 42.6669 11.6482 42.4177 11.193C42.15 10.6989 42.015 10.143 42.0261 9.58033C42.0145 9.0163 42.1528 8.45939 42.4266 7.96709C42.6839 7.51068 43.0635 7.1362 43.5221 6.88634C44.0007 6.63573 44.5323 6.50488 45.0718 6.50488C45.6113 6.50488 46.1429 6.63573 46.6215 6.88634C47.08 7.13625 47.4596 7.51072 47.7169 7.96709C47.991 8.45933 48.1295 9.01625 48.1181 9.58033C48.1295 10.1455 47.9873 10.7031 47.7068 11.193C47.4422 11.6493 47.0575 12.0233 46.5952 12.2737C46.1134 12.532 45.5745 12.6633 45.0287 12.6554C44.4916 12.6637 43.9614 12.5322 43.4896 12.2737M45.7929 11.1446C46.0372 11.006 46.2359 10.7986 46.3647 10.5479C46.5149 10.2483 46.5884 9.91574 46.5784 9.58033C46.5939 9.34392 46.5627 9.10676 46.4867 8.88253C46.4106 8.6583 46.2912 8.45144 46.1353 8.27386C45.9959 8.12622 45.8274 8.00939 45.6406 7.9308C45.4539 7.85221 45.2529 7.81357 45.0505 7.81736C44.8496 7.81294 44.65 7.85133 44.4649 7.93C44.2798 8.00868 44.1133 8.12587 43.9764 8.27386C43.6676 8.63556 43.5122 9.10461 43.5433 9.58033C43.5121 10.0542 43.6633 10.5221 43.9657 10.8868C44.0999 11.0353 44.2643 11.1529 44.4477 11.2318C44.6311 11.3107 44.8293 11.3489 45.0287 11.3439C45.2962 11.3447 45.5594 11.2757 45.7929 11.1446Z" fill="#AB2346"/>
<path d="M49.2513 7.95695C49.4692 7.51407 49.8063 7.14159 50.2242 6.88184C50.6381 6.62974 51.1139 6.4993 51.5977 6.50526C52.0006 6.49606 52.3993 6.58857 52.7575 6.77433C53.0696 6.93694 53.3416 7.16773 53.5536 7.44979V6.60208H55.0608V12.5603H53.5536V11.6883C53.3472 11.9803 53.0742 12.2181 52.7575 12.3818C52.3962 12.5702 51.9938 12.6644 51.587 12.656C51.1053 12.6607 50.6323 12.5263 50.2242 12.2687C49.8064 12.0017 49.4697 11.6241 49.2513 11.1772C49.005 10.6744 48.8823 10.1194 48.8933 9.55894C48.8826 9.00354 49.0054 8.45434 49.2513 7.95695ZM53.3393 8.63917C53.2067 8.38811 53.0067 8.1796 52.7619 8.03745C52.525 7.89892 52.2555 7.82644 51.9815 7.82749C51.7062 7.82446 51.4354 7.89756 51.1987 8.03881C50.9619 8.18006 50.7682 8.38404 50.6388 8.62848C50.4869 8.9143 50.4113 9.23491 50.4195 9.55894C50.4121 9.88629 50.4875 10.2102 50.6388 10.5001C50.7716 10.7555 50.9713 10.9696 51.2161 11.1193C51.4464 11.2603 51.7108 11.3347 51.9803 11.3343C52.2544 11.3354 52.5237 11.2632 52.7608 11.1249C53.0055 10.9824 53.2055 10.7738 53.3382 10.5226C53.4787 10.2291 53.5518 9.90752 53.5518 9.58173C53.5518 9.25594 53.4787 8.93435 53.3382 8.64086" fill="#AB2346"/>
<path d="M56.4529 7.9565C56.6686 7.51478 57.0047 7.14383 57.4219 6.88682C57.8391 6.62981 58.3203 6.49734 58.8094 6.50481C59.1907 6.50409 59.5671 6.5905 59.9104 6.75755C60.2389 6.90933 60.5252 7.14015 60.744 7.42964V4.60168H62.2618V12.5587H60.744V11.6772C60.5506 11.9787 60.2816 12.2236 59.9641 12.387C59.6039 12.5723 59.2037 12.6647 58.7993 12.6561C58.316 12.6604 57.8415 12.5261 57.4314 12.2688C57.0113 12.0031 56.6727 11.6252 56.4535 11.1774C56.2072 10.6745 56.0844 10.1195 56.0954 9.55905C56.0847 9.00365 56.2076 8.45388 56.4535 7.9565M60.5414 8.63929C60.409 8.3883 60.2092 8.1798 59.9647 8.03756C59.7279 7.89913 59.4586 7.82666 59.1848 7.8276C58.9095 7.82457 58.6387 7.89767 58.4019 8.03893C58.1652 8.18018 57.9715 8.38415 57.8421 8.62859C57.6901 8.91441 57.6146 9.23502 57.6227 9.55905C57.6154 9.8864 57.6908 10.2103 57.8421 10.5002C57.9749 10.7556 58.1745 10.9697 58.4194 11.1194C58.6496 11.2605 58.9141 11.3349 59.1836 11.3344C59.4574 11.3354 59.7266 11.2632 59.9635 11.125C60.208 10.9825 60.4079 10.7738 60.5404 10.5227C60.6811 10.2293 60.7542 9.90766 60.7542 9.58185C60.7542 9.25603 60.6811 8.93441 60.5404 8.64098" fill="#AB2346"/>
<path d="M64.6299 12.391C64.2699 12.2345 63.9555 11.9883 63.7163 11.6755C63.4966 11.387 63.3682 11.0387 63.3477 10.6758H64.8548C64.8686 10.789 64.9056 10.898 64.9634 10.996C65.0211 11.0941 65.0985 11.179 65.1905 11.2455C65.4025 11.401 65.6602 11.4803 65.9223 11.4706C66.1573 11.4843 66.3908 11.4241 66.5903 11.2984C66.6641 11.2513 66.7249 11.1862 66.767 11.1092C66.809 11.0321 66.831 10.9456 66.8309 10.8576C66.8314 10.7637 66.8036 10.6717 66.7512 10.594C66.6988 10.5162 66.6241 10.4562 66.5372 10.422C66.2354 10.2883 65.9223 10.1821 65.6017 10.1045C65.2327 10.0197 64.8701 9.90832 64.5169 9.77127C64.2359 9.65702 63.9864 9.47629 63.7896 9.24441C63.5752 8.97365 63.4669 8.63319 63.4853 8.28749C63.4838 7.9649 63.5828 7.64994 63.7683 7.38687C63.9745 7.1003 64.2558 6.87698 64.5807 6.7418C64.9747 6.57572 65.399 6.49498 65.8261 6.50482C66.4341 6.47317 67.0333 6.66212 67.5145 7.03732C67.7235 7.21453 67.8933 7.4338 68.013 7.68101C68.1326 7.92822 68.1995 8.19789 68.2094 8.47268H66.7772C66.7702 8.36338 66.7404 8.25678 66.6898 8.1598C66.6392 8.06282 66.5689 7.97764 66.4834 7.9098C66.2869 7.78414 66.0609 7.71279 65.8283 7.7029C65.5956 7.69302 65.3644 7.74496 65.1581 7.85351C65.0886 7.89838 65.032 7.96061 64.9936 8.03412C64.9553 8.10763 64.9366 8.18989 64.9393 8.27286C64.9387 8.37035 64.9668 8.46584 65.0201 8.54728C65.0734 8.62872 65.1494 8.69247 65.2386 8.73049C65.5367 8.86871 65.8483 8.97493 66.1685 9.0474C66.5285 9.13348 66.882 9.24502 67.2264 9.38119C67.506 9.49714 67.7535 9.67968 67.9476 9.91312C68.1609 10.1831 68.2727 10.5202 68.2631 10.865C68.2671 11.1954 68.1681 11.5189 67.98 11.7898C67.7744 12.0757 67.4929 12.2975 67.1677 12.4298C66.7764 12.5912 66.3563 12.6698 65.9335 12.6606C65.485 12.668 65.0402 12.5781 64.6294 12.3971" fill="#AB2346"/>
<path d="M71.7619 6.77945C72.1196 6.59185 72.5183 6.49759 72.9216 6.50532C73.4054 6.49922 73.8811 6.62947 74.2951 6.88133C74.7118 7.14007 75.0487 7.51039 75.268 7.95082C75.5149 8.44965 75.6378 9.00131 75.6261 9.55843C75.637 10.1189 75.5142 10.6738 75.268 11.1767C75.0494 11.6235 74.7128 12.0011 74.2951 12.2682C73.8835 12.5268 73.4069 12.6612 72.9216 12.6554C72.5224 12.6638 72.1275 12.5713 71.773 12.3864C71.459 12.2222 71.1838 11.9918 70.9663 11.7109V15.399H69.4697V6.60214H70.9663V7.46224C71.1753 7.17541 71.4473 6.94161 71.7619 6.77945ZM73.8783 8.62854C73.7448 8.37961 73.5451 8.17301 73.3015 8.03188C73.0656 7.89638 72.7983 7.82589 72.5267 7.82755C72.2578 7.82692 71.9937 7.89946 71.7624 8.03751C71.5184 8.18287 71.3188 8.393 71.1856 8.64486C71.0415 8.93541 70.9665 9.25568 70.9665 9.58039C70.9665 9.9051 71.0415 10.2254 71.1856 10.5159C71.3189 10.7677 71.5185 10.9778 71.7624 11.1233C71.9959 11.2612 72.262 11.3334 72.5327 11.3325C72.8035 11.3315 73.069 11.2573 73.3015 11.1176C73.545 10.9691 73.7443 10.7574 73.8783 10.5046C74.0307 10.2133 74.1062 9.88752 74.0976 9.55843C74.1059 9.2344 74.0303 8.91434 73.8783 8.62854Z" fill="#AB2346"/>
<path d="M82.1559 10.0318H77.8273C77.84 10.4152 78.0005 10.7786 78.2749 11.045C78.5395 11.2894 78.8882 11.4206 79.2472 11.4109C79.4942 11.4256 79.7399 11.3646 79.9517 11.2359C80.1635 11.1071 80.3314 10.9167 80.4333 10.6898H82.0473C81.8815 11.2564 81.5363 11.753 81.0644 12.1043C80.5474 12.4839 79.9193 12.6786 79.2797 12.6576C78.7443 12.6663 78.2159 12.5348 77.7462 12.276C77.2976 12.0256 76.9303 11.6503 76.6883 11.1953C76.428 10.6987 76.2974 10.1438 76.3089 9.58259C76.2966 9.01828 76.4253 8.45989 76.6832 7.95865C76.9205 7.50512 77.2846 7.13139 77.7305 6.88354C78.2036 6.63802 78.7279 6.50902 79.2602 6.50716C79.7925 6.5053 80.3177 6.63063 80.7925 6.87284C81.2309 7.10989 81.5912 7.4704 81.8292 7.91024C82.0813 8.3845 82.2082 8.91594 82.1978 9.45369C82.1993 9.64797 82.1851 9.84205 82.1553 10.034M80.6481 9.02082C80.6513 8.84447 80.6155 8.6696 80.5434 8.50881C80.4714 8.34802 80.3648 8.2053 80.2313 8.09093C79.9541 7.85555 79.6004 7.73112 79.2377 7.74138C78.8947 7.73086 78.5604 7.85155 78.3023 8.07911C78.0388 8.3253 77.8735 8.65971 77.8374 9.0197L80.6481 9.02082Z" fill="#AB2346"/>
<path d="M83.4394 7.96203C83.6767 7.51202 84.0362 7.13916 84.4761 6.88691C84.9396 6.62681 85.4634 6.49512 85.9939 6.50527C86.6456 6.47975 87.287 6.67477 87.8156 7.05916C88.3088 7.44719 88.651 7.99695 88.7829 8.61273H87.1688C87.0932 8.36867 86.9413 8.15566 86.7358 8.00537C86.5139 7.85271 86.2492 7.77558 85.9805 7.78528C85.7867 7.77727 85.5937 7.81546 85.4173 7.89675C85.241 7.97804 85.0862 8.10013 84.9656 8.25305C84.721 8.65035 84.5914 9.10846 84.5914 9.57583C84.5914 10.0432 84.721 10.5013 84.9656 10.8986C85.0862 11.0515 85.241 11.1736 85.4173 11.2549C85.5937 11.3362 85.7867 11.3744 85.9805 11.3664C86.2416 11.3889 86.5024 11.3198 86.7186 11.1708C86.9349 11.0218 87.0931 10.8022 87.1666 10.5491H88.7806C88.6398 11.1582 88.2966 11.7006 87.8077 12.0869C87.2844 12.4795 86.6435 12.6805 85.9911 12.6565C85.4606 12.6667 84.9368 12.535 84.4734 12.2749C84.0335 12.0225 83.674 11.6497 83.4366 11.1998C83.1905 10.6962 83.0625 10.1426 83.0625 9.58146C83.0625 9.02033 83.1905 8.46668 83.4366 7.96316" fill="#AB2346"/>
<path d="M91.7271 7.83878V10.7208C91.7197 10.7995 91.7288 10.8789 91.7537 10.9539C91.7785 11.0289 91.8186 11.0979 91.8714 11.1564C92.0117 11.2595 92.1847 11.3072 92.3576 11.2904H93.0524V12.5592H92.112C90.8509 12.5592 90.2204 11.9428 90.2204 10.7101V7.83934H89.5127V6.60099H90.2182V5.12903H91.7248V6.60211H93.0502V7.84046L91.7271 7.83878Z" fill="#AB2346"/>
<path d="M96.5286 6.78504C96.8529 6.60201 97.2198 6.50914 97.5916 6.51598V8.09826H97.196C96.9963 8.0656 96.7916 8.08232 96.5998 8.14696C96.4079 8.21161 96.2345 8.32225 96.0946 8.46934C95.9547 8.61643 95.8524 8.79555 95.7966 8.99126C95.7408 9.18697 95.7332 9.39339 95.7744 9.59272V12.5603H94.2778V6.6021H95.7744V7.52692C95.959 7.21929 96.2189 6.96398 96.5286 6.78504Z" fill="#AB2346"/>
<path d="M104.214 6.60211V12.5592H102.707V11.8066C102.51 12.0687 102.251 12.2774 101.954 12.4139C101.638 12.562 101.293 12.6372 100.944 12.634C100.516 12.6431 100.092 12.5413 99.7134 12.3385C99.3541 12.1383 99.0621 11.8352 98.8742 11.4677C98.6618 11.0432 98.5572 10.5722 98.5699 10.0971V6.60211H100.066V9.88206C100.04 10.2777 100.166 10.6684 100.419 10.9729C100.543 11.102 100.693 11.2029 100.859 11.2688C101.025 11.3346 101.203 11.3639 101.381 11.3546C101.56 11.3646 101.74 11.3357 101.908 11.2698C102.076 11.204 102.227 11.1028 102.353 10.9729C102.605 10.6684 102.732 10.2777 102.705 9.88206V6.60211H104.214Z" fill="#AB2346"/>
<path d="M114.887 7.1881C115.119 7.4393 115.297 7.7351 115.412 8.05764C115.527 8.38018 115.576 8.72278 115.555 9.06477V12.5592H114.059V9.26853C114.086 8.87926 113.959 8.49517 113.706 8.19905C113.581 8.07295 113.43 7.97478 113.264 7.91088C113.099 7.84698 112.922 7.81878 112.744 7.8281C112.566 7.81917 112.389 7.84753 112.222 7.91139C112.056 7.97524 111.904 8.0732 111.777 8.19905C111.651 8.34488 111.554 8.51441 111.492 8.69792C111.431 8.88144 111.406 9.07534 111.419 9.26853V12.5592H109.923V9.26853C109.949 8.87937 109.823 8.49541 109.571 8.19905C109.445 8.07298 109.295 7.97483 109.129 7.91093C108.963 7.84704 108.786 7.81882 108.609 7.8281C108.429 7.81843 108.25 7.84641 108.081 7.91026C107.913 7.97412 107.76 8.07245 107.631 8.19905C107.504 8.34492 107.408 8.51445 107.346 8.69795C107.285 8.88146 107.26 9.07534 107.273 9.26853V12.5592H105.776V6.60213H107.273V7.32263C107.47 7.0683 107.725 6.86553 108.016 6.73159C108.329 6.58597 108.67 6.51251 109.015 6.51657C109.446 6.50897 109.873 6.61059 110.255 6.81209C110.613 7.00384 110.906 7.29754 111.099 7.65642C111.297 7.30741 111.588 7.02085 111.938 6.82897C112.406 6.57373 112.942 6.47128 113.47 6.53583C113.999 6.60038 114.494 6.82873 114.888 7.18922" fill="#AB2346"/>
</svg>
