<svg width="850" height="1046" viewBox="0 0 850 1046" fill="none" xmlns="http://www.w3.org/2000/svg">
<g filter="url(#filter0_f_1533_282514)">
<path d="M257.007 749.961C151.619 502.768 193.001 655.608 279.629 377.241C274.663 328.324 299.769 279.302 302.251 226.608C304.734 173.914 354.945 191.57 495.371 244.264C635.796 296.958 522.959 317.098 612.07 428.831C701.18 540.564 625.864 706.095 620.898 712.165C615.932 718.234 362.394 997.153 257.007 749.961Z" fill="url(#paint0_linear_1533_282514)" fill-opacity="0.5"/>
<path d="M257.007 749.961C151.619 502.768 193.001 655.608 279.629 377.241C274.663 328.324 299.769 279.302 302.251 226.608C304.734 173.914 354.945 191.57 495.371 244.264C635.796 296.958 522.959 317.098 612.07 428.831C701.18 540.564 625.864 706.095 620.898 712.165C615.932 718.234 362.394 997.153 257.007 749.961Z" stroke="black" stroke-width="0.551769"/>
</g>
<defs>
<filter id="filter0_f_1533_282514" x="0.420074" y="0.879303" width="848.873" height="1045.05" filterUnits="userSpaceOnUse" color-interpolation-filters="sRGB">
<feFlood flood-opacity="0" result="BackgroundImageFix"/>
<feBlend mode="normal" in="SourceGraphic" in2="BackgroundImageFix" result="shape"/>
<feGaussianBlur stdDeviation="96.8355" result="effect1_foregroundBlur_1533_282514"/>
</filter>
<linearGradient id="paint0_linear_1533_282514" x1="424.857" y1="194.826" x2="424.857" y2="851.987" gradientUnits="userSpaceOnUse">
<stop stop-color="white"/>
<stop offset="1" stop-color="#D9D2BC"/>
</linearGradient>
</defs>
</svg>
