<svg width="11" height="10" viewBox="0 0 11 10" fill="none" xmlns="http://www.w3.org/2000/svg">
<path d="M0.814697 1.22476C0.814697 0.923814 0.922807 0.67554 1.13902 0.479937C1.35523 0.284325 1.63631 0.186523 1.98225 0.186523C2.32202 0.186523 2.59691 0.282817 2.80695 0.475423C3.02316 0.674042 3.13127 0.932842 3.13127 1.25184C3.13127 1.54074 3.02626 1.78148 2.81622 1.97409C2.60001 2.17271 2.31584 2.27202 1.96372 2.27202H1.95445C1.61469 2.27202 1.33979 2.17271 1.12975 1.97409C0.919712 1.77547 0.814697 1.52569 0.814697 1.22476ZM0.935159 9.12436V3.09358H2.99228V9.12436H0.935159ZM4.13204 9.12436H6.18916V5.75687C6.18916 5.54621 6.21387 5.3837 6.26329 5.26935C6.34977 5.06471 6.48105 4.89167 6.65711 4.75024C6.83317 4.60879 7.05401 4.53808 7.31965 4.53808C8.01153 4.53808 8.35747 4.99249 8.35747 5.90132V9.12436H10.4146V5.66659C10.4146 4.77581 10.1984 4.10021 9.76595 3.63978C9.33352 3.17934 8.76211 2.94913 8.05169 2.94913C7.25478 2.94913 6.63394 3.28317 6.18916 3.95125V3.9693H6.17989L6.18916 3.95125V3.09358H4.13204C4.14439 3.28617 4.15057 3.88504 4.15057 4.89017C4.15057 5.8953 4.14439 7.30669 4.13204 9.12436Z" fill="#003A2B"/>
</svg>
