<svg width="333" height="410" viewBox="0 0 333 410" fill="none" xmlns="http://www.w3.org/2000/svg">
<g filter="url(#filter0_f_1586_96991)">
<path d="M101.173 293.85C59.9493 197.157 76.1367 256.943 110.022 148.055C108.08 128.921 117.9 109.745 118.871 89.133C119.843 68.521 139.483 75.4276 194.413 96.0396C249.342 116.652 205.204 124.53 240.061 168.236C274.918 211.942 245.457 276.691 243.515 279.066C241.572 281.44 142.397 390.543 101.173 293.85Z" fill="url(#paint0_linear_1586_96991)" fill-opacity="0.5"/>
<path d="M101.173 293.85C59.9493 197.157 76.1367 256.943 110.022 148.055C108.08 128.921 117.9 109.745 118.871 89.133C119.843 68.521 139.483 75.4276 194.413 96.0396C249.342 116.652 205.204 124.53 240.061 168.236C274.918 211.942 245.457 276.691 243.515 279.066C241.572 281.44 142.397 390.543 101.173 293.85Z" stroke="black" stroke-width="0.215833"/>
</g>
<defs>
<filter id="filter0_f_1586_96991" x="0.805779" y="0.835564" width="332.049" height="408.789" filterUnits="userSpaceOnUse" color-interpolation-filters="sRGB">
<feFlood flood-opacity="0" result="BackgroundImageFix"/>
<feBlend mode="normal" in="SourceGraphic" in2="BackgroundImageFix" result="shape"/>
<feGaussianBlur stdDeviation="37.8786" result="effect1_foregroundBlur_1586_96991"/>
</filter>
<linearGradient id="paint0_linear_1586_96991" x1="166.83" y1="76.7012" x2="166.83" y2="333.759" gradientUnits="userSpaceOnUse">
<stop stop-color="#BBD432"/>
<stop offset="1" stop-color="#F0C024"/>
</linearGradient>
</defs>
</svg>
