<svg width="453" height="559" viewBox="0 0 453 559" fill="none" xmlns="http://www.w3.org/2000/svg">
<g filter="url(#filter0_f_1523_3175)">
<path d="M125.333 411.564C61.8328 267.231 86.7672 356.472 138.963 193.937C135.971 165.375 151.098 136.751 152.594 105.984C154.09 75.2162 184.344 85.5258 268.955 116.293C353.566 147.061 285.578 158.82 339.27 224.06C392.962 289.3 347.582 385.951 344.59 389.495C341.598 393.039 188.832 555.897 125.333 411.564Z" fill="url(#paint0_linear_1523_3175)" fill-opacity="0.5"/>
<path d="M125.333 411.564C61.8328 267.231 86.7672 356.472 138.963 193.937C135.971 165.375 151.098 136.751 152.594 105.984C154.09 75.2162 184.344 85.5258 268.955 116.293C353.566 147.061 285.578 158.82 339.27 224.06C392.962 289.3 347.582 385.951 344.59 389.495C341.598 393.039 188.832 555.897 125.333 411.564Z" stroke="black" stroke-width="0.247554"/>
</g>
<defs>
<filter id="filter0_f_1523_3175" x="0.574776" y="0.411201" width="451.786" height="557.74" filterUnits="userSpaceOnUse" color-interpolation-filters="sRGB">
<feFlood flood-opacity="0" result="BackgroundImageFix"/>
<feBlend mode="normal" in="SourceGraphic" in2="BackgroundImageFix" result="shape"/>
<feGaussianBlur stdDeviation="43.4458" result="effect1_foregroundBlur_1523_3175"/>
</filter>
<linearGradient id="paint0_linear_1523_3175" x1="226.468" y1="87.4268" x2="226.468" y2="471.136" gradientUnits="userSpaceOnUse">
<stop stop-color="#358F43"/>
<stop offset="1" stop-color="#F0C024"/>
</linearGradient>
</defs>
</svg>
