<svg width="17" height="16" viewBox="0 0 17 16" fill="none" xmlns="http://www.w3.org/2000/svg">
<path d="M0.583008 2.30102C0.583008 1.79596 0.764444 1.37929 1.1273 1.05102C1.49016 0.72273 1.96189 0.558594 2.54247 0.558594C3.11269 0.558594 3.57403 0.7202 3.92653 1.04344C4.28939 1.37678 4.47082 1.81111 4.47082 2.34647C4.47082 2.83132 4.29458 3.23535 3.94208 3.55859C3.57922 3.89193 3.10231 4.05859 2.51136 4.05859H2.49581C1.9256 4.05859 1.46425 3.89193 1.11175 3.55859C0.75925 3.22526 0.583008 2.80606 0.583008 2.30102ZM0.785174 15.5586V5.43738H4.23756V15.5586H0.785174ZM6.15036 15.5586H9.60274V9.90708C9.60274 9.55353 9.64422 9.28081 9.72715 9.0889C9.87229 8.74546 10.0926 8.45505 10.3881 8.21768C10.6836 7.98031 11.0542 7.86162 11.5 7.86162C12.6612 7.86162 13.2417 8.62425 13.2417 10.1495V15.5586H16.6941V9.75556C16.6941 8.26061 16.3313 7.12678 15.6055 6.35405C14.8798 5.58132 13.9208 5.19496 12.7285 5.19496C11.3911 5.19496 10.3492 5.75556 9.60274 6.87678V6.90708H9.58719L9.60274 6.87678V5.43738H6.15036C6.17109 5.76061 6.18146 6.76565 6.18146 8.45253C6.18146 10.1394 6.17109 12.5081 6.15036 15.5586Z" fill="#003A2B"/>
</svg>
