<svg width="18" height="16" viewBox="0 0 18 16" fill="none" xmlns="http://www.w3.org/2000/svg">
<path d="M0.916016 2.10766C0.916016 1.6026 1.09745 1.18593 1.46031 0.857659C1.82317 0.529371 2.2949 0.365234 2.87548 0.365234C3.44569 0.365234 3.90704 0.52684 4.25954 0.850083C4.6224 1.18342 4.80383 1.61775 4.80383 2.15311C4.80383 2.63796 4.62759 3.04199 4.27509 3.36523C3.91223 3.69857 3.43532 3.86523 2.84437 3.86523H2.82882C2.2586 3.86523 1.79726 3.69857 1.44476 3.36523C1.09226 3.0319 0.916016 2.6127 0.916016 2.10766ZM1.11818 15.3652V5.24402H4.57056V15.3652H1.11818ZM6.48337 15.3652H9.93575V9.71372C9.93575 9.36017 9.97722 9.08745 10.0602 8.89554C10.2053 8.5521 10.4256 8.26169 10.7211 8.02433C11.0166 7.78695 11.3872 7.66826 11.833 7.66826C12.9942 7.66826 13.5747 8.43089 13.5747 9.95614V15.3652H17.0271V9.5622C17.0271 8.06725 16.6643 6.93342 15.9385 6.16069C15.2128 5.38796 14.2538 5.0016 13.0616 5.0016C11.7241 5.0016 10.6822 5.5622 9.93575 6.68342V6.71372H9.9202L9.93575 6.68342V5.24402H6.48337C6.5041 5.56725 6.51447 6.5723 6.51447 8.25917C6.51447 9.94604 6.5041 12.3147 6.48337 15.3652Z" fill="#003A2B"/>
</svg>
