<svg width="333" height="410" viewBox="0 0 333 410" fill="none" xmlns="http://www.w3.org/2000/svg">
<g filter="url(#filter0_f_1586_96992)">
<path d="M100.443 293.661C59.2193 196.968 75.4067 256.753 109.292 147.866C107.35 128.731 117.17 109.556 118.142 88.9435C119.113 68.3315 138.753 75.2382 193.683 95.8502C248.612 116.462 204.474 124.34 239.331 168.046C274.188 211.752 244.727 276.502 242.785 278.876C240.842 281.25 141.667 390.354 100.443 293.661Z" fill="url(#paint0_linear_1586_96992)" fill-opacity="0.3"/>
<path d="M100.443 293.661C59.2193 196.968 75.4067 256.753 109.292 147.866C107.35 128.731 117.17 109.556 118.142 88.9435C119.113 68.3315 138.753 75.2382 193.683 95.8502C248.612 116.462 204.474 124.34 239.331 168.046C274.188 211.752 244.727 276.502 242.785 278.876C240.842 281.25 141.667 390.354 100.443 293.661Z" stroke="black" stroke-width="0.215833"/>
</g>
<defs>
<filter id="filter0_f_1586_96992" x="0.075798" y="0.646111" width="332.049" height="408.789" filterUnits="userSpaceOnUse" color-interpolation-filters="sRGB">
<feFlood flood-opacity="0" result="BackgroundImageFix"/>
<feBlend mode="normal" in="SourceGraphic" in2="BackgroundImageFix" result="shape"/>
<feGaussianBlur stdDeviation="37.8786" result="effect1_foregroundBlur_1586_96992"/>
</filter>
<linearGradient id="paint0_linear_1586_96992" x1="166.1" y1="76.5117" x2="166.1" y2="333.57" gradientUnits="userSpaceOnUse">
<stop stop-color="#BBD432"/>
<stop offset="1" stop-color="#F0C024"/>
</linearGradient>
</defs>
</svg>
