<svg width="1058" height="1302" viewBox="0 0 1058 1302" fill="none" xmlns="http://www.w3.org/2000/svg">
<g filter="url(#filter0_f_1686_4109)">
<path d="M320.433 933.296C189.208 625.5 240.736 815.812 348.602 469.197C342.419 408.288 373.679 347.247 376.771 281.634C379.863 216.021 442.384 238.007 617.237 303.619C792.089 369.232 651.589 394.309 762.547 533.436C873.504 672.563 779.723 878.676 773.539 886.234C767.356 893.791 451.659 1241.09 320.433 933.296Z" fill="url(#paint0_linear_1686_4109)" fill-opacity="0.5"/>
<path d="M320.433 933.296C189.208 625.5 240.736 815.812 348.602 469.197C342.419 408.288 373.679 347.247 376.771 281.634C379.863 216.021 442.384 238.007 617.237 303.619C792.089 369.232 651.589 394.309 762.547 533.436C873.504 672.563 779.723 878.676 773.539 886.234C767.356 893.791 451.659 1241.09 320.433 933.296Z" stroke="black" stroke-width="0.687045"/>
</g>
<defs>
<filter id="filter0_f_1686_4109" x="0.940384" y="0.563919" width="1056.99" height="1301.27" filterUnits="userSpaceOnUse" color-interpolation-filters="sRGB">
<feFlood flood-opacity="0" result="BackgroundImageFix"/>
<feBlend mode="normal" in="SourceGraphic" in2="BackgroundImageFix" result="shape"/>
<feGaussianBlur stdDeviation="120.576" result="effect1_foregroundBlur_1686_4109"/>
</filter>
<linearGradient id="paint0_linear_1686_4109" x1="529.435" y1="242.061" x2="529.435" y2="1060.34" gradientUnits="userSpaceOnUse">
<stop stop-color="white"/>
<stop offset="1" stop-color="#D9D2BC"/>
</linearGradient>
</defs>
</svg>
