<svg width="13" height="11" viewBox="0 0 13 11" fill="none" xmlns="http://www.w3.org/2000/svg">
<path d="M11.7393 2.69751C11.7469 2.80758 11.7469 2.91817 11.7469 3.02928C11.7469 6.4236 9.24762 10.3375 4.67897 10.3375V10.3359C3.32908 10.3378 2.00717 9.93798 0.871094 9.18413C1.52146 9.26516 2.18089 9.21283 2.81169 9.03015C3.44248 8.84746 4.03226 8.538 4.5473 8.11945C4.02891 8.1093 3.52654 7.93189 3.11046 7.61202C2.69437 7.29215 2.38537 6.84582 2.22665 6.33544C2.59881 6.40963 2.98245 6.39464 3.34813 6.29162C2.786 6.17413 2.28047 5.85922 1.91727 5.40029C1.55407 4.94136 1.35556 4.36666 1.3554 3.77366V3.74132C1.70088 3.94039 2.0876 4.0506 2.48293 4.06265C1.95699 3.69951 1.58465 3.14278 1.44172 2.50578C1.29879 1.86877 1.39601 1.19939 1.71359 0.633897C2.33744 1.42739 3.11572 2.07635 3.99789 2.53863C4.88005 3.00091 5.84639 3.26618 6.83415 3.31722C6.7111 2.7668 6.7668 2.18979 6.99264 1.67538C7.21847 1.16096 7.60188 0.73777 8.08359 0.471209C8.56531 0.204648 9.11852 0.109554 9.65774 0.200623C10.197 0.291692 10.6921 0.563855 11.0668 0.97505C11.6233 0.861572 12.157 0.650573 12.6448 0.351167C12.4594 0.946087 12.0713 1.45107 11.5526 1.77212C12.0449 1.71184 12.5256 1.57556 12.9788 1.36785C12.6452 1.88364 12.2255 2.33389 11.7393 2.69751Z" fill="#003A2B"/>
</svg>
