<svg width="1058" height="1302" viewBox="0 0 1058 1302" fill="none" xmlns="http://www.w3.org/2000/svg">
<g filter="url(#filter0_f_1586_96743)">
<path d="M320.135 933.054C188.91 625.258 240.438 815.569 348.304 468.955C342.121 408.046 373.381 347.005 376.473 281.392C379.565 215.779 442.086 237.764 616.939 303.377C791.792 368.99 651.291 394.067 762.249 533.194C873.207 672.32 779.425 878.434 773.242 885.991C767.058 893.549 451.361 1240.85 320.135 933.054Z" fill="url(#paint0_linear_1586_96743)" fill-opacity="0.3"/>
<path d="M320.135 933.054C188.91 625.258 240.438 815.569 348.304 468.955C342.121 408.046 373.381 347.005 376.473 281.392C379.565 215.779 442.086 237.764 616.939 303.377C791.792 368.99 651.291 394.067 762.249 533.194C873.207 672.32 779.425 878.434 773.242 885.991C767.058 893.549 451.361 1240.85 320.135 933.054Z" stroke="black" stroke-width="0.687045"/>
</g>
<defs>
<filter id="filter0_f_1586_96743" x="0.642044" y="0.321732" width="1056.99" height="1301.27" filterUnits="userSpaceOnUse" color-interpolation-filters="sRGB">
<feFlood flood-opacity="0" result="BackgroundImageFix"/>
<feBlend mode="normal" in="SourceGraphic" in2="BackgroundImageFix" result="shape"/>
<feGaussianBlur stdDeviation="120.576" result="effect1_foregroundBlur_1586_96743"/>
</filter>
<linearGradient id="paint0_linear_1586_96743" x1="529.137" y1="241.818" x2="529.137" y2="1060.09" gradientUnits="userSpaceOnUse">
<stop stop-color="#BBD432"/>
<stop offset="1" stop-color="#F0C024"/>
</linearGradient>
</defs>
</svg>
