<svg width="398" height="490" viewBox="0 0 398 490" fill="none" xmlns="http://www.w3.org/2000/svg">
<g filter="url(#filter0_f_1533_282382)">
<path d="M120.658 350.993C71.3306 235.292 90.7001 306.83 131.247 176.537C128.923 153.641 140.674 130.696 141.836 106.032C142.998 81.368 166.5 89.6324 232.227 114.296C297.955 138.96 245.14 148.387 286.849 200.685C328.559 252.982 293.306 330.461 290.982 333.302C288.657 336.143 169.986 466.694 120.658 350.993Z" fill="url(#paint0_linear_1533_282382)" fill-opacity="0.3"/>
<path d="M120.658 350.993C71.3306 235.292 90.7001 306.83 131.247 176.537C128.923 153.641 140.674 130.696 141.836 106.032C142.998 81.368 166.5 89.6324 232.227 114.296C297.955 138.96 245.14 148.387 286.849 200.685C328.559 252.982 293.306 330.461 290.982 333.302C288.657 336.143 169.986 466.694 120.658 350.993Z" stroke="black" stroke-width="0.258261"/>
</g>
<defs>
<filter id="filter0_f_1533_282382" x="0.560555" y="0.377693" width="397.324" height="489.148" filterUnits="userSpaceOnUse" color-interpolation-filters="sRGB">
<feFlood flood-opacity="0" result="BackgroundImageFix"/>
<feBlend mode="normal" in="SourceGraphic" in2="BackgroundImageFix" result="shape"/>
<feGaussianBlur stdDeviation="45.3248" result="effect1_foregroundBlur_1533_282382"/>
</filter>
<linearGradient id="paint0_linear_1533_282382" x1="199.222" y1="91.1562" x2="199.222" y2="398.747" gradientUnits="userSpaceOnUse">
<stop stop-color="#BBD432"/>
<stop offset="1" stop-color="#F0C024"/>
</linearGradient>
</defs>
</svg>
