<svg width="3149" height="2566" viewBox="0 0 3149 2566" fill="none" xmlns="http://www.w3.org/2000/svg">
<g filter="url(#filter0_f_1565_56864)">
<path d="M1008.78 1415.8C1096.7 1244.77 1334.66 1188.98 1504.42 1134.54C1517.95 1122.44 1524.05 1107.27 1524.8 1074.78C1526.18 1015.25 1592.68 997.897 1644.24 1003.17C1675.13 1006.33 1762.18 1003.26 1773.46 1039.89C1777.55 1053.15 1783.26 1060.93 1793.22 1070.83C1812.26 1089.73 1836.84 1108.68 1864.64 1109.32C1935.23 1110.96 2007.3 1051.42 2082.94 1098.85C2126.65 1126.27 2153 1254.16 2146.34 1294.09C2124.67 1424.12 1884.2 1482.48 1782.7 1513.03C1604.79 1566.58 1390.64 1587.1 1212.58 1531.02C1154.02 1512.58 962.419 1505.97 1008.78 1415.8Z" fill="url(#paint0_linear_1565_56864)"/>
<path d="M1513.32 1131.67C1343.08 1187.05 1098.25 1241.76 1008.78 1415.8C962.419 1505.97 1154.02 1512.58 1212.58 1531.02C1390.64 1587.1 1604.79 1566.58 1782.7 1513.03C1884.2 1482.48 2124.67 1424.12 2146.34 1294.09C2153 1254.17 2126.65 1126.27 2082.94 1098.85C2007.3 1051.42 1935.23 1110.96 1864.64 1109.32C1836.84 1108.68 1812.26 1089.73 1793.22 1070.83C1783.26 1060.93 1777.55 1053.15 1773.46 1039.89C1762.18 1003.26 1675.13 1006.33 1644.24 1003.17C1592.68 997.897 1526.18 1015.25 1524.8 1074.78C1523.47 1132.2 1505.45 1135.51 1459.2 1163.44" stroke="white" stroke-width="3" stroke-linecap="round"/>
</g>
<defs>
<filter id="filter0_f_1565_56864" x="0.11377" y="0.776367" width="3148.75" height="2565.1" filterUnits="userSpaceOnUse" color-interpolation-filters="sRGB">
<feFlood flood-opacity="0" result="BackgroundImageFix"/>
<feBlend mode="normal" in="SourceGraphic" in2="BackgroundImageFix" result="shape"/>
<feGaussianBlur stdDeviation="500" result="effect1_foregroundBlur_1565_56864"/>
</filter>
<linearGradient id="paint0_linear_1565_56864" x1="1753.26" y1="1088.91" x2="1049.66" y2="1629.5" gradientUnits="userSpaceOnUse">
<stop stop-color="#19490F"/>
<stop offset="1" stop-color="#F0C024"/>
</linearGradient>
</defs>
</svg>
