<svg width="12" height="12" viewBox="0 0 12 12" fill="none" xmlns="http://www.w3.org/2000/svg">
<path d="M0.648193 2.07499C0.648193 1.72433 0.774163 1.43504 1.02609 1.20712C1.27802 0.979193 1.60554 0.865234 2.00863 0.865234C2.40453 0.865234 2.72484 0.977436 2.96958 1.20186C3.22151 1.43329 3.34748 1.73485 3.34748 2.10655C3.34748 2.44317 3.22511 2.72369 2.98037 2.94811C2.72844 3.17954 2.39733 3.29526 1.98704 3.29526H1.97624C1.58034 3.29526 1.26003 3.17954 1.0153 2.94811C0.770557 2.71668 0.648193 2.42564 0.648193 2.07499ZM0.788556 11.2796V4.25254H3.18552V11.2796H0.788556ZM4.51357 11.2796H6.91053V7.35582C6.91053 7.11035 6.93932 6.921 6.99691 6.78776C7.09768 6.54931 7.25064 6.34768 7.45578 6.18288C7.66093 6.01807 7.91826 5.93567 8.22778 5.93567C9.03397 5.93567 9.43706 6.46516 9.43706 7.52413V11.2796H11.834V7.25062C11.834 6.21269 11.5821 5.42547 11.0782 4.88898C10.5744 4.35248 9.90854 4.08423 9.08075 4.08423C8.1522 4.08423 7.42879 4.47345 6.91053 5.2519V5.27294H6.89973L6.91053 5.2519V4.25254H4.51357C4.52796 4.47696 4.53516 5.17475 4.53516 6.34594C4.53516 7.51712 4.52796 9.16167 4.51357 11.2796Z" fill="#003A2B"/>
</svg>
