<svg width="1755" height="2166" viewBox="0 0 1755 2166" fill="none" xmlns="http://www.w3.org/2000/svg">
<g filter="url(#filter0_f_1523_2758)">
<path d="M485.071 1596.48C238.554 1036.16 335.354 1382.61 537.988 751.62C526.372 640.738 585.097 529.616 590.905 410.172C596.713 290.728 714.163 330.751 1042.64 450.195C1371.11 569.639 1107.17 615.291 1315.61 868.562C1524.05 1121.83 1347.88 1497.05 1336.26 1510.81C1324.65 1524.57 731.587 2156.81 485.071 1596.48Z" fill="url(#paint0_linear_1523_2758)" fill-opacity="0.5"/>
<path d="M485.071 1596.48C238.554 1036.16 335.354 1382.61 537.988 751.62C526.372 640.738 585.097 529.616 590.905 410.172C596.713 290.728 714.163 330.751 1042.64 450.195C1371.11 569.639 1107.17 615.291 1315.61 868.562C1524.05 1121.83 1347.88 1497.05 1336.26 1510.81C1324.65 1524.57 731.587 2156.81 485.071 1596.48Z" stroke="black" stroke-width="0.961046"/>
</g>
<defs>
<filter id="filter0_f_1523_2758" x="0.740387" y="0.323151" width="1753.91" height="2165.24" filterUnits="userSpaceOnUse" color-interpolation-filters="sRGB">
<feFlood flood-opacity="0" result="BackgroundImageFix"/>
<feBlend mode="normal" in="SourceGraphic" in2="BackgroundImageFix" result="shape"/>
<feGaussianBlur stdDeviation="168.664" result="effect1_foregroundBlur_1523_2758"/>
</filter>
<linearGradient id="paint0_linear_1523_2758" x1="877.695" y1="338.131" x2="877.695" y2="1827.75" gradientUnits="userSpaceOnUse">
<stop stop-color="#358F43"/>
<stop offset="1" stop-color="#F0C024"/>
</linearGradient>
</defs>
</svg>
