<svg width="1058" height="1302" viewBox="0 0 1058 1302" fill="none" xmlns="http://www.w3.org/2000/svg">
<g filter="url(#filter0_f_1563_41353)">
<path d="M319.675 933.015C188.449 625.219 239.978 815.53 347.844 468.916C341.66 408.007 372.921 346.965 376.013 281.353C379.104 215.74 441.625 237.725 616.478 303.338C791.331 368.951 650.831 394.028 761.788 533.155C872.746 672.281 778.965 878.395 772.781 885.952C766.598 893.51 450.901 1240.81 319.675 933.015Z" fill="url(#paint0_linear_1563_41353)" fill-opacity="0.5"/>
<path d="M319.675 933.015C188.449 625.219 239.978 815.53 347.844 468.916C341.66 408.007 372.921 346.965 376.013 281.353C379.104 215.74 441.625 237.725 616.478 303.338C791.331 368.951 650.831 394.028 761.788 533.155C872.746 672.281 778.965 878.395 772.781 885.952C766.598 893.51 450.901 1240.81 319.675 933.015Z" stroke="black" stroke-width="0.687045"/>
</g>
<defs>
<filter id="filter0_f_1563_41353" x="0.182083" y="0.282669" width="1056.99" height="1301.27" filterUnits="userSpaceOnUse" color-interpolation-filters="sRGB">
<feFlood flood-opacity="0" result="BackgroundImageFix"/>
<feBlend mode="normal" in="SourceGraphic" in2="BackgroundImageFix" result="shape"/>
<feGaussianBlur stdDeviation="120.576" result="effect1_foregroundBlur_1563_41353"/>
</filter>
<linearGradient id="paint0_linear_1563_41353" x1="528.677" y1="241.779" x2="528.677" y2="1060.05" gradientUnits="userSpaceOnUse">
<stop stop-color="#BBD432"/>
<stop offset="1" stop-color="#F0C024"/>
</linearGradient>
</defs>
</svg>
