<svg width="333" height="410" viewBox="0 0 333 410" fill="none" xmlns="http://www.w3.org/2000/svg">
<g filter="url(#filter0_f_1533_282431)">
<path d="M100.58 293.959C59.356 197.266 75.5434 257.051 109.429 148.164C107.487 129.029 117.307 109.853 118.278 89.2414C119.249 68.6294 138.89 75.536 193.82 96.148C248.749 116.76 204.611 124.638 239.468 168.344C274.325 212.05 244.864 276.8 242.921 279.174C240.979 281.548 141.804 390.651 100.58 293.959Z" fill="url(#paint0_linear_1533_282431)" fill-opacity="0.5"/>
<path d="M100.58 293.959C59.356 197.266 75.5434 257.051 109.429 148.164C107.487 129.029 117.307 109.853 118.278 89.2414C119.249 68.6294 138.89 75.536 193.82 96.148C248.749 116.76 204.611 124.638 239.468 168.344C274.325 212.05 244.864 276.8 242.921 279.174C240.979 281.548 141.804 390.651 100.58 293.959Z" stroke="black" stroke-width="0.215833"/>
</g>
<defs>
<filter id="filter0_f_1533_282431" x="0.212517" y="0.94445" width="332.049" height="408.788" filterUnits="userSpaceOnUse" color-interpolation-filters="sRGB">
<feFlood flood-opacity="0" result="BackgroundImageFix"/>
<feBlend mode="normal" in="SourceGraphic" in2="BackgroundImageFix" result="shape"/>
<feGaussianBlur stdDeviation="37.8786" result="effect1_foregroundBlur_1533_282431"/>
</filter>
<linearGradient id="paint0_linear_1533_282431" x1="166.237" y1="76.8096" x2="166.237" y2="333.868" gradientUnits="userSpaceOnUse">
<stop stop-color="white"/>
<stop offset="1" stop-color="#D9D2BC"/>
</linearGradient>
</defs>
</svg>
