<svg width="11" height="10" viewBox="0 0 11 10" fill="none" xmlns="http://www.w3.org/2000/svg">
<path d="M9.23572 2.7699C9.24193 2.86018 9.24193 2.95089 9.24193 3.04202C9.24193 5.8261 7.19202 9.03632 3.44475 9.03632V9.03503C2.33755 9.0366 1.2533 8.70865 0.321472 8.09032C0.854911 8.15678 1.39579 8.11387 1.91317 7.96403C2.43056 7.81418 2.91431 7.56036 3.33675 7.21706C2.91156 7.20874 2.49951 7.06322 2.15823 6.80086C1.81695 6.53849 1.5635 6.17241 1.43332 5.75379C1.73857 5.81464 2.05324 5.80235 2.35317 5.71785C1.8921 5.62148 1.47746 5.36318 1.17956 4.98676C0.881658 4.61034 0.718838 4.13897 0.718709 3.65258V3.62605C1.00207 3.78933 1.31927 3.87973 1.64353 3.88961C1.21214 3.59176 0.906742 3.13512 0.789508 2.61264C0.672274 2.09016 0.752016 1.54112 1.0125 1.0773C1.52419 1.72813 2.16255 2.26042 2.88611 2.63959C3.60968 3.01876 4.40228 3.23634 5.21245 3.2782C5.11153 2.82673 5.15722 2.35347 5.34245 1.93153C5.52769 1.5096 5.84216 1.1625 6.23727 0.943859C6.63238 0.725222 7.08613 0.647224 7.52841 0.72192C7.97068 0.796617 8.37685 1.01985 8.68414 1.35712C9.14063 1.26404 9.57838 1.09098 9.97847 0.845399C9.8264 1.33336 9.50803 1.74756 9.08262 2.01088C9.48639 1.96144 9.8807 1.84967 10.2524 1.67929C9.97881 2.10235 9.63454 2.47165 9.23572 2.7699Z" fill="#003A2B"/>
</svg>
