<svg width="1539" height="1895" viewBox="0 0 1539 1895" fill="none" xmlns="http://www.w3.org/2000/svg">
<g filter="url(#filter0_f_1563_41237)">
<path d="M465.525 1358.1C274.525 910.099 349.525 1187.1 506.525 682.599C497.525 593.946 543.025 505.099 547.525 409.599C552.025 314.099 643.025 346.099 897.524 441.599C1152.02 537.099 947.525 573.599 1109.02 776.099C1270.52 978.599 1134.02 1278.6 1125.02 1289.6C1116.02 1300.6 656.525 1806.1 465.525 1358.1Z" fill="url(#paint0_linear_1563_41237)" fill-opacity="0.5"/>
<path d="M465.525 1358.1C274.525 910.099 349.525 1187.1 506.525 682.599C497.525 593.946 543.025 505.099 547.525 409.599C552.025 314.099 643.025 346.099 897.524 441.599C1152.02 537.099 947.525 573.599 1109.02 776.099C1270.52 978.599 1134.02 1278.6 1125.02 1289.6C1116.02 1300.6 656.525 1806.1 465.525 1358.1Z" stroke="black"/>
</g>
<defs>
<filter id="filter0_f_1563_41237" x="0.5" y="0.5" width="1538.46" height="1894.01" filterUnits="userSpaceOnUse" color-interpolation-filters="sRGB">
<feFlood flood-opacity="0" result="BackgroundImageFix"/>
<feBlend mode="normal" in="SourceGraphic" in2="BackgroundImageFix" result="shape"/>
<feGaussianBlur stdDeviation="175.5" result="effect1_foregroundBlur_1563_41237"/>
</filter>
<linearGradient id="paint0_linear_1563_41237" x1="769.728" y1="352" x2="769.728" y2="1543.01" gradientUnits="userSpaceOnUse">
<stop stop-color="#BBD432"/>
<stop offset="1" stop-color="#F0C024"/>
</linearGradient>
</defs>
</svg>
