<svg width="375" height="463" viewBox="0 0 375 463" fill="none" xmlns="http://www.w3.org/2000/svg">
<g filter="url(#filter0_f_1523_3270)">
<path d="M103.784 341.135C51.2368 221.698 71.8703 295.547 115.063 161.046C112.587 137.411 125.105 113.725 126.343 88.2642C127.581 62.8038 152.616 71.3351 222.633 96.7955C292.65 122.256 236.389 131.987 280.82 185.974C325.251 239.96 287.698 319.941 285.222 322.873C282.745 325.806 156.33 460.573 103.784 341.135Z" fill="url(#paint0_linear_1523_3270)" fill-opacity="0.5"/>
<path d="M103.784 341.135C51.2368 221.698 71.8703 295.547 115.063 161.046C112.587 137.411 125.105 113.725 126.343 88.2642C127.581 62.8038 152.616 71.3351 222.633 96.7955C292.65 122.256 236.389 131.987 280.82 185.974C325.251 239.96 287.698 319.941 285.222 322.873C282.745 325.806 156.33 460.573 103.784 341.135Z" stroke="black" stroke-width="0.204854"/>
</g>
<defs>
<filter id="filter0_f_1523_3270" x="0.545067" y="0.901878" width="373.859" height="461.536" filterUnits="userSpaceOnUse" color-interpolation-filters="sRGB">
<feFlood flood-opacity="0" result="BackgroundImageFix"/>
<feBlend mode="normal" in="SourceGraphic" in2="BackgroundImageFix" result="shape"/>
<feGaussianBlur stdDeviation="35.9519" result="effect1_foregroundBlur_1523_3270"/>
</filter>
<linearGradient id="paint0_linear_1523_3270" x1="187.474" y1="72.9082" x2="187.474" y2="390.432" gradientUnits="userSpaceOnUse">
<stop stop-color="#358F43"/>
<stop offset="1" stop-color="#F0C024"/>
</linearGradient>
</defs>
</svg>
