<svg width="10" height="9" viewBox="0 0 10 9" fill="none" xmlns="http://www.w3.org/2000/svg">
<path d="M8.59747 2.83753C8.60326 2.92171 8.60326 3.00628 8.60326 3.09125C8.60326 5.68702 6.692 8.68012 3.19817 8.68012V8.67892C2.16585 8.68039 1.15494 8.37461 0.286133 7.79811C0.783493 7.86007 1.28779 7.82006 1.77018 7.68035C2.25257 7.54065 2.7036 7.30399 3.09748 6.98391C2.70104 6.97615 2.31686 6.84047 1.99866 6.59586C1.68047 6.35124 1.44416 6.00991 1.32278 5.6196C1.60738 5.67634 1.90077 5.66488 2.18042 5.58609C1.75054 5.49624 1.36394 5.25542 1.08618 4.90445C0.808431 4.55349 0.656623 4.114 0.656503 3.66051V3.63577C0.920703 3.78801 1.21645 3.8723 1.51877 3.88151C1.11656 3.60381 0.831819 3.17805 0.722514 2.69091C0.613209 2.20376 0.687557 1.69186 0.930423 1.2594C1.40751 1.86622 2.00269 2.36251 2.67732 2.71603C3.35195 3.06956 4.09094 3.27242 4.84632 3.31145C4.75222 2.89052 4.79482 2.44926 4.96752 2.05587C5.14023 1.66247 5.43343 1.33884 5.80182 1.13499C6.17021 0.931141 6.59327 0.858418 7.00563 0.928063C7.41799 0.997707 7.79669 1.20584 8.0832 1.5203C8.50881 1.43352 8.91695 1.27216 9.28999 1.04319C9.14821 1.49815 8.85137 1.88433 8.45473 2.12985C8.83118 2.08375 9.19883 1.97954 9.54539 1.82069C9.2903 2.21513 8.96932 2.55945 8.59747 2.83753Z" fill="#003A2B"/>
</svg>
