<svg width="850" height="1046" viewBox="0 0 850 1046" fill="none" xmlns="http://www.w3.org/2000/svg">
<g filter="url(#filter0_f_1586_96825)">
<path d="M257.411 749.476C152.023 502.284 193.406 655.124 280.034 376.756C275.068 327.84 300.173 278.817 302.656 226.123C305.139 173.429 355.35 191.086 495.775 243.78C636.2 296.474 523.364 316.614 612.474 428.347C701.585 540.08 626.269 705.611 621.303 711.68C616.337 717.75 362.799 996.669 257.411 749.476Z" fill="url(#paint0_linear_1586_96825)" fill-opacity="0.5"/>
<path d="M257.411 749.476C152.023 502.284 193.406 655.124 280.034 376.756C275.068 327.84 300.173 278.817 302.656 226.123C305.139 173.429 355.35 191.086 495.775 243.78C636.2 296.474 523.364 316.614 612.474 428.347C701.585 540.08 626.269 705.611 621.303 711.68C616.337 717.75 362.799 996.669 257.411 749.476Z" stroke="black" stroke-width="0.551769"/>
</g>
<defs>
<filter id="filter0_f_1586_96825" x="0.824615" y="0.39444" width="848.873" height="1045.05" filterUnits="userSpaceOnUse" color-interpolation-filters="sRGB">
<feFlood flood-opacity="0" result="BackgroundImageFix"/>
<feBlend mode="normal" in="SourceGraphic" in2="BackgroundImageFix" result="shape"/>
<feGaussianBlur stdDeviation="96.8355" result="effect1_foregroundBlur_1586_96825"/>
</filter>
<linearGradient id="paint0_linear_1586_96825" x1="425.261" y1="194.342" x2="425.261" y2="851.503" gradientUnits="userSpaceOnUse">
<stop stop-color="#BBD432"/>
<stop offset="1" stop-color="#F0C024"/>
</linearGradient>
</defs>
</svg>
