<svg width="10" height="9" viewBox="0 0 10 9" fill="none" xmlns="http://www.w3.org/2000/svg">
<path d="M0.175842 1.62329C0.175842 1.3427 0.27664 1.11122 0.478228 0.928842C0.679816 0.74646 0.941889 0.655273 1.26443 0.655273C1.58122 0.655273 1.83752 0.745055 2.03335 0.924634C2.23494 1.10982 2.33574 1.35112 2.33574 1.64854C2.33574 1.9179 2.23783 2.14236 2.04199 2.32194C1.84041 2.50712 1.57546 2.59972 1.24715 2.59972H1.23851C0.921724 2.59972 0.665422 2.50712 0.469588 2.32194C0.273755 2.13675 0.175842 1.90387 0.175842 1.62329ZM0.288157 8.98861V3.36571H2.20615V8.98861H0.288157ZM3.26882 8.98861H5.1868V5.84888C5.1868 5.65246 5.20985 5.50095 5.25592 5.39433C5.33655 5.20353 5.45895 5.04219 5.6231 4.91032C5.78726 4.77845 5.99316 4.71251 6.24084 4.71251C6.88593 4.71251 7.20847 5.13619 7.20847 5.98356V8.98861H9.12646V5.7647C9.12646 4.93417 8.92487 4.30426 8.52169 3.87497C8.1185 3.44568 7.58573 3.23103 6.92336 3.23103C6.18036 3.23103 5.60151 3.54248 5.1868 4.16537V4.18221H5.17817L5.1868 4.16537V3.36571H3.26882C3.28033 3.54528 3.28609 4.10364 3.28609 5.04079C3.28609 5.97794 3.28033 7.29387 3.26882 8.98861Z" fill="#003A2B"/>
</svg>
