<svg width="716" height="837" viewBox="0 0 716 837" fill="none" xmlns="http://www.w3.org/2000/svg">
<g filter="url(#filter0_f_1523_2963)">
<path d="M241.928 570.009C169.226 404.922 197.774 506.996 257.534 321.089C254.108 288.421 271.427 255.681 273.14 220.49C274.853 185.298 309.49 197.09 406.362 232.282C503.234 267.473 425.394 280.923 486.867 355.544C548.34 430.164 496.383 540.713 492.957 544.766C489.532 548.82 314.629 735.095 241.928 570.009Z" fill="url(#paint0_linear_1523_2963)" fill-opacity="0.5"/>
<path d="M241.928 570.009C169.226 404.922 197.774 506.996 257.534 321.089C254.108 288.421 271.427 255.681 273.14 220.49C274.853 185.298 309.49 197.09 406.362 232.282C503.234 267.473 425.394 280.923 486.867 355.544C548.34 430.164 496.383 540.713 492.957 544.766C489.532 548.82 314.629 735.095 241.928 570.009Z" stroke="black" stroke-width="0.564841"/>
</g>
<defs>
<filter id="filter0_f_1523_2963" x="0.174103" y="0.723175" width="715.089" height="835.965" filterUnits="userSpaceOnUse" color-interpolation-filters="sRGB">
<feFlood flood-opacity="0" result="BackgroundImageFix"/>
<feBlend mode="normal" in="SourceGraphic" in2="BackgroundImageFix" result="shape"/>
<feGaussianBlur stdDeviation="99.1296" result="effect1_foregroundBlur_1523_2963"/>
</filter>
<linearGradient id="paint0_linear_1523_2963" x1="357.719" y1="199.265" x2="357.719" y2="638.146" gradientUnits="userSpaceOnUse">
<stop stop-color="#358F43"/>
<stop offset="1" stop-color="#F0C024"/>
</linearGradient>
</defs>
</svg>
