<svg width="398" height="490" viewBox="0 0 398 490" fill="none" xmlns="http://www.w3.org/2000/svg">
<g filter="url(#filter0_f_1533_282381)">
<path d="M120.506 351.246C71.1782 235.545 90.5478 307.083 131.095 176.79C128.77 153.894 140.521 130.949 141.683 106.285C142.846 81.6209 166.347 89.8853 232.075 114.549C297.802 139.213 244.988 148.64 286.697 200.938C328.406 253.235 293.154 330.714 290.829 333.555C288.505 336.395 169.834 466.947 120.506 351.246Z" fill="url(#paint0_linear_1533_282381)" fill-opacity="0.5"/>
<path d="M120.506 351.246C71.1782 235.545 90.5478 307.083 131.095 176.79C128.77 153.894 140.521 130.949 141.683 106.285C142.846 81.6209 166.347 89.8853 232.075 114.549C297.802 139.213 244.988 148.64 286.697 200.938C328.406 253.235 293.154 330.714 290.829 333.555C288.505 336.395 169.834 466.947 120.506 351.246Z" stroke="black" stroke-width="0.258261"/>
</g>
<defs>
<filter id="filter0_f_1533_282381" x="0.408211" y="0.630623" width="397.324" height="489.148" filterUnits="userSpaceOnUse" color-interpolation-filters="sRGB">
<feFlood flood-opacity="0" result="BackgroundImageFix"/>
<feBlend mode="normal" in="SourceGraphic" in2="BackgroundImageFix" result="shape"/>
<feGaussianBlur stdDeviation="45.3248" result="effect1_foregroundBlur_1533_282381"/>
</filter>
<linearGradient id="paint0_linear_1533_282381" x1="199.07" y1="91.4092" x2="199.07" y2="399" gradientUnits="userSpaceOnUse">
<stop stop-color="#BBD432"/>
<stop offset="1" stop-color="#F0C024"/>
</linearGradient>
</defs>
</svg>
