<svg width="333" height="410" viewBox="0 0 333 410" fill="none" xmlns="http://www.w3.org/2000/svg">
<g filter="url(#filter0_f_1586_96991)">
<path d="M101.173 293.861C59.9493 197.168 76.1367 256.954 110.022 148.066C108.08 128.932 117.9 109.756 118.871 89.1437C119.843 68.5317 139.483 75.4384 194.413 96.0504C249.342 116.662 205.204 124.54 240.061 168.246C274.918 211.952 245.457 276.702 243.515 279.076C241.572 281.45 142.397 390.554 101.173 293.861Z" fill="url(#paint0_linear_1586_96991)" fill-opacity="0.5"/>
<path d="M101.173 293.861C59.9493 197.168 76.1367 256.954 110.022 148.066C108.08 128.932 117.9 109.756 118.871 89.1437C119.843 68.5317 139.483 75.4384 194.413 96.0504C249.342 116.662 205.204 124.54 240.061 168.246C274.918 211.952 245.457 276.702 243.515 279.076C241.572 281.45 142.397 390.554 101.173 293.861Z" stroke="black" stroke-width="0.215833"/>
</g>
<defs>
<filter id="filter0_f_1586_96991" x="0.806267" y="0.846794" width="332.049" height="408.788" filterUnits="userSpaceOnUse" color-interpolation-filters="sRGB">
<feFlood flood-opacity="0" result="BackgroundImageFix"/>
<feBlend mode="normal" in="SourceGraphic" in2="BackgroundImageFix" result="shape"/>
<feGaussianBlur stdDeviation="37.8786" result="effect1_foregroundBlur_1586_96991"/>
</filter>
<linearGradient id="paint0_linear_1586_96991" x1="166.83" y1="76.7119" x2="166.83" y2="333.77" gradientUnits="userSpaceOnUse">
<stop stop-color="#BBD432"/>
<stop offset="1" stop-color="#F0C024"/>
</linearGradient>
</defs>
</svg>
