<svg width="10" height="9" viewBox="0 0 10 9" fill="none" xmlns="http://www.w3.org/2000/svg">
<path d="M8.59747 2.66663C8.60326 2.75081 8.60326 2.83538 8.60326 2.92035C8.60326 5.51612 6.692 8.50922 3.19817 8.50922V8.50803C2.16585 8.50949 1.15494 8.20371 0.286133 7.62721C0.783493 7.68918 1.28779 7.64916 1.77018 7.50946C2.25257 7.36975 2.7036 7.13309 3.09748 6.81301C2.70104 6.80525 2.31686 6.66957 1.99866 6.42496C1.68047 6.18034 1.44416 5.83901 1.32278 5.44871C1.60738 5.50544 1.90077 5.49398 2.18042 5.4152C1.75054 5.32534 1.36394 5.08452 1.08618 4.73356C0.808431 4.38259 0.656623 3.9431 0.656503 3.48961V3.46487C0.920703 3.61711 1.21645 3.7014 1.51877 3.71061C1.11656 3.43291 0.831819 3.00715 0.722514 2.52001C0.613209 2.03287 0.687557 1.52096 0.930423 1.08851C1.40751 1.69532 2.00269 2.19161 2.67732 2.54513C3.35195 2.89866 4.09094 3.10152 4.84632 3.14055C4.75222 2.71962 4.79482 2.27836 4.96752 1.88497C5.14023 1.49157 5.43343 1.16794 5.80182 0.964092C6.17021 0.760242 6.59327 0.68752 7.00563 0.757164C7.41799 0.826809 7.79669 1.03494 8.0832 1.3494C8.50881 1.26262 8.91695 1.10126 9.28999 0.872291C9.14821 1.32725 8.85137 1.71343 8.45473 1.95895C8.83118 1.91285 9.19883 1.80864 9.54539 1.64979C9.2903 2.04423 8.96932 2.38856 8.59747 2.66663Z" fill="#003A2B"/>
</svg>
