<svg width="1267" height="1481" viewBox="0 0 1267 1481" fill="none" xmlns="http://www.w3.org/2000/svg">
<g filter="url(#filter0_f_1523_2734)">
<path d="M428.503 1008.07C299.791 715.799 350.332 896.511 456.132 567.381C450.067 509.544 480.728 451.582 483.761 389.278C486.793 326.975 548.116 347.852 719.62 410.155C891.123 472.458 753.314 496.27 862.146 628.379C970.978 760.488 878.993 956.205 872.928 963.381C866.863 970.557 557.214 1300.34 428.503 1008.07Z" fill="url(#paint0_linear_1523_2734)" fill-opacity="0.5"/>
<path d="M428.503 1008.07C299.791 715.799 350.332 896.511 456.132 567.381C450.067 509.544 480.728 451.582 483.761 389.278C486.793 326.975 548.116 347.852 719.62 410.155C891.123 472.458 753.314 496.27 862.146 628.379C970.978 760.488 878.993 956.205 872.928 963.381C866.863 970.557 557.214 1300.34 428.503 1008.07Z" stroke="black"/>
</g>
<defs>
<filter id="filter0_f_1523_2734" x="0.5" y="0.201172" width="1266" height="1480" filterUnits="userSpaceOnUse" color-interpolation-filters="sRGB">
<feFlood flood-opacity="0" result="BackgroundImageFix"/>
<feBlend mode="normal" in="SourceGraphic" in2="BackgroundImageFix" result="shape"/>
<feGaussianBlur stdDeviation="175.5" result="effect1_foregroundBlur_1523_2734"/>
</filter>
<linearGradient id="paint0_linear_1523_2734" x1="633.5" y1="351.701" x2="633.5" y2="1128.7" gradientUnits="userSpaceOnUse">
<stop stop-color="#358F43"/>
<stop offset="1" stop-color="#F0C024"/>
</linearGradient>
</defs>
</svg>
