<svg width="10" height="9" viewBox="0 0 10 9" fill="none" xmlns="http://www.w3.org/2000/svg">
<path d="M0.176025 1.45239C0.176025 1.1718 0.276823 0.940318 0.478411 0.757944C0.679999 0.575562 0.942072 0.484375 1.26461 0.484375C1.5814 0.484375 1.8377 0.574156 2.03354 0.753735C2.23513 0.93892 2.33592 1.18022 2.33592 1.47764C2.33592 1.747 2.23801 1.97146 2.04218 2.15104C1.84059 2.33623 1.57564 2.42882 1.24733 2.42882H1.2387C0.921907 2.42882 0.665605 2.33623 0.469771 2.15104C0.273938 1.96586 0.176025 1.73297 0.176025 1.45239ZM0.28834 8.81771V3.19481H2.20633V8.81771H0.28834ZM3.269 8.81771H5.18699V5.67798C5.18699 5.48156 5.21003 5.33005 5.2561 5.22343C5.33674 5.03263 5.45914 4.87129 5.62329 4.73942C5.78744 4.60755 5.99335 4.54161 6.24102 4.54161C6.88611 4.54161 7.20865 4.96529 7.20865 5.81266V8.81771H9.12664V5.5938C9.12664 4.76327 8.92505 4.13336 8.52187 3.70407C8.11869 3.27478 7.58592 3.06013 6.92355 3.06013C6.18054 3.06013 5.60169 3.37158 5.18699 3.99448V4.01131H5.17835L5.18699 3.99448V3.19481H3.269C3.28052 3.37438 3.28628 3.93274 3.28628 4.8699C3.28628 5.80704 3.28052 7.12298 3.269 8.81771Z" fill="#003A2B"/>
</svg>
