<svg width="11" height="10" viewBox="0 0 11 10" fill="none" xmlns="http://www.w3.org/2000/svg">
<path d="M0.814819 1.39566C0.814819 1.09471 0.922929 0.846439 1.13914 0.650836C1.35535 0.455223 1.63644 0.357422 1.98237 0.357422C2.32214 0.357422 2.59704 0.453716 2.80708 0.646322C3.02329 0.84494 3.1314 1.10374 3.1314 1.42274C3.1314 1.71164 3.02638 1.95238 2.81634 2.14499C2.60013 2.34361 2.31596 2.44292 1.96384 2.44292H1.95458C1.61481 2.44292 1.33991 2.34361 1.12987 2.14499C0.919834 1.94637 0.814819 1.69659 0.814819 1.39566ZM0.935281 9.29526V3.26448H2.9924V9.29526H0.935281ZM4.13216 9.29526H6.18928V5.92777C6.18928 5.71711 6.21399 5.5546 6.26341 5.44025C6.34989 5.23561 6.48117 5.06257 6.65723 4.92114C6.83329 4.77969 7.05413 4.70897 7.31977 4.70897C8.01166 4.70897 8.3576 5.16339 8.3576 6.07222V9.29526H10.4147V5.83749C10.4147 4.94671 10.1985 4.27111 9.76608 3.81068C9.33364 3.35024 8.76223 3.12003 8.05181 3.12003C7.25491 3.12003 6.63406 3.45407 6.18928 4.12215V4.1402H6.18001L6.18928 4.12215V3.26448H4.13216C4.14451 3.45707 4.15069 4.05593 4.15069 5.06107C4.15069 6.0662 4.14451 7.47759 4.13216 9.29526Z" fill="#003A2B"/>
</svg>
