<svg width="850" height="1046" viewBox="0 0 850 1046" fill="none" xmlns="http://www.w3.org/2000/svg">
<g filter="url(#filter0_f_1586_96826)">
<path d="M257.032 749.825C151.644 502.632 193.027 655.473 279.655 377.105C274.689 328.189 299.794 279.166 302.277 226.472C304.76 173.778 354.971 191.435 495.396 244.129C635.821 296.823 522.985 316.962 612.095 428.695C701.206 540.429 625.89 705.959 620.924 712.029C615.958 718.098 362.42 997.018 257.032 749.825Z" fill="url(#paint0_linear_1586_96826)" fill-opacity="0.3"/>
<path d="M257.032 749.825C151.644 502.632 193.027 655.473 279.655 377.105C274.689 328.189 299.794 279.166 302.277 226.472C304.76 173.778 354.971 191.435 495.396 244.129C635.821 296.823 522.985 316.962 612.095 428.695C701.206 540.429 625.89 705.959 620.924 712.029C615.958 718.098 362.42 997.018 257.032 749.825Z" stroke="black" stroke-width="0.551769"/>
</g>
<defs>
<filter id="filter0_f_1586_96826" x="0.445709" y="0.743073" width="848.873" height="1045.05" filterUnits="userSpaceOnUse" color-interpolation-filters="sRGB">
<feFlood flood-opacity="0" result="BackgroundImageFix"/>
<feBlend mode="normal" in="SourceGraphic" in2="BackgroundImageFix" result="shape"/>
<feGaussianBlur stdDeviation="96.8355" result="effect1_foregroundBlur_1586_96826"/>
</filter>
<linearGradient id="paint0_linear_1586_96826" x1="424.882" y1="194.69" x2="424.882" y2="851.851" gradientUnits="userSpaceOnUse">
<stop stop-color="#BBD432"/>
<stop offset="1" stop-color="#F0C024"/>
</linearGradient>
</defs>
</svg>
