<svg width="850" height="1046" viewBox="0 0 850 1046" fill="none" xmlns="http://www.w3.org/2000/svg">
<g filter="url(#filter0_f_1586_96792)">
<path d="M257.007 749.414C151.619 502.221 193.002 655.061 279.629 376.694C274.663 327.777 299.769 278.755 302.252 226.061C304.735 173.367 354.946 191.024 495.371 243.718C635.796 296.411 522.959 316.551 612.07 428.284C701.181 540.018 625.864 705.548 620.898 711.618C615.932 717.687 362.395 996.607 257.007 749.414Z" fill="url(#paint0_linear_1586_96792)" fill-opacity="0.5"/>
<path d="M257.007 749.414C151.619 502.221 193.002 655.061 279.629 376.694C274.663 327.777 299.769 278.755 302.252 226.061C304.735 173.367 354.946 191.024 495.371 243.718C635.796 296.411 522.959 316.551 612.07 428.284C701.181 540.018 625.864 705.548 620.898 711.618C615.932 717.687 362.395 996.607 257.007 749.414Z" stroke="black" stroke-width="0.551769"/>
</g>
<defs>
<filter id="filter0_f_1586_96792" x="0.420319" y="0.33194" width="848.873" height="1045.05" filterUnits="userSpaceOnUse" color-interpolation-filters="sRGB">
<feFlood flood-opacity="0" result="BackgroundImageFix"/>
<feBlend mode="normal" in="SourceGraphic" in2="BackgroundImageFix" result="shape"/>
<feGaussianBlur stdDeviation="96.8355" result="effect1_foregroundBlur_1586_96792"/>
</filter>
<linearGradient id="paint0_linear_1586_96792" x1="424.857" y1="194.279" x2="424.857" y2="851.44" gradientUnits="userSpaceOnUse">
<stop stop-color="white"/>
<stop offset="1" stop-color="#D9D2BC"/>
</linearGradient>
</defs>
</svg>
