<svg width="13" height="11" viewBox="0 0 13 11" fill="none" xmlns="http://www.w3.org/2000/svg">
<path d="M11.1827 3.01221C11.1899 3.1174 11.1899 3.22309 11.1899 3.32928C11.1899 6.57329 8.80139 10.3138 4.43506 10.3138V10.3124C3.14494 10.3142 1.88158 9.93205 0.795807 9.21157C1.41737 9.28901 2.0476 9.23901 2.65046 9.06441C3.25332 8.88982 3.81698 8.59406 4.30922 8.19405C3.81378 8.18435 3.33366 8.01479 2.936 7.70909C2.53834 7.40338 2.24302 6.97681 2.09134 6.48904C2.44701 6.55994 2.81367 6.54562 3.16315 6.44716C2.62591 6.33487 2.14277 6.0339 1.79565 5.5953C1.44854 5.15669 1.25882 4.60744 1.25867 4.0407V4.00979C1.58885 4.20005 1.95845 4.30538 2.33627 4.31689C1.83361 3.96984 1.47777 3.43776 1.34116 2.82896C1.20456 2.22017 1.29748 1.58043 1.60099 1.03998C2.19722 1.79833 2.94103 2.41855 3.78413 2.86036C4.62724 3.30217 5.55078 3.5557 6.49479 3.60448C6.3772 3.07843 6.43043 2.52697 6.64627 2.03534C6.8621 1.5437 7.22853 1.13925 7.68891 0.884495C8.14929 0.629738 8.67801 0.538855 9.19335 0.625892C9.70868 0.712928 10.1819 0.973038 10.54 1.36602C11.0719 1.25757 11.582 1.05592 12.0482 0.769769C11.871 1.33834 11.5 1.82097 11.0043 2.1278C11.4748 2.07018 11.9342 1.93995 12.3674 1.74143C12.0486 2.23437 11.6474 2.66469 11.1827 3.01221Z" fill="#003A2B"/>
</svg>
