<svg width="1058" height="1302" viewBox="0 0 1058 1302" fill="none" xmlns="http://www.w3.org/2000/svg">
<g filter="url(#filter0_f_1586_96742)">
<path d="M319.675 933.116C188.449 625.319 239.978 815.631 347.844 469.017C341.66 408.108 372.921 347.066 376.013 281.453C379.104 215.84 441.625 237.826 616.478 303.439C791.331 369.052 650.831 394.129 761.788 533.255C872.746 672.382 778.965 878.495 772.781 886.053C766.598 893.61 450.901 1240.91 319.675 933.116Z" fill="url(#paint0_linear_1586_96742)" fill-opacity="0.5"/>
<path d="M319.675 933.116C188.449 625.319 239.978 815.631 347.844 469.017C341.66 408.108 372.921 347.066 376.013 281.453C379.104 215.84 441.625 237.826 616.478 303.439C791.331 369.052 650.831 394.129 761.788 533.255C872.746 672.382 778.965 878.495 772.781 886.053C766.598 893.61 450.901 1240.91 319.675 933.116Z" stroke="black" stroke-width="0.687045"/>
</g>
<defs>
<filter id="filter0_f_1586_96742" x="0.182083" y="0.383255" width="1056.99" height="1301.27" filterUnits="userSpaceOnUse" color-interpolation-filters="sRGB">
<feFlood flood-opacity="0" result="BackgroundImageFix"/>
<feBlend mode="normal" in="SourceGraphic" in2="BackgroundImageFix" result="shape"/>
<feGaussianBlur stdDeviation="120.576" result="effect1_foregroundBlur_1586_96742"/>
</filter>
<linearGradient id="paint0_linear_1586_96742" x1="528.677" y1="241.88" x2="528.677" y2="1060.16" gradientUnits="userSpaceOnUse">
<stop stop-color="#BBD432"/>
<stop offset="1" stop-color="#F0C024"/>
</linearGradient>
</defs>
</svg>
