<svg width="12" height="11" viewBox="0 0 12 11" fill="none" xmlns="http://www.w3.org/2000/svg">
<path d="M0.648285 1.24589C0.648285 0.895225 0.774255 0.605937 1.02618 0.378019C1.27811 0.150091 1.60563 0.0361328 2.00872 0.0361328C2.40462 0.0361328 2.72493 0.148335 2.96967 0.37276C3.2216 0.60419 3.34757 0.905745 3.34757 1.27744C3.34757 1.61407 3.2252 1.89459 2.98046 2.11901C2.72854 2.35044 2.39742 2.46616 1.98713 2.46616H1.97633C1.58043 2.46616 1.26013 2.35044 1.01539 2.11901C0.770649 1.88758 0.648285 1.59653 0.648285 1.24589ZM0.788648 10.4505V3.42344H3.18561V10.4505H0.788648ZM4.51366 10.4505H6.91062V6.52672C6.91062 6.28125 6.93942 6.0919 6.997 5.95866C7.09777 5.72021 7.25073 5.51858 7.45588 5.35378C7.66102 5.18897 7.91835 5.10657 8.22787 5.10657C9.03406 5.10657 9.43715 5.63606 9.43715 6.69503V10.4505H11.8341V6.42152C11.8341 5.38359 11.5822 4.59637 11.0783 4.05987C10.5744 3.52338 9.90863 3.25513 9.08084 3.25513C8.15229 3.25513 7.42888 3.64435 6.91062 4.4228V4.44384H6.89982L6.91062 4.4228V3.42344H4.51366C4.52805 3.64785 4.53525 4.34565 4.53525 5.51684C4.53525 6.68801 4.52805 8.33257 4.51366 10.4505Z" fill="#003A2B"/>
</svg>
