<svg width="260" height="305" viewBox="0 0 260 305" fill="none" xmlns="http://www.w3.org/2000/svg">
<g filter="url(#filter0_f_1523_3269)">
<path d="M87.7268 207.373C61.3597 147.5 71.7133 184.52 93.3867 117.096C92.1443 105.248 98.4254 93.374 99.0467 80.6109C99.6679 67.8479 112.23 72.1245 147.363 84.8876C182.496 97.6506 154.266 102.529 176.56 129.592C198.855 156.655 180.012 196.748 178.769 198.218C177.527 199.688 114.094 267.246 87.7268 207.373Z" fill="url(#paint0_linear_1523_3269)" fill-opacity="0.5"/>
<path d="M87.7268 207.373C61.3597 147.5 71.7133 184.52 93.3867 117.096C92.1443 105.248 98.4254 93.374 99.0467 80.6109C99.6679 67.8479 112.23 72.1245 147.363 84.8876C182.496 97.6506 154.266 102.529 176.56 129.592C198.855 156.655 180.012 196.748 178.769 198.218C177.527 199.688 114.094 267.246 87.7268 207.373Z" stroke="black" stroke-width="0.204854"/>
</g>
<defs>
<filter id="filter0_f_1523_3269" x="0.0487289" y="0.906761" width="259.345" height="303.184" filterUnits="userSpaceOnUse" color-interpolation-filters="sRGB">
<feFlood flood-opacity="0" result="BackgroundImageFix"/>
<feBlend mode="normal" in="SourceGraphic" in2="BackgroundImageFix" result="shape"/>
<feGaussianBlur stdDeviation="35.9519" result="effect1_foregroundBlur_1523_3269"/>
</filter>
<linearGradient id="paint0_linear_1523_3269" x1="129.721" y1="72.9131" x2="129.721" y2="232.085" gradientUnits="userSpaceOnUse">
<stop stop-color="#358F43"/>
<stop offset="1" stop-color="#F0C024"/>
</linearGradient>
</defs>
</svg>
