<svg width="13" height="12" viewBox="0 0 13 12" fill="none" xmlns="http://www.w3.org/2000/svg">
<path d="M0.801514 1.80292C0.801514 1.43601 0.933321 1.13332 1.19692 0.894837C1.46053 0.656348 1.80322 0.537109 2.22499 0.537109C2.63923 0.537109 2.97438 0.65451 3.23046 0.889334C3.49406 1.13149 3.62587 1.44702 3.62587 1.83594C3.62587 2.18816 3.49784 2.48168 3.24176 2.7165C2.97815 2.95865 2.6317 3.07973 2.20239 3.07973H2.1911C1.77685 3.07973 1.4417 2.95865 1.18563 2.7165C0.929547 2.47434 0.801514 2.16981 0.801514 1.80292ZM0.94838 11.4341V4.08137H3.45641V11.4341H0.94838ZM4.84599 11.4341H7.35402V7.32844C7.35402 7.0716 7.38415 6.87348 7.4444 6.73406C7.54984 6.48456 7.70989 6.27359 7.92454 6.10116C8.13919 5.92871 8.40844 5.84249 8.7323 5.84249C9.57585 5.84249 9.99761 6.39651 9.99761 7.50455V11.4341H12.5056V7.21837C12.5056 6.13234 12.242 5.30865 11.7148 4.74729C11.1876 4.18594 10.4909 3.90526 9.6248 3.90526C8.65322 3.90526 7.89629 4.31252 7.35402 5.12704V5.14905H7.34272L7.35402 5.12704V4.08137H4.84599C4.86105 4.31618 4.86859 5.04631 4.86859 6.27177C4.86859 7.49721 4.86105 9.21797 4.84599 11.4341Z" fill="#003A2B"/>
</svg>
