<svg width="850" height="1046" viewBox="0 0 850 1046" fill="none" xmlns="http://www.w3.org/2000/svg">
<g filter="url(#filter0_f_1533_282548)">
<path d="M257.032 749.372C151.645 502.179 193.027 655.019 279.655 376.652C274.689 327.736 299.794 278.713 302.277 226.019C304.76 173.325 354.971 190.982 495.396 243.676C635.822 296.369 522.985 316.509 612.096 428.242C701.206 539.976 625.89 705.506 620.924 711.576C615.958 717.645 362.42 996.565 257.032 749.372Z" fill="url(#paint0_linear_1533_282548)" fill-opacity="0.3"/>
<path d="M257.032 749.372C151.645 502.179 193.027 655.019 279.655 376.652C274.689 327.736 299.794 278.713 302.277 226.019C304.76 173.325 354.971 190.982 495.396 243.676C635.822 296.369 522.985 316.509 612.096 428.242C701.206 539.976 625.89 705.506 620.924 711.576C615.958 717.645 362.42 996.565 257.032 749.372Z" stroke="black" stroke-width="0.551769"/>
</g>
<defs>
<filter id="filter0_f_1533_282548" x="0.445953" y="0.289948" width="848.873" height="1045.05" filterUnits="userSpaceOnUse" color-interpolation-filters="sRGB">
<feFlood flood-opacity="0" result="BackgroundImageFix"/>
<feBlend mode="normal" in="SourceGraphic" in2="BackgroundImageFix" result="shape"/>
<feGaussianBlur stdDeviation="96.8355" result="effect1_foregroundBlur_1533_282548"/>
</filter>
<linearGradient id="paint0_linear_1533_282548" x1="424.883" y1="194.237" x2="424.883" y2="851.398" gradientUnits="userSpaceOnUse">
<stop stop-color="#BBD432"/>
<stop offset="1" stop-color="#F0C024"/>
</linearGradient>
</defs>
</svg>
