<svg width="13" height="11" viewBox="0 0 13 11" fill="none" xmlns="http://www.w3.org/2000/svg">
<path d="M11.7393 3.30493C11.7469 3.415 11.7469 3.52559 11.7469 3.6367C11.7469 7.03102 9.24762 10.9449 4.67897 10.9449V10.9433C3.32908 10.9452 2.00717 10.5454 0.871094 9.79155C1.52146 9.87258 2.18089 9.82025 2.81169 9.63757C3.44248 9.45488 4.03226 9.14542 4.5473 8.72688C4.02891 8.71673 3.52654 8.53931 3.11046 8.21944C2.69437 7.89957 2.38537 7.45324 2.22665 6.94286C2.59881 7.01705 2.98245 7.00207 3.34813 6.89904C2.786 6.78155 2.28047 6.46664 1.91727 6.00771C1.55407 5.54878 1.35556 4.97408 1.3554 4.38108V4.34874C1.70088 4.54781 2.0876 4.65802 2.48293 4.67007C1.95699 4.30694 1.58465 3.7502 1.44172 3.1132C1.29879 2.47619 1.39601 1.80681 1.71359 1.24132C2.33744 2.03481 3.11572 2.68377 3.99789 3.14605C4.88005 3.60833 5.84639 3.87361 6.83415 3.92464C6.7111 3.37422 6.7668 2.79721 6.99264 2.2828C7.21847 1.76838 7.60188 1.34519 8.08359 1.07863C8.56531 0.81207 9.11852 0.716976 9.65774 0.808045C10.197 0.899114 10.6921 1.17128 11.0668 1.58247C11.6233 1.46899 12.157 1.258 12.6448 0.958589C12.4594 1.55351 12.0713 2.0585 11.5526 2.37954C12.0449 2.31926 12.5256 2.18299 12.9788 1.97527C12.6452 2.49106 12.2255 2.94131 11.7393 3.30493Z" fill="#003A2B"/>
</svg>
