<svg width="11" height="9" viewBox="0 0 11 9" fill="none" xmlns="http://www.w3.org/2000/svg">
<path d="M9.23554 2.59901C9.24174 2.68928 9.24175 2.77999 9.24175 2.87112C9.24175 5.6552 7.19184 8.86542 3.44457 8.86542V8.86413C2.33736 8.8657 1.25312 8.53775 0.321289 7.91942C0.854728 7.98588 1.3956 7.94297 1.91299 7.79313C2.43038 7.64329 2.91412 7.38946 3.33657 7.04616C2.91137 7.03784 2.49933 6.89232 2.15805 6.62996C1.81677 6.3676 1.56332 6.00151 1.43314 5.58289C1.73838 5.64374 2.05306 5.63145 2.35299 5.54695C1.89192 5.45058 1.47728 5.19228 1.17938 4.81586C0.881475 4.43944 0.718654 3.96807 0.718526 3.48168V3.45515C1.00189 3.61843 1.31909 3.70883 1.64334 3.71871C1.21196 3.42086 0.906559 2.96422 0.789325 2.44174C0.672091 1.91926 0.751832 1.37023 1.01232 0.906399C1.52401 1.55724 2.16236 2.08952 2.88593 2.46869C3.6095 2.84786 4.4021 3.06544 5.21227 3.1073C5.11135 2.65584 5.15703 2.18257 5.34227 1.76064C5.5275 1.3387 5.84198 0.991598 6.23709 0.772961C6.6322 0.554323 7.08595 0.476326 7.52822 0.551022C7.97049 0.625718 8.37666 0.84895 8.68396 1.18622C9.14045 1.09314 9.57819 0.920078 9.97829 0.6745C9.82622 1.16246 9.50785 1.57666 9.08244 1.83999C9.4862 1.79054 9.88051 1.67877 10.2522 1.5084C9.97862 1.93145 9.63436 2.30076 9.23554 2.59901Z" fill="#003A2B"/>
</svg>
