<svg width="399" height="490" viewBox="0 0 399 490" fill="none" xmlns="http://www.w3.org/2000/svg">
<g filter="url(#filter0_f_1533_282348)">
<path d="M120.814 350.746C71.4859 235.046 90.8554 306.584 131.402 176.291C129.078 153.395 140.829 130.45 141.991 105.786C143.153 81.1219 166.655 89.3863 232.382 114.05C298.11 138.714 245.295 148.141 287.005 200.439C328.714 252.736 293.461 330.215 291.137 333.056C288.812 335.896 170.142 466.447 120.814 350.746Z" fill="url(#paint0_linear_1533_282348)" fill-opacity="0.5"/>
<path d="M120.814 350.746C71.4859 235.046 90.8554 306.584 131.402 176.291C129.078 153.395 140.829 130.45 141.991 105.786C143.153 81.1219 166.655 89.3863 232.382 114.05C298.11 138.714 245.295 148.141 287.005 200.439C328.714 252.736 293.461 330.215 291.137 333.056C288.812 335.896 170.142 466.447 120.814 350.746Z" stroke="black" stroke-width="0.258261"/>
</g>
<defs>
<filter id="filter0_f_1533_282348" x="0.715828" y="0.131599" width="397.324" height="489.148" filterUnits="userSpaceOnUse" color-interpolation-filters="sRGB">
<feFlood flood-opacity="0" result="BackgroundImageFix"/>
<feBlend mode="normal" in="SourceGraphic" in2="BackgroundImageFix" result="shape"/>
<feGaussianBlur stdDeviation="45.3248" result="effect1_foregroundBlur_1533_282348"/>
</filter>
<linearGradient id="paint0_linear_1533_282348" x1="199.378" y1="90.9102" x2="199.378" y2="398.501" gradientUnits="userSpaceOnUse">
<stop stop-color="white"/>
<stop offset="1" stop-color="#D9D2BC"/>
</linearGradient>
</defs>
</svg>
