<svg width="850" height="1046" viewBox="0 0 850 1046" fill="none" xmlns="http://www.w3.org/2000/svg">
<g filter="url(#filter0_f_1533_282547)">
<path d="M257.411 750.023C152.023 502.831 193.406 655.671 280.034 377.303C275.068 328.387 300.173 279.364 302.656 226.67C305.139 173.976 355.35 191.633 495.775 244.327C636.2 297.021 523.364 317.16 612.474 428.894C701.585 540.627 626.269 706.158 621.303 712.227C616.337 718.297 362.799 997.216 257.411 750.023Z" fill="url(#paint0_linear_1533_282547)" fill-opacity="0.5"/>
<path d="M257.411 750.023C152.023 502.831 193.406 655.671 280.034 377.303C275.068 328.387 300.173 279.364 302.656 226.67C305.139 173.976 355.35 191.633 495.775 244.327C636.2 297.021 523.364 317.16 612.474 428.894C701.585 540.627 626.269 706.158 621.303 712.227C616.337 718.297 362.799 997.216 257.411 750.023Z" stroke="black" stroke-width="0.551769"/>
</g>
<defs>
<filter id="filter0_f_1533_282547" x="0.824615" y="0.941803" width="848.873" height="1045.05" filterUnits="userSpaceOnUse" color-interpolation-filters="sRGB">
<feFlood flood-opacity="0" result="BackgroundImageFix"/>
<feBlend mode="normal" in="SourceGraphic" in2="BackgroundImageFix" result="shape"/>
<feGaussianBlur stdDeviation="96.8355" result="effect1_foregroundBlur_1533_282547"/>
</filter>
<linearGradient id="paint0_linear_1533_282547" x1="425.261" y1="194.889" x2="425.261" y2="852.049" gradientUnits="userSpaceOnUse">
<stop stop-color="#BBD432"/>
<stop offset="1" stop-color="#F0C024"/>
</linearGradient>
</defs>
</svg>
