<svg width="17" height="15" viewBox="0 0 17 15" fill="none" xmlns="http://www.w3.org/2000/svg">
<path d="M15.2749 4.09272C15.2853 4.24423 15.2853 4.39645 15.2853 4.5494C15.2853 9.2218 11.845 14.6094 5.55612 14.6094V14.6072C3.69795 14.6099 1.8783 14.0595 0.314453 13.0218C1.2097 13.1333 2.11743 13.0613 2.98574 12.8098C3.85405 12.5583 4.6659 12.1323 5.37487 11.5562C4.66129 11.5422 3.96977 11.298 3.39701 10.8577C2.82425 10.4174 2.3989 9.803 2.18043 9.10044C2.69271 9.20257 3.22081 9.18194 3.72418 9.04013C2.95038 8.87839 2.2545 8.44491 1.75454 7.81317C1.25459 7.18144 0.981335 6.39036 0.98112 5.57407V5.52955C1.45668 5.80358 1.98902 5.95529 2.5332 5.97187C1.80922 5.47201 1.29669 4.70564 1.09994 3.82879C0.90319 2.95193 1.03702 2.0305 1.47418 1.25208C2.33293 2.34436 3.40425 3.23767 4.61859 3.87401C5.83292 4.51036 7.16311 4.87551 8.52279 4.94577C8.35341 4.18809 8.43008 3.39382 8.74095 2.68571C9.05183 1.9776 9.57959 1.39507 10.2427 1.02814C10.9058 0.661209 11.6673 0.530309 12.4096 0.655669C13.1518 0.781029 13.8335 1.15567 14.3492 1.72169C15.1153 1.56549 15.8499 1.27504 16.5214 0.862898C16.2662 1.68182 15.7319 2.37696 15.0179 2.81888C15.6955 2.73591 16.3573 2.54832 16.9811 2.26239C16.522 2.97239 15.9442 3.59217 15.2749 4.09272Z" fill="#003A2B"/>
</svg>
