<svg width="315" height="367" viewBox="0 0 315 367" fill="none" xmlns="http://www.w3.org/2000/svg">
<g filter="url(#filter0_f_1523_3174)">
<path d="M106.907 250.121C75.0437 177.768 87.5554 222.504 113.746 141.026C112.245 126.708 119.835 112.36 120.586 96.9362C121.337 81.5128 136.518 86.6808 178.974 102.104C221.43 117.528 187.315 123.422 214.257 156.127C241.199 188.831 218.428 237.281 216.926 239.058C215.425 240.834 138.77 322.473 106.907 250.121Z" fill="url(#paint0_linear_1523_3174)" fill-opacity="0.5"/>
<path d="M106.907 250.121C75.0437 177.768 87.5554 222.504 113.746 141.026C112.245 126.708 119.835 112.36 120.586 96.9362C121.337 81.5128 136.518 86.6808 178.974 102.104C221.43 117.528 187.315 123.422 214.257 156.127C241.199 188.831 218.428 237.281 216.926 239.058C215.425 240.834 138.77 322.473 106.907 250.121Z" stroke="black" stroke-width="0.247554"/>
</g>
<defs>
<filter id="filter0_f_1523_3174" x="0.95295" y="0.618233" width="313.404" height="366.381" filterUnits="userSpaceOnUse" color-interpolation-filters="sRGB">
<feFlood flood-opacity="0" result="BackgroundImageFix"/>
<feBlend mode="normal" in="SourceGraphic" in2="BackgroundImageFix" result="shape"/>
<feGaussianBlur stdDeviation="43.4458" result="effect1_foregroundBlur_1523_3174"/>
</filter>
<linearGradient id="paint0_linear_1523_3174" x1="157.655" y1="87.6338" x2="157.655" y2="279.983" gradientUnits="userSpaceOnUse">
<stop stop-color="#358F43"/>
<stop offset="1" stop-color="#F0C024"/>
</linearGradient>
</defs>
</svg>
