<svg width="260" height="304" viewBox="0 0 260 304" fill="none" xmlns="http://www.w3.org/2000/svg">
<g filter="url(#filter0_f_1523_3271)">
<path d="M88.2408 206.469C61.8737 146.596 72.2273 183.615 93.9008 116.192C92.6583 104.344 98.9395 92.4697 99.5607 79.7066C100.182 66.9436 112.744 71.2202 147.877 83.9833C183.01 96.7463 154.78 101.624 177.074 128.687C199.369 155.75 180.526 195.844 179.283 197.314C178.041 198.784 114.608 266.341 88.2408 206.469Z" fill="url(#paint0_linear_1523_3271)" fill-opacity="0.5"/>
<path d="M88.2408 206.469C61.8737 146.596 72.2273 183.615 93.9008 116.192C92.6583 104.344 98.9395 92.4697 99.5607 79.7066C100.182 66.9436 112.744 71.2202 147.877 83.9833C183.01 96.7463 154.78 101.624 177.074 128.687C199.369 155.75 180.526 195.844 179.283 197.314C178.041 198.784 114.608 266.341 88.2408 206.469Z" stroke="black" stroke-width="0.204854"/>
</g>
<defs>
<filter id="filter0_f_1523_3271" x="0.562767" y="0.00246429" width="259.345" height="303.184" filterUnits="userSpaceOnUse" color-interpolation-filters="sRGB">
<feFlood flood-opacity="0" result="BackgroundImageFix"/>
<feBlend mode="normal" in="SourceGraphic" in2="BackgroundImageFix" result="shape"/>
<feGaussianBlur stdDeviation="35.9519" result="effect1_foregroundBlur_1523_3271"/>
</filter>
<linearGradient id="paint0_linear_1523_3271" x1="130.235" y1="72.0088" x2="130.235" y2="231.18" gradientUnits="userSpaceOnUse">
<stop stop-color="#358F43"/>
<stop offset="1" stop-color="#F0C024"/>
</linearGradient>
</defs>
</svg>
