<svg width="13" height="12" viewBox="0 0 13 12" fill="none" xmlns="http://www.w3.org/2000/svg">
<path d="M0.80127 1.41034C0.80127 1.04343 0.933077 0.740737 1.19668 0.502259C1.46028 0.26377 1.80298 0.144531 2.22474 0.144531C2.63899 0.144531 2.97414 0.261932 3.23022 0.496756C3.49382 0.73891 3.62562 1.05444 3.62562 1.44336C3.62562 1.79558 3.49759 2.0891 3.24151 2.32392C2.97791 2.56608 2.63145 2.68715 2.20215 2.68715H2.19085C1.77661 2.68715 1.44146 2.56608 1.18538 2.32392C0.929303 2.08177 0.80127 1.77724 0.80127 1.41034ZM0.948136 11.0415V3.68879H3.45616V11.0415H0.948136ZM4.84575 11.0415H7.35377V6.93586C7.35377 6.67902 7.3839 6.4809 7.44415 6.34148C7.54959 6.09199 7.70964 5.88101 7.92429 5.70858C8.13894 5.53613 8.4082 5.44991 8.73206 5.44991C9.5756 5.44991 9.99737 6.00393 9.99737 7.11197V11.0415H12.5054V6.82579C12.5054 5.73976 12.2418 4.91607 11.7146 4.35472C11.1874 3.79336 10.4907 3.51268 9.62456 3.51268C8.65298 3.51268 7.89605 3.91994 7.35377 4.73446V4.75647H7.34248L7.35377 4.73446V3.68879H4.84575C4.86081 3.9236 4.86834 4.65373 4.86834 5.87919C4.86834 7.10463 4.86081 8.82539 4.84575 11.0415Z" fill="#003A2B"/>
</svg>
