<svg width="333" height="409" viewBox="0 0 333 409" fill="none" xmlns="http://www.w3.org/2000/svg">
<g filter="url(#filter0_f_1533_282465)">
<path d="M100.443 293.208C59.2192 196.515 75.4066 256.3 109.292 147.413C107.35 128.278 117.17 109.102 118.141 88.4904C119.113 67.8784 138.753 74.7851 193.683 95.3971C248.612 116.009 204.474 123.887 239.331 167.593C274.188 211.299 244.727 276.049 242.785 278.423C240.842 280.797 141.667 389.901 100.443 293.208Z" fill="url(#paint0_linear_1533_282465)" fill-opacity="0.3"/>
<path d="M100.443 293.208C59.2192 196.515 75.4066 256.3 109.292 147.413C107.35 128.278 117.17 109.102 118.141 88.4904C119.113 67.8784 138.753 74.7851 193.683 95.3971C248.612 116.009 204.474 123.887 239.331 167.593C274.188 211.299 244.727 276.049 242.785 278.423C240.842 280.797 141.667 389.901 100.443 293.208Z" stroke="black" stroke-width="0.215833"/>
</g>
<defs>
<filter id="filter0_f_1533_282465" x="0.075676" y="0.193474" width="332.049" height="408.788" filterUnits="userSpaceOnUse" color-interpolation-filters="sRGB">
<feFlood flood-opacity="0" result="BackgroundImageFix"/>
<feBlend mode="normal" in="SourceGraphic" in2="BackgroundImageFix" result="shape"/>
<feGaussianBlur stdDeviation="37.8786" result="effect1_foregroundBlur_1533_282465"/>
</filter>
<linearGradient id="paint0_linear_1533_282465" x1="166.1" y1="76.0586" x2="166.1" y2="333.117" gradientUnits="userSpaceOnUse">
<stop stop-color="#BBD432"/>
<stop offset="1" stop-color="#F0C024"/>
</linearGradient>
</defs>
</svg>
