<svg width="13" height="11" viewBox="0 0 13 11" fill="none" xmlns="http://www.w3.org/2000/svg">
<path d="M11.1826 2.84131C11.1898 2.9465 11.1898 3.05219 11.1898 3.15838C11.1898 6.40239 8.80123 10.143 4.43491 10.143V10.1415C3.14479 10.1433 1.88142 9.76115 0.795654 9.04067C1.41722 9.11812 2.04745 9.06811 2.65031 8.89351C3.25317 8.71892 3.81683 8.42316 4.30906 8.02315C3.81363 8.01345 3.33351 7.84389 2.93585 7.53819C2.53819 7.23248 2.24287 6.80592 2.09119 6.31814C2.44686 6.38905 2.81352 6.37472 3.163 6.27626C2.62576 6.16397 2.14261 5.863 1.7955 5.4244C1.44838 4.98579 1.25867 4.43654 1.25852 3.8698V3.83889C1.58869 4.02915 1.95829 4.13448 2.33612 4.14599C1.83346 3.79894 1.47761 3.26686 1.34101 2.65807C1.20441 2.04927 1.29732 1.40953 1.60084 0.86908C2.19707 1.62744 2.94088 2.24765 3.78398 2.68947C4.62708 3.13128 5.55062 3.3848 6.49464 3.43358C6.37704 2.90753 6.43028 2.35607 6.64611 1.86444C6.86195 1.3728 7.22837 0.968354 7.68876 0.713597C8.14914 0.45884 8.67786 0.367957 9.19319 0.454993C9.70853 0.54203 10.1818 0.80214 10.5399 1.19513C11.0718 1.08667 11.5818 0.885018 12.048 0.59887C11.8708 1.16745 11.4999 1.65007 11.0042 1.9569C11.4746 1.89929 11.9341 1.76905 12.3672 1.57053C12.0484 2.06348 11.6473 2.49379 11.1826 2.84131Z" fill="#003A2B"/>
</svg>
