<svg width="18" height="15" viewBox="0 0 18 15" fill="none" xmlns="http://www.w3.org/2000/svg">
<path d="M15.9419 4.28608C15.9523 4.43759 15.9523 4.58981 15.9523 4.74276C15.9523 9.41515 12.512 14.8027 6.22311 14.8027V14.8006C4.36494 14.8032 2.5453 14.2528 0.981445 13.2151C1.87669 13.3267 2.78442 13.2546 3.65273 13.0032C4.52104 12.7517 5.33289 12.3257 6.04186 11.7496C5.32828 11.7356 4.63676 11.4914 4.064 11.0511C3.49125 10.6107 3.06589 9.99636 2.84742 9.2938C3.3597 9.39593 3.8878 9.3753 4.39117 9.23349C3.61737 9.07175 2.92149 8.63826 2.42154 8.00653C1.92158 7.3748 1.64833 6.58371 1.64811 5.76743V5.72291C2.12367 5.99694 2.65601 6.14865 3.2002 6.16523C2.47621 5.66537 1.96368 4.899 1.76693 4.02215C1.57018 3.14529 1.70401 2.22386 2.14117 1.44544C2.99992 2.53772 4.07125 3.43103 5.28558 4.06737C6.49991 4.70372 7.8301 5.06887 9.18978 5.13913C9.0204 4.38145 9.09707 3.58718 9.40795 2.87907C9.71882 2.17096 10.2466 1.58843 10.9097 1.2215C11.5728 0.854569 12.3343 0.723669 13.0765 0.849028C13.8188 0.974388 14.5004 1.34903 15.0162 1.91505C15.7823 1.75885 16.5169 1.4684 17.1884 1.05626C16.9332 1.87518 16.3989 2.57032 15.6849 3.01224C16.3625 2.92926 17.0243 2.74168 17.6481 2.45575C17.1889 3.16575 16.6112 3.78553 15.9419 4.28608Z" fill="#003A2B"/>
</svg>
