<svg width="1058" height="1302" viewBox="0 0 1058 1302" fill="none" xmlns="http://www.w3.org/2000/svg">
<g filter="url(#filter0_f_1586_96709)">
<path d="M320.433 932.749C189.208 624.953 240.736 815.265 348.602 468.65C342.419 407.741 373.679 346.7 376.771 281.087C379.863 215.474 442.384 237.46 617.237 303.073C792.089 368.685 651.589 393.762 762.547 532.889C873.504 672.016 779.723 878.129 773.539 885.687C767.356 893.244 451.659 1240.55 320.433 932.749Z" fill="url(#paint0_linear_1586_96709)" fill-opacity="0.5"/>
<path d="M320.433 932.749C189.208 624.953 240.736 815.265 348.602 468.65C342.419 407.741 373.679 346.7 376.771 281.087C379.863 215.474 442.384 237.46 617.237 303.073C792.089 368.685 651.589 393.762 762.547 532.889C873.504 672.016 779.723 878.129 773.539 885.687C767.356 893.244 451.659 1240.55 320.433 932.749Z" stroke="black" stroke-width="0.687045"/>
</g>
<defs>
<filter id="filter0_f_1586_96709" x="0.940384" y="0.0170441" width="1056.99" height="1301.27" filterUnits="userSpaceOnUse" color-interpolation-filters="sRGB">
<feFlood flood-opacity="0" result="BackgroundImageFix"/>
<feBlend mode="normal" in="SourceGraphic" in2="BackgroundImageFix" result="shape"/>
<feGaussianBlur stdDeviation="120.576" result="effect1_foregroundBlur_1586_96709"/>
</filter>
<linearGradient id="paint0_linear_1586_96709" x1="529.435" y1="241.514" x2="529.435" y2="1059.79" gradientUnits="userSpaceOnUse">
<stop stop-color="white"/>
<stop offset="1" stop-color="#D9D2BC"/>
</linearGradient>
</defs>
</svg>
